<svg id="Layer_1" data-name="Layer 1" xmlns="http://www.w3.org/2000/svg" xmlns:xlink="http://www.w3.org/1999/xlink" viewBox="0 0 480 480"><defs><style>.cls-1,.cls-14,.cls-17{fill:none;}.cls-2{fill:#d9e021;}.cls-3{clip-path:url(#clip-path);}.cls-4{fill:#bf997d;}.cls-5{clip-path:url(#clip-path-2);}.cls-6{fill:#12111a;}.cls-7{fill:#9598a6;}.cls-8{fill:#515a85;}.cls-9{fill:#8587a9;}.cls-10{fill:#212b28;}.cls-11{fill:#f2f2f2;}.cls-12{fill:#e8cc00;}.cls-13{clip-path:url(#clip-path-3);}.cls-14{stroke:#515a85;stroke-width:3.52px;}.cls-14,.cls-17{stroke-miterlimit:10;}.cls-15{fill:#e0c17a;}.cls-16{clip-path:url(#clip-path-4);}.cls-17{stroke:#c78a2f;stroke-width:1.53px;}</style><clipPath id="clip-path"><circle class="cls-1" cx="240" cy="-260" r="227.9"/></clipPath><clipPath id="clip-path-2"><circle class="cls-1" cx="240" cy="240" r="227.9"/></clipPath><clipPath id="clip-path-3"><path class="cls-1" d="M347.41,214.62q0,34,0,68c0,13.54-6.78,22.39-11.34,34.67-.33.9-.65,1.83-1,2.77-3.26,10-5.82,21.3-10.75,30.75l-1.07,2-16.19,15.7a27,27,0,0,0-3.53,2.72c-5.09,4.76-7.34,12.14-11.46,17.9-6.17,8.62-16,13-25.64,16.12a119.89,119.89,0,0,1-22.07,5.16c-10.85,1.36-21.76.78-32-3.11-6.27-2.37-12.34-6.12-16.27-11.94-3.12-4.63-4.76-10.34-8.19-14.69s-8.19-6.89-12.29-10.36a45.85,45.85,0,0,1-4.28-4.2,111.05,111.05,0,0,1-9.84-13.45L148,332.1c-.1-.16-.2-.3-.29-.46C135.55,312.71,138,289.27,138,267.3V214.62c0-54.35,40.47-98.41,90.4-98.41H257C306.94,116.21,347.41,160.27,347.41,214.62Z"/></clipPath><clipPath id="clip-path-4"><path class="cls-1" d="M422.86,225,55.14,180.78l17.7-12a35.63,35.63,0,0,0,3.26,4.41,3.44,3.44,0,0,0,1.45,1.18,3.25,3.25,0,0,0,2.26-.39,68.11,68.11,0,0,0,15.91-9.74c2.85-2.34,5.73-5,9.34-5.58,2.26-.36,4.58.16,6.87,0s4.83-1.18,5.55-3.39c.47-1.46,0-3.12.6-4.55a6.79,6.79,0,0,1,3.14-3l16.43-10.12c-.61-2.85-1-7.43-1.86-11.69L257.57,43l33.51,36.89a31.2,31.2,0,0,0-4.57,4.55,2.64,2.64,0,0,0-.24,3.85,69.84,69.84,0,0,0,11.84,14.56c2.69,2.52,5.71,5,6.8,8.58.68,2.22.52,4.63,1,6.91s1.85,4.69,4.11,5.09c1.49.25,3-.42,4.51-.07a6.74,6.74,0,0,1,3.42,2.71l12.26,15c3-1.17,8.26-2.33,12.66-4.24Z"/></clipPath></defs><title>Artboard 16</title><circle class="cls-2" cx="241.16" cy="236.77" r="227.9"/><g class="cls-3"><path class="cls-4" d="M240-116.17h0a25.75,25.75,0,0,1,25.75,25.75V27a0,0,0,0,1,0,0H214.25a0,0,0,0,1,0,0V-90.42A25.75,25.75,0,0,1,240-116.17Z" transform="translate(480 -89.17) rotate(180)"/></g><g class="cls-5"><path class="cls-6" d="M364,266.55a109.11,109.11,0,0,1-10.35,40.2c-1.51-2.21-3-4.38-4.37-6.52-1.62,5.23.54,11.26-1.72,16.25a31.48,31.48,0,0,0-4.38-3.51q-.57,6.25-.87,12.55a106.08,106.08,0,0,1-84.93,42.73H227.28c-59,0-106.83-48.64-106.83-108.65V229c0-60,47.83-108.64,106.83-108.64h30.14a106.79,106.79,0,0,1,10.93.56,48,48,0,0,1,2.49,19.76c-.63,9.37-6.12,19.39-12.56,25.08a30,30,0,0,1-5.64,4c4.81,7,14,9.79,21.2,6.2.69,6.09,1.45,12.35,4.15,17.67s7.87,9.53,13.26,8.79c2-.28,4-1.19,5.93-.55,2.93,1,4.07,4.92,6.35,7.2,3.62,3.58,10.5,3.6,11.43,8.93.37,2.17-.55,4.32-1,6.47-1.51,7.82,3.65,15.3,9.27,20.19s12.26,8.85,15.87,15.75c1,2,1.88,4.28,3.64,5.45a8.27,8.27,0,0,0,4.85,1Z"/><path class="cls-7" d="M221.19,345.61h50.7a0,0,0,0,1,0,0v141a25.35,25.35,0,0,1-25.35,25.35h0a25.35,25.35,0,0,1-25.35-25.35v-141a0,0,0,0,1,0,0Z"/><path class="cls-8" d="M221.19,295.88h50.7a0,0,0,0,1,0,0v118a25.35,25.35,0,0,1-25.35,25.35h0a25.35,25.35,0,0,1-25.35-25.35v-118A0,0,0,0,1,221.19,295.88Z"/><path class="cls-9" d="M351.22,294.77h-4.66a19.47,19.47,0,0,1-19.3-19.62v-44a19.47,19.47,0,0,1,19.3-19.62h4.66a18.87,18.87,0,0,1,5,.67,20.49,20.49,0,0,0,2.4,28.25,18.14,18.14,0,0,0-4.8,12.34,18,18,0,0,0,16.69,18v4.32C379.23,284,359.94,303.63,351.22,294.77Z"/><path class="cls-9" d="M138.48,294.77h4.67a19.47,19.47,0,0,0,19.3-19.62v-44a19.46,19.46,0,0,0-19.3-19.62h-4.67a19.46,19.46,0,0,0-19.29,19.62v44C110.47,284,129.77,303.63,138.48,294.77Z"/><path class="cls-7" d="M347.41,214.62q0,34,0,68c0,13.54-6.78,22.39-11.34,34.67-.33.9-.65,1.83-1,2.77-3.26,10-5.82,21.3-10.75,30.75l-1.07,2-16.19,15.7a27,27,0,0,0-3.53,2.72c-5.09,4.76-7.34,12.14-11.46,17.9-6.17,8.62-16,13-25.64,16.12a119.89,119.89,0,0,1-22.07,5.16c-10.85,1.36-21.76.78-32-3.11-6.27-2.37-12.34-6.12-16.27-11.94-3.12-4.63-4.76-10.34-8.19-14.69s-8.19-6.89-12.29-10.36a45.85,45.85,0,0,1-4.28-4.2,111.05,111.05,0,0,1-9.84-13.45L148,332.1c-.1-.16-.2-.3-.29-.46C135.55,312.71,138,289.27,138,267.3V214.62c0-54.35,40.47-98.41,90.4-98.41H257C306.94,116.21,347.41,160.27,347.41,214.62Z"/><path class="cls-10" d="M314.69,213.4a10.08,10.08,0,0,0-2.46,1.22,13.28,13.28,0,0,0-2.11,1.47,14.12,14.12,0,0,0-2.06,2.55,7.95,7.95,0,0,0-1.79,4.75,4.84,4.84,0,0,0,0,1.78,4.26,4.26,0,0,0,1,1.72,7.56,7.56,0,0,0,2.53,2,3.8,3.8,0,0,0,3.13.08,5.75,5.75,0,0,0,1.29-.9l1.9-1.59a12.11,12.11,0,0,0,3.24-3.53,8.76,8.76,0,0,0,.84-3.11,8.25,8.25,0,0,0-.31-3.56A4.24,4.24,0,0,0,314.69,213.4Z"/><path class="cls-10" d="M328.8,219.57a6.68,6.68,0,0,0-1.7.62,8.78,8.78,0,0,0-1.47.82,9.17,9.17,0,0,0-1.53,1.52,6.8,6.8,0,0,0-1,1.35,6.89,6.89,0,0,0-.52,1.63,3.26,3.26,0,0,0-.13,1.16,2.86,2.86,0,0,0,.55,1.2,4.91,4.91,0,0,0,1.52,1.49,2.46,2.46,0,0,0,2,.27,4,4,0,0,0,.91-.49l1.35-.91a8,8,0,0,0,2.36-2.08,5.77,5.77,0,0,0,.76-2,5.48,5.48,0,0,0,0-2.35A2.8,2.8,0,0,0,328.8,219.57Z"/><ellipse class="cls-10" cx="241.66" cy="345.51" rx="37.41" ry="38.05"/><path class="cls-7" d="M206.28,326.61c-2.67-2.88-5.5-2.78-8.27-2.65a3.65,3.65,0,0,0-3.16,1.4c-.65.83-1.27,2.16-2,2.53-1.76,1-3.77-4.49-5.21-.44a35.26,35.26,0,0,0-1.13,7.46,107.09,107.09,0,0,0-.58,15.55c.56,9.27,3.23,13.94,5.63,16.05,4.12,3.6,8.39,3.69,12.6,2.42,2.41-.73,5.1-2.55,6.48-10.22,1.34-7.44,2.48-13,.77-20.49C210.12,332.44,208.19,328.65,206.28,326.61Z"/><path class="cls-7" d="M288.72,329.45c-2.68-2.88-5.5-2.78-8.28-2.65a3.67,3.67,0,0,0-3.15,1.4c-.66.83-1.28,2.16-2,2.53-1.77,1-3.77-4.48-5.22-.44a36.14,36.14,0,0,0-1.13,7.47,106.9,106.9,0,0,0-.57,15.54c.55,9.27,3.22,13.94,5.62,16.05,4.12,3.6,8.4,3.69,12.6,2.42,2.41-.73,5.11-2.54,6.49-10.22,1.33-7.44,2.48-13,.76-20.49C292.55,335.28,290.63,331.5,288.72,329.45Z"/><path class="cls-7" d="M200.1,330.32c2.78-6,7.68-9.69,12.38-13.09,7.79-5.64,15.81-11.38,24.61-13.09,9.67-1.86,19.58,1.35,28.41,6.85,7.75,4.83,17.64,11.08,22.45,19.17-2.9,1.84-9.17,1.38-12.61,1.38A54.21,54.21,0,0,1,262.1,330c-3-.75-5.86-1.78-8.86-2.33-10.19-1.86-20.57,2.06-30.92,1.62a89.11,89.11,0,0,0-13,.5C207.64,330,201.05,328.27,200.1,330.32Z"/><path class="cls-8" d="M292.19,291.07l-1.33.06c-18.58.95-34.4-13.6-35.33-32.51l-.2-4h68.8l0,.56C325.08,274,310.78,290.13,292.19,291.07Z"/><path class="cls-11" d="M291.77,279.34l-1.1.05a27.93,27.93,0,0,1-29.1-26.78l-.17-3.33h56.67l0,.47A28,28,0,0,1,291.77,279.34Z"/><path class="cls-12" d="M232.23,329.17v10.92a3.84,3.84,0,0,1-3.81,3.88h-5.91a3.84,3.84,0,0,1-3.81-3.88V329.23c1.18,0,2.37,0,3.62.06a57.49,57.49,0,0,0,9.88-.58A3.55,3.55,0,0,1,232.23,329.17Z"/><path class="cls-12" d="M246.9,327.75v10.92a3.84,3.84,0,0,1-3.81,3.88h-5.91a3.84,3.84,0,0,1-3.81-3.88V328.56a110.81,110.81,0,0,1,13.48-1.39A3.68,3.68,0,0,1,246.9,327.75Z"/><path class="cls-12" d="M261.57,329.86V338a3.84,3.84,0,0,1-3.81,3.88h-5.91A3.84,3.84,0,0,1,248,338V327.17a33.66,33.66,0,0,1,5.2.5C256.06,328.18,258.79,329.13,261.57,329.86Z"/><g class="cls-13"><path class="cls-8" d="M191.12,388.27a15.82,15.82,0,0,1-10.75,4.5,16.05,16.05,0,0,1-11.26-4.95c-4-6-7.45-13-10.81-19.87q-7.41-15.15-14.81-30.33c-.11-.23-.23-.45-.33-.68-3.16-11.21-.39-24.33,7.21-31.34,8.82-8.13,20.79-5,26.73,7.12l19.21,39C202.26,363.75,199.94,380.13,191.12,388.27Z"/><path class="cls-8" d="M290.79,385.43a15.8,15.8,0,0,0,10.75,4.5A16.07,16.07,0,0,0,312.8,385c4-6,7.44-13,10.8-19.87l14.82-30.33c.11-.23.22-.46.32-.69,3.17-11.2.39-24.32-7.2-31.33-8.82-8.13-20.79-4.95-26.73,7.12l-19.22,39C279.64,360.9,282,377.28,290.79,385.43Z"/></g><path class="cls-14" d="M272.76,384.9a57.49,57.49,0,0,1-19.29,10.82"/><path class="cls-10" d="M290,256.07c-1.47-.15-2.81-2.48-3-5.21a7.47,7.47,0,0,1,0-1.58h4.88a8.6,8.6,0,0,1,.38,2.1C292.5,254.12,291.46,256.21,290,256.07Z"/><path class="cls-8" d="M182.51,291.07l-1.33.06c-18.58.95-34.4-13.6-35.33-32.51l-.2-4h68.8l0,.56C215.4,274,201.1,290.13,182.51,291.07Z"/><path class="cls-11" d="M182.09,279.34l-1.11.05a27.92,27.92,0,0,1-29.09-26.78l-.17-3.33h56.67l0,.47A28,28,0,0,1,182.09,279.34Z"/><path class="cls-10" d="M180.32,256.07c-1.47-.15-2.81-2.48-3-5.21a7.47,7.47,0,0,1,0-1.58h4.88a9.67,9.67,0,0,1,.38,2.1C182.82,254.12,181.78,256.21,180.32,256.07Z"/><path class="cls-6" d="M191.5,187.44l-52.67-12-16.79,76h0c29.09,6.65,58-11.95,64.51-41.53Z"/><path class="cls-6" d="M196.68,147.06h36.85a16.39,16.39,0,0,1,16.39,16.39v11.68a69,69,0,0,1-69,69h-.58a0,0,0,0,1,0,0V163.45A16.39,16.39,0,0,1,196.68,147.06Z" transform="translate(410.72 -19.49) rotate(90)"/><path class="cls-15" d="M422.86,225,55.14,180.78l17.7-12a35.63,35.63,0,0,0,3.26,4.41,3.44,3.44,0,0,0,1.45,1.18,3.25,3.25,0,0,0,2.26-.39,68.11,68.11,0,0,0,15.91-9.74c2.85-2.34,5.73-5,9.34-5.58,2.26-.36,4.58.16,6.87,0s4.83-1.18,5.55-3.39c.47-1.46,0-3.12.6-4.55a6.79,6.79,0,0,1,3.14-3l16.43-10.12c-.61-2.85-1-7.43-1.86-11.69L257.57,43l33.51,36.89a31.2,31.2,0,0,0-4.57,4.55,2.64,2.64,0,0,0-.24,3.85,69.84,69.84,0,0,0,11.84,14.56c2.69,2.52,5.71,5,6.8,8.58.68,2.22.52,4.63,1,6.91s1.85,4.69,4.11,5.09c1.49.25,3-.42,4.51-.07a6.74,6.74,0,0,1,3.42,2.71l12.26,15c3-1.17,8.26-2.33,12.66-4.24Z"/><g class="cls-16"><line class="cls-17" x1="266.99" y1="32.87" x2="100.85" y2="200.6"/><line class="cls-17" x1="264.98" y1="31.63" x2="132.4" y2="221.25"/><line class="cls-17" x1="262.77" y1="30.68" x2="167.11" y2="237.38"/><line class="cls-17" x1="260.44" y1="30.05" x2="204.12" y2="248.59"/><line class="cls-17" x1="258.03" y1="29.74" x2="242.48" y2="254.6"/><line class="cls-17" x1="255.61" y1="29.77" x2="281.22" y2="255.24"/><line class="cls-17" x1="253.24" y1="30.13" x2="319.36" y2="250.51"/><line class="cls-17" x1="250.98" y1="30.82" x2="355.94" y2="240.52"/></g><ellipse class="cls-10" cx="246.89" cy="300.4" rx="4.79" ry="13.36" transform="translate(-70.53 75.81) rotate(-15.3)"/><ellipse class="cls-10" cx="220.34" cy="300.4" rx="13.36" ry="4.79" transform="translate(-127.56 433.65) rotate(-74.7)"/><path class="cls-10" d="M310.46,365.76c0,1.07,0,2.14-.1,3.2-1.61-24.6-21.75-44-46.35-44l-25.5-2.84L213,324.91a45.91,45.91,0,0,0-32.85,13.84A47.39,47.39,0,0,0,166.66,369c-.07-1.06-.11-2.13-.11-3.2a47.47,47.47,0,0,1,13.61-33.4A45.87,45.87,0,0,1,213,318.52h51C289.67,318.52,310.46,339.67,310.46,365.76Z"/><path class="cls-7" d="M245.75,210c-1.67,6.2,2.18,13.39,8.21,15.32.63.2,1.4.48,1.51,1.14.14.87-1,1.36-1.83,1.43-6.71.52-12.42-4.67-17-9.67a20.17,20.17,0,0,0,2.42,9.59c-2.15,1-4.58-.42-6.48-1.84a96.86,96.86,0,0,1-11.92-10.53A32.86,32.86,0,0,0,225.44,228a12.39,12.39,0,0,0,4.42,4.5c2.32,1.21,5,1.11,7.64,1l21.65-1c2.59-.12,5.54-.43,7.09-2.55,3.45-4.75-1.64-8.37-5.24-9.84A43.3,43.3,0,0,1,245.75,210Z"/></g></svg>