<svg id="Layer_1" data-name="Layer 1" xmlns="http://www.w3.org/2000/svg" xmlns:xlink="http://www.w3.org/1999/xlink" viewBox="0 0 480 480"><defs><style>.cls-1{fill:none;}.cls-2{fill:#d9e021;}.cls-3{clip-path:url(#clip-path);}.cls-4{fill:#b56b39;}.cls-5{fill:#88502b;}.cls-6{fill:#9daebc;}.cls-7{fill:#d8dfe4;}.cls-8{fill:#030a17;}.cls-9{fill:#8ec762;}.cls-10{fill:#270000;}.cls-11{fill:#512619;}.cls-12{fill:#e7461b;}.cls-13{fill:#c2b4b4;}.cls-14{fill:#241e12;}.cls-15{fill:#663c20;}</style><clipPath id="clip-path"><circle class="cls-1" cx="240" cy="240" r="227.9"/></clipPath></defs><title>Artboard 5</title><circle class="cls-2" cx="241.16" cy="236.77" r="227.9"/><g class="cls-3"><path class="cls-4" d="M210.66,361.72h59.06a0,0,0,0,1,0,0V496.36a29.53,29.53,0,0,1-29.53,29.53h0a29.53,29.53,0,0,1-29.53-29.53V361.72A0,0,0,0,1,210.66,361.72Z"/><path class="cls-5" d="M210.66,304.74h59.06a0,0,0,0,1,0,0V439.39a29.53,29.53,0,0,1-29.53,29.53h0a29.53,29.53,0,0,1-29.53-29.53V304.74A0,0,0,0,1,210.66,304.74Z"/><path class="cls-4" d="M390.66,255.5A18.35,18.35,0,0,0,361.4,275h-.63a22.47,22.47,0,0,1-22.47-22.47V202.12a22.48,22.48,0,0,1,22.47-22.48h5.45a22.43,22.43,0,0,1,16.75,7.5,18.34,18.34,0,0,0,5.72,32.62v32.75A8.45,8.45,0,0,1,390.66,255.5Z"/><path class="cls-4" d="M120.42,275H115c-11.46,11.46-33.93-11-22.47-22.48V202.12A22.48,22.48,0,0,1,115,179.64h5.44a22.48,22.48,0,0,1,22.48,22.48V252.5A22.47,22.47,0,0,1,120.42,275Z"/><path class="cls-4" d="M351.15,252.11c-.63,9.34,2.19,19.53-2.57,27.58l-.2.3a35.9,35.9,0,0,1-2.53,3.48,20.77,20.77,0,0,0-3.26,5.19c-1.08,2.79-1,5.91-1.88,8.76a25.7,25.7,0,0,1-3.79,6.8q-3.5,5-7,10-9.52,13.59-19,27.18l-1.17,1.68,0,0c-3.92,5.62-8.27,12.86-14.36,16.4-6.25,3.63-11.3,6-17.07,11-6.67,5.88-16.18,6.87-25,7.6-3.87.32-7.74.63-11.6,1l-6.33.52c-7.75.64-15.83,1.23-23-1.71-9.85-4-17-12.24-24.08-19.79a52,52,0,0,0-15.64-11.22c-1.08-.53-2.17-1-3.29-1.51s-2.28-1-3.46-1.43c-6-2.37-12.33-6.15-13.64-12.44-.39-1.85-.33-3.86-1.31-5.47-1.53-2.52-4.88-3-7.57-4.25-4.2-1.91-7.14-5.95-8.74-10.27-2.26-6.18-3.1-12.48-5.26-18.41-.72-2-.19-4.2-.56-6.27a10.11,10.11,0,0,0-.53-1.78c-.49-1.21-1.15-2.37-1.69-3.57-.14-.3-.27-.61-.39-.92-3.45-8.89.27-19,1.37-28.55,2.18-18.8-5.72-36.77-6.31-55.4-.5-15.72.35-32,1.13-47.73,1.55-31.1,8.87-60.66,32.35-82.63,24.38-22.82,53.84-28.12,85.92-28.12q5.24,0,10.37.2c1.44.06,2.9.14,4.34.22,4.05.26,8.05.63,12,1.15a63.74,63.74,0,0,1,14,1.55c.07,11.5,21.43,17.94,29.6,16-.93,11.77,10.59,22.87,22.31,21.51a28.27,28.27,0,0,0,20.8,33.6c.59,2.15,1.24,4.66,1.61,6.38.15.7.29,1.4.44,2.11,3.49,16.86,3.55,34.32,3.57,51.47,0,16.54,2.77,34.62-.88,50.89C356.52,232.92,351.81,242.14,351.15,252.11Z"/><rect class="cls-5" x="202.53" y="167.9" width="75.32" height="32.56"/><path class="cls-6" d="M257.87,207.81l-.38-7.13a33,33,0,0,1,13.65-28.06c11.33-8.33,21.75-6.47,34.68-4.22a10.43,10.43,0,0,1,4,1.27,13.39,13.39,0,0,1,2.9,3.1c3.2,4,7.62,6.83,11.16,10.54,5.53,5.79,5.8,13.52,6.2,21.1,1,18.43-14.09,34.12-33.64,35l-1.4.07C275.49,240.44,258.84,226.24,257.87,207.81Z"/><path class="cls-7" d="M263.62,207l-.31-6a27.72,27.72,0,0,1,11.46-23.56c9.52-7,18.26-5.43,29.12-3.54a8.82,8.82,0,0,1,3.36,1.06,11.4,11.4,0,0,1,2.43,2.61c2.69,3.35,6.4,5.74,9.37,8.85,4.65,4.86,4.87,11.35,5.21,17.72.82,15.47-11.83,28.65-28.25,29.42l-1.17.06C278.42,234.44,264.44,222.52,263.62,207Z"/><path class="cls-6" d="M150.94,207.93a30,30,0,0,1,4.59-20.61c1.71-2.68,4.09-5,5.16-8a22.08,22.08,0,0,1,.86-2.4,9.09,9.09,0,0,1,1.36-1.85c19.41-21.33,62.52-7.25,64.08,22l.38,7.23c1,18.7-16.56,34.61-36.4,35.55l-1.42.06C170.9,240.85,153.41,225.58,150.94,207.93Z"/><path class="cls-7" d="M156.57,207.11a25.55,25.55,0,0,1,3.91-17.56c1.45-2.29,3.49-4.25,4.4-6.81a16,16,0,0,1,.73-2,7.48,7.48,0,0,1,1.16-1.58c16.54-18.18,53.28-6.18,54.61,18.79l.32,6.16c.85,15.94-14.11,29.5-31,30.3l-1.2,0C173.58,235.17,158.67,222.16,156.57,207.11Z"/><path class="cls-8" d="M183.3,201.72v-.91c0-2.34,1.37-4.29,3.08-4.35h.12c1.71-.06,3.1,1.79,3.11,4.13v.91c0,2.34-1.37,4.29-3.08,4.35h-.12C184.7,205.91,183.31,204.06,183.3,201.72Z"/><path class="cls-8" d="M292.64,202.07v-.83c0-2.15,1.26-3.94,2.83-4h.11c1.56-.05,2.84,1.64,2.85,3.79v.84c0,2.15-1.26,3.93-2.83,4h-.11C293.92,205.92,292.65,204.22,292.64,202.07Z"/><path class="cls-7" d="M302.23,362.71l-10.15,20.13c-.9-3.19-1.88-6.34-1.81-9.71.05-1.94.5-3.67.22-5.66a52.93,52.93,0,0,0-3.35-6.91,49.4,49.4,0,0,0-3.47,23.15,28.75,28.75,0,0,0-5.26-7.67c-2.09,3.55-2.18,7.88-2.21,12q-.12,11.83-.21,23.68a25.43,25.43,0,0,0-18-12c-1.57,14.15,2.62,29-2.32,42.4-1.88,5.07-5,9.68-6.17,14.95-.57,2.53-.26,5.72,1.48,7.34l-1.91,3.78c-2.58,5.1-6.12,7.09-9.45,6a61.29,61.29,0,0,0-4.29-14.56c-1.35-3.29-2.42-7.91.66-9.68a65.22,65.22,0,0,1-10.93-25.56c-1-5.11-1.77-15.63-8.35-15.35-2.16.09-6.69,2.13-10.37,4.72L200.6,402.4c0-1.81,0-3.6,0-5.41,0-4.12-.13-8.45-2.22-12a28.31,28.31,0,0,0-3.91,5.15l-1.15-2.27a49.24,49.24,0,0,0-3.66-18.36c-.07,0-1.89,3.43-2.82,5.5l-6.2-12.3C180.6,232.19,302.23,232.19,302.23,362.71Z"/><rect class="cls-9" x="224.03" y="297.05" width="6.86" height="27.76" rx="3.19" transform="translate(454.92 621.85) rotate(180)"/><rect class="cls-9" x="218.59" y="301.99" width="6.86" height="44.85" rx="3.19" transform="translate(444.03 648.84) rotate(180)"/><path class="cls-10" d="M263.24,306.87v.41a9.72,9.72,0,0,1-5.5,8.75,9.61,9.61,0,0,1-4.22,1H227.68a9.71,9.71,0,0,1-9.72-9.71v-.41a9.72,9.72,0,0,1,9.72-9.72h25.84A9.72,9.72,0,0,1,263.24,306.87Z"/><path class="cls-11" d="M261,213.72v36h-1.7a11.85,11.85,0,0,0-11.85,11.86V270a11.83,11.83,0,0,0,1.37,5.54,16.68,16.68,0,0,1-5.53.94H239.7a16.68,16.68,0,0,1-9.27-2.81,5.55,5.55,0,0,0,2.23-4.45v-8.43a5.56,5.56,0,0,0-5.56-5.56h-3.93a5.06,5.06,0,0,0-1.17.13V213.72c0-10.44,7.93-18.91,17.7-18.91C239.7,194.81,261,194.76,261,213.72Z"/><rect class="cls-12" x="153.63" y="76.72" width="5.33" height="64.35" rx="2.66" transform="translate(88.58 -69.16) rotate(34.31)"/><rect class="cls-12" x="161.77" y="80.79" width="5.33" height="64.35" rx="2.66" transform="translate(92.29 -73.03) rotate(34.31)"/><rect class="cls-12" x="173.17" y="80.79" width="5.33" height="64.35" rx="2.66" transform="translate(94.27 -79.46) rotate(34.31)"/><path class="cls-13" d="M137.7,121.43h0c.86-1.66,2.19-2.8,3-2.55l31.13,9.85c.78.24.71,1.78-.16,3.43h0c-.86,1.66-2.19,2.8-3,2.55l-31.14-9.85C136.76,124.61,136.83,123.08,137.7,121.43Z"/><path class="cls-13" d="M159.67,89.68h0c.86-1.65,2.19-2.79,3-2.54L193.78,97c.77.24.7,1.78-.16,3.43h0c-.87,1.66-2.2,2.8-3,2.55l-31.14-9.85C158.73,92.87,158.81,91.34,159.67,89.68Z"/><path class="cls-4" d="M129.1,158.13H338.26v32.56c0-9.28-209.16-9.28-209.16,0Z"/><rect class="cls-14" x="263.39" y="159.76" width="59.41" height="8.14" rx="4.07"/><path class="cls-5" d="M108.33,249.23h0c-4.1,0-7.41-1.74-7.38-3.85l.56-38.64c0-2.12,3.39-3.83,7.49-3.82h0c4.1,0,7.41,1.74,7.38,3.86l-.56,38.64C115.79,247.53,112.43,249.24,108.33,249.23Z"/><path class="cls-5" d="M357.38,249.23h0c-4.11,0-7.41-1.74-7.38-3.85l.56-38.64c0-2.12,3.38-3.83,7.49-3.82h0c4.1,0,7.4,1.74,7.37,3.86l-.56,38.64C364.83,247.53,361.48,249.24,357.38,249.23Z"/><path class="cls-5" d="M182.41,286.2v46.62a15,15,0,0,1-9.83,14c-2.15-1.05-4.39-2-6.74-2.94-6-2.37-12.33-6.16-13.65-12.44-.39-1.85-.33-3.86-1.31-5.48-1.53-2.51-4.89-3-7.57-4.24-4.2-1.91-7.14-5.95-8.73-10.28-2.28-6.17-3.11-12.47-5.27-18.4-.72-2-.19-4.2-.56-6.27-.35-1.9-1.43-3.58-2.22-5.34q-.21-.47-.39-.93A14.93,14.93,0,0,1,140,271.26h27.49A14.94,14.94,0,0,1,182.41,286.2Z"/><path class="cls-15" d="M174.67,294.07v40.72a13,13,0,0,1-5.38,10.56c-1.13-.49-2.28-1-3.45-1.43-6-2.37-12.33-6.16-13.65-12.44-.39-1.85-.33-3.86-1.31-5.48-1.53-2.51-4.89-3-7.57-4.24-4.2-1.91-7.14-5.95-8.73-10.28-2.28-6.17-3.11-12.47-5.27-18.4-.72-2-.19-4.2-.56-6.27a10.11,10.11,0,0,0-.53-1.78,13,13,0,0,1,9.39-4h24A13,13,0,0,1,174.67,294.07Z"/><path class="cls-5" d="M348.38,280c-1.83,3-4.54,5.42-5.79,8.67-1.08,2.79-1,5.91-1.88,8.77a25.59,25.59,0,0,1-3.79,6.78l-7,10-20.21,28.87,0,0a13.33,13.33,0,0,1-3.2-8.66V292.76a13.36,13.36,0,0,1,13.36-13.36h24.56A13.14,13.14,0,0,1,348.38,280Z"/><path class="cls-15" d="M345.85,283.47a20.59,20.59,0,0,0-3.26,5.19c-1.08,2.79-1,5.91-1.88,8.77a25.59,25.59,0,0,1-3.79,6.78l-7,10q-9.51,13.59-19,27.2a13.29,13.29,0,0,1-.32-2.9V296.82A13.36,13.36,0,0,1,324,283.47Z"/><path class="cls-9" d="M251.14,314.52a5.46,5.46,0,0,1-.9,3H227.66a9.27,9.27,0,0,1-5.85-2.09,10.51,10.51,0,0,1-1.42-1.41,5.39,5.39,0,0,1,1.4-3.23,4.73,4.73,0,0,1,3.45-1.52h21A5.06,5.06,0,0,1,251.14,314.52Z"/></g></svg>