<svg id="Layer_1" data-name="Layer 1" xmlns="http://www.w3.org/2000/svg" xmlns:xlink="http://www.w3.org/1999/xlink" viewBox="0 0 480 480"><defs><style>.cls-1{fill:none;}.cls-2{fill:#d9e021;}.cls-3{clip-path:url(#clip-path);}.cls-4{fill:#b56b39;}.cls-5{clip-path:url(#clip-path-2);}.cls-6{fill:#352b28;}.cls-7{fill:#a8d371;}.cls-8{fill:#76944f;}.cls-9{fill:#71993d;}.cls-10{fill:#594c53;}.cls-11{fill:#f2f2f2;}.cls-12{fill:#f5d952;}.cls-13{fill:#212b28;}.cls-14{fill:#080a08;}.cls-15{fill:#fc5317;}.cls-16{fill:#7a683a;}.cls-17{fill:#e8cc00;}</style><clipPath id="clip-path"><circle class="cls-1" cx="240" cy="-260" r="227.9"/></clipPath><clipPath id="clip-path-2"><circle class="cls-1" cx="240" cy="240" r="227.9"/></clipPath></defs><title>Artboard 18</title><circle class="cls-2" cx="241.16" cy="236.77" r="227.9"/><g class="cls-3"><path class="cls-4" d="M253.11-133h0a24.5,24.5,0,0,1,24.5,24.5V3.2a0,0,0,0,1,0,0h-49a0,0,0,0,1,0,0V-108.48A24.5,24.5,0,0,1,253.11-133Z" transform="translate(506.22 -129.77) rotate(180)"/></g><g class="cls-5"><path class="cls-6" d="M378.28,261.31c-3.22,46-13.79,113.33-12.32,159.63A234.37,234.37,0,0,0,368,445.63a271.89,271.89,0,0,1-15.23-37.78q-2.15,15.19-4.29,30.39c-4.42-6.23-6.13-13.91-9.32-20.84s-8.9-13.67-16.5-14.23q-1.68,13.09-2.9,26.26c-6.2-12.28-19.34-20-32.84-22.53s-26.59-.34-39.91.54a95.26,95.26,0,0,1-19.81-.42,142.45,142.45,0,0,1-46.41-15.16c-28.58-15.15-51.82-61.66-65-91.19a141.41,141.41,0,0,1-12.26-52l-2.29-55.62a134.56,134.56,0,0,1,8.77-54,12.11,12.11,0,0,0,3.66,5.73l13.53-21.37c2.78-4.38,6.5-9.28,11.67-9.08,4.63.18,8.18,4.53,12.77,5.16l-8.77-24a96.48,96.48,0,0,0,11.49,12.08,59.46,59.46,0,0,0-4.14-19.34,86.53,86.53,0,0,0,13.93,18.31,235.52,235.52,0,0,1-3.64-29.94,132.87,132.87,0,0,1,73-21.43c76.16,0,140.45,61.75,143.58,137.92C378,215.82,379.87,238.61,378.28,261.31Z"/><path class="cls-7" d="M210.68,339.39h54.54a0,0,0,0,1,0,0V463.73A27.27,27.27,0,0,1,237.95,491h0a27.27,27.27,0,0,1-27.27-27.27V339.39A0,0,0,0,1,210.68,339.39Z"/><path class="cls-8" d="M210.68,286.77h54.54a0,0,0,0,1,0,0V411.12a27.27,27.27,0,0,1-27.27,27.27h0a27.27,27.27,0,0,1-27.27-27.27V286.77a0,0,0,0,1,0,0Z"/><path class="cls-9" d="M149.71,272.86c.08-.25.17-.49.25-.74a111.28,111.28,0,0,0-.79-13.4c0-.18,0-.36-.08-.53-2.05-.07-13.2-13.67-15.25-13.48-5,.72-3.84,9-5.74,16.69a31.05,31.05,0,0,0-3.48,19.34c.53,3.24,1.82,6.65,4.48,8.67,3.45,2.63,7.86,1.92,11.24-.41A105.14,105.14,0,0,0,149.71,272.86Z"/><path class="cls-9" d="M338,272.86c-.09-.25-.18-.49-.26-.74a113.37,113.37,0,0,1,.79-13.4c0-.18.05-.36.08-.53,2.05-.07,13.2-13.67,15.25-13.48,5,.72,3.84,9,5.75,16.69a31.11,31.11,0,0,1,3.47,19.34c-.53,3.24-1.81,6.65-4.47,8.67-3.46,2.63-7.87,1.92-11.25-.41A105.09,105.09,0,0,1,338,272.86Z"/><path class="cls-7" d="M348.85,281.47a41.87,41.87,0,0,1-1.47,11,80.7,80.7,0,0,1-4.9,12.83c-1.72,3.82-3.55,7.72-5.12,12-.34.93-.67,1.89-1,2.87-3.31,10.37-23.08,24.77-27.09,33.88l-.87,1.88-13.18,15.14a22.8,22.8,0,0,0-2.88,2.62c-4.14,4.6-6,11.71-9.33,17.26-5,8.31-13,12.52-20.88,15.55a84.88,84.88,0,0,1-18,5c-8.82,1.32-17.71.75-26.06-3A28,28,0,0,1,204.89,397c-2.54-4.46-3.88-10-6.67-14.17s-6.66-6.64-10-10a40,40,0,0,1-3.49-4,108.38,108.38,0,0,1-8-13c-3.66-6.59-25.31-16.11-29.87-23.19-.1-.17-.2-.32-.29-.48-12.32-19.57-9.88-43.81-9.88-66.51,0-13.82-6.44-30-6.59-44.16-.25-23.3,6.52-41.82,17-62.5l21.22-41.9c2.24-4.41,4.55-8.93,8.23-12.23,6.55-5.87,16.1-6.77,24.9-6.67,43.47.54,85.66,20.44,115.63,51.6,15,15.61,26.07,33.62,34.3,53.58q1.08,2.64,1.92,5.42C359.79,230.39,348.86,259.74,348.85,281.47Z"/><rect class="cls-10" x="144.24" y="215.77" width="78.67" height="72.48" rx="35.54" transform="translate(480.89 158.1) rotate(108.54)"/><rect class="cls-11" x="146.5" y="207.51" width="78.67" height="72.48" rx="35.54" transform="translate(476.02 145.06) rotate(108.54)"/><path class="cls-10" d="M266.49,270.06l-2.75-6.89c-7.11-17.82,1.15-38.2,18.46-45.52l1.24-.52c17.31-7.32,37.1,1.19,44.21,19L330.4,243c7.12,17.82-1.15,38.2-18.46,45.52l-1.23.53C293.4,296.39,273.6,287.88,266.49,270.06Z"/><path class="cls-11" d="M265.74,261,263,254.15c-7.11-17.82,1.15-38.19,18.46-45.52l1.24-.52c17.3-7.32,37.1,1.19,44.21,19l2.75,6.89c7.11,17.82-1.15,38.2-18.46,45.52l-1.24.53C292.65,287.37,272.85,278.86,265.74,261Z"/><ellipse class="cls-7" cx="330.94" cy="254.45" rx="13.34" ry="8.81" transform="translate(45.19 558.77) rotate(-84.36)"/><ellipse class="cls-6" cx="294.11" cy="243.93" rx="2.81" ry="5.27" transform="translate(-30.37 42.15) rotate(-7.8)"/><ellipse class="cls-6" cx="184.38" cy="243.93" rx="5.27" ry="2.81" transform="translate(-82.31 393.51) rotate(-82.2)"/><ellipse class="cls-7" cx="150.01" cy="232.18" rx="12.48" ry="9.69" transform="translate(-124.61 263.66) rotate(-63.67)"/><path class="cls-7" d="M314.67,214.38a37.14,37.14,0,0,0-7.63-3.72c-7.48-2.35-15.56.13-22.8,3.14s-14.53,6.63-22.36,6.64a70.64,70.64,0,0,1,2.46-12.21,6.46,6.46,0,0,1,2.11-3.66,6.73,6.73,0,0,1,3-.9c9.17-1.25,18.42-2.5,27.66-1.9s18.58,3.19,25.87,8.9c3.18,2.49,10.8,9,8,12.8C325.32,221.37,319.93,217.45,314.67,214.38Z"/><path class="cls-7" d="M218.22,227c-2.54.31-4.79-1.7-6.19-3.84s-2.42-4.63-4.4-6.26c-3.7-3.06-9.13-2-13.93-2.21-5.55-.23-10.9-2.33-16.45-2.37-8.84-.05-16.76,5.07-24.09,10l-.29-10.05a6.53,6.53,0,0,1,.45-3.17,6,6,0,0,1,2.08-2.05c18.49-12.79,45.32-11.91,62.93,2.06C221.69,211.8,224.34,226.26,218.22,227Z"/><path class="cls-6" d="M354.92,191.19q-.9-3-2.06-5.81C344.05,164,332.21,144.72,316.13,128,284,94.64,238.87,73.33,192.31,72.76c-8.06-.1-16.69.62-23.41,4.75,7.64,8.23,5.15,21.52.89,31.09-4.49,10.1-12.43,22.48-23.39,26.43a8,8,0,0,1-9.46-2.75l-2.82,5.58c-11.21,22.15-18.46,42-18.19,66.93a87.26,87.26,0,0,0,1.88,15.6c33.56-23.47,79.82-72.43,109.9-109.86C258.51,148.85,306.26,199.25,340,222a48.17,48.17,0,0,0,15.33,7C357.28,215.71,358.31,202.47,354.92,191.19Z"/><circle class="cls-12" cx="230.43" cy="163.78" r="7.89"/><circle class="cls-12" cx="230.43" cy="131.46" r="7.89"/><circle class="cls-12" cx="230.43" cy="103.65" r="7.89"/><circle class="cls-12" cx="230.43" cy="75.84" r="7.89"/><rect class="cls-12" x="227.05" y="55.17" width="6.76" height="111.99"/><path class="cls-13" d="M260.86,246.21v41.52a19.29,19.29,0,0,1-.69,5.12c-.12-1.59-6.29,7.38-3.36,6.66a19.22,19.22,0,0,1-30.3.11c1.29-2.43-3.56-9.46-3.79-8.34a18.18,18.18,0,0,1-.34-3.55V246.21a19.24,19.24,0,0,1,38.48,0Z"/><path class="cls-9" d="M260.86,246.21v41.52a19.29,19.29,0,0,1-.69,5.12,14.41,14.41,0,0,0-1.38-5c-2.3-4.87-6.61-7.68-9.61-6.26s-3.57,6.52-1.26,11.41c2.13,4.5,6,7.23,8.89,6.51a19.22,19.22,0,0,1-30.3.11c2.82.2,6.26-2.45,8.23-6.62,2.31-4.89,1.74-10-1.26-11.41s-7.31,1.39-9.61,6.26a15.38,15.38,0,0,0-1.15,3.43,18.18,18.18,0,0,1-.34-3.55V246.21a19.24,19.24,0,0,1,38.48,0Z"/><path class="cls-14" d="M272.27,345.89a20.12,20.12,0,0,1-.91,4.77,11.66,11.66,0,0,1-1.84,3.55c-5.09,6.58-16.48,4.49-30.12,4.16-11.73-.29-22.17.78-27.49-3.22a8.68,8.68,0,0,1-2.39-2.78c-1.06-2-1.51-4.59-1.22-8.07,1.32-16.29,16.72-29.13,34.38-28.7S273.6,329.6,272.27,345.89Z"/><path class="cls-15" d="M269.52,354.21c-5.09,6.58-16.48,4.49-30.12,4.16-11.73-.29-22.17.78-27.49-3.22,5.77-10.32,17.65-17.32,30.77-17C254.81,338.45,264.84,344.92,269.52,354.21Z"/><path class="cls-15" d="M230,350.41h1.49a3.87,3.87,0,0,1,3.87,3.87v49a0,0,0,0,1,0,0h-9.22a0,0,0,0,1,0,0v-49A3.87,3.87,0,0,1,230,350.41Z" transform="translate(461.44 753.72) rotate(-180)"/><path class="cls-15" d="M222.46,347.4H224a3.87,3.87,0,0,1,3.87,3.87V383a0,0,0,0,1,0,0h-9.22a0,0,0,0,1,0,0V351.27a3.87,3.87,0,0,1,3.87-3.87Z" transform="translate(446.41 730.42) rotate(-180)"/><path class="cls-16" d="M253,317.82a41,41,0,0,1-14-2.54c-.17-.73.83-1.12,1.58-1.16C243.85,313.91,252.6,313.28,253,317.82Z"/><path class="cls-17" d="M241.53,316.33l.05,8.51a3,3,0,0,0,3,3l4.68,0a3,3,0,0,0,3-3l-.05-7.88a88.22,88.22,0,0,0-10.69-1A3.4,3.4,0,0,0,241.53,316.33Z"/><path class="cls-16" d="M232.7,318.29a41.13,41.13,0,0,1-13.54,4.25c-.48-.57.22-1.38.86-1.77C222.79,319.08,230.25,314.45,232.7,318.29Z"/><path class="cls-17" d="M231.59,318.16l1.77,8.33a3,3,0,0,1-2.33,3.58l-4.58,1a3,3,0,0,1-3.58-2.33l-1.64-7.7a86.18,86.18,0,0,1,10.23-3.28A3.06,3.06,0,0,1,231.59,318.16Z"/><path class="cls-7" d="M195.82,128.43c-3.49,1.32-4.49,5.81-4.22,9.53s1.26,7.63-.22,11q-3.39-10.71-6-21.63a223.11,223.11,0,0,1-3,32.42,107.55,107.55,0,0,1-3.81-18.62q-16,30.07-34.69,58.62c1.42.29,1.6,2.2,2.37,3.43,1,1.6,3.22,2.05,5,1.54a13.18,13.18,0,0,0,4.76-3l40.34-34c3.83-3.22,5.56-3.46,4.46-7.9-.83-3.35-2.37-6.27-2.87-9.81C196.91,142.9,197.52,135.53,195.82,128.43Z"/><path class="cls-6" d="M263.36,209a56.6,56.6,0,0,1,7.33-7.88,62,62,0,0,1,8.7-6.57,44.75,44.75,0,0,1,10.42-4.87c.95-.32,2-.56,3-.79s2.08-.39,3.17-.5a25.27,25.27,0,0,1,6.86.21,21.2,21.2,0,0,1,6.95,2.57,13.77,13.77,0,0,1,1.57,1,15.19,15.19,0,0,1,1.48,1.13,19.8,19.8,0,0,1,2.51,2.6l1.09,1.36c.24.29.46.59.68.9L318.4,200l1.36,1.71.67.86.7.79A28.89,28.89,0,0,0,327,208.7a13.35,13.35,0,0,0,3.24,1.64,10.77,10.77,0,0,0,1.8.45c.31.06.62.1.94.13s.69,0,.79.11l2.84,4.43a13.09,13.09,0,0,1-1.53,1.17,11,11,0,0,1-1.5.83,11.46,11.46,0,0,1-1.6.61,11.83,11.83,0,0,1-1.66.41,10.71,10.71,0,0,1-1.69.22,12.14,12.14,0,0,1-1.7,0c-.56,0-1.13-.06-1.7-.11l-1.64-.3a26.23,26.23,0,0,1-11.15-5.63l-1.17-.94-1.05-1c-.69-.68-1.42-1.35-2.07-2.06l-1.84-2.17c-.31-.37-.62-.73-.91-1.1l-.53-.61a9.9,9.9,0,0,0-2.11-1.85c-.2-.1-.39-.21-.58-.32a4.14,4.14,0,0,0-.61-.26,10.4,10.4,0,0,0-1.33-.47,15.76,15.76,0,0,0-3.29-.3A24,24,0,0,0,293,202c-1.35.24-2.76.64-4.19,1s-2.88.93-4.33,1.51a185.42,185.42,0,0,0-17.65,8.33Z"/><path class="cls-6" d="M213.19,212.75a183.84,183.84,0,0,0-18.75-5.42c-1.52-.34-3-.57-4.51-.8s-2.93-.34-4.3-.35a24.45,24.45,0,0,0-3.91.19,15.86,15.86,0,0,0-3.2.83,8.46,8.46,0,0,0-1.23.67,3.62,3.62,0,0,0-.57.35c-.17.15-.34.28-.51.41a9.49,9.49,0,0,0-1.79,2.16l-.44.69q-.34.61-.72,1.23l-1.47,2.43c-.53.81-1.14,1.58-1.71,2.37l-.88,1.16-1,1.12a26.17,26.17,0,0,1-10.12,7.33l-1.56.55c-.56.15-1.11.27-1.66.38a11.65,11.65,0,0,1-1.69.23,12,12,0,0,1-1.7.06,14.38,14.38,0,0,1-3.38-.5,9.8,9.8,0,0,1-1.62-.58,12.17,12.17,0,0,1-1.69-.91l2.1-4.83c.07-.14.49-.15.76-.23s.61-.17.91-.27a10.28,10.28,0,0,0,1.7-.74,12.88,12.88,0,0,0,2.94-2.13,28.48,28.48,0,0,0,4.89-6.22l.57-.88.53-1,1.07-1.9,1-2c.16-.33.33-.66.52-1l.86-1.51a20.61,20.61,0,0,1,2.07-3,14.85,14.85,0,0,1,1.28-1.36,12.74,12.74,0,0,1,1.38-1.26,21.15,21.15,0,0,1,6.45-3.65,25.44,25.44,0,0,1,6.74-1.29c1.1-.07,2.16,0,3.21,0s2.08.15,3.06.31a44.45,44.45,0,0,1,11.06,3.16,60.88,60.88,0,0,1,9.63,5.1,57.06,57.06,0,0,1,8.5,6.61Z"/><path class="cls-7" d="M257.06,127.93a66.81,66.81,0,0,0,2.2,20.78,23.91,23.91,0,0,1,5.09-10.65,73.07,73.07,0,0,1,.75,18.21,28.72,28.72,0,0,1,9.61-7.28,111.25,111.25,0,0,0,31.85,36.79,10.46,10.46,0,0,0-3.48,5.33,41,41,0,0,0-16.48-5,3.23,3.23,0,0,0-2.41.47c-.64.55-.58,1.85.25,2a33.94,33.94,0,0,1-15-12.66c-2-3.07-3.49-6.47-5.71-9.37-4.1-5.37-9.92-6.65-10.37-13.83A61.87,61.87,0,0,1,257.06,127.93Z"/><circle class="cls-12" cx="354.45" cy="340.42" r="4.36"/><circle class="cls-12" cx="354.45" cy="322.56" r="4.36"/><ellipse class="cls-12" cx="354.6" cy="304.07" rx="4.51" ry="4.09"/><ellipse class="cls-12" cx="354.6" cy="289.65" rx="4.51" ry="4.09"/><rect class="cls-12" x="352.66" y="278.92" width="3.86" height="58.1"/><ellipse class="cls-6" cx="365.48" cy="271.73" rx="7.38" ry="6.71"/><ellipse class="cls-6" cx="363.15" cy="262.56" rx="7.38" ry="6.71"/></g></svg>