<svg id="Layer_1" data-name="Layer 1" xmlns="http://www.w3.org/2000/svg" xmlns:xlink="http://www.w3.org/1999/xlink" viewBox="0 0 480 480"><defs><style>.cls-1,.cls-14,.cls-16{fill:none;}.cls-2{fill:#d9e021;}.cls-3{fill:#fff;}.cls-4{clip-path:url(#clip-path);}.cls-5{fill:#9ac9b8;}.cls-6{fill:#181922;opacity:0.22;}.cls-7{fill:#86b3a1;}.cls-8{fill:#212b28;}.cls-9{fill:#336352;}.cls-10{fill:#5c7c73;}.cls-11{fill:#f2f2f2;}.cls-12{fill:#b1b8b5;}.cls-13{fill:#e8cc00;}.cls-14{stroke:#a83124;stroke-linecap:round;stroke-width:8.41px;}.cls-14,.cls-16{stroke-miterlimit:10;}.cls-15{fill:#75998c;}.cls-16{stroke:#75998c;stroke-width:4.21px;}</style><clipPath id="clip-path"><circle class="cls-1" cx="241.16" cy="236.77" r="227.9"/></clipPath></defs><title>Artboard 1</title><circle class="cls-2" cx="241.16" cy="236.77" r="227.9"/><path class="cls-3" d="M311.93,94.73a6,6,0,0,1-3.21-1,7.14,7.14,0,0,1-2.09-2.64C308.43,92.26,310.2,93.47,311.93,94.73Z"/><g class="cls-4"><path class="cls-5" d="M213.57,331.61h61a0,0,0,0,1,0,0V506.07a30.52,30.52,0,0,1-30.52,30.52h0a30.52,30.52,0,0,1-30.52-30.52V331.61A0,0,0,0,1,213.57,331.61Z"/><path class="cls-6" d="M213.57,279.46h61a0,0,0,0,1,0,0V418.6a30.52,30.52,0,0,1-30.52,30.52h0a30.52,30.52,0,0,1-30.52-30.52V279.46A0,0,0,0,1,213.57,279.46Z"/><path class="cls-7" d="M370.12,271.41H364.5a23.22,23.22,0,0,1-23.23-23.22V196.12a23.23,23.23,0,0,1,23.23-23.23h5.62a23.23,23.23,0,0,1,23.23,23.23v52.07C403.84,258.68,380.61,281.91,370.12,271.41Z"/><path class="cls-7" d="M116.12,271.41h-5.63C98.65,283.26,75.42,260,87.27,248.19V196.12a23.23,23.23,0,0,1,23.22-23.23h5.63a23.23,23.23,0,0,1,23.22,23.23v52.07A23.22,23.22,0,0,1,116.12,271.41Z"/><path class="cls-5" d="M365.53,176.52q0,40.28,0,80.55c0,16-8.16,26.51-13.65,41-.4,1.07-.79,2.17-1.16,3.29-3.93,11.87-7,25.21-12.94,36.39l-1.29,2.31L317,358.69a31.44,31.44,0,0,0-4.25,3.22c-6.13,5.64-8.83,14.38-13.8,21.19-7.42,10.2-19.3,15.36-30.87,19.09a146.17,146.17,0,0,1-26.57,6.1c-13,1.61-26.19.92-38.55-3.68-7.55-2.81-14.85-7.24-19.59-14.14-3.76-5.47-5.73-12.23-9.86-17.39s-9.86-8.15-14.79-12.26a52.56,52.56,0,0,1-5.15-5,130.48,130.48,0,0,1-11.85-15.92q-8.13-12.15-16.25-24.32c-.12-.18-.25-.36-.36-.55-14.64-22.41-11.75-50.16-11.75-76.16V176.52a123.57,123.57,0,0,1,1.25-17.65l11.06.1a8.5,8.5,0,0,0,4.45-.77c1.62-.95,2.39-2.83,3.35-4.44,3.31-5.62,9.42-8.84,14.58-12.82s9.92-10.08,8.52-16.44c-.39-1.76-1.23-3.51-.88-5.27.85-4.34,7.18-4.36,10.49-7.28,2.11-1.85,3.16-5.06,5.84-5.86,1.77-.52,3.62.23,5.46.46,5,.6,9.7-2.83,12.19-7.17S192.84,90,193.48,85A16.82,16.82,0,0,0,214,78.52c1.08-1.8,1.9-3.92,3.68-5a9.61,9.61,0,0,1,4.53-1.11,255.23,255.23,0,0,1,54.62,2c4.48.64,9.4,1.33,13.26-1,1.46-.91,2.65-2.2,4.07-3.17a10.26,10.26,0,0,1,3.5-1.55A105,105,0,0,1,312,76.14c2,1.28,4,2.64,6,4C346.66,101.16,365.53,136.48,365.53,176.52Z"/><circle class="cls-8" cx="238.21" cy="331.48" r="45.04"/><path class="cls-5" d="M195.62,309.11c-3.22-3.41-6.62-3.29-10-3.13a4.42,4.42,0,0,0-3.8,1.65c-.79,1-1.54,2.56-2.36,3-2.13,1.14-4.54-5.31-6.28-.52-.74,2-1.07,5.54-1.36,8.83a125.08,125.08,0,0,0-.69,18.41c.67,11,3.88,16.5,6.77,19,5,4.27,10.11,4.37,15.17,2.87,2.9-.86,6.15-3,7.81-12.1,1.6-8.81,3-15.43.92-24.25C200.24,316,197.92,311.53,195.62,309.11Z"/><path class="cls-5" d="M294.87,312.47c-3.22-3.41-6.62-3.29-10-3.13a4.42,4.42,0,0,0-3.79,1.65c-.79,1-1.54,2.56-2.36,3-2.13,1.14-4.54-5.31-6.28-.52-.74,2-1.07,5.55-1.36,8.84a123.58,123.58,0,0,0-.69,18.4c.67,11,3.88,16.51,6.77,19,5,4.27,10.1,4.37,15.17,2.86,2.9-.86,6.15-3,7.8-12.09,1.61-8.82,3-15.43.93-24.26C299.49,319.37,297.16,314.9,294.87,312.47Z"/><path class="cls-5" d="M188.18,313.51c3.34-7.14,9.25-11.47,14.9-15.5,9.39-6.68,19-13.48,29.64-15.5,11.63-2.2,23.57,1.6,34.19,8.11,9.34,5.72,21.25,13.11,27,22.69-3.5,2.18-11,1.63-15.19,1.64a66.18,66.18,0,0,1-15.93-1.83c-3.57-.88-7.06-2.11-10.68-2.76-12.27-2.19-24.77,2.45-37.22,1.93a107.07,107.07,0,0,0-15.64.59C197.26,313.08,189.32,311.08,188.18,313.51Z"/><rect class="cls-9" x="213.73" y="211.71" width="43.05" height="81.45" rx="19.2"/><rect class="cls-5" x="239.81" y="188.16" width="43.05" height="81.45" rx="19.2"/><rect class="cls-5" x="185.05" y="255.22" width="26.4" height="49.94" rx="11.77" transform="translate(478.44 81.93) rotate(90)"/><path class="cls-10" d="M299.05,267l-1.6.07a40.55,40.55,0,0,1-42.53-38.49l-.24-4.79H337.5l0,.67A40.57,40.57,0,0,1,299.05,267Z"/><path class="cls-11" d="M298.54,253.15l-1.32.06a33.41,33.41,0,0,1-35-31.71l-.2-3.94h68.23l0,.55A33.41,33.41,0,0,1,298.54,253.15Z"/><path class="cls-12" d="M366.05,103.07v10.09a41.67,41.67,0,0,1-41.67,41.67H242.77a41.7,41.7,0,0,0,2.94-15.4V129.34A41.67,41.67,0,0,0,204,87.67H192.25A41.68,41.68,0,0,1,231,61.41h93.4A41.66,41.66,0,0,1,366.05,103.07Z"/><path class="cls-13" d="M226.86,312.15v12.92a4.59,4.59,0,0,1-4.59,4.6h-7.11a4.6,4.6,0,0,1-4.59-4.6V312.21c1.42,0,2.86,0,4.36.08a70.81,70.81,0,0,0,11.89-.69A3.31,3.31,0,0,1,226.86,312.15Z"/><path class="cls-13" d="M244.52,310.46v12.93a4.58,4.58,0,0,1-4.58,4.59h-7.12a4.58,4.58,0,0,1-4.58-4.59v-12a138,138,0,0,1,16.22-1.65A4,4,0,0,1,244.52,310.46Z"/><path class="cls-13" d="M262.18,313v9.6a4.58,4.58,0,0,1-4.58,4.59h-7.12a4.58,4.58,0,0,1-4.58-4.59V309.77a41.3,41.3,0,0,1,6.26.59C255.55,311,258.83,312.1,262.18,313Z"/><rect class="cls-8" x="180.76" y="119.12" width="8.92" height="11.77" rx="4.46" transform="translate(87.3 -75.85) rotate(29.99)"/><path class="cls-8" d="M153.18,160.59h0a5.29,5.29,0,0,1-7.65-.13l-2.41-2.57a5.73,5.73,0,0,1,.12-7.9h0a5.29,5.29,0,0,1,7.65.12l2.4,2.57A5.73,5.73,0,0,1,153.18,160.59Z"/><path class="cls-5" d="M163.27,163.11h0a5.29,5.29,0,0,1-7.65-.12l-2.4-2.57a5.72,5.72,0,0,1,.12-7.91h0a5.27,5.27,0,0,1,7.64.13l2.41,2.56A5.74,5.74,0,0,1,163.27,163.11Z"/><path class="cls-5" d="M180.93,132.83h0a5.28,5.28,0,0,1-7.64-.12l-2.41-2.57a5.72,5.72,0,0,1,.12-7.91h0a5.28,5.28,0,0,1,7.64.13l2.41,2.57A5.72,5.72,0,0,1,180.93,132.83Z"/><path class="cls-14" d="M191.41,104.37c-3.37,1.53-5.18,5.29-5.75,8.95s-.15,7.39-.46,11.07"/><path class="cls-14" d="M147.79,155.71c-1.18-.89-9.84-4-11.59-5.7a25.09,25.09,0,0,1-7.6-15"/><path class="cls-15" d="M351.88,298.11c-.4,1.07-.79,2.17-1.16,3.29-3.93,11.87-7,25.21-12.94,36.39l-1.29,2.31L317,358.69a21.13,21.13,0,0,1-21.89-31.13l18.34-32.9a21.11,21.11,0,0,1,38.43,3.45Z"/><path class="cls-15" d="M177.71,356.21a21.13,21.13,0,0,1-24.14-.36,130.48,130.48,0,0,1-11.85-15.92q-8.13-12.15-16.25-24.32c-.12-.18-.25-.36-.36-.55a21.12,21.12,0,0,1,37.22-19.41l21.07,31.23A21.13,21.13,0,0,1,177.71,356.21Z"/><path class="cls-16" d="M275.65,378.11a69.31,69.31,0,0,1-23.22,12.82"/><ellipse class="cls-8" cx="296.01" cy="219.74" rx="3.15" ry="5.9" transform="translate(-27.07 42.18) rotate(-7.8)"/><ellipse class="cls-8" cx="173.21" cy="219.74" rx="5.9" ry="3.15" transform="translate(-68 361.54) rotate(-82.2)"/><path class="cls-10" d="M175.42,266.66l-1.61.08a40.55,40.55,0,0,1-42.53-38.49l-.24-4.79h82.82l0,.67A40.55,40.55,0,0,1,175.42,266.66Z"/></g></svg>