<svg id="Layer_1" data-name="Layer 1" xmlns="http://www.w3.org/2000/svg" xmlns:xlink="http://www.w3.org/1999/xlink" viewBox="0 0 480 480"><defs><style>.cls-1,.cls-18{fill:none;}.cls-2{fill:#d9e021;}.cls-3{clip-path:url(#clip-path);}.cls-4{fill:#6e4b3d;}.cls-5{fill:#8b5c4a;}.cls-6{fill:#73626a;}.cls-7{fill:#212b28;}.cls-8{fill:#261d12;}.cls-9{fill:#2f403c;}.cls-10{fill:#40363b;}.cls-11{fill:#da8ca6;}.cls-12{fill:#beb5a2;}.cls-13{fill:#fff;}.cls-14{fill:#080a08;}.cls-15{fill:#f15a38;}.cls-16{fill:#7a683a;}.cls-17{fill:#e8cc00;}.cls-18{stroke:#212b28;stroke-miterlimit:10;stroke-width:2.55px;}.cls-19{fill:#a41400;}.cls-20{fill:#7a2e24;}.cls-21{fill:#e7461b;}.cls-22{fill:#c2b4b4;}</style><clipPath id="clip-path"><circle class="cls-1" cx="240" cy="240" r="227.9"/></clipPath></defs><title>Artboard 17</title><circle class="cls-2" cx="241.16" cy="236.77" r="227.9"/><g class="cls-3"><path class="cls-4" d="M152.56,231.87c-3.18.79-3.87,4.93-3.93,8.2l-.1,6.67c-.1,5.91-.19,11.89,1.21,17.63s4.48,11.3,9.47,14.46c1.83,1.17,4.07,2,6.17,1.44,3.9-1,5.2-6.19,4-10s-4-7-5.8-10.59c-3.16-6.41-2-12.61-2.38-19.39C161,236.23,157.72,230.59,152.56,231.87Z"/><path class="cls-4" d="M345.51,231.87c3.17.79,3.87,4.93,3.92,8.2l.11,6.67c.1,5.91.19,11.89-1.21,17.63s-4.48,11.3-9.47,14.46c-1.84,1.17-4.07,2-6.17,1.44-3.91-1-5.21-6.19-4-10s4-7,5.81-10.59c3.15-6.41,2-12.61,2.37-19.39C337.08,236.23,340.35,230.59,345.51,231.87Z"/><path class="cls-5" d="M228.3,341h46.26a0,0,0,0,1,0,0V482.49a23.13,23.13,0,0,1-23.13,23.13h0a23.13,23.13,0,0,1-23.13-23.13V341A0,0,0,0,1,228.3,341Z"/><path class="cls-6" d="M228.3,296.4h46.26a0,0,0,0,1,0,0V401.87A23.13,23.13,0,0,1,251.43,425h0a23.13,23.13,0,0,1-23.13-23.13V296.4A0,0,0,0,1,228.3,296.4Z"/><path class="cls-5" d="M343.57,259.35a46.07,46.07,0,0,0-7.72,6.41c-.56.57-1.11,1.16-1.64,1.77l-.79.9c-.69.8-1.34,1.61-2,2.45-.32.4-.62.82-.92,1.24s-.56.78-.82,1.19a.42.42,0,0,0-.11.16l-.38.56c-.16.24-.32.48-.46.72s-.2.31-.3.47c-5.22,8.39-8.4,18.4-7.62,28.1,1,12.18-1,26.91-1.35,39.53-.05,1.94-.08,3.83-.05,5.66,0,.49,0,1,0,1.43,0,.07,0,.14,0,.21,0,.38,0,.76.05,1.13,0,.16,0,.31,0,.46,0,.4.05.78.08,1.16a44.06,44.06,0,0,0,.87,6.14,60,60,0,0,1-14,12.85c-4.76,3-9.68,3.9-14.74,5.91-5.61,2.23-7.79,4.9-12.45,9-5.22,4.6-12.67,5.38-19.6,5.95l-9.09.75-5,.41c-6.07.49-12.4,1-18-1.34-11.41-4.66-16.7-17.81-27.35-23.74-7.64-4.24-16.3-4.16-23.23-8.22a35.43,35.43,0,0,0,1.16-6.34c1.45-14.26-2.39-34.84-1.09-50.95,1.06-13-5-26.45-13.49-35.94a47.24,47.24,0,0,0-8.62-7.62c.5-4.94,1-9.95,1.27-15.19a4.1,4.1,0,0,0,.76.8c2.67-2.09,2-6.26.92-9.47a22.34,22.34,0,0,1-1.3-5.21l0-1.86a5.26,5.26,0,0,1,1.13-2.66c.53-.66,1.24-1.17,1.7-1.87,2.06-3.07-1.42-7.11-.73-10.74.34-1.79,1.67-3.23,2.46-4.88,1.14-2.39.89-11.91-2.33-13.84,2.67-16.9,8.8-32.55,23.58-46.38,19.09-17.87,42.17-22,67.3-22q4.09,0,8.12.16c1.14,0,2.27.11,3.4.17,3.17.2,6.31.49,9.4.9-.17,1.68-1.48,6.35-.26,5.12,18-18,69.05,33.07,51.06,51.06-4,4,11.08-.92,16.16-2.61.85,2.73,1.57,5.51,2.18,8.32.12.55.23,1.1.34,1.65A139.69,139.69,0,0,1,342.48,209a5.35,5.35,0,0,0-3.4,4c-.54,2.19.66,4.39,1.09,6.61.65,3.3-.43,6.66-.7,10s.66,7.1,3.57,8.51c0,1.07,0,2.16,0,3.23C343,247.44,343.27,253.45,343.57,259.35Z"/><path class="cls-7" d="M326.91,211.05s-54.47-8.77-52.93,3"/><path class="cls-8" d="M249.2,445.49h0c-29.92,0-54.19-29.36-54.19-59.29V311c0,5.71,108.38,5.71,108.38,0V386.2C303.39,416.13,279.13,445.49,249.2,445.49Z"/><path class="cls-7" d="M195.69,183.5a9.36,9.36,0,0,0-2.25,1.09,12.8,12.8,0,0,0-1.92,1.32,12.32,12.32,0,0,0-1.89,2.3,9,9,0,0,0-1.15,2,8.9,8.9,0,0,0-.48,2.29,4.31,4.31,0,0,0,0,1.6,3.92,3.92,0,0,0,.93,1.55,7.09,7.09,0,0,0,2.31,1.8,3.56,3.56,0,0,0,2.86.07,5.55,5.55,0,0,0,1.17-.81l1.74-1.42a11,11,0,0,0,3-3.17,7.73,7.73,0,0,0,.76-2.79,7.31,7.31,0,0,0-.28-3.19A3.87,3.87,0,0,0,195.69,183.5Z"/><path class="cls-7" d="M209.83,180.11a6.19,6.19,0,0,0-1.54.56,8.36,8.36,0,0,0-1.35.73,8.19,8.19,0,0,0-1.39,1.37,6.43,6.43,0,0,0-.89,1.2,6.33,6.33,0,0,0-.48,1.47,2.82,2.82,0,0,0-.11,1,2.43,2.43,0,0,0,.5,1.08A4.44,4.44,0,0,0,206,188.9a2.3,2.3,0,0,0,1.86.24,3.89,3.89,0,0,0,.83-.44l1.23-.81A7.32,7.32,0,0,0,212,186a4.92,4.92,0,0,0,.69-1.77,4.7,4.7,0,0,0,0-2.11A2.55,2.55,0,0,0,209.83,180.11Z"/><path class="cls-7" d="M214.64,185.52a5,5,0,0,1-.7,1.77,7.18,7.18,0,0,1-2.15,1.87l-1.23.81a3.7,3.7,0,0,1-.83.45,2.34,2.34,0,0,1-1.86-.24,4.12,4.12,0,0,1-1.09-1,3.58,3.58,0,0,0,.45.31,2.33,2.33,0,0,0,1.87.24,3.46,3.46,0,0,0,.82-.45l1.23-.81a7.16,7.16,0,0,0,2.15-1.86,4.91,4.91,0,0,0,.7-1.78,4.84,4.84,0,0,0,0-2.11,2.8,2.8,0,0,0-.45-1,2.77,2.77,0,0,1,1.09,1.63A5,5,0,0,1,214.64,185.52Z"/><rect class="cls-9" x="169.45" y="226.42" width="66.72" height="61.48" rx="30.14" transform="translate(449.54 41.77) rotate(87.14)"/><rect class="cls-10" x="169.45" y="226.42" width="66.72" height="61.48" rx="30.14" transform="translate(449.54 41.77) rotate(87.14)"/><rect class="cls-10" x="263.8" y="226.42" width="66.72" height="61.48" rx="30.14" transform="translate(539.18 -52.46) rotate(87.14)"/><rect class="cls-11" x="170.09" y="217.21" width="66.72" height="61.48" rx="30.14" transform="translate(440.95 32.39) rotate(87.14)"/><rect class="cls-11" x="263.8" y="217.49" width="66.72" height="61.48" rx="30.14" transform="translate(530.27 -60.94) rotate(87.14)"/><path class="cls-12" d="M335.85,265.76c0,1.73-.14,3.53-.27,5.22-3.33,7.64-6.1,22.42-7.87,39.72-1.54,15-2,28.54-1,37.36l-.56.44a74.85,74.85,0,0,1-6.5,4.4,94.42,94.42,0,0,1-.15-10,1.34,1.34,0,0,0,.42-.49,3.72,3.72,0,0,0,.2-2.15,39.81,39.81,0,0,1,.09-5.88,380,380,0,0,1,6.47-48.59c.67-3.4,1.4-6.79,1.75-10.23,0-.08,0-.18,0-.31A55.85,55.85,0,0,1,335.85,265.76Z"/><path class="cls-12" d="M176.14,342c-7.68-4.11-8.33-11.73-8.24-19.61,0-3.78-.15-6.6-.18-10.91,0-4.71.14-9.41.39-14.11.41-7.81,1-15.63,1-23.46a55.2,55.2,0,0,0-6.55-8.13c.09,4.68.74,9.84.75,12q.06,27.32,1.25,54.61c.14,3.38.34,6.88,1.9,9.88a19.88,19.88,0,0,0,5.81,6.24,76.41,76.41,0,0,0,6.5,4.4,91.65,91.65,0,0,0,.16-9.62A30.08,30.08,0,0,1,176.14,342Z"/><path class="cls-7" d="M175,213.9s53.61-13.06,53-1.16"/><ellipse class="cls-13" cx="297.16" cy="250.5" rx="2.38" ry="4.47" transform="translate(-31.23 42.63) rotate(-7.8)"/><ellipse class="cls-13" cx="204.08" cy="250.5" rx="4.47" ry="2.38" transform="translate(-71.78 418.72) rotate(-82.2)"/><ellipse class="cls-7" cx="260.68" cy="290.89" rx="4.37" ry="12" transform="translate(-68.71 80.96) rotate(-15.62)"/><ellipse class="cls-7" cx="236.45" cy="290.89" rx="12" ry="4.37" transform="translate(-107.38 440.26) rotate(-74.38)"/><path class="cls-14" d="M288.41,337.22a6.8,6.8,0,0,1-1.14,2.77,7.62,7.62,0,0,1-2.32,2.06c-6.37,3.81-20.65,2.6-37.75,2.41-14.7-.17-27.79.45-34.45-1.87a9.32,9.32,0,0,1-3-1.61,4.64,4.64,0,0,1-1.53-4.68c1.65-9.45,21-16.9,43.1-16.65S290.07,327.77,288.41,337.22Z"/><path class="cls-15" d="M271.05,341.79a9.75,9.75,0,0,1-4.88,4,12,12,0,0,1-4.51.84H234a11.89,11.89,0,0,1-6.26-1.72,9.63,9.63,0,0,1-2.52-2.26,42.64,42.64,0,0,1,24.9-7.14A38.71,38.71,0,0,1,271.05,341.79Z"/><path class="cls-16" d="M264.19,321.46a34.68,34.68,0,0,1-11.84-2.15c-.14-.62.71-.95,1.34-1C256.44,318.15,263.86,317.61,264.19,321.46Z"/><path class="cls-17" d="M254.47,320.2l0,7.22a2.56,2.56,0,0,0,2.57,2.55l4,0a2.56,2.56,0,0,0,2.54-2.58l0-6.69a77.91,77.91,0,0,0-9.07-.87A2.56,2.56,0,0,0,254.47,320.2Z"/><path class="cls-16" d="M249.2,319.24a35.11,35.11,0,0,1-12,1.07c-.29-.57.44-1.11,1-1.32C240.85,318.1,247.86,315.61,249.2,319.24Z"/><path class="cls-17" d="M248.3,318.93l0,7.21a2.56,2.56,0,0,1-2.57,2.55l-4,0a2.56,2.56,0,0,1-2.55-2.58l0-6.68a75.63,75.63,0,0,1,9.06-.87A2.47,2.47,0,0,1,248.3,318.93Z"/><path class="cls-16" d="M267.46,345.27a34.73,34.73,0,0,1,12-.3c.26.58-.5,1.08-1.12,1.24C275.72,346.94,268.56,349,267.46,345.27Z"/><path class="cls-17" d="M277.84,345.06l-1.09-7.14a2.55,2.55,0,0,0-2.92-2.14l-3.92.6a2.56,2.56,0,0,0-2.15,2.92l1,6.6a76.19,76.19,0,0,0,9.1-.45A2.56,2.56,0,0,0,277.84,345.06Z"/><path class="cls-16" d="M218.54,343.79a34.73,34.73,0,0,1,11.94,1.46c.18.61-.65,1-1.28,1.06C226.47,346.65,219.09,347.62,218.54,343.79Z"/><path class="cls-17" d="M229.18,344.88l0-7.22a2.57,2.57,0,0,0-2.58-2.55l-4,0a2.57,2.57,0,0,0-2.55,2.58l0,6.68a75.6,75.6,0,0,0,9.07.87A2.56,2.56,0,0,0,229.18,344.88Z"/><path class="cls-8" d="M303.39,311.29c0,2.92-3.67,5.35-8.56,5.93l-.87.08h0a10.15,10.15,0,0,1-6-2.65,17.65,17.65,0,0,1-2.93-3.08c-2.25-3-3.4-6.24-3.29-8.76a18.37,18.37,0,0,0,1.09,1.62c3.61,4.78,8.7,7,11.37,5a4.14,4.14,0,0,0,1.51-2.83,5.73,5.73,0,0,0-1.17-1.26C299.56,305.86,303.39,308.32,303.39,311.29Z"/><path class="cls-8" d="M195,311.34c0,2.92,3.67,5.35,8.56,5.93l.87.08h0a10.15,10.15,0,0,0,6-2.65,17.65,17.65,0,0,0,2.93-3.08c2.25-3,3.4-6.24,3.29-8.75-.33.54-.69,1.08-1.09,1.62-3.61,4.77-8.7,7-11.37,5a4.14,4.14,0,0,1-1.51-2.83,5.73,5.73,0,0,1,1.17-1.26C198.82,305.91,195,308.37,195,311.34Z"/><path class="cls-8" d="M293.94,317.3c-.45,0-.92.05-1.39.05-3.73,0-7-1.05-9-2.65.63.06,1.28.1,2,.1a18.32,18.32,0,0,0,2.38-.15A10.15,10.15,0,0,0,293.94,317.3Z"/><path class="cls-8" d="M294.83,317.22a4.94,4.94,0,0,1-.87.08Z"/><path class="cls-18" d="M157.57,227.87a350.68,350.68,0,0,1-1.45,48.18c-.32,3.25-1,6.94-3.73,8.66"/><path class="cls-18" d="M163.43,213.92a297.88,297.88,0,0,1-1.94,55.77"/><path class="cls-19" d="M388.62,190.77c-1.33-2.53-5.56-1.62-7,.86s-1,5.56-.77,8.41A46.3,46.3,0,0,1,377,222.4a7.78,7.78,0,0,1-2.42,3.39c-2.52,1.7-5.92.3-8.92.75-6.05.9-8.16,8.41-8.95,14.48-.25,1.95-.48,4,.4,5.78a5,5,0,0,0,.58.92l-25.58,23c36.56-32.93-92.79-180.58-139.73-167.19a18,18,0,0,0-7.26,4l66.81-60.19c19.8-17.83,66.18,1.1,105.73,42.32a195,195,0,0,0,14.83,25.11,5.38,5.38,0,0,0,.43,3.87c6.28,11.48,11.16,23.64,16.32,35.66a259.13,259.13,0,0,0-18.2-22,21.73,21.73,0,0,1,2.06,6.39c.11.71.12,1.58-.49,2a.54.54,0,0,1-.3.08,158,158,0,0,0,17.64,27.79l-4.9-1.47A50.14,50.14,0,0,0,388.62,190.77Z"/><path class="cls-20" d="M382,214.22a36.64,36.64,0,0,1-3.27,14.49l-46.69,42c36.56-32.93-92.79-180.58-139.73-167.19l33.73-30.38c19.8-17.83,62,8.5,101.54,49.72,4.28,8.73,13.48,9.71,19,17.71a5.34,5.34,0,0,0,.44,3.87c9.63,17.63,16,36.82,25.08,54.73C374.85,204.55,377.93,209.85,382,214.22Z"/><circle class="cls-19" cx="248.88" cy="149.37" r="5.3"/><circle class="cls-5" cx="253.98" cy="155.74" r="5.3"/><path class="cls-13" d="M371.74,139.66c.17.36.35.71.53,1.07C371.72,140.71,371.19,139.89,371.74,139.66Z"/><path class="cls-19" d="M318.48,111.89c-35.88-37.72-195,113.67-159.14,151.39l-62-65.16c-19.17-20.15.91-70.38,44.85-112.18S237.33,26.58,256.5,46.73Z"/><rect class="cls-21" x="271.54" y="155.95" width="4.53" height="54.7" rx="2.26" transform="translate(553.25 8.71) rotate(114.2)"/><rect class="cls-21" x="266.2" y="163.24" width="4.53" height="54.7" rx="2.26" transform="translate(555.13 28.66) rotate(115.17)"/><path class="cls-22" d="M245.45,189.11h0c-.88-.47-1.32-1.3-1-1.86l13.42-22.46c.33-.56,1.31-.64,2.19-.17h0c.87.47,1.31,1.3,1,1.86l-13.42,22.46C247.3,189.5,246.32,189.58,245.45,189.11Z"/><path class="cls-22" d="M281.15,208.87h0c-.88-.47-1.32-1.3-1-1.86l13.42-22.46c.33-.56,1.31-.64,2.19-.17h0c.87.47,1.31,1.3,1,1.86L283.34,208.7C283,209.26,282,209.34,281.15,208.87Z"/><circle class="cls-5" cx="218.6" cy="207.7" r="3.19"/><circle class="cls-5" cx="279.8" cy="214.07" r="3.19"/><circle class="cls-5" cx="282.99" cy="212.16" r="3.19"/></g></svg>