<svg id="Layer_1" data-name="Layer 1" xmlns="http://www.w3.org/2000/svg" xmlns:xlink="http://www.w3.org/1999/xlink" viewBox="0 0 480 480"><defs><style>.cls-1{fill:none;}.cls-2{fill:#d9e021;}.cls-3{clip-path:url(#clip-path);}.cls-4{fill:#9ac9b8;}.cls-5{clip-path:url(#clip-path-2);}.cls-6{fill:#baa180;}.cls-7{fill:#8b7960;}.cls-8{fill:#f9b325;}.cls-9{fill:#815906;}.cls-10{fill:#a29480;}.cls-11{fill:#40363b;}.cls-12{fill:#6d5a40;}.cls-13{fill:#fff;}.cls-14{fill:#080a08;}.cls-15{fill:#fc5317;}.cls-16{fill:#c12f4d;}.cls-17{clip-path:url(#clip-path-3);}.cls-18{fill:#4a3529;}</style><clipPath id="clip-path"><circle class="cls-1" cx="241.16" cy="-263.23" r="227.9"/></clipPath><clipPath id="clip-path-2"><circle class="cls-1" cx="240" cy="240" r="227.9"/></clipPath><clipPath id="clip-path-3"><circle class="cls-1" cx="240" cy="740" r="227.9"/></clipPath></defs><title>Artboard 6</title><circle class="cls-2" cx="241.16" cy="236.77" r="227.9"/><g class="cls-3"><path class="cls-4" d="M213.57-168.39h61a0,0,0,0,1,0,0V6.07a30.52,30.52,0,0,1-30.52,30.52h0A30.52,30.52,0,0,1,213.57,6.07V-168.39A0,0,0,0,1,213.57-168.39Z"/></g><g class="cls-5"><path class="cls-6" d="M236,334.89h0a27.29,27.29,0,0,1,27.29,27.29V486.63a0,0,0,0,1,0,0H208.72a0,0,0,0,1,0,0V362.19A27.29,27.29,0,0,1,236,334.89Z" transform="translate(472.03 821.52) rotate(-180)"/><path class="cls-7" d="M236,282.24h0a27.29,27.29,0,0,1,27.29,27.29V434a0,0,0,0,1,0,0H208.72a0,0,0,0,1,0,0V309.53A27.29,27.29,0,0,1,236,282.24Z" transform="translate(472.03 716.21) rotate(-180)"/><path class="cls-8" d="M291.75,183.81a70.94,70.94,0,0,1-141.87,0c0-12.34,3.13-25.51,9.77-35.94,1.9-3,3.69-6.36,3.21-9.86-.17-1.26-.63-2.59-.14-3.78.74-1.79,3.11-2.1,4.74-3.16,2.37-1.54,3.09-4.63,4.76-6.91a9.3,9.3,0,0,1,1-1.12,10.79,10.79,0,0,1,3.44-2.27,15,15,0,0,1,7-1.06c2.26.19,4.82.73,6.59-.7a11.49,11.49,0,0,0,1.88-2.48,12.07,12.07,0,0,1,5.4-4.24,18.26,18.26,0,0,1,3-1,25.82,25.82,0,0,1,6.12-.58,41,41,0,0,1,10.61,1.7c2.64.79,4.87.4,7.59.55a71,71,0,0,1,66.85,70.82Z"/><path class="cls-9" d="M206.69,156.2l-3.75.25a2.51,2.51,0,0,0-2-1.88,11.21,11.21,0,0,0-4.42.09l-11.72,1.7a11.13,11.13,0,0,1-1.66.16,5.26,5.26,0,0,1-1.62-.24,7.09,7.09,0,0,1-3-2.19,8.06,8.06,0,0,0-1-1c-1-.77-2.64-.84-4.46-.85l-15.8-.05c.62-1.27,1.29-2.53,2-3.75l13.8,0h0l4.43-9.57a8.07,8.07,0,0,1,1.8-2.72c1.58-1.44,3.66-1.55,5.33-1.64,1.26-.07,2.44-.13,3-.69a3,3,0,0,0,.52-2.3,25.87,25.87,0,0,1-3.49-.68,14,14,0,0,1-3.33-1.65c-2-1.4-3.4-3.4-5.6-4.63a15.64,15.64,0,0,1-2.65-1.59,10.79,10.79,0,0,1,3.44-2.27l.23.14c4.13,2.66,7.48,7.37,12.91,6.92l1.74-.15.2,1.27c.44-.36.87-.69,1.3-1a9.15,9.15,0,0,0,2.4-2.24,8.51,8.51,0,0,0,.89-2.92,72.71,72.71,0,0,0,1.25-10.49,18.26,18.26,0,0,1,3-1,.7.7,0,0,1,.12.43,27.74,27.74,0,0,1,.32,5.74c-.28,2-.66,4-1,6a11.94,11.94,0,0,1-1.38,4.2,12.47,12.47,0,0,1-3.35,3.3c-.47.34-.91.67-1.31,1-.94.81-1.75,2.1-1.39,2.89,0,0,0,0,0,0a4.75,4.75,0,0,0,.59.12,83.49,83.49,0,0,0,12.53,1.13l-.05,3.76a87.14,87.14,0,0,1-13.1-1.18,4.69,4.69,0,0,1-2.47-1,4.88,4.88,0,0,1-.48-.53,9,9,0,0,1-4.67,1.13c-1.24.07-2.41.14-3,.68a5.12,5.12,0,0,0-.91,1.51l-3.86,8.36a7.42,7.42,0,0,1,2.67,1.23,12,12,0,0,1,1.49,1.42,4.11,4.11,0,0,0,1.37,1.16,4.4,4.4,0,0,0,1.6-.05L196,150.93a14.57,14.57,0,0,1,6,0A6.2,6.2,0,0,1,206.69,156.2Z"/><path class="cls-6" d="M347.67,254.31a67.37,67.37,0,0,0-4.2,7.11c-3.27,7.23-2.57,16.35-5.05,23.74-.86.87-1.71,1.74-2.53,2.59-3.13,3.27-5.8,6.29-7.1,7.58a19.88,19.88,0,0,0-4.1,5.12,9.35,9.35,0,0,0-.51,1.27c-.92,2.93-.16,6.11-.43,9.17-.78,9-10,15.09-12.74,23.72-1.17,3.61-1.15,7.53-2.42,11.11-1.75,4.93-5.7,8.68-9.32,12.46a210.58,210.58,0,0,0-14.36,17.29c-1.86,2.41-3.71,4.8-5.58,7.15-6.7,8.38-10.51,18.6-21.44,22.15a61.9,61.9,0,0,1-39.92-1c-1.83-.68-10.2-6.11-11.55-8.24-1.95-3.07-7.07-8.85-12.86-15-8.28-8.86-17.92-18.57-21.52-22.32s-7.57-7.53-9.32-12.46c-1.27-3.58-1.25-7.5-2.42-11.11-2.55-7.9-10.45-13.63-12.36-21.49a13.49,13.49,0,0,1-.38-2.23c-.27-3.06.49-6.24-.43-9.17-.79-2.53-2.72-4.52-4.6-6.39-1-1-2.87-3.07-5.13-5.48-4.06-4.35-9.44-9.85-13.7-12.47.59-15,2-30.48,2-46.58,0-9.42-.09-18.73.17-27.86A190.89,190.89,0,0,1,129,171.66c.14-.66.27-1.3.41-1.95q1.06-5,2.57-9.82a60.3,60.3,0,0,0,79.32-57.17c0-2-.11-4.06-.3-6,3.64-.49,7.34-.82,11.08-1.06,1.34-.08,2.67-.15,4-.21q4.74-.19,9.59-.19c29.65,0,56.88,4.91,79.41,26C339,143.59,343.7,170,345,198.75c.47,10.28.5,20.85.81,31.63C346.05,238.73,346.88,246.59,347.67,254.31Z"/><path class="cls-10" d="M347.67,254.31a67.37,67.37,0,0,0-4.2,7.11c-3.27,7.23-2.57,16.35-5.05,23.74a19.47,19.47,0,0,1-1.41,3.32c-.38-.23-.75-.47-1.12-.73a29,29,0,0,1-11.78-27.48c7.28-11.87,9.19-26.41,6.22-43.38,1.33-9.31,7.18-16,14.67-18.14.47,10.28.5,20.85.81,31.63C346.05,238.73,346.88,246.59,347.67,254.31Z"/><rect class="cls-11" x="140.43" y="213.2" width="78.73" height="72.54" rx="35.57" transform="translate(437.92 82.33) rotate(92.86)"/><rect class="cls-12" x="216.39" y="218.63" width="38.5" height="80.05" rx="18" transform="translate(471.28 517.31) rotate(-180)"/><path class="cls-6" d="M129,171.66a64,64,0,0,0,97.09-76.25c-1.34.06-2.68.13-4,.21a64,64,0,0,1-92.68,74.09C129.23,170.36,129.1,171,129,171.66Z"/><ellipse class="cls-13" cx="179.81" cy="243.12" rx="5.28" ry="2.81" transform="translate(-85.45 388.28) rotate(-82.2)"/><path class="cls-6" d="M351.18,236.18c3.75.94,4.57,5.82,4.63,9.68l.13,7.87c.11,7,.22,14-1.43,20.8s-5.29,13.33-11.18,17.06c-2.16,1.38-4.8,2.35-7.28,1.7-4.6-1.2-6.14-7.3-4.72-11.85s4.74-8.22,6.85-12.49c3.72-7.57,2.37-14.88,2.8-22.88C341.24,241.33,345.09,234.66,351.18,236.18Z"/><path class="cls-6" d="M121.25,236.18c-3.75.94-4.57,5.82-4.63,9.68l-.13,7.87c-.11,7-.22,14,1.44,20.8s5.28,13.33,11.17,17.06c2.16,1.38,4.8,2.35,7.28,1.7,4.61-1.2,6.14-7.3,4.72-11.85s-4.74-8.22-6.84-12.49c-3.73-7.57-2.37-14.88-2.81-22.88C131.19,241.33,127.34,234.66,121.25,236.18Z"/><ellipse class="cls-14" cx="349.31" cy="90.69" rx="37.27" ry="41.05" transform="translate(103.44 354.87) rotate(-61.61)"/><path class="cls-14" d="M268.58,339.14a20.62,20.62,0,0,1-.91,4.78,12.08,12.08,0,0,1-1.85,3.56c-5.09,6.58-16.49,4.49-30.15,4.16-11.73-.3-22.19.78-27.5-3.23a8.71,8.71,0,0,1-2.4-2.78c-1.06-2-1.51-4.59-1.22-8.08,1.32-16.3,16.73-29.15,34.41-28.72S269.9,322.84,268.58,339.14Z"/><path class="cls-15" d="M265.82,347.48c-5.09,6.58-16.49,4.49-30.15,4.16-11.73-.3-22.19.78-27.5-3.23,5.77-10.32,17.66-17.33,30.79-17C251.1,331.7,261.14,338.18,265.82,347.48Z"/><path class="cls-14" d="M352.7,224.21c-3.08,2.54-11.09-17.64-15.8-18.31a95.75,95.75,0,0,1-42.66-17.7c-16.49-12-29.37-28.52-38.9-46.56a36.39,36.39,0,0,1-31.78-.06,24.36,24.36,0,0,1-20.5,6.34c2.84-6.15,3.37-13.08,3.86-19.84l2.43-33.54c.12-1.61.27-3.33,1.28-4.59a7.68,7.68,0,0,1,4.11-2.19c23.76-6.68,50-4.15,74.44-4.15a62.88,62.88,0,0,1,62.88,62.88v45.86c0,2.93,4.72,26.87,3.65,29.6C355.34,222.9,353.35,223.67,352.7,224.21Z"/><path class="cls-14" d="M121.52,185.45l-8.2,11.91A22,22,0,0,0,128,195.28L122.6,205.7c6-1.1,12.4-2.35,17-6.39,3.58-3.12,5.72-7.58,7.25-12.07a65.16,65.16,0,0,0,3.38-25.12c-6.06-1.45-14.13-3.52-18.29,2-2,2.63-2.43,7.85-4,11A87,87,0,0,1,121.52,185.45Z"/><path class="cls-16" d="M351.24,118.92c2.57,2.24,5.31,4.79,5.77,8.17.62,4.61-4.39,9-8.88,7.81-2.41-.64-4.28-2.47-6-4.24l-28-28.06c-3.19-3.19-17.92-13.95-10.93-17.87C314.38,78.42,344.34,112.9,351.24,118.92Z"/><path class="cls-15" d="M256.33,342.16h1.49a3.87,3.87,0,0,1,3.87,3.87v49.08a0,0,0,0,1,0,0h-9.23a0,0,0,0,1,0,0V346a3.87,3.87,0,0,1,3.87-3.87Z" transform="translate(514.16 737.27) rotate(-180)"/><path class="cls-15" d="M248.81,339.15h1.49a3.87,3.87,0,0,1,3.87,3.87V374.8a0,0,0,0,1,0,0h-9.23a0,0,0,0,1,0,0V343a3.87,3.87,0,0,1,3.87-3.87Z" transform="translate(499.11 713.95) rotate(-180)"/><ellipse class="cls-6" cx="250.66" cy="291.16" rx="7.36" ry="11.96" transform="translate(-100.32 134.9) rotate(-25.28)"/><ellipse class="cls-6" cx="221.22" cy="291.16" rx="11.96" ry="7.36" transform="translate(-136.53 366.88) rotate(-64.72)"/><path class="cls-10" d="M324.18,301.72c-.92,2.93-.16,6.11-.43,9.17-.78,9-10,15.09-12.74,23.72-1.17,3.61-1.15,7.53-2.42,11.11-1.75,4.93-5.7,8.68-9.32,12.46a210.58,210.58,0,0,0-14.36,17.29A23.84,23.84,0,0,1,280.24,347c11.55-7.92,19.28-18.77,18.95-35.78,5.12-9.65,15.86-13.91,25.5-10.78A9.35,9.35,0,0,0,324.18,301.72Z"/><path class="cls-10" d="M193.56,380.5c-8.28-8.86-17.92-18.57-21.52-22.32s-7.57-7.53-9.32-12.46c-1.27-3.58-1.25-7.5-2.42-11.11-2.55-7.9-10.45-13.63-12.36-21.49,9.76-2.93,20.86.33,26.77,8.52,2.29,12.58,10,23,22.75,31.55C203.86,362.06,202,373.67,193.56,380.5Z"/><path class="cls-10" d="M137.4,289.85c-4.06-4.35-9.44-9.85-13.7-12.47.59-15,2-30.48,2-46.58,0-9.42-.09-18.73.17-27.86a27.43,27.43,0,0,1,16,22.85c-5.52,14-4.4,29.18,2.79,45.37A23.5,23.5,0,0,1,137.4,289.85Z"/><rect class="cls-11" x="251.76" y="213.2" width="78.73" height="72.54" rx="35.57" transform="translate(554.8 -28.86) rotate(92.86)"/><ellipse class="cls-13" cx="288.13" cy="243.12" rx="2.81" ry="5.28" transform="translate(-30.32 41.33) rotate(-7.8)"/></g><g class="cls-17"><path class="cls-18" d="M222.13,640.63c-9.7,3.9-26.1-36-42.28-76.28l-5-12.46A354.64,354.64,0,0,1,152.8,468a355.06,355.06,0,0,1,42.09,75.82c1.65,4.13,3.33,8.29,5,12.46C216.12,596.62,231.84,636.74,222.13,640.63Z"/><path class="cls-18" d="M257.86,640.63c9.71,3.9,26.11-36,42.29-76.28l5-12.46A354.64,354.64,0,0,0,327.2,468a355.06,355.06,0,0,0-42.09,75.82l-5,12.46C263.88,596.62,248.16,636.74,257.86,640.63Z"/><path class="cls-18" d="M240.18,635c-10.46,0-10.74-43.11-10.64-86.57,0-4.49,0-9,0-13.42a355.07,355.07,0,0,1,11-86,355.15,355.15,0,0,1,10.64,86.07c0,4.44,0,8.93,0,13.42C251.08,592,250.64,635,240.18,635Z"/></g></svg>