<svg id="Layer_1" data-name="Layer 1" xmlns="http://www.w3.org/2000/svg" xmlns:xlink="http://www.w3.org/1999/xlink" viewBox="0 0 480 480"><defs><style>.cls-1{fill:none;}.cls-2{fill:#d9e021;}.cls-3{clip-path:url(#clip-path);}.cls-4{fill:#927d87;}.cls-5{fill:#fff;}.cls-6{fill:#181922;opacity:0.22;}.cls-7{fill:#da8ca6;}.cls-8{fill:#6e4654;}.cls-9{fill:#594c53;}.cls-10{fill:#212b28;}.cls-11{fill:#2f403c;}.cls-12{fill:#40363b;}.cls-13{fill:#beb5a2;}.cls-14{fill:#806d77;}.cls-15{fill:#806d76;}</style><clipPath id="clip-path"><circle class="cls-1" cx="240" cy="240" r="227.9"/></clipPath></defs><title>Artboard 2</title><circle class="cls-2" cx="241.16" cy="236.77" r="227.9"/><g class="cls-3"><path class="cls-4" d="M212.62,342.61h61.09a0,0,0,0,1,0,0v139.1A22.74,22.74,0,0,1,251,504.46h-15.6a22.74,22.74,0,0,1-22.74-22.74V342.61A0,0,0,0,1,212.62,342.61Z"/><path class="cls-5" d="M225.33,86.3a6.69,6.69,0,0,1-3.6-1.1,8.17,8.17,0,0,1-2.34-2.94C221.41,83.54,223.4,84.89,225.33,86.3Z"/><path class="cls-6" d="M212.62,283.69h61.09a0,0,0,0,1,0,0V423a30.55,30.55,0,0,1-30.55,30.55h0A30.55,30.55,0,0,1,212.62,423V283.69A0,0,0,0,1,212.62,283.69Z"/><path class="cls-7" d="M337,158.39a79.35,79.35,0,1,1-55.4-75.69h0l2.41.81a78.39,78.39,0,0,1,17.27,8.58c.68.44,1.34.89,2,1.36l0,0a79.83,79.83,0,0,1,23.15,25.36c.8,1.37,1.54,2.78,2.24,4.2A78.87,78.87,0,0,1,337,158.39Z"/><path class="cls-8" d="M328.73,123l-17.67.06c-2.05,0-3.84.08-5,1a9.17,9.17,0,0,0-1.09,1.08,8,8,0,0,1-3.35,2.45,5.91,5.91,0,0,1-1.82.27,12.21,12.21,0,0,1-1.85-.18l-13.12-1.9a12.39,12.39,0,0,0-4.95-.1,2.81,2.81,0,0,0-2.22,2.1l-4.2-.28c.21-3.11,2.82-5.2,5.31-5.88a16.1,16.1,0,0,1,6.67,0l13.11,1.91a5,5,0,0,0,1.79.06,4.84,4.84,0,0,0,1.54-1.3,12.71,12.71,0,0,1,1.66-1.59,8.27,8.27,0,0,1,3-1.38l-4.32-9.35a5.68,5.68,0,0,0-1-1.69c-.67-.61-2-.68-3.37-.76a10.18,10.18,0,0,1-5.23-1.27,4.28,4.28,0,0,1-.53.59,5.32,5.32,0,0,1-2.77,1.13,98.47,98.47,0,0,1-14.65,1.31l-.06-4.21a95.36,95.36,0,0,0,14-1.25,6.15,6.15,0,0,0,.66-.15s0,0,0,0c.4-.89-.5-2.33-1.55-3.24-.45-.39-.94-.76-1.47-1.15a13.77,13.77,0,0,1-3.74-3.69,13.16,13.16,0,0,1-1.55-4.7c-.48-2.61-.89-5.26-1.24-7.9l1.91-.24h0l2.41.81c.3,2.19.66,4.4,1.05,6.57a9.77,9.77,0,0,0,1,3.27,10.4,10.4,0,0,0,2.69,2.51c.48.36,1,.73,1.46,1.13l.22-1.43,2,.17a10.88,10.88,0,0,0,8.91-3.64c.06,0,.1-.11.16-.17l1.84,1.53,0,0,1.38,1.14A15.06,15.06,0,0,1,294.1,100a3.33,3.33,0,0,0,.58,2.56c.63.64,2,.7,3.37.78,1.87.1,4.2.23,6,1.83a9.24,9.24,0,0,1,2,3l5,10.71H311l15.45,0C327.29,120.2,328,121.61,328.73,123Z"/><path class="cls-4" d="M334.83,292.83c1.93,23.79-4.64,55-.44,73.56-5.36,6.49-11.31,12.47-18.44,17-6.28,4-12.78,5.15-19.46,7.81-7.41,2.94-10.29,6.46-16.44,11.88-6.89,6.07-16.73,7.1-25.89,7.85l-12,1-6.55.54c-8,.66-16.37,1.27-23.81-1.77-15.08-6.14-22.07-23.52-36.13-31.34-10.08-5.6-21.52-5.49-30.67-10.86a46.2,46.2,0,0,0,1.53-8.37,25.61,25.61,0,0,1-7.38-5.2c2.5-11.17,3-29.87.83-50.83-2.35-22.83-7.22-42.41-12.43-52.22-.1-2.16-.18-4.33-.27-6.49a62.92,62.92,0,0,0-11.39-10.06c.67-6.52,1.33-13.14,1.68-20.06.09-1.56.15-3.14.2-4.74.14-4.57.22-9.1.3-13.58,0-.83,0-1.64.05-2.47a6.89,6.89,0,0,1,1.48-3.51,32.57,32.57,0,0,0,2.25-2.47c2.71-4.05-1.87-9.39-1-14.17.45-2.38,2.2-4.27,3.25-6.45,1.49-3.16,1.17-15.73-3.09-18.29,2.69-17,8-33,19.06-47.79a11.37,11.37,0,0,0,15.52-16.51c1.35-1.16,2.73-2.28,4.11-3.35a11.37,11.37,0,0,0,19.15-11.53c19-8.68,40-11.14,62.18-11.14q5.42,0,10.72.22c1.5,0,3,.14,4.49.22,4.19.27,8.33.65,12.41,1.19-.22,2.22-.34,4.49-.34,6.77a67.46,67.46,0,0,0,88.76,64c1.13,3.61,2.08,7.27,2.88,11,.16.73.3,1.45.46,2.18a185.65,185.65,0,0,1,2.94,23.49,7,7,0,0,0-4.48,5.23c-.71,2.89.87,5.8,1.44,8.73.85,4.35-.57,8.79-.92,13.22s.86,9.39,4.7,11.24c0,1.42,0,2.85,0,4.28,0,8.06.32,16,.72,23.79C347.78,245.88,333,270,334.83,292.83Z"/><rect class="cls-9" x="219.52" y="197.35" width="43.09" height="81.52" rx="19.22"/><polygon class="cls-4" points="241.91 268.41 314.31 308.82 311.78 263.36 241.91 268.41"/><polygon class="cls-4" points="236.01 267.57 163.62 307.98 166.14 262.52 236.01 267.57"/><rect class="cls-10" x="208" y="269.17" width="69.5" height="131.49" rx="31" transform="translate(577.67 92.17) rotate(90)"/><ellipse class="cls-4" cx="243.17" cy="380.8" rx="34.58" ry="23.02"/><rect class="cls-11" x="134.91" y="191.27" width="88.11" height="81.18" rx="39.8" transform="translate(401.61 41.55) rotate(87.14)"/><rect class="cls-12" x="134.91" y="191.27" width="88.11" height="81.18" rx="39.8" transform="translate(401.61 41.55) rotate(87.14)"/><rect class="cls-12" x="259.5" y="191.27" width="88.11" height="81.18" rx="39.8" transform="translate(519.99 -82.88) rotate(87.14)"/><rect class="cls-7" x="135.75" y="179.11" width="88.11" height="81.18" rx="39.8" transform="matrix(0.05, 1, -1, 0.05, 390.27, 29.16)"/><rect class="cls-7" x="259.5" y="179.48" width="88.11" height="81.18" rx="39.8" transform="translate(508.22 -94.08) rotate(87.14)"/><polygon class="cls-4" points="275.58 174.97 347.98 207.8 345.45 169.92 275.58 174.97"/><polygon class="cls-4" points="206.55 176.65 134.15 209.49 136.68 171.6 206.55 176.65"/><path class="cls-13" d="M146.53,360.1a25.61,25.61,0,0,1-7.38-5.2c2.5-11.17,3-29.87.83-50.83-2.35-22.83-7.22-42.41-12.43-52.22-.1-2.16-.18-4.33-.27-6.49,11.25,12.53,19.21,30.34,17.82,47.47C143.37,314.1,148.44,341.27,146.53,360.1Z"/><path class="cls-13" d="M341.31,304.07c-2,19.58-1.73,37.2.35,48.53a101.11,101.11,0,0,1-8.42,5.7c-1.44-18.73,3.26-44.87,1.59-65.47-1.47-18.13,7.52-37,19.82-49.61,0,2.58-.23,5.28-.43,7.75C348.83,260.45,343.73,280.54,341.31,304.07Z"/><path class="cls-10" d="M206.08,56.1a28.47,28.47,0,0,0-32.53-2.67l-50.14,29.3a28.45,28.45,0,0,0-10.22,38.92l5.07,8.68a28.38,28.38,0,0,0,15.85,12.73,28.32,28.32,0,0,1-6.4-7.55l-5.06-8.67a28.46,28.46,0,0,1,10.21-38.93L183,58.61A28.39,28.39,0,0,1,206.08,56.1Z"/><path class="cls-10" d="M223.74,64.33a28.47,28.47,0,0,0-32.53-2.66L141.07,91a28.45,28.45,0,0,0-10.22,38.92l5.07,8.68a28.38,28.38,0,0,0,15.85,12.73,28.32,28.32,0,0,1-6.4-7.55l-5.07-8.68a28.45,28.45,0,0,1,10.22-38.92l50.14-29.3A28.42,28.42,0,0,1,223.74,64.33Z"/><path class="cls-10" d="M243.26,74.38a28.49,28.49,0,0,0-32.53-2.67L160.59,101a28.45,28.45,0,0,0-10.22,38.93l5.07,8.67a28.34,28.34,0,0,0,15.85,12.73,28.27,28.27,0,0,1-6.4-7.54l-5.07-8.68A28.46,28.46,0,0,1,170,106.19L220.18,76.9A28.38,28.38,0,0,1,243.26,74.38Z"/><rect class="cls-10" x="218.34" y="278.52" width="47.14" height="17.68"/><path class="cls-10" d="M341.51,196s-61.72-38.72-65.93-23.56"/><path class="cls-10" d="M141.46,196s61.72-38.72,65.93-23.56"/><path class="cls-14" d="M360.45,144.78A71.58,71.58,0,0,1,251.79,59.45c1.5.06,3,.15,4.49.23A71.58,71.58,0,0,0,360,142.6C360.15,143.33,360.29,144.05,360.45,144.78Z"/><path class="cls-5" d="M118.58,216.3a5.61,5.61,0,0,1-1-1.06c.09-1.56.15-3.14.2-4.74.14-4.57.22-9.1.3-13.58a29.8,29.8,0,0,0,1.71,6.87C121.23,208,122.11,213.53,118.58,216.3Z"/><path class="cls-15" d="M112.61,198.47c-4.2,1.05-5.12,6.51-5.19,10.83l-.14,8.81c-.13,7.8-.25,15.7,1.6,23.28s5.92,14.92,12.5,19.09c2.43,1.54,5.38,2.63,8.15,1.91,5.16-1.35,6.87-8.18,5.29-13.27s-5.31-9.2-7.66-14c-4.17-8.47-2.65-16.65-3.14-25.6C123.73,204.23,119.42,196.77,112.61,198.47Z"/><path class="cls-15" d="M367.39,198.47c4.2,1.05,5.12,6.51,5.19,10.83l.14,8.81c.13,7.8.25,15.7-1.6,23.28s-5.92,14.92-12.5,19.09c-2.43,1.54-5.38,2.63-8.15,1.91-5.16-1.35-6.87-8.18-5.29-13.27s5.31-9.2,7.66-14c4.17-8.47,2.65-16.65,3.14-25.6C356.27,204.23,360.58,196.77,367.39,198.47Z"/><ellipse class="cls-5" cx="303.55" cy="223.07" rx="3.15" ry="5.91" transform="translate(-27.45 43.24) rotate(-7.8)"/><ellipse class="cls-5" cx="180.64" cy="223.07" rx="5.91" ry="3.15" transform="translate(-64.87 371.78) rotate(-82.2)"/></g></svg>