<svg id="Layer_1" data-name="Layer 1" xmlns="http://www.w3.org/2000/svg" xmlns:xlink="http://www.w3.org/1999/xlink" viewBox="0 0 480 480"><defs><style>.cls-1,.cls-24,.cls-26,.cls-6{fill:none;}.cls-2{fill:#d9e021;}.cls-3{clip-path:url(#clip-path);}.cls-4{clip-path:url(#clip-path-2);}.cls-5{fill:#a83124;}.cls-24,.cls-26,.cls-6{stroke:#241e12;stroke-miterlimit:10;}.cls-6{stroke-width:0.65px;}.cls-7{fill:#b89c5a;}.cls-8{fill:#7d6b3c;}.cls-9{fill:#a8883a;}.cls-10{fill:#9daebc;}.cls-11{fill:#d8dfe4;}.cls-12{fill:#030a17;}.cls-13{fill:#050205;}.cls-14{fill:#270000;}.cls-15{fill:#241e12;}.cls-16{fill:#f15a38;}.cls-17{clip-path:url(#clip-path-3);}.cls-18{fill:#290901;}.cls-19{fill:#9f382e;}.cls-20{fill:#0f0501;}.cls-21{fill:#99824b;}.cls-22{fill:#8ec762;}.cls-23{clip-path:url(#clip-path-4);}.cls-24{stroke-width:0.32px;}.cls-25{clip-path:url(#clip-path-5);}.cls-26{stroke-width:0.41px;}.cls-27{fill:#080a08;}.cls-28{fill:#806d30;}</style><clipPath id="clip-path"><circle class="cls-1" cx="240" cy="240" r="227.9"/></clipPath><clipPath id="clip-path-2"><path class="cls-1" d="M151.6,178.3a3.22,3.22,0,0,1-2.54-1.22,20,20,0,0,1-2-3.69,43.56,43.56,0,0,0-2.55-4.92,16.4,16.4,0,0,0-9.8-4.54,3.27,3.27,0,1,1,.6-6.51,22.72,22.72,0,0,1,13.83,6.44c1.13,1.12,2.2,3.29,3.83,6.73.43.91,1,2.14,1.23,2.5a3.27,3.27,0,0,1-.58,4.49A3.23,3.23,0,0,1,151.6,178.3Zm2.55-5.32a.18.18,0,0,0,0,.07Z"/></clipPath><clipPath id="clip-path-3"><path class="cls-1" d="M163.37,175.69a3.27,3.27,0,0,1-2.55-1.22,20.85,20.85,0,0,1-2-3.7,42.28,42.28,0,0,0-2.57-4.92c-1-1-16.6-17.68-16.6-25.25a3.27,3.27,0,1,1,6.53,0c0,3.16,10.12,16.1,14.71,20.64,1.14,1.13,2.21,3.3,3.83,6.74.43.9,1,2.13,1.23,2.49a3.27,3.27,0,0,1-2.62,5.22Zm2.54-5.32a.18.18,0,0,1,.05.07Z"/></clipPath><clipPath id="clip-path-4"><path class="cls-1" d="M231.64,346.61a1.54,1.54,0,0,1-1.09.82,9.6,9.6,0,0,1-2,0,19.57,19.57,0,0,0-2.68,0c-.65.19-11.27,3.22-14.53,1.54a1.58,1.58,0,0,1,1.45-2.81c1.36.7,9.16-.77,12.13-1.74a12.88,12.88,0,0,1,3.74-.16c.48,0,1.14,0,1.34,0a1.58,1.58,0,0,1,1.8,1.24A1.54,1.54,0,0,1,231.64,346.61Zm-1.72-2.27h0Z"/></clipPath><clipPath id="clip-path-5"><path class="cls-1" d="M235.51,349.43a2.06,2.06,0,0,1-.56,1.67,12.43,12.43,0,0,1-2.15,1.49,25.43,25.43,0,0,0-2.85,2c-.55.66-9.71,11.57-14.39,12.13a2,2,0,1,1-.49-4c2-.24,9.22-7.45,11.69-10.62a16.35,16.35,0,0,1,3.88-2.87c.53-.33,1.25-.78,1.45-.94a2,2,0,0,1,2.82,0A2,2,0,0,1,235.51,349.43ZM232,348.25l0,0Z"/></clipPath></defs><title>Artboard 14</title><circle class="cls-2" cx="241.16" cy="236.77" r="227.9"/><g class="cls-3"><g class="cls-4"><path class="cls-5" d="M151.6,178.3a3.22,3.22,0,0,1-2.54-1.22,20,20,0,0,1-2-3.69,43.56,43.56,0,0,0-2.55-4.92,16.4,16.4,0,0,0-9.8-4.54,3.27,3.27,0,1,1,.6-6.51,22.72,22.72,0,0,1,13.83,6.44c1.13,1.12,2.2,3.29,3.83,6.73.43.91,1,2.14,1.23,2.5a3.27,3.27,0,0,1-.58,4.49A3.23,3.23,0,0,1,151.6,178.3Zm2.55-5.32a.18.18,0,0,0,0,.07Z"/><path class="cls-6" d="M136.74,157.4a7.68,7.68,0,0,1-.83,6.67"/><path class="cls-6" d="M144,159.88a7.39,7.39,0,0,1-2.18,6.41"/><path class="cls-6" d="M152.14,168.34a9.08,9.08,0,0,1-6.29,3"/></g><path class="cls-5" d="M163.37,175.69a3.27,3.27,0,0,1-2.55-1.22,20.85,20.85,0,0,1-2-3.7,42.28,42.28,0,0,0-2.57-4.92c-1-1-16.6-17.68-16.6-25.25a3.27,3.27,0,1,1,6.53,0c0,3.16,10.12,16.1,14.71,20.64,1.14,1.13,2.21,3.3,3.83,6.74.43.9,1,2.13,1.23,2.49a3.27,3.27,0,0,1-2.62,5.22Zm2.54-5.32a.18.18,0,0,1,.05.07Z"/><path class="cls-7" d="M216.83,395.43H268.3a0,0,0,0,1,0,0V512.76a25.74,25.74,0,0,1-25.74,25.74h0a25.74,25.74,0,0,1-25.74-25.74V395.43A0,0,0,0,1,216.83,395.43Z"/><path class="cls-8" d="M216.83,345.78H268.3a0,0,0,0,1,0,0v75.3a25.74,25.74,0,0,1-25.74,25.74h0a25.74,25.74,0,0,1-25.74-25.74v-75.3A0,0,0,0,1,216.83,345.78Z"/><path class="cls-9" d="M342.59,319.84h-4.74a19.59,19.59,0,0,1-19.59-19.58V256.35a19.59,19.59,0,0,1,19.59-19.59h4.74a19.58,19.58,0,0,1,19.58,19.59v43.9C371,309.11,351.44,328.69,342.59,319.84Z"/><path class="cls-9" d="M148.65,319.84h-4.74c-10,10-29.58-9.6-19.59-19.59v-43.9a19.59,19.59,0,0,1,19.59-19.59h4.74a19.59,19.59,0,0,1,19.59,19.59v43.91A19.59,19.59,0,0,1,148.65,319.84Z"/><path class="cls-7" d="M347.47,259.55c0,1.09-.05,2.18-.1,3.27a70.52,70.52,0,0,1-1.48,11.68c0,.06,0,.13,0,.19-1.91,8.49-6,16.53-6.59,25.22-.55,8.14,1.91,17-2.24,24l-.17.27a29.69,29.69,0,0,1-2.21,3,18.33,18.33,0,0,0-2.84,4.53c-.94,2.43-.84,5.15-1.63,7.63a22.43,22.43,0,0,1-3.31,5.92q-3,4.33-6.07,8.69L304.2,377.7c-.34.49-.69,1-1,1.47h0c-3.42,4.9-7.21,11.21-12.52,14.29s-9.85,5.19-14.87,9.62c-5.81,5.11-14.1,6-21.81,6.62l-10.12.83-5.51.46c-6.75.55-13.8,1.07-20.07-1.49-8.59-3.51-14.78-10.67-21-17.25a45.27,45.27,0,0,0-13.63-9.77c-.94-.47-1.9-.9-2.87-1.32s-2-.85-3-1.25c-5.21-2.07-10.75-5.36-11.89-10.84-.34-1.61-.29-3.37-1.15-4.77-1.33-2.2-4.25-2.64-6.59-3.7-3.66-1.67-6.22-5.18-7.62-8.95-2-5.39-2.7-10.88-4.58-16-.63-1.74-.17-3.66-.49-5.47a9.49,9.49,0,0,0-.46-1.55c-.43-1.06-1-2.06-1.48-3.11-.12-.27-.23-.53-.33-.8-3-7.75.23-16.54,1.19-24.88,0-.32.07-.65.1-1,1.27-13.32-3.09-26.19-4.89-39.28-.12-.87-.23-1.74-.32-2.61-.19-1.8-.33-3.6-.39-5.41s-.1-3.8-.12-5.71c-.12-11.9.51-24,1.1-35.89.62-12.5,2.31-24.72,6-36.13a8.65,8.65,0,0,0,2.83-.67l9.88-4.17a8.83,8.83,0,0,0,4.7-11.57l-4.07-9.64a79.2,79.2,0,0,1,8.89-9.83,83.21,83.21,0,0,1,18.21-13c17.11-9,36.28-11.49,56.66-11.49,3,0,6.06.06,9,.18,1.26.05,2.53.11,3.78.18,3.53.23,7,.55,10.45,1,15.22,0,28.41,6.27,39.28,14.75a107.91,107.91,0,0,1,15.23,14.66,16,16,0,0,0,7.81,23.06,16,16,0,0,0,1.35,26.15,16,16,0,0,0,14.38,9c.53,0,1.06,0,1.59-.07.75,9.32.77,18.74.79,28,0,5,.3,10.24.55,15.48.06,1.31.12,2.62.17,3.93v0C347.47,253,347.54,256.31,347.47,259.55Z"/><path class="cls-10" d="M258,261.3l-.33-6.21a28.74,28.74,0,0,1,11.9-24.45c9.87-7.26,18.95-5.64,30.22-3.68a9.16,9.16,0,0,1,3.49,1.11,11.59,11.59,0,0,1,2.52,2.7c2.79,3.48,6.64,6,9.72,9.18,4.83,5.05,5.06,11.78,5.41,18.39.85,16.06-12.27,29.74-29.31,30.54l-1.22.06C273.33,289.74,258.82,277.37,258,261.3Z"/><path class="cls-11" d="M263,260.63l-.28-5.21a24.12,24.12,0,0,1,10-20.53c8.29-6.1,15.92-4.74,25.38-3.09a7.46,7.46,0,0,1,2.93.93,9.72,9.72,0,0,1,2.12,2.26c2.34,2.93,5.57,5,8.16,7.72,4,4.24,4.25,9.89,4.54,15.44.71,13.49-10.31,25-24.62,25.64l-1,0C275.88,284.51,263.7,274.12,263,260.63Z"/><path class="cls-12" d="M288.27,256.3v-.72c0-1.88,1.1-3.43,2.47-3.48h.09c1.37,0,2.48,1.43,2.49,3.3v.73c0,1.87-1.1,3.43-2.46,3.47h-.1C289.39,259.66,288.28,258.18,288.27,256.3Z"/><path class="cls-13" d="M208.75,348.61q1-2,2.26-3.87c4.77-7.32,12.32-12.14,20.58-14.49a48,48,0,0,1,27.17.29c8.13,2.3,15,7.72,20.32,14.38a22.68,22.68,0,0,1,7-2.33c-22.43-46.53-74-41.67-90.34,14.58A55,55,0,0,1,208.75,348.61Z"/><path class="cls-14" d="M262.66,347.63V348a8.48,8.48,0,0,1-4.8,7.63,8.38,8.38,0,0,1-3.68.83H231.66a8.45,8.45,0,0,1-5.1-1.7,8.09,8.09,0,0,1-2.05-2.23,8.35,8.35,0,0,1-1.32-4.53v-.36a8.47,8.47,0,0,1,8.47-8.46h22.52A8.47,8.47,0,0,1,262.66,347.63Z"/><rect class="cls-15" x="263.43" y="216.16" width="51.78" height="7.09" rx="3.55"/><rect class="cls-15" x="167.36" y="216.16" width="51.78" height="7.09" rx="3.55"/><circle class="cls-7" cx="198.18" cy="228.5" r="8.82"/><circle class="cls-7" cx="168.77" cy="224.58" r="5.65"/><circle class="cls-7" cx="177.27" cy="215.43" r="5.65"/><circle class="cls-7" cx="190.99" cy="215.43" r="5.65"/><path class="cls-16" d="M261.83,351.64a8.56,8.56,0,0,1-4,4,8.38,8.38,0,0,1-3.68.83H231.66a8.45,8.45,0,0,1-5.1-1.7,8.09,8.09,0,0,1-2.05-2.23,30.57,30.57,0,0,1,20.28-7A27.84,27.84,0,0,1,261.83,351.64Z"/><g class="cls-17"><path class="cls-6" d="M148,141.07c-.55.88-1.75,1-2.62,1.52-2.39,1.53-4.81,1.59-7.25,1.75"/><path class="cls-6" d="M151.88,147.61c-.55.88-1.87.8-2.62,1.52-2.09,2-4.71,1.7-7.25,1.74"/><path class="cls-6" d="M156.46,154.8a4.26,4.26,0,0,1-2.62,1.51c-2.4.68-4.81,1.26-7.25,1.75"/><path class="cls-6" d="M161.69,161.34a4.31,4.31,0,0,1-2.62,1.51c-2.39.67-4.82,1.26-7.25,1.75"/></g><path class="cls-18" d="M347.37,262.82a26.64,26.64,0,0,1-26.64-26.64v-58a29.7,29.7,0,0,1-28.8,9.24l-52.88-12a29.62,29.62,0,0,1-21.26,8.95H163.54a29.88,29.88,0,0,1-10.13-1.77v60.16a14.16,14.16,0,0,1-14.15,14.16c-.19-1.8-.33-3.6-.39-5.41-.44-13.71.3-27.86,1-41.6.62-12.5,2.31-24.72,6-36.13a8.65,8.65,0,0,0,2.83-.67l9.88-4.17a8.83,8.83,0,0,0,4.7-11.57l-4.07-9.64a79.2,79.2,0,0,1,8.89-9.83,83.21,83.21,0,0,1,18.21-13h29.63a29.71,29.71,0,0,1,28.77-9.18l60.43,13.71.67.32a109,109,0,0,1,14.94,14.42,16,16,0,0,0,7.81,23.07,16,16,0,0,0,1.35,26.15,16,16,0,0,0,14.38,9c.53,0,1.06,0,1.59-.07.75,9.32.77,18.74.79,28C346.63,240.83,347.9,252,347.37,262.82Z"/><path class="cls-19" d="M223.71,35a4.72,4.72,0,0,1-.11.74c0-.25,0-.5,0-.75Z"/><path class="cls-19" d="M328.51,167.25a16,16,0,0,0-5,6.68H145.43l0-.11a8.89,8.89,0,0,0,3.2-.69l9.88-4.17a8.83,8.83,0,0,0,4.7-11.57l-8-28.44a8.57,8.57,0,0,0-1.53-2.84L178.41,31l18.36,1.63c0,.26,0,.51,0,.78a13.53,13.53,0,0,0,26.86,2.34c.64,6.67,5,11.84,10.21,11.84,5,0,9.1-4.62,10.06-10.79l40.33,3.58,6.51.57,25.07,2.23,10,95.79a16,16,0,0,0,2.78,28.28Z"/><rect class="cls-20" x="281.33" y="39.89" width="6.53" height="66.01" transform="translate(7.55 -24.86) rotate(5.07)"/><path class="cls-20" d="M279.84,126.61h0a5.56,5.56,0,0,0,6-5l1.05-11.79a9.42,9.42,0,0,0-8.54-10.2l-1.7-.15-1.88,21.16C281.14,115.57,279.84,126.61,279.84,126.61Z"/><path class="cls-21" d="M347.47,245.82c0,1.1.72,22.88-1.58,28.68a1.29,1.29,0,0,0,0,.19c-1.91,8.49-6,16.53-6.59,25.22-.55,8.14,1.91,17-2.24,24l-.17.27a29.69,29.69,0,0,1-2.21,3,18.33,18.33,0,0,0-2.84,4.53c-.94,2.43-.84,5.15-1.63,7.63a22.43,22.43,0,0,1-3.31,5.92q-3,4.33-6.07,8.69L304.2,377.7l-1,1.47h0c-3.42,4.9-7.21,11.21-12.52,14.29s-9.85,5.19-14.87,9.62c-5.81,5.11-14.1,6-21.81,6.62l-10.12.83-5.51.46c-6.75.55-13.8,1.07-20.07-1.49-8.59-3.51-14.78-10.67-21-17.25a45.27,45.27,0,0,0-13.63-9.77c-.94-.47-1.9-.9-2.87-1.32s-2-.85-3-1.25c-5.21-2.07-10.75-5.36-11.89-10.84-.34-1.61-.29-3.37-1.15-4.77-1.33-2.2-4.25-2.64-6.59-3.7-3.66-1.67-6.22-5.18-7.62-8.95-2-5.39-2.7-10.88-4.58-16-.63-1.74-.17-3.66-.49-5.47a9.49,9.49,0,0,0-.46-1.55c-.43-1.06-1-2.06-1.48-3.11-.12-.27-.23-.53-.33-.8-3-7.75.23-16.54,1.19-24.88,0-.32.07-.65.1-1,1.27-13.32-3.09-26.19-4.89-39.28-.12-.87-.23-1.74-.32-2.61-.19-1.8-.33-3.6-.39-5.41s-.1-3.8-.12-5.71h20.62c-7.13,13.12-11.19,41.87-11.19,57.85,0,51.08,41.74,65.68,92.81,65.68s92.16-14.6,92.16-65.68c0-16-4-44.73-11.18-57.85Z"/><path class="cls-21" d="M268.28,380.43a1,1,0,0,0,0-2,1,1,0,0,0,0,2Z"/><path class="cls-13" d="M272.58,372.15a1,1,0,0,0,0-2,1,1,0,0,0,0,2Z"/><path class="cls-13" d="M253.37,384.07a1,1,0,0,0,0-2,1,1,0,0,0,0,2Z"/><path class="cls-13" d="M149.4,264.2a1,1,0,0,0,0-2,1,1,0,0,0,0,2Z"/><path class="cls-13" d="M144.43,253.94a1,1,0,0,0,0-2,1,1,0,0,0,0,2Z"/><path class="cls-13" d="M147.08,322.15a1,1,0,0,0,0-2,1,1,0,0,0,0,2Z"/><path class="cls-13" d="M154.7,340.7a1,1,0,0,0,0-2,1,1,0,0,0,0,2Z"/><path class="cls-13" d="M154.36,355.93a1,1,0,0,0,0-2,1,1,0,0,0,0,2Z"/><path class="cls-13" d="M174.56,362.88a1,1,0,0,0,0-2,1,1,0,0,0,0,2Z"/><path class="cls-13" d="M176.55,372.15a1,1,0,0,0,0-2,1,1,0,0,0,0,2Z"/><path class="cls-13" d="M203.7,382.42a1,1,0,0,0,0-2,1,1,0,0,0,0,2Z"/><path class="cls-13" d="M212,376.79a1,1,0,0,0,0-2,1,1,0,0,0,0,2Z"/><path class="cls-13" d="M220.92,398.31a1,1,0,0,0,0-2,1,1,0,0,0,0,2Z"/><path class="cls-13" d="M239.14,379.44a1,1,0,0,0,0-2,1,1,0,0,0,0,2Z"/><path class="cls-13" d="M243.44,402.29a1,1,0,0,0,0-2,1,1,0,0,0,0,2Z"/><path class="cls-13" d="M269.27,399.64a1,1,0,0,0,0-2,1,1,0,0,0,0,2Z"/><path class="cls-13" d="M280.2,384.41a1,1,0,0,0,0-2,1,1,0,0,0,0,2Z"/><path class="cls-13" d="M271.59,384.07a1,1,0,0,0,0-2,1,1,0,0,0,0,2Z"/><path class="cls-13" d="M297.75,371.16a1,1,0,0,0,0-2,1,1,0,0,0,0,2Z"/><path class="cls-13" d="M297.08,379.44a1,1,0,0,0,0-2,1,1,0,0,0,0,2Z"/><path class="cls-13" d="M313.64,358.58a1,1,0,0,0,0-2,1,1,0,0,0,0,2Z"/><path class="cls-13" d="M324.57,340.7a1,1,0,0,0,0-2,1,1,0,0,0,0,2Z"/><path class="cls-13" d="M333.18,325.13a1,1,0,0,0,0-2,1,1,0,0,0,0,2Z"/><path class="cls-13" d="M334.83,290a1,1,0,0,0,0-2,1,1,0,0,0,0,2Z"/><path class="cls-13" d="M339.14,281.42a1,1,0,0,0,0-2,1,1,0,0,0,0,2Z"/><path class="cls-13" d="M332.52,260.89a1,1,0,0,0,0-2,1,1,0,0,0,0,2Z"/><path class="cls-13" d="M340.79,255.92a1,1,0,0,0,0-2,1,1,0,0,0,0,2Z"/><path class="cls-13" d="M335.83,307.25a1,1,0,0,0,0-2,1,1,0,0,0,0,2Z"/><path class="cls-7" d="M283.64,371.54h0a1.68,1.68,0,0,1-.45-2.31L292.85,358a1.69,1.69,0,0,1,2.36.08h0a1.68,1.68,0,0,1,.45,2.31L286,371.62A1.69,1.69,0,0,1,283.64,371.54Z"/><path class="cls-7" d="M299.32,361.74h0a1.71,1.71,0,0,1-.45-2.32l9.67-11.23a1.69,1.69,0,0,1,2.36.08h0a1.68,1.68,0,0,1,.45,2.31l-9.66,11.24A1.71,1.71,0,0,1,299.32,361.74Z"/><rect class="cls-22" x="256.45" y="337.76" width="5.18" height="24.19" rx="2.59"/><rect class="cls-22" x="252.36" y="333.68" width="5.18" height="12.76" rx="1.88" transform="translate(-85.1 595.01) rotate(-90)"/><rect class="cls-22" x="260" y="342.73" width="5.18" height="39.09" rx="2.59"/><circle class="cls-14" cx="229.88" cy="349.75" r="6.54"/><path class="cls-5" d="M225.74,344.39a.29.29,0,0,1,0-.09,3.67,3.67,0,0,0-.86.16c-3,1-10.77,2.44-12.13,1.74a1.58,1.58,0,0,0-1.45,2.81c3.26,1.68,13.88-1.35,14.53-1.54l.29,0A6.63,6.63,0,0,1,225.74,344.39Z"/><g class="cls-23"><path class="cls-24" d="M213.36,345.56c.26.43,0,1,.07,1.46a6.75,6.75,0,0,1-.85,3.5"/><path class="cls-24" d="M217,345.32c.25.43-.07,1,.07,1.47.4,1.34-.32,2.4-.86,3.5"/><path class="cls-24" d="M221.14,345a2.09,2.09,0,0,1,.07,1.46c-.24,1.18-.53,2.35-.86,3.5"/><path class="cls-24" d="M225.1,344.15a2.06,2.06,0,0,1,.07,1.47c-.24,1.17-.52,2.34-.85,3.5"/></g><path class="cls-5" d="M228.5,350.52a7.73,7.73,0,0,0-1.74,1.49c-2.47,3.17-9.73,10.38-11.69,10.62a2,2,0,1,0,.49,4c4.68-.56,13.84-11.47,14.39-12.13a3.49,3.49,0,0,1,.31-.27A7.92,7.92,0,0,1,228.5,350.52Z"/><g class="cls-25"><path class="cls-26" d="M215.24,361.52c.58.27.72,1,1.13,1.51a8.65,8.65,0,0,1,1.62,4.35"/><path class="cls-26" d="M219,358.61c.59.27.64,1.1,1.14,1.51,1.4,1.14,1.39,2.79,1.61,4.35"/><path class="cls-26" d="M223.1,355.25a2.57,2.57,0,0,1,1.13,1.51q.9,2.14,1.62,4.35"/><path class="cls-26" d="M226.76,351.53a2.72,2.72,0,0,1,1.13,1.51c.59,1.43,1.13,2.89,1.62,4.36"/></g><circle class="cls-7" cx="221.71" cy="219.35" r="8.82"/><circle class="cls-7" cx="211.91" cy="210.86" r="8.82"/><path class="cls-10" d="M164.79,261.41a26.17,26.17,0,0,1,4-18c1.49-2.34,3.58-4.35,4.51-7a19,19,0,0,1,.74-2.08,7.54,7.54,0,0,1,1.19-1.61c16.91-18.6,54.49-6.33,55.84,19.21l.33,6.3c.87,16.29-14.43,30.16-31.72,31l-1.23.05C182.18,290.1,166.94,276.79,164.79,261.41Z"/><path class="cls-11" d="M169.69,260.7a22.28,22.28,0,0,1,3.41-15.3c1.27-2,3-3.72,3.84-5.94a15,15,0,0,1,.63-1.78,6.79,6.79,0,0,1,1-1.38c14.41-15.84,46.44-5.39,47.59,16.38l.29,5.36c.73,13.89-12.3,25.71-27,26.41l-1,.05C184.52,285.15,171.52,273.81,169.69,260.7Z"/><path class="cls-12" d="M193,256v-.79c0-2,1.2-3.74,2.68-3.79h.11c1.49,0,2.7,1.56,2.71,3.61v.79c0,2-1.2,3.73-2.69,3.79h-.1C194.21,259.65,193,258,193,256Z"/><path class="cls-7" d="M326.94,218.37a22.42,22.42,0,0,1-2.27,6.75V205.6a27.35,27.35,0,0,1-1.7,7.84,153.82,153.82,0,0,0,4.6-20.12,19.2,19.2,0,0,1-3.35,5.26l-.65-13c-5.51,14.62-6.6,30.58-5.76,46.18a36.5,36.5,0,0,0,1.61,10c.91,2.6,3.61,8.2,4.35,2.65C324.93,235.75,325.44,227,326.94,218.37Z"/><path class="cls-7" d="M213.89,174.37A29.46,29.46,0,0,1,218.25,187l-15.45-9.2a4.27,4.27,0,0,1-.35,4c-3.58-.32-6.72-2.37-9.74-4.31s-6.28-3.89-9.86-3.94-7.47,2.58-7.42,6.17a19.39,19.39,0,0,0-16.68-5.82c3.74,4.2,8.48,7.36,13.16,10.48,3.21,2.13,6.47,4.3,10.14,5.48,4.22,1.35,8.74,1.34,13.17,1.31l19.34-.13c3.46,0,16.18-.07,15.35-5.41C229.29,181.59,217.07,176.6,213.89,174.37Z"/><path class="cls-27" d="M155.39,275.94l3.28-2.64c.64-.52,2.05-.18,3.75.89l8.93,5.65c4.08,2.58,7.49,7.74,5.93,9L174,291.46c-.65.53-2.06.19-3.76-.88l-8.92-5.65C157.24,282.35,153.84,277.19,155.39,275.94Z"/><path class="cls-27" d="M150.43,284.86l1.84-1.6c.37-.32,1.23-.09,2.31.61l5.65,3.67c2.59,1.68,4.89,5,4,5.73l-1.85,1.6c-.36.31-1.22.08-2.3-.62l-5.66-3.67C151.86,288.9,149.55,285.62,150.43,284.86Z"/><path class="cls-27" d="M179,292.28l1.85,0c.36,0,.91.4,1.46,1.07l2.87,3.55c1.31,1.62,1.9,3.83,1,3.84l-1.85,0c-.36,0-.91-.39-1.46-1.07L180,296.12C178.72,294.49,178.13,292.29,179,292.28Z"/><ellipse class="cls-27" cx="275.7" cy="255.84" rx="2.34" ry="0.65" transform="translate(-24.47 29.21) rotate(-5.81)"/><ellipse class="cls-27" cx="303.68" cy="256.07" rx="2.34" ry="0.65" transform="translate(-24.35 32.04) rotate(-5.81)"/><ellipse class="cls-27" cx="184.28" cy="253.74" rx="0.65" ry="2.34" transform="translate(-69.91 437.39) rotate(-89.86)"/><ellipse class="cls-27" cx="212.08" cy="256.86" rx="0.65" ry="2.34" transform="translate(-45.31 468.31) rotate(-89.86)"/><path class="cls-28" d="M260.69,266.46v31.4h-1.48a10.33,10.33,0,0,0-10.32,10.34v7.29a10.3,10.3,0,0,0,1.19,4.82,14.61,14.61,0,0,1-4.82.82h-3.12a14.61,14.61,0,0,1-8.08-2.44,4.83,4.83,0,0,0,1.95-3.88v-7.35a4.85,4.85,0,0,0-4.85-4.85h-3.42a4.25,4.25,0,0,0-1,.12V266.46c0-9.1,6.9-16.48,15.42-16.48C242.14,250,260.69,249.93,260.69,266.46Z"/></g></svg>