<svg id="Layer_1" data-name="Layer 1" xmlns="http://www.w3.org/2000/svg" xmlns:xlink="http://www.w3.org/1999/xlink" viewBox="0 0 480 480"><defs><style>.cls-1,.cls-13,.cls-24{fill:none;}.cls-2{fill:#d9e021;}.cls-3{clip-path:url(#clip-path);}.cls-4{fill:#9598a6;}.cls-5{clip-path:url(#clip-path-2);}.cls-6{fill:#c0966c;}.cls-7{fill:#937c84;}.cls-8{fill:#181922;opacity:0.22;}.cls-9{fill:#6e5d63;}.cls-10{fill:#212b28;}.cls-11{clip-path:url(#clip-path-3);}.cls-12{fill:#a83124;}.cls-13{stroke:#000;stroke-width:0.38px;}.cls-13,.cls-24{stroke-miterlimit:10;}.cls-14{clip-path:url(#clip-path-4);}.cls-15{clip-path:url(#clip-path-5);}.cls-16{clip-path:url(#clip-path-6);}.cls-17{fill:#d7cec5;}.cls-18{fill:#fff;}.cls-19{fill:#725557;}.cls-20{fill:#c3442d;}.cls-21{fill:#edcd71;}.cls-22{fill:#7c423b;}.cls-23{fill:#352b28;}.cls-24{stroke:#6e5d63;stroke-width:3.81px;}</style><clipPath id="clip-path"><circle class="cls-1" cx="240" cy="-260" r="227.9"/></clipPath><clipPath id="clip-path-2"><circle class="cls-1" cx="240" cy="240" r="227.9"/></clipPath><clipPath id="clip-path-3"><path class="cls-1" d="M121.66,256l-.41.13-.2,0-.14,0-.53.11-.91.16-1.73.28-3.33.53c-1.08.19-2.17.39-3.08.64l-.33.1-.25.09-.12,0a0,0,0,0,1,0,0l-.16.1c-.43.24-.84.51-1.25.78a19.39,19.39,0,0,0-7.12,8.89A3.82,3.82,0,1,1,95,265.17c.05-.12.1-.24.16-.36l0-.06A26.34,26.34,0,0,1,106,253.67c.57-.31,1.15-.59,1.75-.86l.24-.1.37-.15.38-.13.29-.08.57-.13.5-.09c1.32-.21,2.48-.3,3.66-.39l6.28-.37.77-.05a2.38,2.38,0,0,1,.86,4.65Z"/></clipPath><clipPath id="clip-path-4"><path class="cls-1" d="M326.48,251l.4.13.21.06.13.06.49.2.85.37,1.59.75L333.2,254c1,.45,2,.9,2.91,1.2l.33.11.26.06.11,0H337c.49,0,1,.05,1.47.06a19.41,19.41,0,0,0,10.89-3.36,3.82,3.82,0,1,1,4.34,6.29l-.34.21-.05,0a26.35,26.35,0,0,1-15.2,3.07c-.65-.07-1.29-.15-1.93-.27l-.25-.05-.39-.09-.39-.1-.29-.1-.54-.21-.47-.21c-1.21-.56-2.22-1.15-3.24-1.74l-5.4-3.21-.67-.4a2.38,2.38,0,0,1,1.91-4.33Z"/></clipPath><clipPath id="clip-path-5"><path class="cls-1" d="M120.33,253.08a18,18,0,0,1-4-2.44l-1.65-1.24-.78-.55-.86-.57a7.08,7.08,0,0,0-1.38-.8.7.7,0,0,0-.32-.06c-.1,0-.33,0-.54,0a23.74,23.74,0,0,0-3.51.83,23.9,23.9,0,0,1-2.33.54c-.75.12-1.52.22-2.32.28a17,17,0,0,1-5.11-.31,13.85,13.85,0,0,1-2.61-.89,20.61,20.61,0,0,1-2.25-1.21c-.69-.43-1.31-.86-1.91-1.3l-1.83-1.34a3.82,3.82,0,1,1,4.52-6.17l.32.26.16.14,1.4,1.29c.47.44,1,.85,1.41,1.21a13.4,13.4,0,0,0,1.31.93,7.69,7.69,0,0,0,1.26.61,10.25,10.25,0,0,0,3.14.53c.59,0,1.2,0,1.82,0a15,15,0,0,0,1.77-.21,25.94,25.94,0,0,1,4.69-.51,9.94,9.94,0,0,1,1.52.17,6.69,6.69,0,0,1,1.66.61,12.42,12.42,0,0,1,2.07,1.49l.81.68c.3.25.58.5.85.75l1.53,1.44a14.66,14.66,0,0,0,2.82,2.21l.07,0a2,2,0,0,1-1.69,3.58Z"/></clipPath><clipPath id="clip-path-6"><path class="cls-1" d="M319.35,245.61a18.4,18.4,0,0,1,4.7.38l2,.37c.32.06.64.1.94.14l1,.13a6.93,6.93,0,0,0,1.6.09.6.6,0,0,0,.3-.09,4.55,4.55,0,0,0,.48-.27,21.94,21.94,0,0,0,2.77-2.31,21.32,21.32,0,0,1,1.84-1.52c.61-.44,1.26-.88,1.95-1.29a17,17,0,0,1,4.7-2,14.21,14.21,0,0,1,2.74-.37,19.25,19.25,0,0,1,2.55.08,22.43,22.43,0,0,1,2.3.31l2.23.37a3.83,3.83,0,0,1-1.28,7.55l-.4-.1-.21,0-1.83-.52c-.62-.19-1.24-.34-1.8-.46a12.82,12.82,0,0,0-1.59-.24,6.54,6.54,0,0,0-1.4,0,10.4,10.4,0,0,0-3.05.92q-.79.38-1.62.84a16.25,16.25,0,0,0-1.48,1,26.13,26.13,0,0,1-4,2.55,9.51,9.51,0,0,1-1.44.53,5.85,5.85,0,0,1-1.75.19,12.79,12.79,0,0,1-2.52-.4l-1-.25c-.38-.09-.74-.19-1.1-.29l-2-.6a15.09,15.09,0,0,0-3.52-.72h-.08a2,2,0,0,1-.09-4Z"/></clipPath></defs><title>Artboard 21</title><circle class="cls-2" cx="241.16" cy="236.77" r="227.9"/><g class="cls-3"><path class="cls-4" d="M221.19-154.39h50.7a0,0,0,0,1,0,0v141a25.35,25.35,0,0,1-25.35,25.35h0a25.35,25.35,0,0,1-25.35-25.35v-141a0,0,0,0,1,0,0Z"/></g><g class="cls-5"><path class="cls-6" d="M378.59,422.9c-5-13.57-18.73-31.9-20.35-45.76q7.88,67,15.73,134c-25.33-25.34-16.55-71.81-41.46-97.56a427.35,427.35,0,0,1,5.78,89.3l-35.94-68.63q-3.42,14.7-6.81,29.39L268,429.41c-1.76,10.88-14.17,16.91-25.17,16.89s-21.6-4.18-32.55-5.23-23.77,2.17-28.49,12.11c-3.52,7.41-1.59,16.55-5.2,23.92l-28.91-33.54q-5.55,41.76-11.08,83.48h-3.35a128.53,128.53,0,0,1-15.73-36L103.47,205.32C99.7,128.92,158.48,67,234.73,67a142.2,142.2,0,0,1,69.62,18.31c-7.18,0-15.17,1.74-19.56,2.58A130.49,130.49,0,0,1,307.9,89.5a21.52,21.52,0,0,1-8.54,5.6c3.22,1.7,7.39.92,10.46,2.91,5.87,3.8,3.39,13.34,9.32,16.88-.1-4.59,1.55-13.14.69-19.6a151.61,151.61,0,0,1,14.54,12.22c26.24,25,43.38,59.61,45.27,97.81l13,264.11A395.64,395.64,0,0,0,378.59,422.9Z"/><path class="cls-7" d="M209.72,331.83h55.36a0,0,0,0,1,0,0V504.54a27.68,27.68,0,0,1-27.68,27.68h0a27.68,27.68,0,0,1-27.68-27.68V331.83A0,0,0,0,1,209.72,331.83Z"/><path class="cls-8" d="M209.72,278.43h55.36a0,0,0,0,1,0,0V404.64a27.68,27.68,0,0,1-27.68,27.68h0a27.68,27.68,0,0,1-27.68-27.68V278.43a0,0,0,0,1,0,0Z"/><path class="cls-7" d="M344.31,278.13H341.1a13.26,13.26,0,0,1-13.26-13.26V235.14a13.26,13.26,0,0,1,13.26-13.26h3.21a13.26,13.26,0,0,1,13.26,13.26v29.73C363.56,270.86,350.3,284.12,344.31,278.13Z"/><rect class="cls-9" x="341.54" y="238.65" width="11.44" height="25.18" rx="5.72"/><path class="cls-7" d="M128.32,278.22h-3.41c-7.17,7.17-21.25-6.9-14.07-14.08V232.6a14.07,14.07,0,0,1,14.07-14.08h3.41a14.07,14.07,0,0,1,14.07,14.08v31.54A14.07,14.07,0,0,1,128.32,278.22Z"/><rect class="cls-10" x="113.43" y="238.65" width="11.44" height="25.18" rx="5.72"/><g class="cls-11"><path class="cls-12" d="M121.66,256l-.41.13-.2,0-.14,0-.53.11-.91.16-1.73.28-3.33.53c-1.08.19-2.17.39-3.08.64l-.33.1-.25.09-.12,0a0,0,0,0,1,0,0l-.16.1c-.43.24-.84.51-1.25.78a19.39,19.39,0,0,0-7.12,8.89A3.82,3.82,0,1,1,95,265.17c.05-.12.1-.24.16-.36l0-.06A26.34,26.34,0,0,1,106,253.67c.57-.31,1.15-.59,1.75-.86l.24-.1.37-.15.38-.13.29-.08.57-.13.5-.09c1.32-.21,2.48-.3,3.66-.39l6.28-.37.77-.05a2.38,2.38,0,0,1,.86,4.65Z"/><path class="cls-13" d="M97,260.6A5.51,5.51,0,0,1,101.1,262a13.33,13.33,0,0,1,2.7,3.48"/><path class="cls-13" d="M102.37,255.26a5.51,5.51,0,0,1,4.07,1.41,13.33,13.33,0,0,1,2.7,3.48"/><path class="cls-13" d="M110.57,251.56a5.51,5.51,0,0,1,3.69,2.22,13.13,13.13,0,0,1,1.93,4"/></g><g class="cls-14"><path class="cls-12" d="M326.48,251l.4.13.21.06.13.06.49.2.85.37,1.59.75L333.2,254c1,.45,2,.9,2.91,1.2l.33.11.26.06.11,0H337c.49,0,1,.05,1.47.06a19.41,19.41,0,0,0,10.89-3.36,3.82,3.82,0,1,1,4.34,6.29l-.34.21-.05,0a26.35,26.35,0,0,1-15.2,3.07c-.65-.07-1.29-.15-1.93-.27l-.25-.05-.39-.09-.39-.1-.29-.1-.54-.21-.47-.21c-1.21-.56-2.22-1.15-3.24-1.74l-5.4-3.21-.67-.4a2.38,2.38,0,0,1,1.91-4.33Z"/><path class="cls-13" d="M351.73,260.26a5.52,5.52,0,0,1-2.56-3.46,13.24,13.24,0,0,1-.29-4.4"/><path class="cls-13" d="M344.32,261.67a5.45,5.45,0,0,1-2.57-3.45,13.28,13.28,0,0,1-.29-4.4"/><path class="cls-13" d="M335.45,260.12a5.51,5.51,0,0,1-1.8-3.91,13.51,13.51,0,0,1,.63-4.36"/></g><g class="cls-15"><path class="cls-12" d="M120.33,253.08a18,18,0,0,1-4-2.44l-1.65-1.24-.78-.55-.86-.57a7.08,7.08,0,0,0-1.38-.8.7.7,0,0,0-.32-.06c-.1,0-.33,0-.54,0a23.74,23.74,0,0,0-3.51.83,23.9,23.9,0,0,1-2.33.54c-.75.12-1.52.22-2.32.28a17,17,0,0,1-5.11-.31,13.85,13.85,0,0,1-2.61-.89,20.61,20.61,0,0,1-2.25-1.21c-.69-.43-1.31-.86-1.91-1.3l-1.83-1.34a3.82,3.82,0,1,1,4.52-6.17l.32.26.16.14,1.4,1.29c.47.44,1,.85,1.41,1.21a13.4,13.4,0,0,0,1.31.93,7.69,7.69,0,0,0,1.26.61,10.25,10.25,0,0,0,3.14.53c.59,0,1.2,0,1.82,0a15,15,0,0,0,1.77-.21,25.94,25.94,0,0,1,4.69-.51,9.94,9.94,0,0,1,1.52.17,6.69,6.69,0,0,1,1.66.61,12.42,12.42,0,0,1,2.07,1.49l.81.68c.3.25.58.5.85.75l1.53,1.44a14.66,14.66,0,0,0,2.82,2.21l.07,0a2,2,0,0,1-1.69,3.58Z"/><path class="cls-13" d="M95.28,238.88a5.47,5.47,0,0,1-1.73,3.94,13.37,13.37,0,0,1-3.68,2.43"/><path class="cls-13" d="M101.54,241.92a5.48,5.48,0,0,1-.15,4.31,13.61,13.61,0,0,1-2.53,3.61"/><path class="cls-13" d="M110,241a5.45,5.45,0,0,1,.61,4.26,13.35,13.35,0,0,1-1.85,4"/></g><g class="cls-16"><path class="cls-12" d="M319.35,245.61a18.4,18.4,0,0,1,4.7.38l2,.37c.32.06.64.1.94.14l1,.13a6.93,6.93,0,0,0,1.6.09.6.6,0,0,0,.3-.09,4.55,4.55,0,0,0,.48-.27,21.94,21.94,0,0,0,2.77-2.31,21.32,21.32,0,0,1,1.84-1.52c.61-.44,1.26-.88,1.95-1.29a17,17,0,0,1,4.7-2,14.21,14.21,0,0,1,2.74-.37,19.25,19.25,0,0,1,2.55.08,22.43,22.43,0,0,1,2.3.31l2.23.37a3.83,3.83,0,0,1-1.28,7.55l-.4-.1-.21,0-1.83-.52c-.62-.19-1.24-.34-1.8-.46a12.82,12.82,0,0,0-1.59-.24,6.54,6.54,0,0,0-1.4,0,10.4,10.4,0,0,0-3.05.92q-.79.38-1.62.84a16.25,16.25,0,0,0-1.48,1,26.13,26.13,0,0,1-4,2.55,9.51,9.51,0,0,1-1.44.53,5.85,5.85,0,0,1-1.75.19,12.79,12.79,0,0,1-2.52-.4l-1-.25c-.38-.09-.74-.19-1.1-.29l-2-.6a15.09,15.09,0,0,0-3.52-.72h-.08a2,2,0,0,1-.09-4Z"/><path class="cls-13" d="M348.11,247.1a5.48,5.48,0,0,1-.22-4.3A13.26,13.26,0,0,1,350.1,239"/><path class="cls-13" d="M341.14,247.19a5.53,5.53,0,0,1-1.78-3.92,13.52,13.52,0,0,1,.64-4.36"/><path class="cls-13" d="M334,251.77a5.53,5.53,0,0,1-2.45-3.54,13.54,13.54,0,0,1-.13-4.4"/></g><path class="cls-7" d="M347.56,191.16q0,36.53,0,73.06c0,14.54-7.41,24-12.38,37.23-.37,1-.72,2-1.05,3-3.57,10.76-6.36,22.87-11.74,33l-1.17,2.1L303.54,356.4a28.56,28.56,0,0,0-3.86,2.92c-5.55,5.11-8,13-12.51,19.22-6.74,9.25-17.51,13.94-28,17.32a133.64,133.64,0,0,1-24.1,5.53c-11.84,1.46-23.75.84-35-3.34-6.85-2.54-13.47-6.57-17.77-12.82-3.41-5-5.2-11.1-9-15.78s-8.94-7.39-13.41-11.12a48.61,48.61,0,0,1-4.68-4.51,120.24,120.24,0,0,1-10.75-14.44l-14.73-22.06c-.11-.17-.23-.33-.33-.49-13.28-20.33-10.65-45.5-10.65-69.09V191.16c0-58.36,44.19-105.67,98.72-105.67h31.28C303.36,85.49,347.56,132.8,347.56,191.16Z"/><rect class="cls-17" x="244.51" y="204.26" width="79.85" height="73.57" rx="36.07" transform="translate(539.37 -31.02) rotate(92.86)"/><path class="cls-9" d="M286.33,298.72c-19.35,0-44.31-16.09-40.73-49.39-.17,8.58,75.17,10.1,75.34,1.53C326.75,286.22,305.79,298.72,286.33,298.72Z"/><path class="cls-9" d="M174.18,298.71c-21.84,0-50.83-20.5-37.86-63.11,3.81,0,71.73-1.08,71.73-1.08l0,.86C223.29,281.06,196,298.71,174.18,298.71Z"/><path class="cls-17" d="M209.22,239.37l-.38,7.69A36.08,36.08,0,0,1,171,281.29l-1.42-.07a35.71,35.71,0,0,1-5.61-.72l-1.32-.29a36.11,36.11,0,0,1-27.3-36.81l.39-7.7A36,36,0,0,1,156,205l.38-.19a35.9,35.9,0,0,1,17.15-3.38l1.42.07A36.07,36.07,0,0,1,209.22,239.37Z"/><path class="cls-6" d="M347.65,171.52H289.1a89.29,89.29,0,0,0-66.57-50.7V82.25h35.86a88.83,88.83,0,0,1,29.57,5c.57.19,1.13.4,1.69.61a87.92,87.92,0,0,1,12.66,5.91,20.91,20.91,0,0,1-2.95,1.29c2.48,1.32,5.53,1.16,8.19,1.91,1.52,1,3,2.07,4.48,3.18,3.09,4.48,2.12,11.73,7.11,14.71-.05-2.11.28-5,.55-8.24A89,89,0,0,1,347.65,171.52Z"/><path class="cls-6" d="M115,171.52H173.5a89.33,89.33,0,0,1,66.58-50.7V82.25H204.22A89.26,89.26,0,0,0,115,171.52Z"/><path class="cls-18" d="M288,87.28c.57.19,1.13.4,1.69.61-1.62,0-3.23,0-4.85,0Z"/><path class="cls-7" d="M194.73,124.07A127.83,127.83,0,0,0,173,159.52a42.49,42.49,0,0,1-1-16l-18.21,31q-1-14.15-1-28.34a134.58,134.58,0,0,0-17,36.89c13.52-.15,37,5.33,42.81-10.63,2.33-6.41,2.55-13.68,4.4-20.27C185.74,142.28,190.14,133.24,194.73,124.07Z"/><path class="cls-10" d="M274,333.93v1.86c0,9.13-8.87,16.53-19.81,16.53H204.6c-10.94,0-19.81-7.4-19.81-16.53v-1.86c0-9.14,8.87-16.54,19.81-16.54h2.84c3.54,4.71,21.46,7.85,21.67,8s18.13-3.32,21.66-8h3.42C265.13,317.39,274,324.79,274,333.93Z"/><path class="cls-10" d="M250,242.6v42.14a19.7,19.7,0,0,1-.7,5.19c-.13-1.61-6.38,7.5-3.41,6.77a19.51,19.51,0,0,1-30.76.11c1.32-2.47-3.61-9.6-3.84-8.46a18.8,18.8,0,0,1-.34-3.61V242.6a19.53,19.53,0,1,1,39,0Z"/><path class="cls-19" d="M250,242.6v42.14a19.7,19.7,0,0,1-.7,5.19,14.71,14.71,0,0,0-1.4-5.06c-2.33-4.95-6.71-7.8-9.75-6.36s-3.62,6.62-1.28,11.58c2.16,4.57,6.05,7.34,9,6.61a19.51,19.51,0,0,1-30.76.11c2.87.2,6.36-2.49,8.36-6.72,2.34-5,1.77-10.14-1.28-11.58s-7.42,1.41-9.75,6.36a15.34,15.34,0,0,0-1.17,3.48,18.8,18.8,0,0,1-.34-3.61V242.6a19.53,19.53,0,1,1,39,0Z"/><ellipse class="cls-18" cx="286.02" cy="244.09" rx="2.85" ry="5.35" transform="translate(-30.47 41.06) rotate(-7.8)"/><ellipse class="cls-18" cx="174.64" cy="244.09" rx="5.35" ry="2.85" transform="translate(-90.89 384.01) rotate(-82.2)"/><circle class="cls-20" cx="115.33" cy="317.65" r="7.25"/><ellipse class="cls-21" cx="118.28" cy="311.45" rx="6.9" ry="0.71" transform="translate(-213.78 284.49) rotate(-64.56)"/><ellipse class="cls-21" cx="122.18" cy="317.18" rx="6.9" ry="0.71" transform="translate(-21.4 9.1) rotate(-3.92)"/><ellipse class="cls-21" cx="119.1" cy="323.39" rx="0.71" ry="6.9" transform="translate(-157.92 118.38) rotate(-33.28)"/><ellipse class="cls-21" cx="112.17" cy="323.75" rx="6.9" ry="0.71" transform="translate(-226.91 274.56) rotate(-62.64)"/><ellipse class="cls-21" cx="108.47" cy="317.89" rx="6.9" ry="0.71" transform="translate(-11 3.97) rotate(-1.99)"/><ellipse class="cls-21" cx="111.76" cy="311.79" rx="0.71" ry="6.9" transform="matrix(0.85, -0.52, 0.52, 0.85, -145.9, 103.67)"/><ellipse class="cls-21" cx="118.69" cy="311.66" rx="6.9" ry="0.71" transform="translate(-211.2 262.7) rotate(-60.71)"/><ellipse class="cls-21" cx="122.2" cy="317.64" rx="6.9" ry="0.71" transform="translate(-0.37 0.14) rotate(-0.07)"/><ellipse class="cls-21" cx="118.7" cy="323.63" rx="0.71" ry="6.9" transform="translate(-143.68 100.07) rotate(-29.42)"/><ellipse class="cls-21" cx="111.77" cy="323.53" rx="6.9" ry="0.71" transform="translate(-222.84 251.43) rotate(-58.78)"/><ellipse class="cls-21" cx="108.47" cy="317.43" rx="0.71" ry="6.9" transform="translate(-212.32 415.54) rotate(-88.14)"/><ellipse class="cls-21" cx="112.16" cy="311.56" rx="0.71" ry="6.9" transform="translate(-131.18 86.98) rotate(-27.5)"/><rect class="cls-21" x="114.96" y="271.46" width="1.53" height="45.77"/><rect class="cls-9" x="114" y="270.54" width="4.21" height="3.37" rx="1.68"/><path class="cls-22" d="M260.67,352.32H229.4a3.81,3.81,0,0,1-3.82-3.81h0a3.81,3.81,0,0,1,3.82-3.81c0-2.8,31.27-2.8,31.27,0a3.81,3.81,0,0,1,3.82,3.81h0A3.81,3.81,0,0,1,260.67,352.32Z"/><path class="cls-22" d="M229.4,352.32H198.12a3.81,3.81,0,0,1-3.82-3.81h0a3.81,3.81,0,0,1,3.82-3.81c0-2.8,31.28-2.8,31.28,0a3.81,3.81,0,0,1,3.81,3.81h0A3.81,3.81,0,0,1,229.4,352.32Z"/><path class="cls-22" d="M196.59,317.43h31.28a3.8,3.8,0,0,1,3.81,3.81h0a3.8,3.8,0,0,1-3.81,3.81c0,2.8-31.28,2.8-31.28,0a3.8,3.8,0,0,1-3.81-3.81h0A3.8,3.8,0,0,1,196.59,317.43Z"/><path class="cls-22" d="M227.87,317.43h31.28a3.8,3.8,0,0,1,3.81,3.81h0a3.8,3.8,0,0,1-3.81,3.81c0,2.8-31.28,2.8-31.28,0a3.81,3.81,0,0,1-3.82-3.81h0A3.81,3.81,0,0,1,227.87,317.43Z"/><path class="cls-23" d="M248.7,194.11a57.21,57.21,0,0,1,7.45-8,61.93,61.93,0,0,1,8.83-6.67,44.84,44.84,0,0,1,10.57-4.94c1-.32,2-.57,3-.81s2.11-.39,3.21-.5a25.68,25.68,0,0,1,7,.21,21.72,21.72,0,0,1,7.06,2.61,15.06,15.06,0,0,1,1.59,1.05,13.17,13.17,0,0,1,1.49,1.16,20.44,20.44,0,0,1,2.56,2.63l1.11,1.38c.23.3.46.6.68.91l1.33,1.85,1.38,1.74.69.88.7.79a29.47,29.47,0,0,0,5.91,5.44,13.78,13.78,0,0,0,3.29,1.67,11.28,11.28,0,0,0,1.82.46c.32.05.63.09,1,.12s.7,0,.8.11l2.88,4.5a12.47,12.47,0,0,1-1.55,1.19,10.79,10.79,0,0,1-1.52.84,11,11,0,0,1-1.62.62,11.28,11.28,0,0,1-1.69.42,16.62,16.62,0,0,1-3.44.26c-.57,0-1.15-.06-1.73-.11l-1.66-.3a26.79,26.79,0,0,1-11.32-5.71l-1.19-1-1.06-1c-.7-.69-1.45-1.37-2.1-2.09l-1.87-2.2c-.32-.37-.63-.74-.92-1.12l-.55-.61a9.47,9.47,0,0,0-2.14-1.88,6.65,6.65,0,0,1-.58-.33,4.78,4.78,0,0,0-.62-.26,9.33,9.33,0,0,0-1.35-.47,16.25,16.25,0,0,0-3.34-.32,24.85,24.85,0,0,0-3.95.44,43.68,43.68,0,0,0-4.25,1c-1.44.48-2.92.94-4.39,1.53a187.53,187.53,0,0,0-17.92,8.46Z"/><path class="cls-23" d="M197.78,198a186.77,186.77,0,0,0-19-5.5c-1.55-.35-3.08-.58-4.58-.81a42.16,42.16,0,0,0-4.37-.36,25,25,0,0,0-4,.2,16.18,16.18,0,0,0-3.25.84,10.59,10.59,0,0,0-1.25.68,5.65,5.65,0,0,0-.58.36c-.17.14-.34.28-.52.41a10.41,10.41,0,0,0-1.82,2.2l-.43.69c-.24.42-.48.84-.74,1.25l-1.49,2.47c-.54.82-1.16,1.61-1.74,2.4l-.89,1.19-1,1.13a26.73,26.73,0,0,1-10.26,7.44l-1.6.56c-.56.15-1.12.27-1.68.38a10.67,10.67,0,0,1-1.71.24,11,11,0,0,1-1.73.05,13.58,13.58,0,0,1-3.43-.5,10.4,10.4,0,0,1-1.64-.59,12.49,12.49,0,0,1-1.72-.92l2.14-4.9c.07-.14.5-.15.77-.24s.61-.17.92-.27a10.64,10.64,0,0,0,1.73-.75,13.56,13.56,0,0,0,3-2.16,29.64,29.64,0,0,0,5-6.31l.57-.9.54-1,1.08-1.93,1-2c.16-.34.34-.68.52-1l.88-1.53a19.4,19.4,0,0,1,2.1-3,13,13,0,0,1,1.3-1.38,13.13,13.13,0,0,1,1.4-1.29,21.57,21.57,0,0,1,6.55-3.7,25.4,25.4,0,0,1,6.84-1.31c1.11-.07,2.19-.05,3.26,0a31,31,0,0,1,3.1.32,44.84,44.84,0,0,1,11.23,3.2,62.75,62.75,0,0,1,9.78,5.17,58.27,58.27,0,0,1,8.62,6.72Z"/><ellipse class="cls-7" cx="308.74" cy="185.63" rx="8.77" ry="3.81"/><ellipse class="cls-7" cx="283.18" cy="186.01" rx="8.77" ry="3.81"/><ellipse class="cls-7" cx="259.53" cy="183.72" rx="8.77" ry="3.81"/><circle class="cls-6" cx="325.14" cy="323.72" r="16.4"/><circle class="cls-6" cx="315.99" cy="339.74" r="11.79"/><circle class="cls-6" cx="304.54" cy="352.71" r="15.32"/><path class="cls-24" d="M191.43,361.44a63.05,63.05,0,0,1-19.86-13.57"/></g></svg>