<svg id="Layer_1" data-name="Layer 1" xmlns="http://www.w3.org/2000/svg" xmlns:xlink="http://www.w3.org/1999/xlink" viewBox="0 0 480 480"><defs><style>.cls-1{fill:none;}.cls-2{fill:#d9e021;}.cls-3{clip-path:url(#clip-path);}.cls-4{fill:#8b5c4a;}.cls-5{clip-path:url(#clip-path-2);}.cls-6{fill:#41586a;}.cls-7{fill:#dab898;}.cls-8{fill:#181922;opacity:0.22;}.cls-9{fill:#2c3948;}.cls-10{fill:#f2f2f2;}.cls-11{fill:#fff;}.cls-12{fill:#beb5a2;}.cls-13{fill:#352b28;}.cls-14{clip-path:url(#clip-path-3);}.cls-15{fill:#44303d;}.cls-16{fill:#080a08;}.cls-17{fill:#212b28;}.cls-18{fill:#fc5317;}.cls-19{clip-path:url(#clip-path-4);}.cls-20{fill:#e8cc00;}</style><clipPath id="clip-path"><circle class="cls-1" cx="240" cy="-260" r="227.9"/></clipPath><clipPath id="clip-path-2"><circle class="cls-1" cx="240" cy="240" r="227.9"/></clipPath><clipPath id="clip-path-3"><path class="cls-1" d="M310.36,312.47c1.65,20.2-3.94,46.68-.37,62.49a67.15,67.15,0,0,1-15.67,14.42c-5.33,3.36-10.85,4.37-16.52,6.63-6.29,2.49-8.75,5.49-14,10.09-5.85,5.15-14.21,6-22,6.67l-10.2.84-5.57.46c-6.8.56-13.9,1.08-20.22-1.5-12.81-5.22-18.75-20-30.69-26.62-8.57-4.77-18.28-4.67-26-9.23a40.73,40.73,0,0,0,1.3-7.11,21.86,21.86,0,0,1-6.27-4.41c2.13-9.49,2.53-25.38.7-43.18-2-19.39-6.13-36-10.55-44.36-2-3.82-4.12-5.89-6.09-5.68-2.27.23-4.07,3.42-5.32,8.74.32-5.72.92-11.37,1.5-17.13.7-6.79,1.38-13.72,1.6-21.06,1.12-38.87-1.64-74.88,29.24-103.77,21.41-20,47.3-24.71,75.49-24.71q4.6,0,9.11.18c1.27,0,10.89.75,14.35,1.2,38.75,4.68,75.93,42.58,77.56,69.43a11.91,11.91,0,0,0,.38,1.85c3.51,17.72,3.13,36.73,3.13,56.22,0,6.85.26,13.59.61,20.21C321.37,272.59,308.79,293,310.36,312.47Z"/></clipPath><clipPath id="clip-path-4"><path class="cls-1" d="M260.16,348.78a19.46,19.46,0,0,1-.87,4.55,11.13,11.13,0,0,1-1.76,3.38c-4.83,6.25-15.67,4.27-28.65,4-11.15-.28-21.09.75-26.15-3.07a8.07,8.07,0,0,1-2.27-2.64,13.63,13.63,0,0,1-1.17-7.67c1.26-15.5,15.91-27.72,32.72-27.31S261.42,333.29,260.16,348.78Z"/></clipPath></defs><title>Artboard 22</title><circle class="cls-2" cx="241.16" cy="236.77" r="227.9"/><g class="cls-3"><path class="cls-4" d="M228.3-159h46.26a0,0,0,0,1,0,0V-17.51A23.13,23.13,0,0,1,251.43,5.62h0A23.13,23.13,0,0,1,228.3-17.51V-159a0,0,0,0,1,0,0Z"/></g><g class="cls-5"><path class="cls-6" d="M373.18,232.81a31.14,31.14,0,0,1-9,9.49c-12.73,9.21-29.15,11.56-44.86,11.66-19.35.13-38.59-2.73-57.91-3.81-42.12-2.38-84.66,3.62-126.44-2.31-5.53-.79-11.16-1.82-16.05-4.54-11.06-6.15-16.07-20-15.28-32.6s6.35-24.43,12-35.76c4.5-9,9.39-18.23,11.79-28.1,1.06-4.33,1.15-7.65,3.2-11.51,2.5-4.72,6.53-8.22,8.44-13.4a55.81,55.81,0,0,0,2.18-9.21c3-15.56,8.3-30.87,17.38-43.84,19.81-28.3,57.61-42.52,91.29-34.79,32.23,7.39,59,34.22,67.08,66.23a50.82,50.82,0,0,0-8.26.09,13.15,13.15,0,0,0-6.44,1.91,5.88,5.88,0,0,0-2.68,5.81,30.75,30.75,0,0,1,8.15-1.94,10.29,10.29,0,0,1,7.74,2.56,12.68,12.68,0,0,0-4.1,4.45c-.52.9-.81,2.28.09,2.81.71.42,1.59,0,2.34-.34a7.33,7.33,0,0,1,5.54-.06,65.47,65.47,0,0,0-1.47,23.54c.18,1.5.72,3.33,2.21,3.58a11.63,11.63,0,0,1,11.54-6.27l.33,0c5.13,7.92,9.23,16.69,13.52,25,5.8,11.19,13.38,20.45,20.58,30.74C374.42,204.1,380.41,220.21,373.18,232.81Z"/><path class="cls-7" d="M206.56,354.76h51.89a0,0,0,0,1,0,0v118.3A25.95,25.95,0,0,1,232.51,499h0a25.95,25.95,0,0,1-25.95-25.95V354.76A0,0,0,0,1,206.56,354.76Z"/><path class="cls-8" d="M206.56,304.7h51.89a0,0,0,0,1,0,0V423a25.95,25.95,0,0,1-25.95,25.95h0A25.95,25.95,0,0,1,206.56,423V304.7A0,0,0,0,1,206.56,304.7Z"/><path class="cls-7" d="M310.36,312.47c1.65,20.2-3.94,46.68-.37,62.49a67.15,67.15,0,0,1-15.67,14.42c-5.33,3.36-10.85,4.37-16.52,6.63-6.29,2.49-8.75,5.49-14,10.09-5.85,5.15-14.21,6-22,6.67l-10.2.84-5.57.46c-6.8.56-13.9,1.08-20.22-1.5-12.81-5.22-18.75-20-30.69-26.62-8.57-4.77-18.28-4.67-26-9.23a40.73,40.73,0,0,0,1.3-7.11,21.86,21.86,0,0,1-6.27-4.41c2.13-9.49,2.53-25.38.7-43.18-2-19.39-6.13-36-10.55-44.36-2-3.82-4.12-5.89-6.09-5.68-2.27.23-4.07,3.42-5.32,8.74.32-5.72.92-11.37,1.5-17.13.7-6.79,1.38-13.72,1.6-21.06,1.12-38.87-1.64-74.88,29.24-103.77,21.41-20,47.3-24.71,75.49-24.71q4.6,0,9.11.18c1.27,0,10.89.75,14.35,1.2,38.75,4.68,75.93,42.58,77.56,69.43a11.91,11.91,0,0,0,.38,1.85c3.51,17.72,3.13,36.73,3.13,56.22,0,6.85.26,13.59.61,20.21C321.37,272.59,308.79,293,310.36,312.47Z"/><path class="cls-8" d="M181.11,295.82c-20.47,0-47.64-19.21-35.49-59.15,3.58,0,66.51-.72,66.51-.72v.72C226.38,279.47,201.58,295.82,181.11,295.82Z"/><path class="cls-8" d="M177.81,204.69c20.47,0,46.47,19.21,34.32,59.15-3.58,0-66.07,1-66.07,1l0-.81C131.78,221.24,157.34,204.69,177.81,204.69Z"/><path class="cls-8" d="M285.51,295.82c-20.47,0-46.93-19.21-34.77-59.15,3.58,0,65.79-.72,65.79-.72v.72C330.78,279.47,306,295.82,285.51,295.82Z"/><path class="cls-8" d="M282.92,204.69c20.47,0,46.48,19.21,34.32,59.15-3.57,0-66.07,1-66.07,1l0-.81C236.89,221.24,262.45,204.69,282.92,204.69Z"/><path class="cls-6" d="M339.88,182.46c-.53-9.59-2.25-19.57-8.07-27.21-3.83-5-9.16-8.69-14.39-12.24l-21.56-14.66c-6.82-4.64-13.68-9.31-21.19-12.72-17.07-7.76-36.4-8.62-55.14-8.38-10.06.12-20.19.53-30,2.93-10.51,2.58-20.36,7.41-29.55,13.15-12.39,7.73-24.18,17.77-29.46,31.39-2.56,6.63-3.45,13.77-4.32,20.82l-5.41,43.87c-.66,5.4-.54,12.3,4.42,14.53,14.66-22.29,33.68-43.78,59.32-51.13,10.3-2.94,21.13-3.43,31.84-3.36a314.56,314.56,0,0,1,41.92,3.11c22.25,3.16,45.67,9.61,60.26,26.7,4.52,5.3,12.64,17.66,18.38,7.65C342,208.19,340.41,192,339.88,182.46Z"/><path class="cls-9" d="M232.3,148.28c-45.45,0-84.23,17.67-99.61,42.56l-.62,16.66A32.46,32.46,0,0,0,136,223c17.15-22.34,53.83-37.78,96.32-37.78,46,0,85.19,18.1,100.16,43.48a32.53,32.53,0,0,0,6.48-11.88c0-.73.06-1.45.06-2.19C339,178,291.23,148.28,232.3,148.28Z"/><rect class="cls-10" x="141.26" y="215.87" width="74.84" height="68.96" rx="33.81" transform="translate(419.81 59.41) rotate(87.14)"/><rect class="cls-10" x="246.38" y="216.19" width="74.84" height="68.96" rx="33.81" transform="translate(520 -45.28) rotate(87.14)"/><path class="cls-11" d="M134.06,272.14c.08,1.84.15,3.69.24,5.52-2-3.82-4.12-5.89-6.09-5.68-2.27.23-4.07,3.42-5.32,8.74.32-5.72.92-11.37,1.5-17.13A53.7,53.7,0,0,1,134.06,272.14Z"/><path class="cls-12" d="M150.42,369.61a21.86,21.86,0,0,1-6.27-4.41c2.13-9.49,2.53-25.38.7-43.18-2-19.39-6.13-36-10.55-44.36-.09-1.83-.16-3.68-.24-5.52,9.56,10.65,16.32,25.78,15.14,40.33C147.73,330.54,152,353.62,150.42,369.61Z"/><path class="cls-12" d="M310.2,334.71l0,0a.13.13,0,0,0,0-.06Z"/><path class="cls-12" d="M312,316.66a11.94,11.94,0,0,0-1.38,1c0-1.12-.07-2.23-.13-3.33A14.77,14.77,0,0,0,312,316.66Z"/><path class="cls-12" d="M315,353.22a89.52,89.52,0,0,0,1.17,10,82.41,82.41,0,0,1-7.16,4.84,139,139,0,0,1,.15-18.06A10.47,10.47,0,0,0,315,353.22Z"/><path class="cls-12" d="M327.2,270.33c0,2.19-.2,4.48-.36,6.58A67.83,67.83,0,0,0,321.18,292a15.33,15.33,0,0,0-9.58,6.07A61.67,61.67,0,0,1,327.2,270.33Z"/><path class="cls-7" d="M338,232.32c3.56.89,4.34,5.53,4.4,9.2l.12,7.48c.11,6.62.21,13.33-1.36,19.77s-5,12.68-10.62,16.22c-2.06,1.31-4.56,2.24-6.92,1.62-4.38-1.15-5.84-6.95-4.49-11.27s4.51-7.81,6.5-11.87c3.55-7.2,2.26-14.14,2.67-21.75C328.58,237.21,332.24,230.87,338,232.32Z"/><path class="cls-7" d="M121.6,232.32c-3.56.89-4.34,5.53-4.4,9.2l-.12,7.48c-.11,6.62-.21,13.33,1.36,19.77s5,12.68,10.62,16.22c2.06,1.31,4.56,2.24,6.92,1.62,4.38-1.15,5.84-6.95,4.49-11.27S136,267.53,134,263.47c-3.54-7.2-2.25-14.14-2.67-21.75C131.05,237.21,127.39,230.87,121.6,232.32Z"/><ellipse class="cls-13" cx="283.8" cy="253.21" rx="2.67" ry="5.02" transform="translate(-31.72 40.84) rotate(-7.8)"/><ellipse class="cls-13" cx="179.39" cy="253.21" rx="5.02" ry="2.67" transform="translate(-95.81 396.6) rotate(-82.2)"/><g class="cls-14"><path class="cls-15" d="M275.47,384.83v29.36H187.39V384.83c0,3,6.21,5.19,15.33,6.59a12.16,12.16,0,0,0,14-12V356.94c0-9.38,29.36-9.38,29.36,0v22.47a12.17,12.17,0,0,0,14,12C269.27,390,275.47,387.83,275.47,384.83Z"/><path class="cls-8" d="M278.52,401.15a16.36,16.36,0,0,0,11.29,3.78A16.56,16.56,0,0,0,301,399.17c3.71-6.33,6.72-13.55,9.68-20.7L323.7,347c.1-.24.2-.47.29-.71,2.47-11.47-1.27-24.45-9.5-31-9.56-7.55-21.57-3.53-26.81,9l-17,40.46C265.47,377.3,269,393.59,278.52,401.15Z"/><path class="cls-8" d="M187.22,402.69a16.28,16.28,0,0,1-11,4.53,16.58,16.58,0,0,1-11.52-5c-4.13-6.06-7.62-13.06-11.06-20Q146,367,138.46,351.71c-.11-.23-.23-.45-.33-.68-3.24-11.28-.4-24.49,7.37-31.54,9-8.19,21.29-5,27.37,7.16l19.66,39.22C198.63,378,196.25,394.5,187.22,402.69Z"/></g><path class="cls-15" d="M134,230.88c5.31-10.35,15.36-17.66,26.22-21.82s23.68-5.22,34.92,2.93c-8.35-3.91-18.3-4.13-27.15-1.57a38.8,38.8,0,0,0-21.7,16.17,8.12,8.12,0,0,1-1.91,2.35C141.48,231,137.21,229.47,134,230.88Z"/><path class="cls-15" d="M321.74,230.88c-5.3-10.35-15.36-17.66-26.22-21.82s-23.67-5.22-34.91,2.93c8.35-3.91,18.29-4.13,27.15-1.57a38.86,38.86,0,0,1,21.7,16.17,8,8,0,0,0,1.91,2.35C314.23,231,318.5,229.47,321.74,230.88Z"/><ellipse class="cls-16" cx="166.72" cy="262.77" rx="2.57" ry="0.71" transform="translate(-135.32 187.85) rotate(-43.68)"/><ellipse class="cls-16" cx="191.03" cy="244.18" rx="2.57" ry="0.71" transform="translate(-115.76 199.5) rotate(-43.68)"/><ellipse class="cls-16" cx="274.7" cy="242.75" rx="0.71" ry="2.57" transform="translate(-91.61 256.88) rotate(-43.68)"/><ellipse class="cls-16" cx="293.29" cy="267.06" rx="0.71" ry="2.57" transform="translate(-103.26 276.45) rotate(-43.68)"/><ellipse class="cls-16" cx="243.59" cy="295.66" rx="4.9" ry="13.47" transform="translate(-70.63 76.53) rotate(-15.62)"/><ellipse class="cls-16" cx="216.41" cy="295.66" rx="13.47" ry="4.9" transform="translate(-126.61 424.45) rotate(-74.38)"/><path class="cls-17" d="M176.17,298.34a10.7,10.7,0,0,0-2.65-.93,13.94,13.94,0,0,0-2.56-.49,14.26,14.26,0,0,0-3.32.31,10.63,10.63,0,0,0-2.48.63,10.88,10.88,0,0,0-2.2,1.42,5,5,0,0,0-1.28,1.26,4.26,4.26,0,0,0-.5,2,7.59,7.59,0,0,0,.39,3.25,3.94,3.94,0,0,0,2.2,2.34,6.41,6.41,0,0,0,1.57.3l2.5.26a12.22,12.22,0,0,0,4.86-.15,8.56,8.56,0,0,0,2.82-1.59,8.18,8.18,0,0,0,2.33-2.74A4.35,4.35,0,0,0,176.17,298.34Z"/><path class="cls-17" d="M190,306.94a6.9,6.9,0,0,0-1.67-.79,7,7,0,0,0-3.84-.53,7.15,7.15,0,0,0-1.66.24,7.43,7.43,0,0,0-1.54.78,3.16,3.16,0,0,0-.92.74,2.71,2.71,0,0,0-.47,1.25,5.07,5.07,0,0,0,0,2.16,2.63,2.63,0,0,0,1.28,1.68,4.28,4.28,0,0,0,1,.3l1.62.34a8,8,0,0,0,3.19.24,5.68,5.68,0,0,0,2-.84,5.44,5.44,0,0,0,1.71-1.63A2.87,2.87,0,0,0,190,306.94Z"/><path class="cls-17" d="M189.51,315a5.42,5.42,0,0,1-2,.84,8,8,0,0,1-3.19-.24l-1.61-.34a4.36,4.36,0,0,1-1-.3,2.66,2.66,0,0,1-1.28-1.68,4.65,4.65,0,0,1-.1-1.62,3,3,0,0,0,.11.6,2.61,2.61,0,0,0,1.28,1.68,4.3,4.3,0,0,0,1,.31l1.62.34a8,8,0,0,0,3.19.24,5.68,5.68,0,0,0,2-.84,5.36,5.36,0,0,0,1.71-1.64,3.14,3.14,0,0,0,.44-1.14,3.13,3.13,0,0,1-.44,2.15A5.5,5.5,0,0,1,189.51,315Z"/><path class="cls-18" d="M255,348.08h1.42a3.68,3.68,0,0,1,3.68,3.68v46.66a0,0,0,0,1,0,0h-8.77a0,0,0,0,1,0,0V351.76A3.68,3.68,0,0,1,255,348.08Z" transform="translate(511.33 746.5) rotate(-180)"/><g class="cls-19"><path class="cls-16" d="M260.16,348.78a19.46,19.46,0,0,1-.87,4.55,11.13,11.13,0,0,1-1.76,3.38c-4.83,6.25-15.67,4.27-28.65,4-11.15-.28-21.09.75-26.15-3.07a8.07,8.07,0,0,1-2.27-2.64,13.63,13.63,0,0,1-1.17-7.67c1.26-15.5,15.91-27.72,32.72-27.31S261.42,333.29,260.16,348.78Z"/><path class="cls-20" d="M238.47,362.53v-11a3.91,3.91,0,0,1,3.9-3.91h6a3.91,3.91,0,0,1,3.9,3.91v10.93c-1.21,0-2.43,0-3.71-.06a60.17,60.17,0,0,0-10.11.58A3.44,3.44,0,0,1,238.47,362.53Z"/><path class="cls-20" d="M223.45,364V353a3.91,3.91,0,0,1,3.9-3.91h6.05a3.91,3.91,0,0,1,3.9,3.91v10.17a115.92,115.92,0,0,1-13.79,1.41A3,3,0,0,1,223.45,364Z"/><path class="cls-20" d="M208.44,361.84v-8.16a3.89,3.89,0,0,1,3.9-3.9h6a3.89,3.89,0,0,1,3.89,3.9v10.87A34.09,34.09,0,0,1,217,364C214.07,363.53,211.28,362.57,208.44,361.84Z"/></g><path class="cls-18" d="M252.32,351.54v10.93c-1.21,0-2.43,0-3.71-.06s-2.51-.05-3.77,0v13.72a3.68,3.68,0,0,0,3.68,3.68h1.42a3.67,3.67,0,0,0,3.67-3.68S252.32,349.38,252.32,351.54Z"/><path class="cls-18" d="M248.61,362.41c1.28,0,2.5.08,3.71.06V351.54a3.91,3.91,0,0,0-3.9-3.91h-3.58v14.79C246.1,362.36,247.36,362.35,248.61,362.41Z"/></g></svg>