<svg id="Layer_1" data-name="Layer 1" xmlns="http://www.w3.org/2000/svg" xmlns:xlink="http://www.w3.org/1999/xlink" viewBox="0 0 480 480"><defs><style>.cls-1{fill:none;}.cls-2{fill:#d9e021;}.cls-3{clip-path:url(#clip-path);}.cls-4{fill:#230c01;}.cls-5{fill:#9ac9b8;}.cls-6{fill:#75998c;}.cls-7{fill:#73978a;}.cls-8{fill:#212b28;}.cls-9{fill:#f2f2f2;}.cls-10{fill:#3e5d52;}.cls-11{fill:#080a08;}</style><clipPath id="clip-path"><circle class="cls-1" cx="240" cy="240" r="227.9"/></clipPath></defs><title>Artboard 8</title><circle class="cls-2" cx="241.16" cy="236.77" r="227.9"/><g class="cls-3"><path class="cls-4" d="M429.42,301.91l8,41.48c1,5,1.91,10.38-.18,15s-8.54,7.64-12.47,4.39a27.42,27.42,0,0,1-7.15,13.77L407,365l-12.13,26.49c-6.8-.07-11.42-8.34-18.22-8.36-5.2,0-8.93,4.69-12.87,8.09a30.54,30.54,0,0,1-50.05-17.69,64,64,0,0,0-21.63,5.61,12.77,12.77,0,0,0-4.15,2.66,8.59,8.59,0,0,0-1.84,3.09,84.43,84.43,0,0,1-17.81-31.8L241,262.67l-27.28,90.48a84.57,84.57,0,0,1-56,56.45c-7.69-10.47-15.44-20.87-22-32.27a93.87,93.87,0,0,1-7.91,26.73,46,46,0,0,1-10.44-15.16,49.68,49.68,0,0,1-21.44,16.86,348.07,348.07,0,0,1-5.12-49.17Q80,365.4,69.32,374.18l1.36-24.81L63.06,356l-2.73-25.08a111.28,111.28,0,0,0-14,44A84.48,84.48,0,0,1,32,298.36l7.16-23.77a11.9,11.9,0,0,0,9.81.51c4.8-1.91,8.23-6.11,11.44-10.14,7.33-9.22,15-19.35,15.27-31.12.17-7.81-3-15.36-3.15-23.18-.37-19.82,18.55-37.21,15-56.7-.63-3.44-2-6.77-2-10.26-.08-6.1,3.65-11.47,6.27-17C94.91,120.06,98,106,93.6,100.31a84.62,84.62,0,0,1,41.84-37.43c0,.94,0,1.89,0,2.84.23,5.7,1.26,11.5,4.14,16.43,5.87,10.08,17.91,14.48,29,18.13A84.24,84.24,0,0,0,149.21,60a114,114,0,0,1,36.88,27.43,50.28,50.28,0,0,0-3.26-29,26.36,26.36,0,0,1,13.28,18.9,46.1,46.1,0,0,0-2.2-16.77L211.85,66a84.58,84.58,0,0,1,29,15.37,84.57,84.57,0,0,1,29-15.41L289.46,60a84.35,84.35,0,0,1,44.37-1.29,38.44,38.44,0,0,0-14,3.84C323,68.74,332.38,69,336.31,74.74c1.51,2.22,2,5,3.57,7.2C343.76,87.45,353,87.81,355.62,94c1.57,3.76-.09,8,.14,12.12.5,9,9.53,14.62,16.88,19.84,6.84,4.85,9.15,9.93,11.43,17.47.27.89.61,1.81,1,2.76,2.14,5.34,5.66,11.45,6.14,16.93.3,3.48-.69,6.93-1,10.41-1.59,19.77,19,35.16,20.62,54.91.64,7.79-1.76,15.63-.8,23.38,1.44,11.68,10.1,21,18.32,29.42,3.6,3.69,7.43,7.53,12.39,8.94a12.23,12.23,0,0,0,6.81-.1l2.44,8a84.44,84.44,0,0,1,3.57,28.06C445.76,320.12,430.88,309.47,429.42,301.91Z"/><path class="cls-5" d="M237.35,479.72v12a23.26,23.26,0,0,0,23.26-23.27V350.37H214.08V468.45C214.08,481.3,224.5,479.72,237.35,479.72Z"/><path class="cls-6" d="M237.35,305.48h0a23.27,23.27,0,0,1,23.27,23.27V434.83a0,0,0,0,1,0,0H214.08a0,0,0,0,1,0,0V328.75A23.27,23.27,0,0,1,237.35,305.48Z" transform="translate(474.69 740.31) rotate(-180)"/><path class="cls-5" d="M335.41,227.49q0,30.7,0,61.4c0,8.71-3.15,15.26-6.48,22.32-.35.73-.69,1.47-1,2.21l-.69,1.52c-.77,1.69-1.51,3.42-2.2,5.25-.3.81-.6,1.65-.88,2.5-3,9.05-5.34,19.23-9.87,27.75l-1,1.76-14.86,14.17c-.78.52-1.55,1.05-2.29,1.63-.32.27-.64.54-.95.83a26.84,26.84,0,0,0-4.94,6.57c-1.65,2.87-3.1,5.93-4.94,8.67-.21.31-.42.61-.64.91a29.14,29.14,0,0,1-4.11,4.53c-5.45,4.9-12.51,7.8-19.43,10a112.77,112.77,0,0,1-20.25,4.65c-10,1.23-20,.7-29.39-2.81a35.35,35.35,0,0,1-10.38-5.82,24.4,24.4,0,0,1-4.55-4.95,35.79,35.79,0,0,1-2.29-3.94c-1.63-3.21-3-6.57-5.24-9.33a17.15,17.15,0,0,0-1.27-1.42l-.14-.15c-2.95-3-6.64-5.09-9.86-7.77a41.38,41.38,0,0,1-3.93-3.79,99.54,99.54,0,0,1-9-12.14l-12.39-18.54c-.09-.14-.19-.28-.27-.42a51.53,51.53,0,0,1-7.11-17.4c-.09-.44-.19-.89-.28-1.33-.12-.63-.24-1.25-.35-1.88-2.09-12.12-1.22-25.05-1.22-37.46V227.49c0-49.05,37.15-88.82,83-88.82h26.3C298.26,138.67,335.41,178.44,335.41,227.49Z"/><path class="cls-7" d="M156.75,272.29l-.36-7.16c-.92-18.51,13.34-4.78,31.86-5.7l1.32-.07c18.52-.92,34.28-16.16,35.2,2.36l.36,7.16a33.57,33.57,0,0,1-31.86,35.2l-1.32.07A33.57,33.57,0,0,1,156.75,272.29Z"/><rect class="cls-8" x="249.31" y="231.82" width="71.42" height="65.81" rx="32.27" transform="translate(380.28 -112.42) rotate(61.29)"/><rect class="cls-9" x="252.69" y="234.93" width="64.67" height="59.58" rx="29.21" transform="translate(380.28 -112.42) rotate(61.29)"/><path class="cls-4" d="M342.06,266.16c-12.57-3-23.55-10.48-34.23-17.78-14.76-10.11-29.72-20.4-41.09-34.21a121.39,121.39,0,0,1-15.68-25.4c-3.74-7.92-5.8-18.26-10.5-25.27-9.86,29.29-18,59.35-26.94,89A84.34,84.34,0,0,1,194.25,286c-1.63-3.21-3-6.57-5.24-9.33-3.1-3.87-7.51-6.21-11.27-9.35a39,39,0,0,1-3.93-3.79,99.43,99.43,0,0,1-9-12.13l-12.39-18.54c-.09-.14-.19-.28-.27-.42-11.17-17.09-9-38.24-9-58.07V126.82a93.87,93.87,0,0,1,6.58-34.72c5.7,3.63,12.48,6,18.94,8.14a84.18,84.18,0,0,0-9.37-26.08c1.44-2.09,3-4.12,4.57-6.06a113.63,113.63,0,0,1,22.29,19.28,50.12,50.12,0,0,0-3.25-29A26.39,26.39,0,0,1,196.2,77.3c.64-10.33-2.6-20.63-8.08-29.45a78.2,78.2,0,0,1,38-9.85h26.3c45.83,0,83,39.76,83,88.82,0,22.54-2.79,47,2,69.06A240.1,240.1,0,0,1,342.06,266.16Z"/><rect class="cls-10" x="221.9" y="255.11" width="32.82" height="68.24" rx="16.41" transform="translate(476.61 578.46) rotate(180)"/><ellipse class="cls-11" cx="248.32" cy="309.24" rx="5.13" ry="8.34" transform="translate(-108.27 135.64) rotate(-25.28)"/><ellipse class="cls-11" cx="227.8" cy="309.24" rx="8.34" ry="5.13" transform="translate(-149.1 383.19) rotate(-64.72)"/><ellipse class="cls-5" cx="237.56" cy="367.91" rx="26.15" ry="17.53"/><path class="cls-5" d="M359.64,256.81c3.66,2.26,2.91,7.25,1.7,11l-2.47,7.62c-2.18,6.75-4.4,13.58-8.39,19.5s-10,10.91-17.45,12.37c-2.75.53-5.86.51-8.27-1-4.47-2.83-4.07-9.27-1.07-13.13s-6-10.77-2.33-14.11c6.44-5.93,7.42-13.46,10.53-21C333.73,253.57,353.71,253.13,359.64,256.81Z"/><path class="cls-5" d="M113.21,254.88c-3.66,2.26-2.91,7.26-1.7,11L114,273.5c2.18,6.75,4.4,13.59,8.39,19.5s10,10.92,17.45,12.37c2.75.54,5.86.52,8.27-1,4.47-2.83,4.07-9.26,1.07-13.12s6-10.77,2.33-14.12c-6.44-5.93-7.42-13.46-10.53-21C139.12,251.65,119.14,251.21,113.21,254.88Z"/><path class="cls-4" d="M341.38,300.55a13.42,13.42,0,0,1-3.43,7.32c-1.87,2-4.84,3.2-7.42,2.28-.42-6.72,2.92-13,5.07-19.38A56.71,56.71,0,0,0,338.55,271c-.07-2.58-.46-5.44-2.41-7.13-3-2.56-5.33-2.72-3.87-7.21,1.13-3.48,4-6.28,7.11-8.07a24.05,24.05,0,0,1,23.44-.08,8.41,8.41,0,0,1,3,2.58,8.68,8.68,0,0,1,1.11,4.11,13,13,0,0,1-1.3,7.55c-2.08,3.57-6.35,5.07-9.93,7.14a28.87,28.87,0,0,0-12.91,16.61C341.42,291.13,342.12,296,341.38,300.55Z"/><path class="cls-4" d="M133.74,249.17c-3.64.08-4.4,4.16-5.47,7.54a41,41,0,0,0,.21,25.55c3,8.78,8.92,16.23,14.71,23.48a258.1,258.1,0,0,1,.45-42.89c.27-2.86.55-5.92-.82-8.44-4.34-8-16.9-5-24-4.4-2.78.24-5.73.57-7.93,2.29-3.61,2.83-3.82,8.19-3.06,12.71.82,4.88,2.5,9.81,6,13.31,3,3,7,4.66,10.89,6.26l8.72,3.59q.59-8.84,1.64-17.64"/><path class="cls-6" d="M191.8,373.82a18.88,18.88,0,0,1-4.06,2.1l-.14-.15c-2.95-3-6.64-5.09-9.86-7.77a41.38,41.38,0,0,1-3.93-3.79,99.54,99.54,0,0,1-9-12.14l-12.39-18.54c-.09-.14-.19-.28-.27-.42a51.53,51.53,0,0,1-7.11-17.4,19.91,19.91,0,0,1,32.3,1l19.86,29.45A19.91,19.91,0,0,1,191.8,373.82Z"/><path class="cls-6" d="M328.93,311.21c-.35.73-.69,1.47-1,2.21l-.69,1.52c-.77,1.69-1.51,3.42-2.2,5.25-.3.81-.6,1.65-.88,2.5-3,9.05-5.34,19.23-9.87,27.75l-1,1.76-14.86,14.17c-.78.52-1.55,1.05-2.29,1.63-.32.27-.64.54-.95.83a26.84,26.84,0,0,0-4.94,6.57,19.93,19.93,0,0,1-4.87-27.31l19.87-29.44A19.92,19.92,0,0,1,328.93,311.21Z"/><path class="cls-8" d="M288.14,339.82v2.5a22.25,22.25,0,0,1-22.24,22.25H210.23A22.25,22.25,0,0,1,188,342.32v-2.5a22.24,22.24,0,0,1,22.25-22.24h3.19c4,6.34,13.36,10.79,24.32,10.79s20.35-4.45,24.32-10.79h3.84A22.24,22.24,0,0,1,288.14,339.82Z"/><path class="cls-8" d="M275.13,332.93h1.29a11.41,11.41,0,0,1,11.42,11.4v28.53a11.41,11.41,0,0,1-11.42,11.4h-1.29a11.41,11.41,0,0,1-11.42-11.4V344.33A11.41,11.41,0,0,1,275.13,332.93Z"/><path class="cls-8" d="M285.56,264.13l0-.62c-.09-1.61-.67-2.51-1.3-2l0,0c-.63.5-1.07,2.19-1,3.8l0,.62c.09,1.61.68,2.51,1.31,2l0,0C285.21,267.43,285.65,265.74,285.56,264.13Z"/></g></svg>