<svg id="Layer_1" data-name="Layer 1" xmlns="http://www.w3.org/2000/svg" xmlns:xlink="http://www.w3.org/1999/xlink" viewBox="0 0 480 480"><defs><style>.cls-1,.cls-16{fill:none;}.cls-2{fill:#d9e021;}.cls-3{clip-path:url(#clip-path);}.cls-4{fill:#713c2b;}.cls-5{clip-path:url(#clip-path-2);}.cls-6{fill:#dcb999;}.cls-7{fill:#8f643e;}.cls-8{fill:#e96f00;}.cls-9{fill:#cbab8e;}.cls-10{fill:#181922;opacity:0.22;}.cls-11{fill:#270000;}.cls-12{fill:#f15a38;}.cls-13{fill:#ad7943;}.cls-14{fill:#f2f2f2;}.cls-15{fill:#18431b;}.cls-16{stroke:#ba2133;stroke-miterlimit:10;stroke-width:7.41px;}.cls-17{fill:#ab631d;}.cls-18{fill:#030a17;}.cls-19{fill:#fc5317;}.cls-20{fill:#241e12;}.cls-21{fill:#080a08;}</style><clipPath id="clip-path"><circle class="cls-1" cx="240" cy="-260" r="227.9"/></clipPath><clipPath id="clip-path-2"><circle class="cls-1" cx="240" cy="240" r="227.9"/></clipPath></defs><title>Artboard 15</title><circle class="cls-2" cx="241.16" cy="236.77" r="227.9"/><g class="cls-3"><path class="cls-4" d="M247.88-137.34h0a25.78,25.78,0,0,1,25.78,25.78V6a0,0,0,0,1,0,0H222.09a0,0,0,0,1,0,0V-111.55A25.78,25.78,0,0,1,247.88-137.34Z" transform="translate(495.75 -131.34) rotate(180)"/></g><g class="cls-5"><path class="cls-6" d="M224,348.69h53.06a0,0,0,0,1,0,0v121a26.53,26.53,0,0,1-26.53,26.53h0A26.53,26.53,0,0,1,224,469.64v-121a0,0,0,0,1,0,0Z"/><path class="cls-7" d="M224,297.5h53.06a0,0,0,0,1,0,0v121A26.53,26.53,0,0,1,250.53,445h0A26.53,26.53,0,0,1,224,418.46v-121A0,0,0,0,1,224,297.5Z"/><path class="cls-8" d="M381.42,148.65,371,236.2c-4.48-3.64-9-7.44-9-8.45A209.53,209.53,0,0,0,363.43,267q-5.87-6.48-11.72-13a157.78,157.78,0,0,1-.31,31.86c-.74.57-1.48,1.11-2.25,1.62a8.57,8.57,0,0,1-.59-1.65,185.06,185.06,0,0,1-5.51-30.63q.49,17.5,1.56,35a46.22,46.22,0,0,1-21.52,5.28H161.91A46.25,46.25,0,0,1,131,283.77c0-1.37.09-2.76.2-4.09q1.09-12.46,2.18-24.91l-9.88,1.64a45.63,45.63,0,0,1,2.65-16.69,25.17,25.17,0,0,0-11.64,1.36l-1.46-12.23a160.94,160.94,0,0,1,13.32-11.69c-4.83.27-9.79.11-14.68.21l-8.14-68.72Z"/><path class="cls-9" d="M333.14,288.36h-3.41a14.1,14.1,0,0,1-14.1-14.1v-31.6a14.1,14.1,0,0,1,14.1-14.1h3.41a14.1,14.1,0,0,1,14.1,14.1v31.6C353.61,280.63,339.51,294.73,333.14,288.36Z"/><path class="cls-9" d="M158.42,294.21H155c-7.19,7.19-21.29-6.91-14.1-14.1v-31.6a14.1,14.1,0,0,1,14.1-14.1h3.41a14.1,14.1,0,0,1,14.1,14.1v31.6A14.1,14.1,0,0,1,158.42,294.21Z"/><path class="cls-6" d="M322.92,312.25a23.47,23.47,0,0,0-13.64,28.22,13.67,13.67,0,0,0-9.39,13,13.48,13.48,0,0,0,.4,3.32,17.16,17.16,0,0,0-12.19,26.65q-3.57,4.11-7.47,7.85c-8.8,8.43-19.1,15.49-30.45,16.91-12.52,1.59-26.2-1.9-36.07-10.88-1-.88-1.88-1.81-2.77-2.78a233.27,233.27,0,0,1-46-77.7,242.48,242.48,0,0,1-10.49-39.55c-3.79-21.5,3.19-45.32,4.66-67.47,1.6-24,7.29-46.28,22.9-63.16C199.88,127.8,221,123.4,244,123.4c2.5,0,5,0,7.43.17,1,0,2.07.12,3.09.18,2.91.21,5.77.52,8.59,1-.14,1.78-.23,3.59-.23,5.41,0,16.09,6.09,30.53,15.74,40.41,8.23,8.43,19.07,13.56,30.93,13.56a40.91,40.91,0,0,0,14.77-2.76c.78,2.88,1.45,5.82,2,8.79.11.58.21,1.17.31,1.76,1.34,7.42,2.38,15.12,3.12,23C332.69,246.36,330.85,280.75,322.92,312.25Z"/><path class="cls-10" d="M329.7,214.86a17,17,0,0,1-5.7,2.08c-6.9-.15-14.19-1.31-21.38-2.47l-31.72-5.1-.7-.12c-10.43-3.7-19-13.11-20.14-22.93-1.34-11.41,7.83-19,20.47-17.06l8,1.26c8.23,8.43,19.07,13.56,30.93,13.56a40.91,40.91,0,0,0,14.77-2.76c.78,2.89,1.44,5.82,2,8.8.11.58.21,1.16.31,1.74C327.91,199.29,329,207,329.7,214.86Z"/><path class="cls-10" d="M214.11,397.33c-1-.88-1.88-1.81-2.77-2.78a233.27,233.27,0,0,1-46-77.7q4.3-5.09,8.89-10.07a20.57,20.57,0,0,1,6.36,3.39c5.34,6.2,10.1,13.53,14.79,20.79l20.7,32c.14.24.3.47.45.72C221.16,374.78,220.28,388.37,214.11,397.33Z"/><path class="cls-11" d="M270.56,352.64V353a8.73,8.73,0,0,1-4.95,7.86,8.53,8.53,0,0,1-3.78.86H238.61a8.73,8.73,0,0,1-5.26-1.75,8.79,8.79,0,0,1-3.47-7v-.37a8.73,8.73,0,0,1,8.73-8.73h23.22A8.73,8.73,0,0,1,270.56,352.64Z"/><path class="cls-12" d="M269.7,356.78a8.73,8.73,0,0,1-4.09,4.09,8.53,8.53,0,0,1-3.78.86H238.61a8.73,8.73,0,0,1-5.26-1.75,8.58,8.58,0,0,1-2.11-2.3,31.51,31.51,0,0,1,20.9-7.24A28.62,28.62,0,0,1,269.7,356.78Z"/><path class="cls-13" d="M164.81,262.77l-.38-7.52c-1-19.46,14-5,33.48-6l1.39-.07c19.46-1,36-17,37,2.48l.37,7.52a35.26,35.26,0,0,1-33.47,37l-1.39.07A35.26,35.26,0,0,1,164.81,262.77Z"/><rect class="cls-13" x="246.9" y="220.55" width="74.39" height="68.54" rx="33.61" transform="translate(504.19 -56.95) rotate(83.33)"/><rect class="cls-14" x="250.12" y="223.51" width="67.95" height="62.61" rx="30.7" transform="translate(371.11 -116.76) rotate(61.29)"/><path class="cls-15" d="M390.6,135.91l-1.18-10.57a18.18,18.18,0,0,1-5.19-22.55,18,18,0,0,1-4.61-12.09c0-.28,0-.56,0-.83-6.1-2.32-14.85-.72-21.9,4.49-9,6.67-11.86,16.71-6.37,22.41a9.78,9.78,0,0,0,2,1.65c-15.22,4.75-5.34,8-34.41,12.3h0L287.35,43.43c-.66-6-15.12-8.51-34-8.43l2.8,25.18c2,17.49-58,24.16-60,6.67l-2.8-25.18c-18.43,4.07-32,9.65-31.32,15.69l-12,88.79c-29.51,1.08-20,.21-35.95-1.07a9.89,9.89,0,0,0,1.64-2.08c4.1-6.79-.87-16-11.13-20.48s-21.89-2.66-26,4.13A9.84,9.84,0,0,0,77.19,132l.22,2h0l4,36.33a34.6,34.6,0,0,0,28.29,30.24,34.17,34.17,0,0,0,9.92.33c.18,1.64,16.61,1.05,40.79-.85,3.87-.3,7.93-.64,12.15-1,6.58-.56,13.54-1.2,20.78-1.9,3.13-.3,6.31-.6,9.54-.93,12-1.19,24.57-2.52,37.13-3.91q5.58-.61,11.12-1.25c20-2.29,39.51-4.71,56.4-7,5.32-.71,10.38-1.43,15.1-2.13l1.68-.24c21.62-3.21,35.84-6,35.67-7.52a34.63,34.63,0,0,0,30.58-38.22ZM166.54,70.43a8,8,0,0,1,1.67-1.66,9.58,9.58,0,0,1,2-7.23c3-3.89,8-5,11.17-2.61s3.35,7.58.37,11.47a10.45,10.45,0,0,1-3.88,3.13,8.49,8.49,0,0,1-1.74,4.28c-2.49,3.24-6.66,4.21-9.32,2.18S164.05,73.67,166.54,70.43Z"/><path class="cls-15" d="M77.19,132l.22,2A9.63,9.63,0,0,1,77.19,132Z"/><path class="cls-16" d="M319,129.78c2.38,24-166.73,40.81-169.12,16.85"/><circle class="cls-8" cx="256.88" cy="312.16" r="15.67"/><circle class="cls-8" cx="320.52" cy="294.58" r="4.01"/><path class="cls-8" d="M324,293.47c3.35,10.48-11.8,24.69-33.85,31.74s-42.64,4.26-46-6.21,16.65-20.56,42.33-5.22C306.36,325.64,320.64,283,324,293.47Z"/><circle class="cls-8" cx="225.51" cy="314.98" r="15.67"/><circle class="cls-8" cx="159.87" cy="307.86" r="4.01"/><path class="cls-8" d="M156.26,307.33c-1.62,10.88,15.62,22.46,38.52,25.87s42.76-2.64,44.38-13.52-19.73-17.61-42.62,1.65C178.84,336.24,157.88,296.45,156.26,307.33Z"/><circle class="cls-6" cx="263.73" cy="327.87" r="11.53"/><circle class="cls-6" cx="280.57" cy="326.52" r="7.25"/><rect class="cls-6" x="171.42" y="182.34" width="68.72" height="20.89" rx="10.44" transform="matrix(1, -0.06, 0.06, 1, -11.96, 13.62)"/><path class="cls-17" d="M261.79,267.61V300h-1.52a10.64,10.64,0,0,0-10.64,10.65v7.52a10.54,10.54,0,0,0,1.23,5,15,15,0,0,1-5,.85h-3.21a15,15,0,0,1-8.34-2.53,5,5,0,0,0,2-4v-7.57a5,5,0,0,0-5-5h-3.52a4.65,4.65,0,0,0-1.06.11V267.61c0-9.38,7.12-17,15.91-17C242.68,250.63,261.79,250.58,261.79,267.61Z"/><path class="cls-18" d="M281.45,255.68v-.56c0-1.45.85-2.66,1.91-2.69h.08c1.06,0,1.92,1.11,1.92,2.56v.56c0,1.46-.85,2.66-1.91,2.7h-.07C282.31,258.28,281.45,257.13,281.45,255.68Z"/><path class="cls-19" d="M262.31,355.36h1.34a3.46,3.46,0,0,1,3.46,3.46v44a0,0,0,0,1,0,0h-8.27a0,0,0,0,1,0,0v-44A3.46,3.46,0,0,1,262.31,355.36Z" transform="translate(525.95 758.15) rotate(-180)"/><path class="cls-19" d="M255.57,352.67h1.34a3.46,3.46,0,0,1,3.46,3.46V384.6a0,0,0,0,1,0,0H252.1a0,0,0,0,1,0,0V356.13A3.46,3.46,0,0,1,255.57,352.67Z" transform="translate(512.48 737.27) rotate(-180)"/><path class="cls-20" d="M174.63,239.25c0,3.76,46.06,3.76,46.06,0a3.66,3.66,0,0,0,3.66-3.66h0a3.65,3.65,0,0,0-3.66-3.65c0,6.75-46.06,6.75-46.06,0a3.65,3.65,0,0,0-3.66,3.65h0A3.66,3.66,0,0,0,174.63,239.25Z"/><path class="cls-21" d="M169.23,216.32l-1.51-4.07c-.29-.8.49-2.07,2.1-3.38l8.44-6.87c3.87-3.15,10-4.79,10.73-2.86l1.51,4.06c.3.81-.49,2.07-2.1,3.38L180,213.46C176.1,216.61,169.94,218.24,169.23,216.32Z"/><path class="cls-21" d="M176.32,224.09l-1-2.33c-.19-.46.32-1.23,1.35-2l5.45-4.33c2.49-2,6.45-3.15,6.9-2l1,2.33c.19.46-.32,1.23-1.36,2.05L183.23,222C180.74,224,176.78,225.19,176.32,224.09Z"/><path class="cls-21" d="M192.93,198.58l.57-1.82c.12-.36.69-.76,1.53-1.07l4.4-1.65c2-.75,4.36-.6,4.09.26l-.57,1.82c-.11.36-.69.76-1.53,1.07l-4.4,1.65C195,199.59,192.66,199.44,192.93,198.58Z"/><circle class="cls-8" cx="341.21" cy="229.5" r="7.41"/><circle class="cls-8" cx="345.25" cy="242.3" r="6.95"/></g></svg>