<svg id="Layer_1" data-name="Layer 1" xmlns="http://www.w3.org/2000/svg" xmlns:xlink="http://www.w3.org/1999/xlink" viewBox="0 0 480 480"><defs><style>.cls-1,.cls-15{fill:none;}.cls-2{fill:#d9e021;}.cls-3{clip-path:url(#clip-path);}.cls-4{fill:#bf3652;}.cls-5{fill:#b56b39;}.cls-6{fill:#74431c;}.cls-7{fill:#a12e45;}.cls-8{fill:#212b28;}.cls-9{fill:#855136;}.cls-10{fill:#d7cec5;}.cls-11{fill:#290901;}.cls-12{fill:#080a08;}.cls-13{fill:#a83124;}.cls-14{clip-path:url(#clip-path-2);}.cls-15{stroke:#333;stroke-miterlimit:10;stroke-width:0.34px;}</style><clipPath id="clip-path"><circle class="cls-1" cx="240" cy="240" r="227.9"/></clipPath><clipPath id="clip-path-2"><path class="cls-1" d="M210.62,358.69a6.71,6.71,0,0,0-.42-.85,7.45,7.45,0,0,0-2.84-2.76,22,22,0,0,1-10.56,1.09c-.45-.06-.9-.14-1.34-.24-3.89-.9-5.44-3.93-7.16-7.23-2.59-5-3.52-6-3-8.53.58-3.07,1.23-6.55-2.1-14.07-3.06-6.9-5.78-7.65-9.42-6.6-1.05.3-1.3.33-1.77,0-.82-.5-2.21-2-4.29-6.4-1.8-3.8-2.5-6.86-2.09-8.83a3.45,3.45,0,0,1,.56-1.32c1.21-1.68,4-1.72,5.06-1.68a6.75,6.75,0,0,0,.44-4.71c-1.52-.09-6.14-.08-8.9,3.09a5.52,5.52,0,0,0-.43.53c-2.4,3.31-2.61,9.33.51,15.93,4.26,9,8.07,9.08,12.21,7.89.85-.24,1-.26,1.17-.18.32.19.66.65,2.08,3.86,2.74,6.17,2.82,8.95,2.32,11.58-.56,3-2.44,7,.92,13.42,2.23,4.27,7.22,6.28,12,7.61l.83.2C201.1,362.08,208.14,360.25,210.62,358.69Z"/></clipPath></defs><title>Artboard 13</title><circle class="cls-2" cx="241.16" cy="236.77" r="227.9"/><g class="cls-3"><path class="cls-4" d="M384,128c-1.08-18.66-8.79-34.15-23.07-46.32C347.18,70,331,61.46,317.53,49.54c-6.4-5.66-12.17-12.08-19.19-16.95C278,18.49,250.17,19.82,227,28.7S184,53,163.15,66.36C157,70.29,150.63,74.2,146.25,80c-9.73,12.89-8,30.5-15.75,44.33-5.53,9.91-7.46,14.92-8.74,26.33q-3.66,32.7-7.31,65.4-8,71.81-16.06,143.59-1.1,9.87-2.2,19.74c-1.89,25.38,8.48,48,26.24,62.88a650.55,650.55,0,0,1,3.91-69.11q11.26,33,22.55,66.08c-.44-3-.87-6.05-1.31-9.07l19,17q-.3-5.24-.58-10.45l27.79,23.62,21.92,0,73.38-37.75a207.51,207.51,0,0,0,13.05,23.93,117.89,117.89,0,0,1,23.59-32.41q3.9,9,7.8,17.9a85.3,85.3,0,0,0,23.85-52.44c2.57-34.4,14.43-69.33,9.66-103.82-.84-6-2.1-12.11-1.66-18.2C366.48,243,377,230.51,379.05,216c1.47-10.43-1.59-20.89-2.77-31.35C374.09,165.31,385.11,148.2,384,128ZM157.11,422.39c-5,10.39-10.07-10-10.49-13-1.47-10.53-5.44-21-3.55-31.49,5.19,4.92,7.83,12,9.37,19,1.08,4.93,1.54,10,2.66,14.92C155.72,414.58,158.47,419.54,157.11,422.39Zm198-61.07c-2.86,10.23-3.43,21.45-9.35,30.28-2.79-6.6-2.39-14.12-1-21.15,1-5,2.59-9.78,3.54-14.74.54-2.8,0-8.45,2.39-10.52C359.39,337.66,355.91,358.38,355.09,361.32Z"/><path class="cls-5" d="M253.11,367h0a24.5,24.5,0,0,1,24.5,24.5V503.2a0,0,0,0,1,0,0h-49a0,0,0,0,1,0,0V391.52A24.5,24.5,0,0,1,253.11,367Z" transform="translate(506.22 870.23) rotate(180)"/><path class="cls-6" d="M253.11,313h0a24.5,24.5,0,0,1,24.5,24.5V449.19a0,0,0,0,1,0,0h-49a0,0,0,0,1,0,0V337.51A24.5,24.5,0,0,1,253.11,313Z" transform="translate(506.22 762.21) rotate(-180)"/><path class="cls-5" d="M147.28,232.85c-3.46.16-5.05,4.3-5.79,7.69l-1.51,6.9c-1.34,6.11-2.68,12.3-2.43,18.55s2.28,12.67,6.8,17c1.66,1.59,3.81,2.92,6.11,2.78,4.26-.24,6.69-5.33,6.26-9.58S154,268.11,152.91,264c-1.94-7.32.55-13.51,1.58-20.62C155.11,239.14,152.9,232.59,147.28,232.85Z"/><ellipse class="cls-7" cx="253.11" cy="202.21" rx="107.34" ry="128.27"/><path class="cls-5" d="M357.78,261.61c-1.36,8.24-2.59,16.21-2.59,23.34a40.34,40.34,0,0,1-1.41,10.55,77.1,77.1,0,0,1-4.72,12.34c-1.66,3.68-3.42,7.44-4.92,11.58-.33.89-.65,1.82-.94,2.76C340,332.15,321,346,317.15,354.76l-.84,1.81-12.67,14.56a21.91,21.91,0,0,0-2.77,2.53c-4,4.41-5.75,11.26-9,16.59-4.83,8-12.55,12-20.09,15A81.09,81.09,0,0,1,254.54,410c-8.49,1.27-17,.73-25.08-2.88A26.91,26.91,0,0,1,216.73,396c-2.44-4.28-3.73-9.58-6.42-13.63s-7.12-7.71-10.87-11.29c-.64-.61-1.27-1.22-1.87-1.84a49.72,49.72,0,0,1-4.36-4.35,3.09,3.09,0,0,1-.23-.31h0c-2.29-3.1-1.55-3.85-5.44-4.79h0c-5.66-1.37-12.26,0-18.16-1.29a36,36,0,0,1-15.13-6.88c-9.59-7.77-13.29-21-12.48-33.36.6-9.08,3.33-17.82,6.51-26.29.15-.38.28-.77.42-1.14,2.54-7.33,2.45-13.12,2.45-21.16,0-13.28-6.18-28.87-6.33-42.47-.24-22.41,6.27-40.22,16.33-60.11q10.22-20.13,20.42-40.3c2.15-4.24,4.37-8.59,7.91-11.76,6.3-5.64,15.48-6.51,24-6.41,41.81.51,81.2-9.31,110,20.66,14.44,15,26.27,61.3,34.18,80.49q1,2.55,1.85,5.22C363.58,228.73,360.41,245.67,357.78,261.61Z"/><path class="cls-8" d="M270.12,260.38v37.29a17.49,17.49,0,0,1-.62,4.6c-.11-1.43-5.65,6.63-3,6a17.26,17.26,0,0,1-27.22.09c1.16-2.18-3.2-8.49-3.41-7.49a16.83,16.83,0,0,1-.3-3.19V260.38a17.28,17.28,0,0,1,34.56,0Z"/><path class="cls-9" d="M270.12,260.38v37.29a17.49,17.49,0,0,1-.62,4.6,12.8,12.8,0,0,0-1.24-4.48c-2.06-4.39-5.93-6.9-8.63-5.63s-3.2,5.86-1.13,10.24c1.91,4.05,5.35,6.5,8,5.86a17.26,17.26,0,0,1-27.22.09c2.54.18,5.62-2.2,7.39-6,2.07-4.38,1.57-9-1.13-10.24s-6.57,1.24-8.63,5.63a13.74,13.74,0,0,0-1,3.07,16.83,16.83,0,0,1-.3-3.19V260.38a17.28,17.28,0,0,1,34.56,0Z"/><circle class="cls-5" cx="277.56" cy="269.04" r="16.88"/><rect class="cls-10" x="265.96" y="218.35" width="70.66" height="65.1" rx="31.92" transform="translate(566.9 -37.5) rotate(92.86)"/><path class="cls-6" d="M201.16,295.61l1.39.07c19.46.89,36-12.93,37-30.9l.21-3.84h-72l0,.54C166.72,279.43,181.7,294.72,201.16,295.61Z"/><path class="cls-10" d="M234.73,249.42l-.34,6.81a31.92,31.92,0,0,1-33.48,30.29l-1.25-.06a32,32,0,0,1-5-.64l-1.17-.26A31.94,31.94,0,0,1,169.37,253l.34-6.82a31.9,31.9,0,0,1,18-27.13l.33-.16a31.71,31.71,0,0,1,15.18-3l1.26.07A31.92,31.92,0,0,1,234.73,249.42Z"/><path class="cls-8" d="M306,333.64v2.63a23.41,23.41,0,0,1-23.42,23.42H224a23.41,23.41,0,0,1-23.42-23.42v-2.63A23.42,23.42,0,0,1,224,310.22h3.36c4.18,6.68,14.07,11.37,25.61,11.37s21.42-4.69,25.6-11.37h4A23.42,23.42,0,0,1,306,333.64Z"/><path class="cls-8" d="M292.28,326.38h1.36a12,12,0,0,1,12,12v30.05a12,12,0,0,1-12,12h-1.36a12,12,0,0,1-12-12V338.38A12,12,0,0,1,292.28,326.38Z"/><path class="cls-5" d="M298.49,291.94l1.29.06a32.56,32.56,0,0,0,34.14-30.89l.19-3.84H267.63l0,.53A32.55,32.55,0,0,0,298.49,291.94Z"/><path class="cls-6" d="M299.06,293l1.34.07a34,34,0,0,0,35.69-32.3l.2-4H266.8l0,.56A34,34,0,0,0,299.06,293Z"/><path class="cls-11" d="M357.78,261.61a36.1,36.1,0,0,1-10.09-58.45A36.14,36.14,0,0,1,335,159.65a36.1,36.1,0,0,1-30.64-18.59,36.11,36.11,0,0,1-52.46-8.25,36.12,36.12,0,0,1-49.29,10.5c0,.16,0,.33,0,.5a36.12,36.12,0,0,1-36.12,36.12,36.94,36.94,0,0,1-4.49-.29,36.13,36.13,0,0,1-8.85,44.57c2.48-2.06,11.77,16.5,12.3,18.36,2.41,8.54-2,14.76-5.14,22.69-1.74,4.39-3.5,9-2.87,13.7.66,4.93,3.93,9.24,4.47,14.19.17,1.5,0,3.26-1.32,4.08a3.35,3.35,0,0,1-4-.74,9.82,9.82,0,0,1-2-3.91c-2.81-8.31-3.38-14.14-3.38-22.89,0-13.28-6.19-28.87-6.34-42.47-.23-22.41,6.28-40.22,16.34-60.11q10.22-20.13,20.42-40.3c2.14-4.24,4.37-8.59,7.91-11.76,6.3-5.64,15.48-6.51,23.94-6.41,41.82.51,81.21-9.31,110,20.66,14.44,15,26.26,61.3,34.18,80.49q1,2.55,1.84,5.22C363.58,228.73,360.41,245.67,357.78,261.61Z"/><circle class="cls-5" cx="272.83" cy="145.5" r="10.8"/><circle class="cls-5" cx="288.36" cy="149.55" r="10.8"/><circle class="cls-4" cx="351.5" cy="299.67" r="11.93"/><circle class="cls-4" cx="348.09" cy="316.72" r="11.93"/><circle class="cls-4" cx="339.31" cy="333.6" r="11.93"/><path class="cls-9" d="M187.53,359.82h0c-5.66-1.37-12.26,0-18.16-1.29a36,36,0,0,1-15.13-6.88c-9.59-7.77-13.29-21-12.48-33.36.6-9.08,3.33-17.82,6.51-26.29.15-.38.28-.77.42-1.14a25.53,25.53,0,0,1,4.52-1.12l8.58-1.31a26,26,0,0,1,29.69,21.78l4.07,26.61A26,26,0,0,1,187.53,359.82Z"/><ellipse class="cls-12" cx="168.19" cy="298.74" rx="4.73" ry="8.1" transform="matrix(0.32, -0.95, 0.95, 0.32, -168.43, 363.7)"/><ellipse class="cls-12" cx="156.72" cy="302.79" rx="3.02" ry="5.17" transform="translate(-180.12 355.58) rotate(-71.54)"/><rect class="cls-8" x="199.56" y="252.23" width="5.09" height="4.69" rx="2.3" transform="translate(-118.26 309.54) rotate(-61.29)"/><rect class="cls-8" x="300.82" y="252.23" width="5.09" height="4.69" rx="2.3" transform="translate(-65.64 398.35) rotate(-61.29)"/><path class="cls-12" d="M206.25,369.8a10.07,10.07,0,0,1-6.81,1.31c-.64-.61-1.27-1.22-1.87-1.84a49.72,49.72,0,0,1-4.36-4.35,3.09,3.09,0,0,1-.23-.31h0a8.49,8.49,0,0,1,.61-4.29l.81.22c6.71,1.53,13.75-.29,16.23-1.85C212.25,362.54,210.43,367.35,206.25,369.8Z"/><path class="cls-12" d="M196.8,356.17c.34-.25.69-.5,1.07-.73a9.63,9.63,0,0,1,9.49-.36A22.07,22.07,0,0,1,196.8,356.17Z"/><path class="cls-13" d="M193.57,360.32c-4.81-1.32-9.81-3.33-12-7.6-3.36-6.42-1.48-10.43-.92-13.42.5-2.63.42-5.41-2.32-11.58-1.42-3.21-1.76-3.67-2.08-3.85-.15-.09-.32-.08-1.17.17-4.14,1.19-7.95,1.12-12.21-7.89-3.12-6.59-2.91-12.62-.51-15.93a5.52,5.52,0,0,1,.43-.53,6,6,0,0,0,.5,2.36,4.12,4.12,0,0,0,2.35,2.26c-.42,2,.28,5,2.08,8.82,2.08,4.39,3.48,5.91,4.29,6.41.47.29.72.26,1.76,0,3.65-1.05,6.37-.31,9.43,6.6,3.33,7.52,2.67,11,2.1,14.07-.47,2.5.45,3.57,3,8.53,1.72,3.3,3.27,6.33,7.15,7.23q.68.15,1.35.24A10.2,10.2,0,0,0,193.57,360.32Z"/><path class="cls-13" d="M194.4,360.53c-.28-.06-.55-.13-.83-.21a10.2,10.2,0,0,1,3.23-4.15,22.07,22.07,0,0,0,10.56-1.09,7.28,7.28,0,0,1,3.26,3.61C208.15,360.25,201.11,362.08,194.4,360.53Z"/><path class="cls-13" d="M163.25,302.05a6,6,0,0,1-.5-2.36c2.76-3.17,7.38-3.18,8.9-3.09a6.81,6.81,0,0,1-.44,4.71c-1,0-3.85,0-5.06,1.68a3.29,3.29,0,0,0-.55,1.32A4.12,4.12,0,0,1,163.25,302.05Z"/><g class="cls-14"><path class="cls-15" d="M162.25,298.94a10.82,10.82,0,0,1,6.31,3.62"/><path class="cls-15" d="M160.53,309.76a13.84,13.84,0,0,1,6.27-1.55"/><path class="cls-15" d="M164.3,319.48c.65-.73,1.3-1.45,2-2.14a5,5,0,0,1,3.07-1.74"/><path class="cls-15" d="M175.53,324.33a10.87,10.87,0,0,1,.12-2.35,5.93,5.93,0,0,1,.4-1.82,2.07,2.07,0,0,1,1.31-1.23"/><path class="cls-15" d="M178.47,328.23a7.74,7.74,0,0,1,6.22-2.83"/><path class="cls-15" d="M180.4,334.51a11.36,11.36,0,0,1,6.26,1.06"/><path class="cls-15" d="M179.28,344.51a22.22,22.22,0,0,1,5.3-2,1.07,1.07,0,0,1,.93.07"/><path class="cls-15" d="M182,354.47a11.63,11.63,0,0,1,7-6.35"/><path class="cls-15" d="M192,359.94a11.1,11.1,0,0,1,2.93-4.37"/><path class="cls-15" d="M200.61,361.36l0-2.85a9.38,9.38,0,0,1,.32-2.7"/><path class="cls-15" d="M206.94,360.62a16.34,16.34,0,0,1-1.6-5.63"/></g></g></svg>