<svg xmlns="http://www.w3.org/2000/svg" xmlns:xlink="http://www.w3.org/1999/xlink" viewBox="0 0 480 480"><defs><style>.cls-1{fill:none;}.cls-2{isolation:isolate;}.cls-3{fill:#d9e021;}.cls-4{clip-path:url(#clip-path);}.cls-5{fill:#b89b5b;}.cls-6{clip-path:url(#clip-path-2);}.cls-7{fill:#b89c5a;}.cls-8{fill:#b56b39;}.cls-9{fill:#c1a360;}.cls-10{fill:#917a48;}.cls-11{fill:#110002;}.cls-12{fill:#9e895a;}.cls-13{fill:#eee2e5;}.cls-14{fill:#9b2626;}.cls-15{fill:#212b28;}.cls-16{fill:#fc5317;}.cls-17{fill:#d7cec5;}.cls-18{fill:#cec5c8;}.cls-19{fill:#e07777;}.cls-20,.cls-21{fill:#8a7544;}.cls-20{opacity:0.5;mix-blend-mode:darken;}.cls-22{fill:#f0ecec;}.cls-23{fill:#b9ac8f;}.cls-24{fill:#620400;}</style><clipPath id="clip-path"><circle class="cls-1" cx="240" cy="-260" r="227.9"/></clipPath><clipPath id="clip-path-2"><circle class="cls-1" cx="240" cy="240" r="227.9"/></clipPath></defs><title>Artboard 9</title><g class="cls-2"><g id="Layer_1" data-name="Layer 1"><circle class="cls-3" cx="241.16" cy="236.77" r="227.9"/><g class="cls-4"><path class="cls-5" d="M223.49-153.34h61a0,0,0,0,1,0,0V-14.5a22.7,22.7,0,0,1-22.7,22.7H246.19a22.7,22.7,0,0,1-22.7-22.7V-153.34A0,0,0,0,1,223.49-153.34Z"/></g><g class="cls-6"><path class="cls-7" d="M356.14,264.8a15.18,15.18,0,0,0-3.64,9.51,15.52,15.52,0,0,0,0,1.67,15.29,15.29,0,0,0-6.31,22.08,15.3,15.3,0,0,0,1.87,20c-3.89,2-8.09,2.35-11.06-.62h-4.63a19.1,19.1,0,0,1-19.1-19.1V255.54a19.11,19.11,0,0,1,19.1-19.11H337a19.11,19.11,0,0,1,19.1,19.11Z"/><path class="cls-7" d="M150.43,316.83h-4.62c-9.75,9.75-28.85-9.36-19.11-19.1V254.9a19.1,19.1,0,0,1,19.11-19.1h4.62a19.1,19.1,0,0,1,19.1,19.1v42.83A19.1,19.1,0,0,1,150.43,316.83Z"/><path class="cls-8" d="M238.91,210.54a86.79,86.79,0,0,1,0,17.8A85.4,85.4,0,0,1,238.91,210.54Z"/><path class="cls-8" d="M278.42,153.78a62.52,62.52,0,0,0-16.69,10.62c-13.31,11.78-21,28.3-22.82,46.14-1.88-17.84-9.52-34.36-22.83-46.14a63.06,63.06,0,0,0-41-15.84c1.93-3.79,4-7.62,7.14-10.45,6-5.33,14.62-6.15,22.61-6.05C230.8,132.38,256.28,140.32,278.42,153.78Z"/><path class="cls-9" d="M242.34,358.2h0a23.13,23.13,0,0,1,23.13,23.13V486.8a0,0,0,0,1,0,0H219.21a0,0,0,0,1,0,0V381.34A23.13,23.13,0,0,1,242.34,358.2Z" transform="translate(484.68 845) rotate(180)"/><path class="cls-10" d="M242.34,313.58h0a23.13,23.13,0,0,1,23.13,23.13V442.17a0,0,0,0,1,0,0H219.21a0,0,0,0,1,0,0V336.71A23.13,23.13,0,0,1,242.34,313.58Z" transform="translate(484.68 755.75) rotate(180)"/><path class="cls-11" d="M349.57,196.11c-.61,42.8-27.78,79.34-66.46,95.8a89.05,89.05,0,0,1-24.58-21A86.89,86.89,0,0,1,239.1,224.4a86.82,86.82,0,0,1-20.75,46,88.73,88.73,0,0,1-27.69,21.56c-39.88-16.94-67.42-55.09-66.79-99a101.24,101.24,0,0,1,5.31-31C143.89,118.26,187.36,87,238.25,87.75a116.9,116.9,0,0,1,65.33,20.83c-3.77,2.2-7.47,4.34-10.68,4.49l7.07-.32-.81,3.41,11.07.74q-5.82,6.42-11.64,12.84c10.71,2.53,22.39,5.7,28.69,14.72,1.74,2.48,3.52,5.66,6.54,5.77,1.56.05,3.22-.77,4.59,0a96.74,96.74,0,0,0,6.35,29.17,14.22,14.22,0,0,0,3.08,5.28,6.52,6.52,0,0,0,1.35,1A104.41,104.41,0,0,1,349.57,196.11Z"/><path class="cls-9" d="M342.73,232.51Q342,230,341,227.58c-7.47-18.12-17.51-34.49-31.15-48.67a156.15,156.15,0,0,0-31.41-25.13,62.52,62.52,0,0,0-16.69,10.62c-13.31,11.78-21,28.3-22.82,46.14,4.67,4.9,3.5,13.06-6.06,24.54-.62-6,5.44-18.71,6.06-24.54-1.88-17.84-9.52-34.36-22.83-46.14a62.82,62.82,0,0,0-35.74-15.53c-1.75-.17-3.51-.28-5.28-.31l-.33.66q-9.64,19-19.28,38.06C146,206.06,139.8,222.87,140,244c0,.85,0,1.7.1,2.54.55,8.55,3.21,16.74,4.51,25.18,1.32,8.67-.16,16.9.89,25.72a166.52,166.52,0,0,0,10.71,42.79h.44a20.52,20.52,0,0,1,7.33,1.35v14.83c.91,1.6,1.85,3.19,2.84,4.76a20.33,20.33,0,0,1,2.9-1.49V344.92a21.15,21.15,0,0,1,2.55,2.46v11.45a20.77,20.77,0,0,1,4.9-.7,20.65,20.65,0,0,1-2.9,13.75q2.4,3.12,5,6.06V358.18a20.79,20.79,0,0,1,4.19.76,11.09,11.09,0,0,0-1,4.61v8.26a11.07,11.07,0,0,0,2.25,6.72,32.68,32.68,0,0,1,.18-4.08,4.41,4.41,0,0,1,1.11-2.87,1,1,0,0,1,.57-.28c.46,0,.81.42,1,.84a14.1,14.1,0,0,1,1.28,3.68c0-2.25.08-4.8,1.75-6.31a1,1,0,0,1,.61-.32c.43,0,.72.41.9.8a22.91,22.91,0,0,1,1.74,6.94,41.49,41.49,0,0,1,.74,6.05H198a20.55,20.55,0,0,1-4.16,8.83A104.17,104.17,0,0,0,217,405.9a73,73,0,0,0,26.27,6.52,61.7,61.7,0,0,0,24.24-4.13,72.48,72.48,0,0,0,9.14-4.2,8.94,8.94,0,0,1,3.22-7.81c3.52-2.77,8.22-3.48,12.11-5.69,5.77-3.28,9.15-9.46,12.29-15.31q10.64-19.8,22-39.22a33.4,33.4,0,0,1,3.29-4.63c.71-2.07,1.39-4.16,2-6.24a230.31,230.31,0,0,0,6.54-26.74,101.11,101.11,0,0,0,1.4-11.17C340.78,269.11,348.21,250.71,342.73,232.51Z"/><path class="cls-12" d="M190.84,184.36l-25.27,45.37a33.91,33.91,0,0,1-25.45,16.85c-.05-.84-.09-1.69-.1-2.54-.22-21.17,5.93-38,15.43-56.76q9.65-19,19.28-38.06l.33-.66c1.77,0,3.53.14,5.28.31C193.75,155,198.48,170.64,190.84,184.36Z"/><path class="cls-13" d="M237.68,202.79c-.07-.37-.14-.74-.22-1.12C237.53,202,237.61,202.35,237.68,202.79Z"/><path class="cls-13" d="M339.52,287.28a101.11,101.11,0,0,1-1.4,11.17,229.32,229.32,0,0,1-8.58,33,32.58,32.58,0,0,0-3.28,4.61q-11.34,19.41-22,39.22c-2.07,3.86-4.25,7.86-7.15,11.08-2-1.08-4.12-2-6.13-3-16.09-7.47-31.64-19.06-37.26-35.89-2.69-8.06-3.23-17.43-9.22-23.45-2.45-2.46-5.72-4.23-7.31-7.32-2.16-4.2-.59-9.7-3.11-13.7-1.4-2.2-3.81-3.53-5.6-5.42-5.16-5.42-4.68-14.05-3.16-21.37,4.51-21.63,17.22-34.49,13.61-65.3.45,4.37-.59-4.23-1.26-8.12.51,2.7.92,5.27,1.22,7.73,1.87-17.84,9.51-34.36,22.82-46.14a62.52,62.52,0,0,1,16.69-10.62,156.15,156.15,0,0,1,31.41,25.13c13.64,14.18,23.68,30.55,31.15,48.67q1,2.4,1.75,4.93C348.21,250.71,340.78,269.11,339.52,287.28Z"/><path class="cls-9" d="M298.81,384.32a25.56,25.56,0,0,1-4.35,4.58,4.43,4.43,0,0,1-4.22-2.73,3.48,3.48,0,0,1-.21-.62,4.76,4.76,0,1,1,3.1-5.4,4.46,4.46,0,0,1,5.34,2.56A4.6,4.6,0,0,1,298.81,384.32Z"/><path class="cls-11" d="M297.24,87.5a39.84,39.84,0,0,1-39.85,39.84H217.23A39.85,39.85,0,0,1,183.69,66a126.68,126.68,0,0,0,13.92,11.94L191.37,67.4a52.88,52.88,0,0,0,6,4.94,23.59,23.59,0,0,0-4.18-10.29l9.52,10.73c-1.5-6-3-12-3.09-18.1,0-1,0-2,.08-3a39.84,39.84,0,0,1,17.51-4h40.16A39.85,39.85,0,0,1,297.24,87.5Z"/><path class="cls-14" d="M297.24,107.58c0-4.63-119.85-4.63-119.85,0V99.93c0-4,119.85-4,119.85,0Z"/><rect class="cls-14" x="298.95" y="85.06" width="5.74" height="24.22" transform="translate(130.17 -169.42) rotate(39.38)"/><rect class="cls-14" x="170.18" y="85.06" width="5.74" height="24.23" transform="translate(368.46 62.5) rotate(140.62)"/><polygon class="cls-11" points="266.17 79.81 262.33 76.96 304.71 30.48 308.56 33.33 266.17 79.81"/><ellipse class="cls-14" cx="307.44" cy="30.68" rx="8.29" ry="7.48"/><polygon class="cls-11" points="278.65 86.64 276.01 82.6 325.33 43.74 327.96 47.78 278.65 86.64"/><ellipse class="cls-14" cx="327.67" cy="44.66" rx="7.54" ry="8.29"/><path class="cls-15" d="M194.91,348.87V346.5A21.1,21.1,0,0,1,216,325.4h52.8a21.1,21.1,0,0,1,21.1,21.1v2.37a21.1,21.1,0,0,1-21.1,21.1h-3c-3.77-6-12.68-10.24-23.07-10.24S223.41,364,219.65,370H216A21.1,21.1,0,0,1,194.91,348.87Z"/><path class="cls-16" d="M169.74,344.92V393.5a2.86,2.86,0,0,1-2.87,2.86l-.24,0a21.19,21.19,0,0,1-2.43-1.8,3,3,0,0,1-.2-1V341.61A20.61,20.61,0,0,1,169.74,344.92Z"/><path class="cls-16" d="M166.63,396.34a21.19,21.19,0,0,1-2.43-1.8A2.85,2.85,0,0,0,166.63,396.34Z"/><path class="cls-16" d="M179.3,358.18v28.73a3.08,3.08,0,0,1-3.08,3.08h-.85a3.07,3.07,0,0,1-3.08-3.08V347.38a20.68,20.68,0,0,1,4.9,10.74c-.42,0-.84,0-1.26.08.42,0,.83-.06,1.26-.07h.52C178.24,358.11,178.77,358.14,179.3,358.18Z"/><path class="cls-16" d="M177.19,358.12h0c-.43,0-.84,0-1.26.07C176.35,358.15,176.77,358.13,177.19,358.12Z"/><path class="cls-16" d="M177.19,358.12h0c-.43,0-.84,0-1.26.07C176.35,358.15,176.77,358.13,177.19,358.12Z"/><rect class="cls-17" x="251.22" y="233.75" width="66.72" height="61.48" rx="30.14" transform="translate(562.93 -6.55) rotate(92.86)"/><path class="cls-18" d="M299.67,307.71c6.18,0,12.46,0,18.41-1.69.37-11-5-22.68-14.94-27.3-4.86-2.25-10.39-2.69-15.74-2.29a53.25,53.25,0,0,0-25.58,8.89,29,29,0,0,0-9.38,9.45c-6.42,11.36,1.92,12.93,11.21,12.93Z"/><path class="cls-19" d="M318.91,306.48a20.29,20.29,0,0,1-1.64,8,3.2,3.2,0,0,0-1-.76c-4.9-2.3-7.83,4.39-12.27,4.82-1.95.19-3.9-.84-5.84-.52-2.39.39-4,2.65-6,3.95a8.18,8.18,0,0,1-5.47,1.1,20.4,20.4,0,1,1,32.24-16.62Z"/><path class="cls-20" d="M331.58,325.19c-.64,2.08-1.32,4.17-2,6.24a33.4,33.4,0,0,0-3.29,4.63q-11.34,19.41-22,39.22c-3.14,5.85-6.52,12-12.29,15.31-3.89,2.21-8.59,2.92-12.11,5.69a8.94,8.94,0,0,0-3.22,7.81,72.48,72.48,0,0,1-9.14,4.2,30.91,30.91,0,0,1-11-10.46c1.08-2.12,2.14-4.32,3.14-6.62.45-1,.87-2.09,1.29-3.18,4.4-11.47,8-24.43,14.37-35.12l1.37-2.22,20-17.35c1-.61,2.07-1.25,3.05-2,.43-.32.86-.65,1.28-1,5.9-4.95,9-12.74,13.62-19,.29-.39.58-.76.88-1.14a37.2,37.2,0,0,1,5.57-5.58A31.34,31.34,0,0,1,331.58,325.19Z"/><path class="cls-18" d="M298.4,259.9c6.18,0,12.45,0,18.4-1.69.37-11-5-22.68-14.94-27.3-4.86-2.26-10.39-2.7-15.73-2.29a53.41,53.41,0,0,0-25.59,8.88,29.2,29.2,0,0,0-9.38,9.45c-6.42,11.37,1.93,12.94,11.21,12.94Z"/><rect class="cls-17" x="157.51" y="234.03" width="66.72" height="61.48" rx="30.14" transform="translate(464.83 87.34) rotate(92.86)"/><path class="cls-7" d="M175.52,259.9c-6.18,0-12.45,0-18.4-1.69-.37-11,5-22.68,14.94-27.3,4.86-2.26,10.39-2.7,15.73-2.29a53.41,53.41,0,0,1,25.59,8.88,29.2,29.2,0,0,1,9.38,9.45c6.42,11.37-1.93,12.94-11.21,12.94Z"/><path class="cls-21" d="M254.51,260.05v35.21a16.07,16.07,0,0,1-.19,2.52c-2.4-2.8-5.43-4.1-7.73-3-3.11,1.47-3.7,6.76-1.31,11.82a15.31,15.31,0,0,0,1.5,2.54,16.22,16.22,0,0,1-8.59,2.45,15.42,15.42,0,0,1-2.26-.16,16.32,16.32,0,0,1-6-2.07,16.93,16.93,0,0,0,1.65-2.76,15,15,0,0,0,1.4-4.94c.33-3.19-.63-5.9-2.71-6.88a4.66,4.66,0,0,0-3.83.05,10.75,10.75,0,0,0-4.31,3.45,15.68,15.68,0,0,1-.28-3V260.05a16.32,16.32,0,0,1,14.33-16.19,14.42,14.42,0,0,1,2-.13A16.32,16.32,0,0,1,254.51,260.05Z"/><path class="cls-22" d="M237.68,202.79l-.21-1.12C237.53,202,237.61,202.35,237.68,202.79Z"/><path class="cls-22" d="M237.69,202.81c.51,2.7.92,5.27,1.22,7.73,0,.13,0,.26,0,.39C239.4,215.3,238.36,206.7,237.69,202.81Z"/><path class="cls-23" d="M254.51,260.05v35.21a16.07,16.07,0,0,1-.19,2.52c-2.4-2.8-5.43-4.1-7.73-3-3.11,1.47-3.7,6.76-1.31,11.82a15.31,15.31,0,0,0,1.5,2.54,16.22,16.22,0,0,1-8.59,2.45,15.42,15.42,0,0,1-2.26-.16c-.28-2.93-.28-5.95-1.83-8.4a9,9,0,0,0-1.09-1.37c-1.37-1.46-3.12-2.59-4.51-4a13.46,13.46,0,0,1-2-2.78c-2.95-5.33-2.41-12.43-1.13-18.59,2.5-12,7.51-21.25,10.87-32.37a14.42,14.42,0,0,1,2-.13A16.32,16.32,0,0,1,254.51,260.05Z"/><path class="cls-7" d="M175.52,307.71c-6.18,0-12.45,0-18.4-1.69-.37-11,5-22.68,14.94-27.3,4.86-2.25,10.39-2.69,15.73-2.29a53.32,53.32,0,0,1,25.59,8.89,29.2,29.2,0,0,1,9.38,9.45c6.42,11.36-1.93,12.93-11.21,12.93Z"/><rect class="cls-19" x="247.51" y="322.41" width="36.97" height="11.47" rx="5.74"/><path class="cls-24" d="M254.83,243.44a37.9,37.9,0,0,1,1.93-4.17c.69-1.35,1.45-2.66,2.27-4a51.91,51.91,0,0,1,5.61-7.34,37.73,37.73,0,0,1,7.4-6.36,23.58,23.58,0,0,1,10.37-3.84,18.3,18.3,0,0,1,6.27.51,22,22,0,0,1,3,1.08,18.06,18.06,0,0,1,2.65,1.55l1.2.87c.26.18.51.38.75.58l1.5,1.19,1.49,1.09.75.55.75.48a24.53,24.53,0,0,0,6,3,10.94,10.94,0,0,0,3,.6,8.26,8.26,0,0,0,1.57,0,7.32,7.32,0,0,0,.8-.11c.23,0,.56-.17.66-.09l3.33,3a10.11,10.11,0,0,1-1,1.31,8.35,8.35,0,0,1-1,1,11,11,0,0,1-2.42,1.57,8.59,8.59,0,0,1-1.33.57A10.37,10.37,0,0,1,309,237c-.47.11-.94.21-1.42.3l-1.4.13a22.31,22.31,0,0,1-10.39-2.06l-1.18-.5-1.09-.59c-.71-.4-1.47-.78-2.16-1.21l-2-1.36-1-.69-.57-.37a8.24,8.24,0,0,0-2.15-1l-.54-.14a5.35,5.35,0,0,0-.56-.07,9.14,9.14,0,0,0-1.19-.08,13.82,13.82,0,0,0-2.76.5,20.66,20.66,0,0,0-3.08,1.24c-1.05.5-2.11,1.15-3.19,1.79s-2.14,1.42-3.19,2.22a152.49,152.49,0,0,0-12.52,10.83Z"/><path class="cls-11" d="M174.93,175.51l2.37,1.11a5.71,5.71,0,0,0,7-1.64l1.33-2c1.39-2.07.52-4.69-2-5.85L181.3,166a5.72,5.72,0,0,0-7,1.64l-1.34,2C171.57,171.73,172.45,174.35,174.93,175.51Z"/><path class="cls-11" d="M192.52,179.69l1.13.53a2.72,2.72,0,0,0,3.33-.78l.63-.94a1.89,1.89,0,0,0-.93-2.79l-1.13-.53a2.71,2.71,0,0,0-3.33.79l-.63.94A1.87,1.87,0,0,0,192.52,179.69Z"/><path class="cls-11" d="M181.13,184.74l.74.34a1.77,1.77,0,0,0,2.17-.51l.41-.61a1.23,1.23,0,0,0-.61-1.82l-.73-.34a1.77,1.77,0,0,0-2.17.51l-.42.61A1.23,1.23,0,0,0,181.13,184.74Z"/><path class="cls-9" d="M230.79,316.14a4.78,4.78,0,1,1,9.55-.59,5.54,5.54,0,0,1,0,1,4.46,4.46,0,1,1-4.72,4.72,4.68,4.68,0,0,1,0-.65A4.77,4.77,0,0,1,230.79,316.14Z"/><path class="cls-16" d="M198.42,378.83A21,21,0,0,1,198,383h-3.36a41.49,41.49,0,0,0-.74-6.05,22.91,22.91,0,0,0-1.74-6.94c-.18-.39-.47-.82-.9-.8a1,1,0,0,0-.61.32c-1.67,1.51-1.77,4.06-1.75,6.31a14.1,14.1,0,0,0-1.28-3.68c-.22-.42-.57-.88-1-.84a1,1,0,0,0-.57.28,4.41,4.41,0,0,0-1.11,2.87,32.68,32.68,0,0,0-.18,4.08,11.07,11.07,0,0,1-2.25-6.72v-8.26a11.09,11.09,0,0,1,1-4.61A20.73,20.73,0,0,1,198.42,378.83Z"/><path class="cls-15" d="M192.73,268.64l0-.62c-.09-1.59-.67-2.49-1.3-2l0,0c-.63.49-1.06,2.18-1,3.77l0,.62c.09,1.6.67,2.5,1.3,2l0,0C192.39,271.93,192.82,270.24,192.73,268.64Z"/><path class="cls-15" d="M286.45,268.64l0-.62c-.09-1.59-.67-2.49-1.29-2l-.05,0c-.63.49-1.06,2.18-1,3.77l0,.62c.09,1.6.67,2.5,1.3,2l0,0C286.1,271.93,286.54,270.24,286.45,268.64Z"/></g></g></g></svg>