<svg id="Layer_1" data-name="Layer 1" xmlns="http://www.w3.org/2000/svg" xmlns:xlink="http://www.w3.org/1999/xlink" viewBox="0 0 480 480"><defs><style>.cls-1{fill:none;}.cls-2{fill:#d9e021;}.cls-3{clip-path:url(#clip-path);}.cls-4{fill:#bf997d;}.cls-5{fill:#947762;}.cls-6{fill:#4a3529;}.cls-7{fill:#fcf4df;}.cls-8{fill:#49352d;}.cls-9{fill:#b3815d;}.cls-10{fill:#fff1c8;stroke-width:0.45px;}.cls-10,.cls-11{stroke:#917d4f;stroke-miterlimit:10;}.cls-11{fill:#7c5241;stroke-width:0.58px;}.cls-12{fill:#080a08;}.cls-13{fill:#f2f2f2;}.cls-14{fill:#8c603f;}.cls-15{fill:#7a683a;}.cls-16{fill:#e8cc00;}.cls-17{fill:#8e6d4f;}.cls-18{fill:#212b28;}.cls-19{fill:#e7461b;}</style><clipPath id="clip-path"><circle class="cls-1" cx="240" cy="240" r="227.9"/></clipPath></defs><title>Artboard 11</title><circle class="cls-2" cx="241.16" cy="236.77" r="227.9"/><g class="cls-3"><path class="cls-4" d="M240,383.83h0a25.75,25.75,0,0,1,25.75,25.75V527a0,0,0,0,1,0,0H214.25a0,0,0,0,1,0,0V409.58A25.75,25.75,0,0,1,240,383.83Z" transform="translate(480 910.83) rotate(180)"/><path class="cls-5" d="M240,327.05h0a25.75,25.75,0,0,1,25.75,25.75V470.22a0,0,0,0,1,0,0H214.25a0,0,0,0,1,0,0V352.8A25.75,25.75,0,0,1,240,327.05Z" transform="translate(480 797.27) rotate(180)"/><path class="cls-6" d="M222.13,140.63c-9.7,3.9-26.1-35.95-42.28-76.28l-5-12.46A354.64,354.64,0,0,1,152.8-32a355.06,355.06,0,0,1,42.09,75.82c1.65,4.13,3.33,8.29,5,12.46C216.12,96.62,231.84,136.74,222.13,140.63Z"/><path class="cls-7" d="M222.13,140.63c-9.7,3.9-26.1-35.95-42.28-76.28l20.05-8C216.12,96.62,231.84,136.74,222.13,140.63Z"/><path class="cls-6" d="M257.86,140.63c9.71,3.9,26.11-35.95,42.29-76.28l5-12.46A354.64,354.64,0,0,0,327.2-32a355.06,355.06,0,0,0-42.09,75.82l-5,12.46C263.88,96.62,248.16,136.74,257.86,140.63Z"/><path class="cls-7" d="M257.86,140.63c9.71,3.9,26.11-35.95,42.29-76.28l-20-8C263.88,96.62,248.16,136.74,257.86,140.63Z"/><path class="cls-6" d="M240.18,135c-10.46,0-10.74-43.11-10.64-86.57,0-4.49,0-9,0-13.42a355.07,355.07,0,0,1,11-86,355.15,355.15,0,0,1,10.64,86.07c0,4.44,0,8.93,0,13.42C251.08,92,250.64,135,240.18,135Z"/><path class="cls-7" d="M240.18,135c-10.46,0-10.74-43.11-10.64-86.57l21.6,0C251.08,92,250.64,135,240.18,135Z"/><path class="cls-8" d="M348.58,335.77c-8.47,1.9-17.15,7.54-22.56,13l7.79.13c-3.13,2.24-6.77,3.58-10.28,5.15A83.26,83.26,0,0,0,291.07,380a127.14,127.14,0,0,1-44.64,8c-71.93,0-132.64-58.31-135.59-130.24l-2.16-52.52a128.44,128.44,0,0,1,4-37.93,4.2,4.2,0,0,0,.66.52,21.61,21.61,0,0,1,7.88-8.42c2.44-1.58,7.08-2.55,9-4.51s.91-3.68,1-6.51c.09-1.7,3-16.8,5.62-16.09l5.56,1.5-.27-6.41c2.82,1.21,5.69,2.3,8.6,3.25l-3.6-7.38,12.87,7.82c-3.38-5-6.65-10.16-8.69-15.85a27.59,27.59,0,0,1-1.43-8.77A124.74,124.74,0,0,1,233.57,75a135.32,135.32,0,0,1,93.66,38.15,138.92,138.92,0,0,1,24.89,32.16c-.74-.4-1.51-.77-2.3-1.11-3.75-1.6-7.91-1.82-12-2-10.29-.56-21-1.36-30-6.32q24.17,14.1,49.26,26.45l-6.4.66a19.62,19.62,0,0,1,8.22,7.41,58.47,58.47,0,0,1-14-1.59,16.34,16.34,0,0,0,5.19,6.09c-1,1.31-2,2.61-3,3.9A37,37,0,0,1,368.79,206a2.22,2.22,0,0,0,.41.2l2.12,51.56A125.36,125.36,0,0,1,348.58,335.77Z"/><path class="cls-9" d="M148.51,293.88l.35-.65a104.26,104.26,0,0,0,1.33-12.61c0-.17,0-.34,0-.51-1.9-.37-10.18-14.77-12.13-14.91-4.78-.1-5,7.81-7.92,14.66a29.39,29.39,0,0,0-6.23,17.49c0,3.09.67,6.47,2.83,8.76,2.81,3,7,3,10.54,1.36A99.28,99.28,0,0,0,148.51,293.88Z"/><polygon class="cls-10" points="199.19 407.39 205.47 417.18 205.47 408.55 199.19 398.76 199.19 407.39"/><polygon class="cls-11" points="198.81 406.8 199.16 407.35 199.16 398.72 198.81 398.18 198.81 406.8"/><polygon class="cls-11" points="205.47 417.17 205.82 417.72 205.82 409.09 205.47 408.55 205.47 417.17"/><polygon class="cls-10" points="199.19 416.02 205.47 425.8 205.47 417.18 199.19 407.39 199.19 416.02"/><polygon class="cls-11" points="198.81 415.43 199.16 415.97 199.16 407.35 198.81 406.8 198.81 415.43"/><polygon class="cls-11" points="205.47 425.8 205.82 426.34 205.82 417.72 205.47 417.17 205.47 425.8"/><polygon class="cls-10" points="199.19 424.64 205.47 434.43 205.47 425.8 199.19 416.02 199.19 424.64"/><polygon class="cls-11" points="198.81 424.06 199.16 424.6 199.16 415.97 198.81 415.43 198.81 424.06"/><polygon class="cls-11" points="205.47 434.43 205.82 434.97 205.82 426.34 205.47 425.8 205.47 434.43"/><polygon class="cls-10" points="199.19 433.27 205.47 443.06 205.47 434.43 199.19 424.64 199.19 433.27"/><polygon class="cls-11" points="198.81 432.68 199.16 433.23 199.16 424.6 198.81 424.06 198.81 432.68"/><path class="cls-11" d="M205.47,442.61a1.15,1.15,0,0,0,.09.57s0,1.36.26.42,0-8.18,0-8.18a1.38,1.38,0,0,0-.08-.58l-.27-.41Z"/><polygon class="cls-10" points="280.81 407.39 274.52 417.18 274.52 408.55 280.81 398.76 280.81 407.39"/><polygon class="cls-11" points="281.19 406.8 280.84 407.35 280.84 398.72 281.19 398.18 281.19 406.8"/><polygon class="cls-11" points="274.53 417.17 274.18 417.72 274.18 409.09 274.53 408.55 274.53 417.17"/><polygon class="cls-10" points="280.81 416.02 274.52 425.8 274.52 417.18 280.81 407.39 280.81 416.02"/><polygon class="cls-11" points="281.19 415.43 280.84 415.97 280.84 407.35 281.19 406.8 281.19 415.43"/><polygon class="cls-11" points="274.53 425.8 274.18 426.34 274.18 417.72 274.53 417.17 274.53 425.8"/><polygon class="cls-10" points="280.81 424.64 274.52 434.43 274.52 425.8 280.81 416.02 280.81 424.64"/><polygon class="cls-11" points="281.19 424.06 280.84 424.6 280.84 415.97 281.19 415.43 281.19 424.06"/><polygon class="cls-11" points="274.53 434.43 274.18 434.97 274.18 426.34 274.53 425.8 274.53 434.43"/><polygon class="cls-10" points="280.81 433.27 274.52 443.06 274.52 434.43 280.81 424.64 280.81 433.27"/><polygon class="cls-11" points="281.19 432.68 280.84 433.23 280.84 424.6 281.19 424.06 281.19 432.68"/><path class="cls-11" d="M274.53,442.61a1.15,1.15,0,0,1-.09.57s0,1.36-.26.42,0-8.18,0-8.18a1.38,1.38,0,0,1,.08-.58l.27-.41Z"/><rect class="cls-10" x="208.43" y="409.43" width="62.14" height="8.63"/><rect class="cls-11" x="270.84" y="409.43" width="3.45" height="8.63"/><rect class="cls-11" x="204.99" y="409.43" width="3.45" height="8.63"/><rect class="cls-10" x="208.43" y="418.05" width="62.14" height="8.63"/><rect class="cls-11" x="270.84" y="418.05" width="3.45" height="8.63"/><rect class="cls-11" x="204.99" y="418.05" width="3.45" height="8.63"/><rect class="cls-10" x="208.43" y="426.68" width="62.14" height="8.63"/><rect class="cls-11" x="270.84" y="426.68" width="3.45" height="8.63"/><rect class="cls-11" x="204.99" y="426.68" width="3.45" height="8.63"/><rect class="cls-10" x="208.43" y="435.3" width="62.14" height="8.63"/><rect class="cls-11" x="270.84" y="435.3" width="3.45" height="8.63"/><rect class="cls-11" x="204.99" y="435.3" width="3.45" height="8.63"/><path class="cls-4" d="M352.18,248.37c-1.95,13.23-4.86,26.54-4.87,37.82a42.24,42.24,0,0,1-1.48,11.09,83.18,83.18,0,0,1-4.95,13c-1.75,3.87-3.6,7.81-5.18,12.17-.35.94-.68,1.91-1,2.9a19.91,19.91,0,0,1-2.41,4.79c-6.4,9.8-21.51,21.59-25,29.47l-.88,1.89L293.12,376.8a21.92,21.92,0,0,0-2.91,2.65c-4.19,4.64-5.55,13.58-8.94,19.19-3.49,5.79-8.67,8.78-14.14,11.09-2.47,1-5,1.94-7.47,2.89a85.76,85.76,0,0,1-18.16,5c-8.92,1.33-17.91.76-26.36-3a31,31,0,0,1-9.09-6.08h0a25.81,25.81,0,0,1-4.28-5.56c-2.57-4.5-3.92-10.08-6.75-14.33s-6.73-6.7-10.11-10.1a38.76,38.76,0,0,1-3.52-4.09,109.37,109.37,0,0,1-8.11-13.11c-3.7-6.67-25.58-16.3-30.2-23.45l-.3-.49a55.66,55.66,0,0,1-3.2-5.85A65.35,65.35,0,0,1,134.78,317c-3.14-15-2-31.27-2-46.82,0-7.67-2-16.07-3.75-24.44-.39-1.84-.78-3.66-1.13-5.48a82.83,82.83,0,0,1-1.78-14.73c-.25-23.56,6.6-42.29,17.18-63.2l21.46-42.37c2.26-4.46,4.6-9,8.32-12.36,6.62-5.94,16.28-6.85,25.18-6.75,44,.54,86.61,20.67,116.91,52.17,15.19,15.79,26.37,34,34.69,54.18.73,1.78,1.37,3.62,1.94,5.49C355,223.31,354,235.81,352.18,248.37Z"/><path class="cls-5" d="M154.4,304.24H326.16c11.35,0,11.35-74.53,0-74.53H154.4C140.2,229.71,140.2,304.24,154.4,304.24Z"/><path class="cls-12" d="M284.63,344.81a7.52,7.52,0,0,1-1.26,3.08,8.36,8.36,0,0,1-2.58,2.3c-7.1,4.25-23,2.9-42,2.68-16.37-.19-30.95.51-38.36-2.08a10.62,10.62,0,0,1-3.34-1.79,5.22,5.22,0,0,1-1.71-5.21c1.85-10.52,23.34-18.81,48-18.53S286.48,334.29,284.63,344.81Z"/><rect class="cls-8" x="249.1" y="227.25" width="77.55" height="63.37" rx="31.68" transform="translate(560.84 -15.66) rotate(92.86)"/><path class="cls-13" d="M316.22,270.17,318,253.76a29.8,29.8,0,0,0-28.27-31.24h0a29.81,29.81,0,0,0-31.25,28.27l-.66,13.32a29.8,29.8,0,0,0,28.27,31.24h0C302.49,296.17,315.4,286.61,316.22,270.17Z"/><rect class="cls-8" x="152.24" y="227.87" width="77.55" height="63.37" rx="31.68" transform="translate(459.76 81.72) rotate(92.86)"/><rect class="cls-13" x="154.31" y="229.56" width="73.41" height="59.99" rx="29.99" transform="matrix(-0.05, 1, -1, -0.05, 459.76, 81.72)"/><path class="cls-4" d="M345.32,256.69c0-25.56-212.22-25.56-212.22,0V218.36H345.32Z"/><rect class="cls-5" x="166.76" y="213.08" width="144.9" height="10.25" rx="5.12"/><path class="cls-8" d="M352.18,243.4a45.29,45.29,0,0,1-14.48-6.59c-31.85-21.5-76.94-69.1-106-105.28-28.41,35.34-72.09,81.57-103.79,103.74a83,83,0,0,1-1.77-14.74c-.25-23.56,6.59-42.29,17.17-63.2Q154,136.17,164.76,115c2.25-4.45,4.59-9,8.31-12.36,6.63-5.93,16.28-6.85,25.18-6.74,44,.54,86.62,20.66,116.92,52.16,15.18,15.79,26.36,34,34.68,54.18q1.09,2.69,1.95,5.49C355,218.34,354,230.84,352.18,243.4Z"/><path class="cls-4" d="M143.75,305.66H334.67v-29.1c0,25.4-190.92,25.4-190.92,0Z"/><rect class="cls-14" x="220.96" y="246.45" width="36.33" height="75.53" rx="16.99" transform="translate(478.26 568.43) rotate(-180)"/><circle class="cls-4" cx="255.18" cy="314.18" r="8.52"/><circle class="cls-4" cx="222.53" cy="314.18" r="8.52"/><ellipse class="cls-12" cx="184.4" cy="260.33" rx="4" ry="2.13" transform="translate(-98.54 407.71) rotate(-82.2)"/><ellipse class="cls-12" cx="295.67" cy="260.33" rx="2.13" ry="4" transform="translate(-32.58 42.51) rotate(-7.8)"/><circle class="cls-8" cx="344.25" cy="299.37" r="11.57"/><circle class="cls-8" cx="349.47" cy="282.35" r="11.57"/><path class="cls-15" d="M257.67,327.27a38.75,38.75,0,0,1-13.18-2.4c-.15-.69.79-1.06,1.5-1.1C249,323.58,257.31,323,257.67,327.27Z"/><path class="cls-16" d="M246.85,325.87l.05,8a2.85,2.85,0,0,0,2.86,2.84l4.43,0a2.86,2.86,0,0,0,2.83-2.88l0-7.44a84.76,84.76,0,0,0-10.09-1A2,2,0,0,0,246.85,325.87Z"/><path class="cls-15" d="M241,324.79A38.71,38.71,0,0,1,227.64,326c-.33-.62.48-1.23,1.15-1.46C231.69,323.53,239.5,320.75,241,324.79Z"/><path class="cls-16" d="M240,324.45l0,8a2.85,2.85,0,0,1-2.87,2.84l-4.42,0a2.86,2.86,0,0,1-2.83-2.87l0-7.45A84.36,84.36,0,0,1,240,324,1.53,1.53,0,0,1,240,324.45Z"/><path class="cls-15" d="M261.31,353.77a39.11,39.11,0,0,1,13.39-.33c.29.65-.56,1.2-1.24,1.39C270.51,355.64,262.53,357.9,261.31,353.77Z"/><path class="cls-16" d="M272.87,353.54l-1.21-7.94a2.85,2.85,0,0,0-3.25-2.39l-4.37.67a2.84,2.84,0,0,0-2.39,3.25l1.13,7.35A82.74,82.74,0,0,0,272.9,354,1.59,1.59,0,0,0,272.87,353.54Z"/><path class="cls-15" d="M206.84,352.13a38.58,38.58,0,0,1,13.3,1.62c.2.68-.72,1.1-1.43,1.19C215.67,355.31,207.46,356.39,206.84,352.13Z"/><path class="cls-16" d="M218.69,353.35l0-8a2.85,2.85,0,0,0-2.87-2.84l-4.42,0a2.85,2.85,0,0,0-2.84,2.87l0,7.44a84.36,84.36,0,0,0,10.09,1A3,3,0,0,0,218.69,353.35Z"/><path class="cls-17" d="M209,410.86l-2.95-2.32h0a25.81,25.81,0,0,1-4.28-5.56c-2.57-4.5-3.92-10.08-6.75-14.33s-6.73-6.7-10.11-10.1a38.76,38.76,0,0,1-3.52-4.09,109.37,109.37,0,0,1-8.11-13.11c-3.7-6.67-25.58-16.3-30.2-23.45l-.3-.49a55.66,55.66,0,0,1-3.2-5.85c11.49-4.17,24.93-1.77,33.47,6.93,5.43,15.8,17.51,27.79,35.63,36.31C218.69,385,218.56,400.37,209,410.86Z"/><path class="cls-17" d="M332.3,330.12c-6.4,9.8-21.51,21.59-25,29.47l-.88,1.89L293.12,376.8a21.92,21.92,0,0,0-2.91,2.65c-4.19,4.64-5.55,13.58-8.94,19.19-3.49,5.79-8.67,8.78-14.14,11.09-8.58-10.44-8.36-25.1,1.31-34.94,18.13-8.52,30.21-20.51,35.64-36.31C311.35,331.07,322.16,328.23,332.3,330.12Z"/><path class="cls-18" d="M325.43,237.18s-58.17-19.75-58.67-6.5"/><path class="cls-18" d="M146.76,238.09s57.54-21.52,58.45-8.3"/><circle class="cls-4" cx="266.18" cy="232.2" r="4.61"/><circle class="cls-4" cx="293.86" cy="231.49" r="4.61"/><circle class="cls-4" cx="298.83" cy="233.62" r="4.61"/><circle class="cls-4" cx="202.31" cy="231.49" r="4.61"/><circle class="cls-4" cx="162.56" cy="233.62" r="4.61"/><path class="cls-4" d="M264.16,147.9,259,153.42a106.59,106.59,0,0,1-16.56-27.59,42.23,42.23,0,0,0-.7,15.52l-10.41-13.3c-1.45,10.25,1.82,20.72,7.1,29.62s12.48,16.49,19.61,24c4.55,4.78,9.19,9.65,14.66,13.41,6.61,4.53,12.33,6,7.81-3.57A277.66,277.66,0,0,1,264.16,147.9Z"/><path class="cls-19" d="M161.24,328.72h0a1.31,1.31,0,0,1-1.84-.73l-13.22-31.11a1.64,1.64,0,0,1,.65-2.07h0a1.33,1.33,0,0,1,1.85.73l13.21,31.11A1.64,1.64,0,0,1,161.24,328.72Z"/><path class="cls-19" d="M163.24,323.28h0a1.32,1.32,0,0,1-1.83-.77l-12.75-31.35a1.63,1.63,0,0,1,.68-2.06h0a1.32,1.32,0,0,1,1.83.77l12.75,31.35A1.64,1.64,0,0,1,163.24,323.28Z"/><path class="cls-19" d="M137.42,315.76h0a1.64,1.64,0,0,1,.66-2.07l27.66-14.86a1.33,1.33,0,0,1,1.85.73h0a1.65,1.65,0,0,1-.65,2.08L139.27,316.5A1.33,1.33,0,0,1,137.42,315.76Z"/><path class="cls-19" d="M142.26,318h0A1.65,1.65,0,0,1,143,316l27.88-14.34a1.34,1.34,0,0,1,1.84.77h0a1.64,1.64,0,0,1-.68,2.06L144.1,318.78A1.33,1.33,0,0,1,142.26,318Z"/></g></svg>