<svg id="Layer_1" data-name="Layer 1" xmlns="http://www.w3.org/2000/svg" xmlns:xlink="http://www.w3.org/1999/xlink" viewBox="0 0 480 480"><defs><style>.cls-1{fill:none;}.cls-2{fill:#d9e021;}.cls-3{clip-path:url(#clip-path);}.cls-4{fill:#9ac9b8;}.cls-5{fill:#181922;opacity:0.22;}.cls-6{fill:#352b28;}.cls-7{clip-path:url(#clip-path-2);}.cls-8{fill:#75998c;}.cls-9{fill:#594c53;}.cls-10{fill:#212b28;}.cls-11{fill:#f2f2f2;}.cls-12{fill:#85394e;}</style><clipPath id="clip-path"><circle class="cls-1" cx="240" cy="240" r="227.9"/></clipPath><clipPath id="clip-path-2"><path class="cls-1" d="M341.66,275.08a41.08,41.08,0,0,1-1.44,10.75,79.1,79.1,0,0,1-4.8,12.58c-1.69,3.75-3.49,7.58-5,11.8-.34.91-.65,1.85-1,2.81-3.24,10.16-22.62,24.28-26.55,33.21l-.85,1.84-12.92,14.85a21.2,21.2,0,0,0-2.82,2.57c-4.06,4.5-5.85,11.48-9.14,16.91-4.93,8.15-12.79,12.27-20.47,15.25a84.13,84.13,0,0,1-17.61,4.87c-8.65,1.29-17.36.73-25.55-2.94a27.37,27.37,0,0,1-13-11.29c-2.49-4.37-3.81-9.77-6.55-13.89s-6.52-6.5-9.8-9.79a39.43,39.43,0,0,1-3.41-4,105.69,105.69,0,0,1-7.86-12.72c-3.59-6.46-24.8-15.8-29.28-22.74-.09-.16-.2-.31-.28-.47-12.08-19.18-9.69-42.94-9.69-65.2,0-13.54-6.31-29.42-6.46-43.28-.24-22.84,6.39-41,16.65-61.26l20.81-41.08c2.19-4.32,4.46-8.75,8.06-12,6.43-5.76,15.78-6.64,24.41-6.54,42.61.52,84,20,113.34,50.57,14.72,15.3,25.56,33,33.63,52.53.71,1.72,1.33,3.5,1.89,5.32C352.39,225,341.67,253.78,341.66,275.08Z"/></clipPath></defs><title>Artboard 3</title><circle class="cls-2" cx="241.16" cy="236.77" r="227.9"/><g class="cls-3"><path class="cls-4" d="M207.78,335.68H265.9a0,0,0,0,1,0,0V468a21.64,21.64,0,0,1-21.64,21.64H229.42A21.64,21.64,0,0,1,207.78,468V335.68A0,0,0,0,1,207.78,335.68Z"/><path class="cls-5" d="M207.78,279.63H265.9a0,0,0,0,1,0,0V412.11a29.06,29.06,0,0,1-29.06,29.06h0a29.06,29.06,0,0,1-29.06-29.06V279.63A0,0,0,0,1,207.78,279.63Z"/><path class="cls-6" d="M272.6,62.7c17.46,3.29,35.7,6.38,50,16.85,19.32,14.11,27.59,38.5,35,61.26q41,126.8,89.76,250.92A83.84,83.84,0,0,1,376.15,409c-25.39-5.75-46.54-23-70.8-32.48-20.52-8-42.77-10.2-64.7-12.33-19.54-1.9-39.7-3.74-58.45,2.06-9.09,2.81-17.55,7.34-26.4,10.82a122.9,122.9,0,0,1-86.39,1c-8.75-3.21-2.9-85.84-2.34-96.08A619.49,619.49,0,0,1,109.94,87.1c9.13-22.94,16-60.2,45.8-54.08C195,41.09,233,55.23,272.6,62.7Z"/><path class="cls-4" d="M341.66,275.08a41.08,41.08,0,0,1-1.44,10.75,79.1,79.1,0,0,1-4.8,12.58c-1.69,3.75-3.49,7.58-5,11.8-.34.91-.65,1.85-1,2.81-3.24,10.16-22.62,24.28-26.55,33.21l-.85,1.84-12.92,14.85a21.2,21.2,0,0,0-2.82,2.57c-4.06,4.5-5.85,11.48-9.14,16.91-4.93,8.15-12.79,12.27-20.47,15.25a84.13,84.13,0,0,1-17.61,4.87c-8.65,1.29-17.36.73-25.55-2.94a27.37,27.37,0,0,1-13-11.29c-2.49-4.37-3.81-9.77-6.55-13.89s-6.52-6.5-9.8-9.79a39.43,39.43,0,0,1-3.41-4,105.69,105.69,0,0,1-7.86-12.72c-3.59-6.46-24.8-15.8-29.28-22.74-.09-.16-.2-.31-.28-.47-12.08-19.18-9.69-42.94-9.69-65.2,0-13.54-6.31-29.42-6.46-43.28-.24-22.84,6.39-41,16.65-61.26l20.81-41.08c2.19-4.32,4.46-8.75,8.06-12,6.43-5.76,15.78-6.64,24.41-6.54,42.61.52,84,20,113.34,50.57,14.72,15.3,25.56,33,33.63,52.53.71,1.72,1.33,3.5,1.89,5.32C352.39,225,341.67,253.78,341.66,275.08Z"/><g class="cls-7"><path class="cls-8" d="M348.68,332.51q-.93,2.08-1.79,4.28c-6.06,15.46-10.81,32.84-20,47.39l-2,3L294.86,411.4a38.06,38.06,0,0,1-5.35.37,37.24,37.24,0,0,1-15.83-3.48c-15.73-7.4-21.36-24.15-12.6-37.43L289.38,328c8.78-13.27,28.62-18,44.34-10.64C341.05,320.83,346.18,326.3,348.68,332.51Z"/><path class="cls-8" d="M212.16,100.36q-1.26,1.9-2.48,3.92c-8.56,14.22-16.15,30.57-27.62,43.38l-2.46,2.64-33.7,18.83a36.85,36.85,0,0,1-5.33-.52,37.23,37.23,0,0,1-15-6.08c-14.27-9.94-17-27.39-6.16-39L154.45,86c10.87-11.61,31.23-13,45.49-3.07C206.59,87.57,210.73,93.82,212.16,100.36Z"/><path class="cls-8" d="M202.68,400.66A26.62,26.62,0,0,1,171.24,402c-6.14-6.22-11.45-13.51-16.68-20.73l-23.08-31.79-.5-.72c-5.23-11.94-2.11-26.45,8.28-34.71,12.07-9.59,29.36-7.13,38.6,5.51l29.9,40.82C217,373,214.74,391.05,202.68,400.66Z"/></g><path class="cls-9" d="M238,292.69h-3.45a17.13,17.13,0,0,1-17.13-17.13V235.84a17.13,17.13,0,0,1,17.13-17.13l3.45-10c9.46,0,17.13,17.68,17.13,27.14v39.72A17.13,17.13,0,0,1,238,292.69Z"/><rect class="cls-4" x="242.46" y="276.17" width="37.71" height="29.04" rx="10.73"/><rect class="cls-4" x="192.36" y="276.17" width="37.71" height="29.04" rx="10.73"/><path class="cls-10" d="M160.07,168.25a10.59,10.59,0,0,0-2.8.72,13.84,13.84,0,0,0-2.48,1,14.52,14.52,0,0,0-2.67,2.16,10.5,10.5,0,0,0-1.76,2,11.16,11.16,0,0,0-1.08,2.48,5.19,5.19,0,0,0-.38,1.81,4.45,4.45,0,0,0,.7,2,7.91,7.91,0,0,0,2.19,2.58,4.1,4.1,0,0,0,3.22.74,6.14,6.14,0,0,0,1.52-.64l2.29-1.2a12.71,12.71,0,0,0,4.09-2.91,8.79,8.79,0,0,0,1.51-3,8.56,8.56,0,0,0,.43-3.68A4.48,4.48,0,0,0,160.07,168.25Z"/><path class="cls-10" d="M173.36,177.51a7.14,7.14,0,0,0-1.89.28,9.13,9.13,0,0,0-1.69.51,9.8,9.8,0,0,0-1.9,1.23,7.43,7.43,0,0,0-1.29,1.15,7.61,7.61,0,0,0-.87,1.55,3.22,3.22,0,0,0-.37,1.16,3,3,0,0,0,.31,1.34,5.3,5.3,0,0,0,1.26,1.83,2.7,2.7,0,0,0,2.05.71,4.29,4.29,0,0,0,1-.31l1.58-.63a8.35,8.35,0,0,0,2.88-1.62,5.88,5.88,0,0,0,1.19-1.84,5.63,5.63,0,0,0,.54-2.38A3,3,0,0,0,173.36,177.51Z"/><path class="cls-9" d="M215.9,248.34a34.75,34.75,0,0,1-1.38,5.63l-2.37,7A34.82,34.82,0,0,1,168,283l-1.3-.43a34.85,34.85,0,0,1-22-44l0-.07.82-2.46c-.13.83-.24,1.68-.3,2.51,3.8-.26,7.75-3.07,9.95-7.51s2-9.48-.19-12.66c5.94-6.19,14.21-12.71,22.17-9.4,3.83,1.6,8.72,1.45,14,.51l.66.23.65.21A34.85,34.85,0,0,1,215.9,248.34Z"/><path class="cls-11" d="M216.73,245.86l-.83,2.48-1.54,4.58a34.83,34.83,0,0,1-44.11,22l-1.3-.43a34.85,34.85,0,0,1-23.64-36c3.8-.26,7.75-3.07,9.95-7.51s2-9.48-.19-12.66a7.63,7.63,0,0,0-2.35-2.21c.32-.53.66-1,1-1.54,6.08-3.9,12.6-7.29,19.72-7.24a30.36,30.36,0,0,1,4.26.37c4,.61,7.86,1.77,11.86,1.94.77,0,1.56,0,2.35,0,4.06-.05,8.28-.36,11.31,2.15,1.94,1.6,2.93,4,4.31,6.14s3.58,4.07,6.07,3.75a3.23,3.23,0,0,0,2-.95A34.71,34.71,0,0,1,216.73,245.86Z"/><path class="cls-9" d="M260.93,263.89l-2.7-6.75c-7-17.47,1.13-37.45,18.1-44.62l1.21-.52c17-7.17,36.37,1.17,43.34,18.63l2.7,6.76c7,17.46-1.13,37.44-18.1,44.62l-1.21.51C287.3,289.7,267.9,281.36,260.93,263.89Z"/><path class="cls-11" d="M260.19,255.05l-2.7-6.75c-7-17.47,1.13-37.45,18.1-44.62l1.21-.52c17-7.17,36.37,1.17,43.35,18.63l2.69,6.76c7,17.46-1.13,37.44-18.09,44.62l-1.22.51C286.57,280.86,267.16,272.52,260.19,255.05Z"/><ellipse class="cls-4" cx="324.11" cy="248.59" rx="13.08" ry="8.64" transform="translate(44.86 546.68) rotate(-84.36)"/><ellipse class="cls-6" cx="288" cy="238.27" rx="2.76" ry="5.17" transform="translate(-29.66 41.27) rotate(-7.8)"/><ellipse class="cls-6" cx="180.44" cy="238.27" rx="5.17" ry="2.76" transform="matrix(0.14, -0.99, 0.99, 0.14, -80.11, 384.72)"/><path class="cls-4" d="M145.61,236c-.13.83-.24,1.68-.3,2.51l-.55,0,0-.07Z"/><path class="cls-4" d="M308.15,209.3a37,37,0,0,0-7.48-3.64c-7.32-2.3-15.25.13-22.34,3.08s-14.24,6.5-21.92,6.51a69.75,69.75,0,0,1,2.41-12,6.31,6.31,0,0,1,2.07-3.59,6.59,6.59,0,0,1,2.93-.88c9-1.23,18.06-2.45,27.12-1.86s18.22,3.12,25.36,8.72c3.12,2.44,10.59,8.82,7.85,12.55C318.6,216.16,313.31,212.31,308.15,209.3Z"/><path class="cls-12" d="M321.25,180.09h0c-.94,1.12-3.2,1.56-5.05,1l-46.87-14.4c-1.85-.57-2.59-1.93-1.64-3.05h0c.94-1.11,3.2-1.55,5-1l46.88,14.41C321.46,177.62,322.19,179,321.25,180.09Z"/><path class="cls-12" d="M309.46,168.31h0c-.94,1.11-3.2,1.55-5,1l-46.88-14.41c-1.85-.57-2.58-1.93-1.64-3h0c.94-1.12,3.2-1.56,5-1l46.87,14.4C309.67,165.83,310.41,167.19,309.46,168.31Z"/><circle class="cls-4" cx="270.16" cy="171.13" r="6.63"/><circle class="cls-4" cx="257.63" cy="159.34" r="6.63"/><path class="cls-10" d="M203.46,326.15h0a9.15,9.15,0,0,1,9.15-9.15s48.64,1.84,48.64-7.74,9.2,11.84,9.2,16.89h0a9.15,9.15,0,0,1-9.16,9.15H212.61A9.15,9.15,0,0,1,203.46,326.15Z"/><path class="cls-6" d="M151.18,113.14a24.91,24.91,0,0,1,26.94-9.49l49,13.66A24.91,24.91,0,0,1,244.38,148L242,156.46a24.8,24.8,0,0,1-10.58,14.3,24.87,24.87,0,0,0,3.74-7.81l2.36-8.47a24.89,24.89,0,0,0-17.3-30.68l-49-13.66A24.82,24.82,0,0,0,151.18,113.14Z"/><path class="cls-6" d="M168.48,103.44A24.91,24.91,0,0,1,195.42,94l49,13.66a24.89,24.89,0,0,1,17.29,30.68l-2.36,8.47a24.89,24.89,0,0,1-10.58,14.3,24.64,24.64,0,0,0,3.73-7.81l2.36-8.47a24.89,24.89,0,0,0-17.29-30.68l-49-13.66A24.8,24.8,0,0,0,168.48,103.44Z"/><path class="cls-10" d="M340.22,285.83a79.1,79.1,0,0,1-4.8,12.58,3.58,3.58,0,0,1-2.87-1.69,6.31,6.31,0,0,1-.93-2.71,7,7,0,0,1,.06-2.58,9.89,9.89,0,0,1,1.88-3.38c.41-.54.81-1.07,1.2-1.6a5.15,5.15,0,0,1,.85-.95,3.15,3.15,0,0,1,2.49-.56A5.84,5.84,0,0,1,340.22,285.83Z"/></g></svg>