<svg id="Layer_1" data-name="Layer 1" xmlns="http://www.w3.org/2000/svg" xmlns:xlink="http://www.w3.org/1999/xlink" viewBox="0 0 480 480"><defs><style>.cls-1{fill:none;}.cls-2{fill:#d9e021;}.cls-3{clip-path:url(#clip-path);}.cls-4{fill:#b56b39;}.cls-5{clip-path:url(#clip-path-2);}.cls-6{fill:#713c2b;}.cls-7{fill:#552d20;}.cls-8{fill:#290901;}.cls-9{fill:#391e16;}.cls-10{fill:#f2f2f2;}.cls-11{fill:#212b28;}.cls-12{fill:#da648c;}.cls-13{fill:#080a08;}.cls-14{fill:#8ec762;}.cls-15{fill:#7a683a;}.cls-16{fill:#e8cc00;}.cls-17{fill:#da8ca6;}.cls-18{fill:#6e4654;}</style><clipPath id="clip-path"><circle class="cls-1" cx="240" cy="-260" r="227.9"/></clipPath><clipPath id="clip-path-2"><circle class="cls-1" cx="240" cy="240" r="227.9"/></clipPath></defs><title>Artboard 10</title><circle class="cls-2" cx="241.16" cy="236.77" r="227.9"/><g class="cls-3"><path class="cls-4" d="M210.66-138.28h59.06a0,0,0,0,1,0,0V-3.64a29.53,29.53,0,0,1-29.53,29.53h0A29.53,29.53,0,0,1,210.66-3.64V-138.28a0,0,0,0,1,0,0Z"/></g><g class="cls-5"><path class="cls-6" d="M247.88,362.66h0a25.78,25.78,0,0,1,25.78,25.78V506a0,0,0,0,1,0,0H222.09a0,0,0,0,1,0,0V388.45A25.78,25.78,0,0,1,247.88,362.66Z" transform="translate(495.75 868.66) rotate(180)"/><path class="cls-7" d="M247.88,312.92h0a25.78,25.78,0,0,1,25.78,25.78V456.26a0,0,0,0,1,0,0H222.09a0,0,0,0,1,0,0V338.71a25.78,25.78,0,0,1,25.78-25.78Z" transform="translate(495.75 769.18) rotate(180)"/><path class="cls-8" d="M192.48,334.66a20.25,20.25,0,1,1-33.17-6.76l-.22-.17A20.25,20.25,0,0,1,130.54,299a20.24,20.24,0,0,1-21.75-29.93,13.11,13.11,0,0,1-6.5-11.34,13,13,0,0,1,1.51-6.11,20.25,20.25,0,0,1,2.78-40.17,20.14,20.14,0,0,1,10.8-10.17c.4-.16.8-.31,1.21-.44A20.25,20.25,0,0,1,137.2,168a20.25,20.25,0,1,1,17.11,17.12,20.26,20.26,0,0,1-12.53,21.73c-.39.16-.8.3-1.2.43a20.15,20.15,0,0,1,1.84,2.68,20.23,20.23,0,0,1,15.13,12.4,19.93,19.93,0,0,1,1.44,7.45,20.25,20.25,0,0,1,17.83,30,20.25,20.25,0,0,1,9.82,38.5,20.26,20.26,0,0,1-.82,27.66A20,20,0,0,1,192.48,334.66Z"/><path class="cls-8" d="M336.53,183.18A20.09,20.09,0,0,0,347,184.41a20.25,20.25,0,0,0,12.52,21.72l.43.16a27.41,27.41,0,0,1,9.74-20.45c.62-.54,1.24-1.09,1.84-1.65,3.37-3.62,6.64-7.38,10.19-10.81a20.24,20.24,0,0,0-17.61-6.09,20.25,20.25,0,1,0-27.55,15.89Z"/><path class="cls-8" d="M249.35,59.71c-73.58,0-133.22,59.12-133.22,132s59.64,132,133.22,132a133.37,133.37,0,0,0,91.84-36.41c-2.88-3.36-3-9.36,2.21-11.78,2.71-1.26,3.46-4.24,3.37-7.08s-1.15-7.23.49-10.82a9.23,9.23,0,0,1,.43-.83c-5.95-2.15-11.44-8-13.9-13.7-2.8-6.49-2.46-13.57-.16-20.12,3.41-9.73,11.11-17.36,20.26-21.79,7.66-3.72,16-4.18,24.3-3.95,1.42,0,2.83.13,4.24.27.09-1.93.14-3.87.14-5.83C382.57,118.83,322.92,59.71,249.35,59.71Z"/><path class="cls-7" d="M135.7,239.2c-3.64.16-5.32,4.53-6.09,8.1L128,254.56c-1.41,6.43-2.82,12.95-2.56,19.53s2.41,13.33,7.16,17.88c1.75,1.68,4,3.07,6.43,2.94,4.49-.26,7-5.62,6.58-10.1s-2.85-8.5-4-12.84c-2-7.7.58-14.22,1.67-21.71C143.94,245.82,141.62,238.93,135.7,239.2Z"/><path class="cls-6" d="M351.34,264.37a16.28,16.28,0,0,0,1.17,3.25,16,16,0,0,0,4.7,27.17c-4.42,40.78-18.66,104-72.3,109-8.38.77-16.61,3.39-25,4.08q-5.51.43-11,.9l-6,.49a78.89,78.89,0,0,1-21.82-1.62c-67-13.09-79.11-122.87-80.65-135.48-1.49-12.16-5.26-24-5.66-36.26-.48-14.9.33-30.29,1.06-45.23,1.48-29.46,8.41-57.47,30.66-78.29,23.09-21.61,51-26.64,81.4-26.64,3.31,0,6.59.07,9.82.19,1.38.06,2.75.13,4.12.21,3.84.25,7.63.6,11.36,1.09,51,0,81,64.8,81,64.8s1.9,6.66,2.64,10.07c.15.66.27,1.32.42,2,2.4,11.61,3.09,23.52,3.29,35.4A15.46,15.46,0,0,0,357,201a16,16,0,0,0-6,21.79,15.58,15.58,0,0,0,2,2.81,16,16,0,0,0,4.25,22.18A16,16,0,0,0,351.34,264.37Z"/><path class="cls-9" d="M256.78,263.29a33.56,33.56,0,0,1,4.39-21.71c1.66-2.82,4-5.25,5-8.41a21.8,21.8,0,0,1,.82-2.52,8.67,8.67,0,0,1,1.33-1.94c18.85-22.42,61-7.41,62.61,23.49l.41,7.62c1,19.73-16,36.44-35.39,37.35l-1.38.06C276.39,298.08,259.26,281.91,256.78,263.29Z"/><path class="cls-10" d="M259,255.51l-.38-7.14a33.07,33.07,0,0,1,13.68-28.12c11.36-8.35,21.81-6.49,34.77-4.24a10.55,10.55,0,0,1,4,1.28,13.39,13.39,0,0,1,2.9,3.1c3.21,4,7.64,6.86,11.19,10.57,5.55,5.8,5.81,13.55,6.21,21.15,1,18.48-14.11,34.2-33.72,35.13l-1.4.06C276.68,288.22,260,274,259,255.51Z"/><path class="cls-9" d="M160.73,262.81A33,33,0,0,1,165,241.53c1.63-2.77,3.9-5.14,4.91-8.24a23,23,0,0,1,.81-2.47,8.94,8.94,0,0,1,1.3-1.91c18.48-22,59.78-7.26,61.37,23l.4,7.47c1,19.33-15.71,35.71-34.68,36.6l-1.36.06C180,296.91,163.16,281.06,160.73,262.81Z"/><path class="cls-10" d="M160.6,254.61A29,29,0,0,1,165,234.69c1.66-2.6,4-4.83,5-7.73a19.94,19.94,0,0,1,.83-2.32,8.2,8.2,0,0,1,1.32-1.79c18.76-20.63,60.45-7,61.95,21.32l.37,7c1,18.08-16,33.47-35.19,34.38l-1.37.06C179.9,286.45,163,271.68,160.6,254.61Z"/><path class="cls-11" d="M199,241.51l0-.68c-.1-1.78-.74-2.78-1.44-2.24l-.05,0c-.7.54-1.18,2.42-1.08,4.2l0,.69c.1,1.78.75,2.78,1.45,2.24l.05,0C198.6,245.18,199.08,243.29,199,241.51Z"/><path class="cls-11" d="M299.17,240.8l0-.68c-.1-1.78-.75-2.79-1.45-2.24l-.05,0c-.7.54-1.18,2.42-1.08,4.2l0,.69c.1,1.78.74,2.78,1.44,2.24l0,0C298.79,244.47,299.27,242.58,299.17,240.8Z"/><rect class="cls-6" x="154.87" y="202.68" width="183.33" height="37.66"/><path class="cls-12" d="M226.56,346.08H228a3.65,3.65,0,0,1,3.65,3.65V396.1a0,0,0,0,1,0,0h-8.72a0,0,0,0,1,0,0V349.74a3.65,3.65,0,0,1,3.65-3.65Z" transform="translate(454.54 742.18) rotate(-180)"/><path class="cls-12" d="M219.46,343.24h1.41a3.65,3.65,0,0,1,3.65,3.65v30a0,0,0,0,1,0,0H215.8a0,0,0,0,1,0,0v-30A3.65,3.65,0,0,1,219.46,343.24Z" transform="translate(440.33 720.15) rotate(-180)"/><path class="cls-7" d="M263.58,252.54V290.1c-2.77-3.92-6.67-5.9-9.54-4.54-3.47,1.64-4.13,7.54-1.46,13.18a15.57,15.57,0,0,0,5.23,6.34,18.19,18.19,0,0,1-25.2-.35,15.83,15.83,0,0,0,4.73-6c2.67-5.64,2-11.54-1.46-13.18-2.59-1.23-6,.26-8.68,3.42V252.54a18.19,18.19,0,0,1,36.38,0Z"/><path class="cls-13" d="M261.85,302.7a3.29,3.29,0,0,1-.39.17c-1.95.64-4.39-.43-6.39-2.62a13.87,13.87,0,0,1-2.3-3.47c-2.18-4.62-1.65-9.45,1.19-10.79a3.53,3.53,0,0,1,1.11-.31c2.06-.26,4.5,1.15,6.39,3.61a15.06,15.06,0,0,1,1.59,2.63C265.23,296.53,264.69,301.36,261.85,302.7Z"/><ellipse class="cls-13" cx="232.33" cy="294.35" rx="9.24" ry="5.68" transform="translate(-133.04 378.75) rotate(-64.72)"/><path class="cls-8" d="M230.19,80.82c0,.43,0,.86,0,1.28a19,19,0,0,1-.25,2.16,16.06,16.06,0,0,1-.73-1.82,20,20,0,0,1-1.11-6.6,19.48,19.48,0,0,1,.3-3.44A20,20,0,0,1,230.19,80.82Z"/><path class="cls-8" d="M230.19,80.82c0,.43,0,.86,0,1.28a19,19,0,0,1-.25,2.16,16.06,16.06,0,0,1-.73-1.82,20,20,0,0,1-1.11-6.6,19.48,19.48,0,0,1,.3-3.44A20,20,0,0,1,230.19,80.82Z"/><path class="cls-8" d="M363.07,146.9a20.25,20.25,0,1,1-37.76-10.15,20.26,20.26,0,0,1-15.53-19.69c0-.44,0-.86.05-1.29a19.58,19.58,0,0,1-3.18.72,20.22,20.22,0,0,1-24.58,8,20.26,20.26,0,0,1-34.47,5.42,20.24,20.24,0,0,1-39.38-5.16,20.28,20.28,0,0,1-25.39-11,20.25,20.25,0,1,1,8-25.34l.24-.14A20.25,20.25,0,0,1,228.36,72.4a19.48,19.48,0,0,0-.3,3.44,20,20,0,0,0,1.11,6.6,16.06,16.06,0,0,0,.73,1.82,19,19,0,0,0,.25-2.16c0-.42,0-.85,0-1.28a20,20,0,0,0-1.83-8.42,20.25,20.25,0,0,1,39.06-3.29l.79,0a20.15,20.15,0,0,1,11.29,3.44,20.25,20.25,0,0,1,40.23,3.31,20,20,0,0,1-1.18,6.81A20.13,20.13,0,0,1,324,96.45c0,.43,0,.86-.05,1.28A20.46,20.46,0,0,1,330,96.8a20.25,20.25,0,0,1,17.52,30.41A20.24,20.24,0,0,1,363.07,146.9Z"/><path class="cls-8" d="M230.15,82.1a19,19,0,0,1-.25,2.16,16.06,16.06,0,0,1-.73-1.82Z"/><circle class="cls-8" cx="201.06" cy="36.4" r="10.66"/><circle class="cls-8" cx="217.05" cy="54.52" r="18.12"/><circle class="cls-8" cx="235.88" cy="53.46" r="13.5"/><circle class="cls-8" cx="257.91" cy="59.85" r="12.79"/><circle class="cls-8" cx="194.67" cy="76.2" r="22.03"/><circle class="cls-8" cx="196.8" cy="61.27" r="18.48"/><circle class="cls-8" cx="280.65" cy="61.99" r="14.92"/><circle class="cls-8" cx="252.58" cy="41.73" r="18.12"/><path class="cls-8" d="M158.56,223c5-10.41,14.82-17.92,25.51-22.32s23.39-5.78,34.76,2c-8.39-3.67-18.28-3.65-27-.89a38.61,38.61,0,0,0-21.16,16.6,8.21,8.21,0,0,1-1.84,2.39C166,222.91,161.74,221.47,158.56,223Z"/><path class="cls-8" d="M331.68,223c-5-10.41-14.83-17.92-25.51-22.32s-23.39-5.78-34.76,2c8.39-3.67,18.27-3.65,27-.89a38.59,38.59,0,0,1,21.15,16.6,8.07,8.07,0,0,0,1.85,2.39C324.21,222.91,328.49,221.47,331.68,223Z"/><path class="cls-11" d="M239.62,328H257a27.59,27.59,0,0,1,27.59,27.59v0A12.4,12.4,0,0,1,272.2,368H224.43a12.4,12.4,0,0,1-12.4-12.4v0A27.59,27.59,0,0,1,239.62,328Z"/><path class="cls-14" d="M261.46,289.29v41.65a3.2,3.2,0,0,1-3.2,3.2,2.3,2.3,0,0,1-.26,0,24,24,0,0,1-2.71-2,3.29,3.29,0,0,1-.22-1.17V285.68C257.13,285.42,259.57,286.83,261.46,289.29Z"/><path class="cls-15" d="M228.46,331.38a38.84,38.84,0,0,1-12.57,4.69c-.49-.52.14-1.32.73-1.72C219.15,332.62,226,327.87,228.46,331.38Z"/><path class="cls-15" d="M251.89,326.79A39.07,39.07,0,0,1,238.53,328c-.33-.63.48-1.24,1.15-1.47C242.59,325.51,250.41,322.74,251.89,326.79Z"/><path class="cls-16" d="M241.07,328.3l2.18,7.75a2.85,2.85,0,0,0,3.51,2l4.27-1.2a2.84,2.84,0,0,0,2-3.52l-2-7.17a84.54,84.54,0,0,0-10,1.73A3,3,0,0,0,241.07,328.3Z"/><path class="cls-17" d="M252,366.74c-.38.46-1.51.37-3,.36a29.48,29.48,0,0,0-7.26.65,16.69,16.69,0,0,0-2,.63c-.51.19-1,.41-1.52.63-3.45,1.52-6.88,3.46-10.54,2.94-1.26-.19-2.49-.66-3.72-1a7.93,7.93,0,0,0-2.28-.29,7.28,7.28,0,0,0-1.4.21c-3.68.81-7.44,1.73-10.4-1.37-.74-.76-1.42-1.76-2.47-1.92a5.86,5.86,0,0,0-1.94.29c-1.91.39-3.84-.32-5.66-1-1.57-.6-3.34-1.42-3.78-3.05a4.3,4.3,0,0,0-.4-1.32,1.1,1.1,0,0,0-.23-.25c-.87-.73-2.49.08-3.73-.19a2,2,0,0,1-1.4-1.1,4.74,4.74,0,0,1-.11-3.63c1.51-4.16,6-6.08,9.73-7.85A43.52,43.52,0,0,0,205,347c3.84-2.48,6.53-7.43,11.1-7.54,2.15-.05,4.33,1.07,6.37.4a13.26,13.26,0,0,0,3.2-2.09l.15-.11a3.41,3.41,0,0,1,3.44-.51,2.88,2.88,0,0,1,.34.23,4.31,4.31,0,0,1,.77.88c2.21,3.18,2.6,7.45,3.89,11.08a12.9,12.9,0,0,0,1.58,3.2,8.16,8.16,0,0,0,1.67,1.81,24.23,24.23,0,0,0,5,2.61,20.75,20.75,0,0,1,8.92,7.61C252.13,365.77,252.26,366.41,252,366.74Z"/><path class="cls-18" d="M241.69,367.75a16.69,16.69,0,0,0-2,.63c-.51.19-1,.41-1.52.63-.61-.75-1.23-1.49-1.84-2.23a7.81,7.81,0,0,0-2.1-2,8.38,8.38,0,0,0-3-.71c-.51-.07-1-.14-1.55-.23l.44,1.14-1.5.69a9.23,9.23,0,0,0-4.7,5.28,7.93,7.93,0,0,0-2.28-.29,7.28,7.28,0,0,0-1.4.21,12.7,12.7,0,0,1,5.37-7.58,2.8,2.8,0,0,0-1.5-1.63c-.74-.2-1.74.31-2.8.84-1.41.71-3.17,1.6-5.14,1.16a7.72,7.72,0,0,1-2.75-1.39l-8.12-5.76-.05,0-2.37,1.37-5.57,3.21-1.95,1.12c-.87-.73-2.49.08-3.73-.19a2,2,0,0,1-1.4-1.1,43.69,43.69,0,0,0,3.87-2.07l9.38-5.42c1.5-.87,2.78-1.67,3.26-2.78a8,8,0,0,0,.36-1.26,6.56,6.56,0,0,1,1.42-3.2,5.21,5.21,0,0,1,1.22-1,11.54,11.54,0,0,1,1.43-.65l10.4-4.1a10.71,10.71,0,0,0,3.67-2,2.94,2.94,0,0,0,.59-.83,1.87,1.87,0,0,0,.15-1.64l3.2-1.57a4.89,4.89,0,0,1,.43,2.93,6.63,6.63,0,0,1-1.85,3.62,13.85,13.85,0,0,1-4.88,2.8l-10.41,4.1a4.28,4.28,0,0,0-1.34.7,4,4,0,0,0-.57,1.61,10.87,10.87,0,0,1-.55,1.85,7.15,7.15,0,0,1-1.62,2.27l7.09,5a4.54,4.54,0,0,0,1.46.82,5,5,0,0,0,2.78-.86,8.48,8.48,0,0,1,4.36-1.26,3.52,3.52,0,0,1,.15-.66,4.4,4.4,0,0,1,1.55-2,80.88,80.88,0,0,1,8.49-6.08,12.9,12.9,0,0,0,1.58,3.2,79.92,79.92,0,0,0-7.83,5.63,4.46,4.46,0,0,0-.42.37s0,0,0,0c.09.82,1.35,1.5,2.5,1.72.49.11,1,.16,1.56.23a11.46,11.46,0,0,1,4.28,1.13,11,11,0,0,1,3.11,2.8C239.92,365.55,240.82,366.65,241.69,367.75Z"/><path class="cls-16" d="M227.4,331.31l2.09,7.77a2.85,2.85,0,0,1-2,3.5l-4.27,1.15a2.85,2.85,0,0,1-3.5-2l-1.93-7.2a85.42,85.42,0,0,1,9.49-3.6A1.9,1.9,0,0,1,227.4,331.31Z"/><path class="cls-15" d="M264.23,367.87a38.92,38.92,0,0,1,13.31,1.63c.2.68-.72,1.1-1.43,1.19C273.07,371.06,264.84,372.14,264.23,367.87Z"/><path class="cls-16" d="M275.72,369.33l-.05-8.05a2.85,2.85,0,0,0-2.87-2.84l-4.43,0a2.84,2.84,0,0,0-2.83,2.87l0,7.45a84.75,84.75,0,0,0,10.1,1A2.09,2.09,0,0,0,275.72,369.33Z"/><path class="cls-15" d="M245.75,367.87a39,39,0,0,1,13.32,1.63c.19.68-.73,1.1-1.43,1.19C254.59,371.06,246.37,372.14,245.75,367.87Z"/><path class="cls-16" d="M257.62,369.09l-.05-8a2.87,2.87,0,0,0-2.87-2.85l-4.43,0a2.85,2.85,0,0,0-2.83,2.87l0,7.45a82.73,82.73,0,0,0,10.1,1A2,2,0,0,0,257.62,369.09Z"/><path class="cls-13" d="M204.94,341.45s35.95-24.12,37.56-18.13a25.39,25.39,0,0,0-9.61,3c-3.44,1.74-6.44,4.26-9.9,6-2.54,1.25-5.31,2-7.8,3.39-3.1,1.69-5.68,4.22-8.75,6a2.3,2.3,0,0,1-1.06.38C205,342,205.07,341.83,204.94,341.45Z"/><path class="cls-13" d="M292.61,368.23s-61.2,8.78-59.49.64a38.85,38.85,0,0,0,14.19,1.82c5.5-.16,10.92-1.51,16.42-1.6,4-.07,8.09.54,12.12.31,5-.28,9.94-1.87,15-2.25a3.32,3.32,0,0,1,1.6.14C292.91,367.5,292.69,367.7,292.61,368.23Z"/><circle class="cls-6" cx="316.18" cy="219.74" r="7.11"/><circle class="cls-6" cx="285.62" cy="199.84" r="5.82"/><circle class="cls-6" cx="204.61" cy="199.84" r="5.82"/><circle class="cls-6" cx="186.14" cy="204.1" r="5.82"/><path class="cls-13" d="M146.31,186.89l-2.47-5.68c-.49-1.12-.21-3.42.74-6.12l5-14.21c2.29-6.49,7-11.6,8.13-8.9l2.48,5.68c.48,1.13.2,3.42-.75,6.13l-5,14.2C152.15,184.48,147.48,189.59,146.31,186.89Z"/><path class="cls-13" d="M161.34,146.42l-1.25-2.69a3.91,3.91,0,0,1,.62-2.82L164,134.4c1.52-3,4.36-5.26,4.95-4l1.25,2.68c.25.53,0,1.59-.61,2.83l-3.33,6.5C164.77,145.4,161.94,147.69,161.34,146.42Z"/><path class="cls-13" d="M321.11,375.24l-2.47-4.08c-.49-.8-.21-2.45.75-4.39l5-10.19c2.3-4.66,7-8.33,8.14-6.39l2.47,4.08c.49.8.21,2.45-.75,4.39l-5,10.19C327,373.51,322.28,377.18,321.11,375.24Z"/><path class="cls-13" d="M312.7,368.12l-1.25-2.68c-.25-.53,0-1.59.61-2.83l3.33-6.51c1.52-3,4.36-5.26,4.95-4l1.25,2.68a4,4,0,0,1-.62,2.83l-3.32,6.5C316.13,367.1,313.29,369.39,312.7,368.12Z"/><path class="cls-13" d="M323.73,350.27l-.24-2c-.05-.39.33-1,1-1.7l3.51-3.5c1.61-1.6,3.93-2.48,4-1.53l.24,2c.05.4-.32,1-1,1.7l-3.52,3.5C326.16,350.33,323.85,351.21,323.73,350.27Z"/><path class="cls-8" d="M175.42,163.08a15,15,0,0,1,3.4,3.66,14.65,14.65,0,0,1,1.49,5.47c.8,6,1.38,12,1.75,18-2.81-3-2.57-7.61-3.15-11.68-1-7.2-5.14-13.66-10.2-18.89s-11.07-9.42-16.85-13.84c-2.8-2.14-6.05-4.42-7.89-7.44C146.85,135.73,171.32,159.55,175.42,163.08Z"/><circle class="cls-8" cx="371.96" cy="198.77" r="11.72"/><circle class="cls-8" cx="381.19" cy="191.67" r="11.72"/></g></svg>