<svg id="Layer_1" data-name="Layer 1" xmlns="http://www.w3.org/2000/svg" xmlns:xlink="http://www.w3.org/1999/xlink" viewBox="0 0 480 480"><defs><style>.cls-1,.cls-17{fill:none;}.cls-2{fill:#d9e021;}.cls-3{fill:#fff;}.cls-4{clip-path:url(#clip-path);}.cls-5{fill:#cc9c7a;}.cls-6{clip-path:url(#clip-path-2);}.cls-7{fill:#da8ca6;}.cls-8{fill:#2b160b;}.cls-9{fill:#713c2b;}.cls-10{fill:#181922;opacity:0.22;}.cls-11{fill:#d7cec5;}.cls-12{fill:#f2f2f2;}.cls-13{fill:#fdb038;}.cls-14{fill:#e38f2e;}.cls-15{fill:#8ec762;}.cls-16{fill:#270000;}.cls-17{stroke:#2b160b;stroke-miterlimit:10;stroke-width:0.71px;}.cls-18{fill:#552d20;}.cls-19{fill:#080a08;}.cls-20{fill:#212b28;}</style><clipPath id="clip-path"><circle class="cls-1" cx="240" cy="-260" r="227.9"/></clipPath><clipPath id="clip-path-2"><circle class="cls-1" cx="240" cy="240" r="227.9"/></clipPath></defs><title>Artboard 24</title><circle class="cls-2" cx="241.16" cy="236.77" r="227.9"/><path class="cls-3" d="M195.17,3.47a2.84,2.84,0,0,1,.59,1.85,2.76,2.76,0,0,1-.94,1.45,17.31,17.31,0,0,1-7,4c1.85,1.62,3.7,3.42,4.5,5.74,1.39,4.05-1,8.75-4.75,10.82s-8.43,1.83-12.43.32a8.66,8.66,0,0,1-4.28-3c-1.2-1.81-1.2-4.14-1-6.3.91-9.48,4.91-18.36,8.85-27,.84-1.85,8.92,2.78,9.87,3.62A43.81,43.81,0,0,1,195.17,3.47Z"/><g class="cls-4"><path class="cls-5" d="M211.63-161.21H270a0,0,0,0,1,0,0v133A29.18,29.18,0,0,1,240.8,1h0a29.18,29.18,0,0,1-29.18-29.18v-133A0,0,0,0,1,211.63-161.21Z"/></g><g class="cls-6"><rect class="cls-7" x="341.65" y="277.55" width="9.23" height="43.06" rx="4.61" transform="translate(692.53 598.16) rotate(-180)"/><rect class="cls-7" x="348.01" y="290.98" width="9.23" height="43.06" rx="4.61" transform="translate(705.25 625.01) rotate(180)"/><rect class="cls-7" x="328.94" y="301.57" width="9.23" height="43.06" rx="4.61" transform="translate(667.1 646.2) rotate(-180)"/><rect class="cls-7" x="336.05" y="289.76" width="9.23" height="69.57" rx="4.61" transform="translate(681.32 649.08) rotate(180)"/><path class="cls-8" d="M329.7,180.78H166.17A25.26,25.26,0,0,0,140.91,206v19.39A8.74,8.74,0,0,1,143,230a9.22,9.22,0,0,1-.55,4.32,6.31,6.31,0,0,1-.4.71l0,0a13.4,13.4,0,0,1,1.2,6.67,9.7,9.7,0,0,1-2.38,5.85v57.49H345.25a12.46,12.46,0,0,1,1.65-1.83A13,13,0,0,1,355,282.05V206A25.26,25.26,0,0,0,329.7,180.78Z"/><path class="cls-9" d="M223,346.89h51.26a0,0,0,0,1,0,0V507.76a25.63,25.63,0,0,1-25.63,25.63h0A25.63,25.63,0,0,1,223,507.76V346.89A0,0,0,0,1,223,346.89Z"/><path class="cls-10" d="M223,297.44h51.26a0,0,0,0,1,0,0V414.31a25.63,25.63,0,0,1-25.63,25.63h0A25.63,25.63,0,0,1,223,414.31V297.44A0,0,0,0,1,223,297.44Z"/><path class="cls-9" d="M348.74,284.71v.06a13,13,0,0,0-1.84,18.51,12,12,0,0,0-4,8.9,11.48,11.48,0,0,0,.22,2.2,14.83,14.83,0,0,0-3,26.73q-9.52,17-19.06,34c-1.59,2.85-3.19,5.7-4.88,8.5a89.22,89.22,0,0,1-7.49,10.84,62.39,62.39,0,0,1-6.74,7c-24.69,22-61.67,18.68-88.72,1.76l-.62-.39c-5.94-3.84-10.95-8.94-15.55-14.46-2.74-3.29-5.34-6.74-7.91-10.15-10.26-13.63-28-15.65-34.72-31.46-1.17-2.74-2.22-5.54-3.17-8.35-.83-2.43-1.58-4.89-2.28-7.37a298.41,298.41,0,0,1-6.22-29.48l-.6-3.48c-3.69-21.59,2.28-31.7,3.45-51.09.92-15.18,4.61-30,8.29-44.78,4-15.91,8-32,16-46.34,20.62-37,61.5-39.9,101.74-29.79C368.38,150.4,348.88,273.6,348.74,284.71Z"/><path class="cls-9" d="M346.9,303.28a12.07,12.07,0,0,0-3.4,5.31c-2.77-2-3.75-6.42-2.83-10,.81-3.15,2.61-5.92,4.21-8.78a13,13,0,0,0,2,13.43Z"/><path class="cls-9" d="M136,255.16c-3.57.63-4.65,5.15-5,8.77l-.64,7.36c-.55,6.52-1.11,13.13,0,19.58s4.08,12.84,9.36,16.71c1.94,1.43,4.34,2.52,6.71,2.07,4.39-.83,6.22-6.45,5.19-10.8s-3.91-8-5.6-12.15c-3-7.33-1.26-14.09-1.15-21.61C145,260.63,141.81,254.13,136,255.16Z"/><path class="cls-10" d="M260.22,281.65l-.44-16.14a36.52,36.52,0,0,1,13.48-30.29c11.27-9,21.66-6.91,34.56-4.42a10,10,0,0,1,4,1.39,14.29,14.29,0,0,1,2.9,3.36c3.21,4.34,7.62,7.43,11.16,11.45,5.55,6.29,5.84,14.65,6.28,22.85,1.05,19.94-13.86,45.28-33.35,46.2l-1.39.06C277.92,317,261.27,301.6,260.22,281.65Z"/><path class="cls-11" d="M260,269.33l-.37-7.1a32.84,32.84,0,0,1,13.6-28c11.29-8.3,21.67-6.45,34.56-4.21a10.44,10.44,0,0,1,4,1.27,13.42,13.42,0,0,1,2.88,3.08c3.2,4,7.59,6.82,11.12,10.51,5.52,5.77,5.78,13.47,6.18,21,1,18.37-14,34-33.52,34.93l-1.39.06C277.55,301.85,261,287.7,260,269.33Z"/><path class="cls-10" d="M165.18,280.27c-.94-7.07-2.61-22.95,1.46-29.92,1.63-2.8,3.92-5.2,4.94-8.32a20.85,20.85,0,0,1,.81-2.5,9,9,0,0,1,1.3-1.92c18.57-22.18,60.09-7.32,61.7,23.26,0,.15,3.26,16,3.26,16,1,19.52-15.78,36.05-34.85,36.95l-1.37.06C184.5,314.71,167.62,298.7,165.18,280.27Z"/><path class="cls-11" d="M162.15,268.43a28.84,28.84,0,0,1,4.4-19.8c1.65-2.58,3.94-4.8,5-7.69a20.31,20.31,0,0,1,.83-2.3,8.09,8.09,0,0,1,1.31-1.78c18.65-20.51,60.1-7,61.59,21.19l.37,6.95c.95,18-15.92,33.28-35,34.18l-1.36.06C181.34,300.09,164.52,285.4,162.15,268.43Z"/><path class="cls-12" d="M265.23,268.58l-.32-6.11a28.31,28.31,0,0,1,11.7-24.06c9.72-7.14,18.66-5.55,29.75-3.62a9,9,0,0,1,3.43,1.09,11.44,11.44,0,0,1,2.48,2.66c2.75,3.42,6.53,5.86,9.57,9,4.75,5,5,11.59,5.32,18.09.84,15.81-12.08,29.26-28.85,30.05l-1.2.06C280.34,296.57,266.07,284.39,265.23,268.58Z"/><path class="cls-12" d="M168.32,267.81a24.77,24.77,0,0,1,3.79-17c1.42-2.22,3.39-4.13,4.28-6.62a15.57,15.57,0,0,1,.71-2,7.24,7.24,0,0,1,1.12-1.53c16.05-17.65,51.72-6,53,18.24l.31,6c.82,15.47-13.7,28.64-30.11,29.41l-1.17.05C184.83,295.05,170.36,282.42,168.32,267.81Z"/><path class="cls-8" d="M340.2,341.11q-9.52,17-19.06,34c-1.59,2.85-3.19,5.7-4.88,8.5a89.22,89.22,0,0,1-7.49,10.84,62.39,62.39,0,0,1-6.74,7c-24.69,22-61.67,18.68-88.72,1.76l-.62-.39c-5.94-3.84-10.95-8.94-15.55-14.46-2.74-3.29-5.34-6.74-7.91-10.15-10.26-13.63-28-15.65-34.72-31.46-1.17-2.74-2.22-5.54-3.17-8.35-.83-2.43-1.58-4.89-2.28-7.37a298.41,298.41,0,0,1-6.22-29.48H146c.89,4.22,1.89,8.4,3,12.52.7,2.48,1.45,4.94,2.28,7.37.95,2.82,2,5.61,3.17,8.35,6.74,15.81,24.46,17.83,34.72,31.47,2.57,3.41,5.17,6.86,7.91,10.15,4.6,5.52,9.61,10.62,15.55,14.45.2.14.41.27.62.4,27.05,16.92,64,20.21,88.72-1.76a62.49,62.49,0,0,0,6.74-7,89.1,89.1,0,0,0,7.49-10.83c1.69-2.8,3.29-5.66,4.88-8.5q6.63-11.81,13.24-23.63A15,15,0,0,0,340.2,341.11Z"/><rect class="cls-8" x="249" y="377.17" width="20.49" height="24.73"/><path class="cls-13" d="M334.88,173.14l-197.7,25-.58-4.6L123,86.06a28.49,28.49,0,0,1,24.68-31.83l119-15.07c1.28,7.6,5.78,8,15.61,7.19,10.84-.93,20.64,11,17.63,21.44-.38,1.32-.92,2.72-.49,4a5.75,5.75,0,0,0,2.82,2.79l9.35,5.63c-1.42,7,2.76,13.77,5.56,20.36,2.53,6,4,12.29,5.49,18.59,3.52,15.12,7.06,30.33,8.05,45.83a26.13,26.13,0,0,0,.34,3.15,6.45,6.45,0,0,0,2.44,4.35A5.48,5.48,0,0,0,334.88,173.14Z"/><path class="cls-14" d="M338.59,196.11l-196,24.81c-8.4,1.06-15.85-3.19-16.65-9.5l-1.54-12.2c-.2-1.58,4.32-3.52,12.22-5.66,37.13-10.07,148.83-24.46,194.47-25.4a6.45,6.45,0,0,0,2.44,4.35,5.48,5.48,0,0,0,1.37.63,13.46,13.46,0,0,0,2.53.48c4.12.53,8.25,1,12.37,1.56.53.07,1.08.12,1.63.15l.94,7.43C353.15,189.07,347,195.05,338.59,196.11Z"/><path class="cls-10" d="M302.68,357.93v.38c0,3.63,2.22,6.77-3.77,8.25a32.68,32.68,0,0,1-7.77.9H228.68a30.47,30.47,0,0,1-10.77-1.84c-4.33-1.67-2.9-4.33-2.9-7.31v-.38c0-5.06,5.2-14.1,15.08-14.1h58.22C298.19,343.83,302.68,352.87,302.68,357.93Z"/><rect class="cls-15" x="222.34" y="347.18" width="8.77" height="40.91" rx="4.38" transform="translate(453.45 735.27) rotate(180)"/><rect class="cls-15" x="216.34" y="350.05" width="8.77" height="66.1" rx="4.38" transform="translate(441.45 766.2) rotate(180)"/><path class="cls-16" d="M299.86,353v.38c0,3.64,2.22,6.77-3.78,8.25a32.1,32.1,0,0,1-7.77.91H230.09a30.37,30.37,0,0,1-10.76-1.84c-4.34-1.67-2.9-4.33-2.9-7.32V353c0-5.05,3.78-9.15,13.66-9.15h58.22C298.19,343.83,299.86,347.93,299.86,353Z"/><path class="cls-17" d="M159.51,351.21a11.92,11.92,0,0,0-12,8c-.55,1.72-1.1,4-2.89,4.18-1.5.18-2.62-1.29-3.4-2.58"/><path class="cls-17" d="M168.89,357.92a8.51,8.51,0,0,0-8.28,2.38"/><path class="cls-17" d="M175.67,364.22a9.71,9.71,0,0,0-4.23,8.11"/><path class="cls-17" d="M305.63,392.61a5.57,5.57,0,0,1,1.25,4.32,15.48,15.48,0,0,0,0,4.61c.38,1.5,1.71,2.91,3.24,2.73.44,0,.87-.24,1.32-.25a2.38,2.38,0,0,1,2.16,2.51,5.34,5.34,0,0,1-1.55,3.27l-.69-.58"/><path class="cls-17" d="M315,385a5.29,5.29,0,0,0,4.23,6.14"/><path class="cls-17" d="M321.11,371.18c.33-.61,1.26-.39,1.86,0a13,13,0,0,1,5.55,6.78"/><path class="cls-17" d="M217.67,401.75a12.49,12.49,0,0,1-3.27,3.48,4.27,4.27,0,0,1-4.54.21,5.24,5.24,0,0,0-1.13-.74,2.88,2.88,0,0,0-2.5.83"/><path class="cls-17" d="M209.82,392.16A14.15,14.15,0,0,0,197.29,394"/><path class="cls-17" d="M146,311.7c.17-.73-.82-1.29-1.53-1.05a3.25,3.25,0,0,0-1.53,1.59l-3.54,6-1.75-1.74"/><path class="cls-17" d="M146.56,320.9l-4.44,1.91"/><path class="cls-18" d="M267.35,275.56V312.9c-2.76-3.9-6.63-5.87-9.48-4.52-3.46,1.63-4.11,7.5-1.46,13.11a15.46,15.46,0,0,0,5.2,6.3,18.08,18.08,0,0,1-25.05-.35,15.82,15.82,0,0,0,4.71-5.95c2.65-5.61,2-11.48-1.46-13.11-2.57-1.21-6,.26-8.62,3.41V275.56a18.08,18.08,0,1,1,36.16,0Z"/><path class="cls-19" d="M265.63,325.43c-.12.06-.26.11-.39.16-1.94.64-4.36-.42-6.35-2.6a14,14,0,0,1-2.29-3.45c-2.16-4.6-1.63-9.39,1.19-10.73a3.47,3.47,0,0,1,1.1-.31c2-.25,4.47,1.15,6.35,3.6a14.17,14.17,0,0,1,1.58,2.6C269,319.3,268.46,324.09,265.63,325.43Z"/><ellipse class="cls-19" cx="236.28" cy="317.12" rx="9.18" ry="5.65" transform="translate(-151.37 395.37) rotate(-64.72)"/><path class="cls-20" d="M330.16,209.24a10.4,10.4,0,0,0-2-1.93,14.14,14.14,0,0,0-2.1-1.51,14.66,14.66,0,0,0-3.1-1.1,10.63,10.63,0,0,0-2.48-.46,10.23,10.23,0,0,0-2.57.37,4.9,4.9,0,0,0-1.67.59,4.27,4.27,0,0,0-1.26,1.56,7.55,7.55,0,0,0-1,3.08,3.88,3.88,0,0,0,1,3,6.5,6.5,0,0,0,1.28.92l2.14,1.27a12.24,12.24,0,0,0,4.42,1.88,8.39,8.39,0,0,0,3.19-.25,8.18,8.18,0,0,0,3.23-1.5A4.3,4.3,0,0,0,330.16,209.24Z"/><path class="cls-20" d="M339,222.7a7.13,7.13,0,0,0-1.17-1.4,9.08,9.08,0,0,0-1.27-1.13,9.43,9.43,0,0,0-1.95-.93,6.93,6.93,0,0,0-1.59-.48,7.54,7.54,0,0,0-1.71.06,3.35,3.35,0,0,0-1.13.28,2.76,2.76,0,0,0-.93.93,4.9,4.9,0,0,0-.87,1.95,2.53,2.53,0,0,0,.45,2,3.92,3.92,0,0,0,.77.69l1.31,1a8.18,8.18,0,0,0,2.76,1.54,5.55,5.55,0,0,0,2.11.05,5.43,5.43,0,0,0,2.21-.75A2.84,2.84,0,0,0,339,222.7Z"/><path class="cls-20" d="M335.2,229.75a5.76,5.76,0,0,1-2.11-.06,7.94,7.94,0,0,1-2.76-1.54l-1.31-1a4.52,4.52,0,0,1-.77-.68,2.59,2.59,0,0,1-.45-2,4.18,4.18,0,0,1,.58-1.5,3,3,0,0,0-.16.59,2.58,2.58,0,0,0,.45,2,4.28,4.28,0,0,0,.78.69l1.31,1a8.06,8.06,0,0,0,2.75,1.54,5.55,5.55,0,0,0,2.11.05,5.42,5.42,0,0,0,2.22-.75,3.28,3.28,0,0,0,.86-.84,3,3,0,0,1-1.29,1.74A5.25,5.25,0,0,1,335.2,229.75Z"/></g></svg>