<svg id="Layer_1" data-name="Layer 1" xmlns="http://www.w3.org/2000/svg" xmlns:xlink="http://www.w3.org/1999/xlink" viewBox="0 0 480 480"><defs><style>.cls-1,.cls-16,.cls-17{fill:none;}.cls-2{fill:#d9e021;}.cls-3{clip-path:url(#clip-path);}.cls-4{fill:#9ac9b8;}.cls-5{fill:#7fa697;}.cls-6{fill:#830634;}.cls-7{fill:#a96a2e;}.cls-8{clip-path:url(#clip-path-2);}.cls-9{fill:#5c7c73;}.cls-10{fill:#8ec762;}.cls-11{fill:#270000;}.cls-12{fill:#080a08;}.cls-13{fill:#429979;}.cls-14{clip-path:url(#clip-path-3);}.cls-15{fill:#cd1740;}.cls-16{stroke:#830634;stroke-width:3.33px;}.cls-16,.cls-17{stroke-miterlimit:10;}.cls-17{stroke:#f97c4f;stroke-width:1.66px;}.cls-18{fill:#f2f2f2;}.cls-19{fill:#030a17;}.cls-20{fill:#fc5317;}.cls-21{fill:#c7b299;}.cls-22{fill:#241e12;}</style><clipPath id="clip-path"><circle class="cls-1" cx="240" cy="240" r="227.9"/></clipPath><clipPath id="clip-path-2"><path class="cls-1" d="M337.54,293.46c18.27,13.83-23.47,103.39-49.54,100.09-6.2-.78-27.49,8.29-35.15,8.92l-10,.83-5.48.45c-6.7.55-20.6-5-27.2-3.71-29.16,5.77-90.46-87.9-66.08-106.68,13-10-5-31.82-5.46-47.93-.43-13.61.3-27.66,1-41.3,1.34-26.9,7.67-52.48,28-71.49,21.09-19.74,46.58-24.33,74.34-24.33q4.53,0,9,.18c1.25.05,2.5.12,3.75.19,3.51.22,7,.54,10.38,1,46.61,0,74,59.17,74,59.17s1.74,6.08,2.41,9.2c.14.6.26,1.21.38,1.82,3,14.58,3.07,29.7,3.09,44.53,0,14.31,2.4,30-.76,44C342.19,276.86,330.65,288.25,337.54,293.46Z"/></clipPath><clipPath id="clip-path-3"><path class="cls-1" d="M338.42,75l8.11,39.34a7,7,0,0,1-5.47,8.32c-98.37,19.43-173.16,17-219.83,52.85l-9.73-16.87c-8-38.8,16.29-82,55.1-90l45.89-9.46a78.43,78.43,0,0,1,29.73-12.92l40-8.24A47.61,47.61,0,0,1,338.42,75Z"/></clipPath></defs><title>Artboard 20</title><circle class="cls-2" cx="241.16" cy="236.77" r="227.9"/><g class="cls-3"><path class="cls-4" d="M216,388.29h51.1a0,0,0,0,1,0,0V504.79a25.55,25.55,0,0,1-25.55,25.55h0A25.55,25.55,0,0,1,216,504.79V388.29A0,0,0,0,1,216,388.29Z"/><path class="cls-5" d="M216,339h51.1a0,0,0,0,1,0,0v79.7a21.57,21.57,0,0,1-21.57,21.57h-8A21.57,21.57,0,0,1,216,418.7V339a0,0,0,0,1,0,0Z"/><path class="cls-4" d="M370,245v12.81a12.05,12.05,0,0,0-7.42,3.77,3,3,0,0,0-.52.7,8.74,8.74,0,0,0-.33.9,16.61,16.61,0,0,1-1.95,3,11.41,11.41,0,0,0-1.74,7.79,13.11,13.11,0,0,0,1.12,3.69,11.34,11.34,0,0,0-3.72,2.7,3.43,3.43,0,0,0-.52.7c-.14.29-.21.61-.32.91a16.66,16.66,0,0,1-2,3,11.36,11.36,0,0,0-1.85,6.15l-.23-.16h-4.71c-10.74,0-19.45-6.36-19.45-14.2V245c0-7.84,8.71-14.19,19.45-14.19h4.71C361.32,230.77,370,237.12,370,245Z"/><path class="cls-4" d="M137.92,291h-4.71c-9.91,7.24-29.36-7-19.44-14.19V245c0-7.84,8.7-14.2,19.44-14.2h4.71c10.74,0,19.45,6.36,19.45,14.2v31.82C157.37,284.62,148.66,291,137.92,291Z"/><path class="cls-6" d="M339.1,80.22l8.11,39.34a7.05,7.05,0,0,1-5.48,8.32c-98.37,19.43-166,23.43-212.71,59.32l-17.53-28.64a71.73,71.73,0,0,1,55.78-84.74l45.89-9.46a78.29,78.29,0,0,1,29.73-12.93l40-8.23A47.62,47.62,0,0,1,339.1,80.22Z"/><path class="cls-7" d="M358,218.25l-.34,5.33a43.92,43.92,0,0,0-7.09,18c-1.31,8-.92,16.19-.73,24.18-3.06,7.47-5.69,15.12-4,22.78a36.81,36.81,0,0,0,2.9,8c.24,6.43.85,12.86.7,19.3-.18,7.44-2.07,13.79-4.64,20.71-2.44,6.59-4.82,13.36-5.08,20.45-.4,11.07,1,22.4,3,33.38-5,.74-9.51-.64-10.93-6.29,1.33,5.28-2.11,10.91-6.88,13.54s-10.51,2.8-15.93,2.19c-2.4-.28-4.94-.67-7.14.33a15.45,15.45,0,0,0-3.89,3.11,27.87,27.87,0,0,1-11.92,6.52H271.52l-.79-.23c-3.13-1-6.13-2.5-9.39-2.82-4.13-.4-8.16,1.18-12.2,2.15a40.71,40.71,0,0,1-5.28.9h-8.72a41.92,41.92,0,0,1-12.68-3.38,19.64,19.64,0,0,0-5.47-2c-2.5-.32-5,.55-7.41,1.18a42.62,42.62,0,0,1-42.8-14.06,6.4,6.4,0,0,0-3-2.52,7.12,7.12,0,0,0-2.68.06c-9.81,1.2-18.89-6.69-22.42-15.92s-2.83-19.46-2.07-29.31a55.3,55.3,0,0,0-6.25,5.49l-.16-2.53a22.48,22.48,0,0,0,1.68-7.53,54.65,54.65,0,0,0-1.5-14.52,89,89,0,0,1-2.25-18.55c0-.33,0-.65,0-1A52,52,0,0,0,138,289.37c5.4-14.53,2.76-30.81-2.28-45.22a67.33,67.33,0,0,0-3.76-8.84c.39-8.66-.47-17.95-6-24.76,3.43-5,4.54-11.68,3.89-18.46a26.67,26.67,0,0,0-1.93-8,25.11,25.11,0,0,1-1.68-3.93,9.94,9.94,0,0,1,.45-4.57c.79-3.35,1.65-6.48,1.5-10A40.75,40.75,0,0,0,126,155.18c-1.5-4.75-3.91-9.8-2.35-14.84,2.07-6.68,6.08-12.39,4.06-19.74a19,19,0,0,0-4.08-7.19c-.06-.08-.13-.15-.2-.23.24,0,.48-.09.73-.12a64.54,64.54,0,0,1,6.81-.63c2.92-.14,3.42-.13,6-.11,3.45,0,6.9.19,10.35.2,3.61,0,7-1.93,7.44-5.81a5.38,5.38,0,0,0,0-1.27H314.39l2.32,1.6a7.62,7.62,0,0,1,4.9-1.42,21.83,21.83,0,0,1,9.92,3.28c2.81,1.62,3.61,2.07,6.75,2.42,5.81.66,10.74,3.25,12.9,9s1.05,13.18-2.11,19.19a34,34,0,0,1,2.72,10.38,202.54,202.54,0,0,1-.42,58.95c.77-1.51,1.54-3,2.32-4.56a21.55,21.55,0,0,1-1.42,17A29,29,0,0,0,358,218.25Z"/><path class="cls-4" d="M337.54,293.46c18.27,13.83-23.47,103.39-49.54,100.09-6.2-.78-27.49,8.29-35.15,8.92l-10,.83-5.48.45c-6.7.55-20.6-5-27.2-3.71-29.16,5.77-90.46-87.9-66.08-106.68,13-10-5-31.82-5.46-47.93-.43-13.61.3-27.66,1-41.3,1.34-26.9,7.67-52.48,28-71.49,21.09-19.74,46.58-24.33,74.34-24.33q4.53,0,9,.18c1.25.05,2.5.12,3.75.19,3.51.22,7,.54,10.38,1,46.61,0,74,59.17,74,59.17s1.74,6.08,2.41,9.2c.14.6.26,1.21.38,1.82,3,14.58,3.07,29.7,3.09,44.53,0,14.31,2.4,30-.76,44C342.19,276.86,330.65,288.25,337.54,293.46Z"/><g class="cls-8"><path class="cls-9" d="M179.32,404.75a22.22,22.22,0,0,1-15,6.17,22.52,22.52,0,0,1-15.68-6.79c-5.62-8.25-10.37-17.78-15-27.21Q123.29,356.16,113,335.37c-.14-.32-.31-.62-.44-.94-4.42-15.35-.55-33.32,10-42.92,12.28-11.14,29-6.78,37.24,9.75l26.77,53.37C194.85,371.16,191.61,393.6,179.32,404.75Z"/><path class="cls-9" d="M301.94,402.16a22.22,22.22,0,0,0,15,6.16,22.54,22.54,0,0,0,15.68-6.78c5.62-8.25,10.38-17.78,15.06-27.21Q358,353.57,368.3,332.77c.15-.31.31-.62.45-.93,4.41-15.35.54-33.32-10-42.92-12.28-11.14-29-6.79-37.24,9.74L294.71,352C286.42,368.56,289.65,391,301.94,402.16Z"/><path class="cls-9" d="M108,181.1a22.22,22.22,0,0,0,9.08,13.41,22.52,22.52,0,0,0,16.82,3c9.24-3.77,18.47-9.09,27.58-14.37l40.16-23.24.89-.53C214.66,149,221.36,131.89,217.85,118c-4.09-16.07-20.4-21.65-36.44-12.44l-51.78,29.72C113.59,144.52,103.89,165,108,181.1Z"/></g><path class="cls-9" d="M282.81,345.38v.35c0,3.34,2,6.22-3.47,7.58a29.58,29.58,0,0,1-7.14.83H214.83a27.87,27.87,0,0,1-9.89-1.69c-4-1.53-2.66-4-2.66-6.72v-.35c0-4.64,4.77-12.95,13.85-12.95h53.48C278.68,332.43,282.81,340.74,282.81,345.38Z"/><rect class="cls-10" x="209.77" y="341.47" width="9.34" height="43.6" rx="4.67" transform="translate(428.89 726.53) rotate(180)"/><rect class="cls-10" x="203.38" y="344.53" width="9.34" height="70.44" rx="4.67" transform="translate(416.11 759.49) rotate(-180)"/><path class="cls-11" d="M280.21,340.84v.35c0,3.34,2,6.22-3.47,7.58a30.06,30.06,0,0,1-7.13.83H216.13a27.87,27.87,0,0,1-9.89-1.69c-4-1.54-2.66-4-2.66-6.72v-.35c0-4.64,3.47-8.41,12.55-8.41h53.48C278.68,332.43,280.21,336.2,280.21,340.84Z"/><path class="cls-12" d="M260.35,262.34l4.56,39.41a18.77,18.77,0,0,1-.49,5.62c-.24-1.76-7.21,8.41-3.66,7.58a24,24,0,0,1-37.07.12c1.7-2.8-3.73-10.66-4.08-9.43a18.6,18.6,0,0,1-.17-3.89L224,262.34a18.2,18.2,0,0,1,36.35,0Z"/><path class="cls-13" d="M262.4,259.91l2.47,41.17a20.2,20.2,0,0,1-.48,5.78,16.44,16.44,0,0,0-1.95-5.64c-3-5.35-8.07-8.36-11.5-6.85s-4,7.14-1.21,12.67c2.69,5.24,7.47,8.49,11,7.63a23.49,23.49,0,0,1-37,.12c3.44.25,7.73-2.9,10.22-7.75,2.85-5.53,2.27-11.14-1.19-12.67s-8.53,1.5-11.51,6.85a17.37,17.37,0,0,0-1.58,3.86,19.7,19.7,0,0,1-.17-4L222,259.91a16,16,0,0,1,6.42-11.59,22.35,22.35,0,0,1,13.8-4.58C252.81,243.74,261.85,250.79,262.4,259.91Z"/><circle class="cls-7" cx="226.68" cy="120.69" r="33.42"/><circle class="cls-7" cx="266.91" cy="120.69" r="20.82"/><circle class="cls-7" cx="301.3" cy="130.43" r="20.82"/><ellipse class="cls-7" cx="326.61" cy="151.19" rx="19.3" ry="26.16" transform="translate(-32.79 170.2) rotate(-27.87)"/><circle class="cls-6" cx="201.39" cy="55.07" r="15.39"/><g class="cls-14"><path class="cls-15" d="M338.42,75l8.11,39.34a7,7,0,0,1-5.47,8.32C242.69,142.1,162.15,140.08,115.48,176l-4.66-22.61A71.74,71.74,0,0,1,166.6,68.61l45.89-9.46a78.43,78.43,0,0,1,29.73-12.92l40-8.24A47.61,47.61,0,0,1,338.42,75Z"/><path class="cls-16" d="M101.52,133s67.82-35.64,91.76-43.13S349.86,56.31,349.86,56.31"/><path class="cls-16" d="M105.92,158.41s67.81-35.64,91.75-43.12S354.25,81.73,354.25,81.73"/><path class="cls-17" d="M127.16,82.26c-.59,9.47,14.69,83.6,18.81,91.25"/><path class="cls-17" d="M177.15,65.16c-.6,9.47,14.68,83.61,18.81,91.25"/><path class="cls-17" d="M232.5,45.26c-.6,9.46,15.35,86.86,19.48,94.5"/><path class="cls-17" d="M293.6,32.66c-.6,9.47,16.36,91.75,20.49,99.4"/></g><path class="cls-9" d="M297.49,278.7c-18.57,0-43.23-17.44-32.2-53.68,3.24,0,61-.92,61-.92l0,.74C339.26,263.68,316.07,278.7,297.49,278.7Z"/><path class="cls-18" d="M298.45,255.78l-1.16.05a29.44,29.44,0,0,1-30.88-27.94l-.17-3.48h60.12l0,.49A29.44,29.44,0,0,1,298.45,255.78Z"/><path class="cls-19" d="M299,225c0,2-1.18,3.71-2.66,3.76h-.11c-1.48.05-2.68-1.55-2.69-3.59v-.79H299Z"/><path class="cls-9" d="M183.93,278.7c-18.57,0-43.23-17.44-32.2-53.68,3.25,0,61-.92,61-.92l0,.74C225.71,263.68,202.51,278.7,183.93,278.7Z"/><path class="cls-18" d="M184.9,255.78l-1.17.05a29.44,29.44,0,0,1-30.88-27.94l-.17-3.48h60.13l0,.49A29.44,29.44,0,0,1,184.9,255.78Z"/><path class="cls-19" d="M185.46,225c0,2-1.19,3.71-2.67,3.76h-.11c-1.47.05-2.68-1.55-2.69-3.59v-.79h5.46Z"/><path class="cls-20" d="M156.87,201.32l.57,1.15a3.34,3.34,0,0,0,4.47,1.51l37.93-18.81c4.27-2.12.74-9.26-3.54-7.14l-37.93,18.81A3.34,3.34,0,0,0,156.87,201.32Z"/><path class="cls-21" d="M173.2,209.16l.6-.38a1.86,1.86,0,0,0,.58-2.56l-12.6-19.85c-1.42-2.24-5.15.13-3.73,2.36l12.59,19.86A1.86,1.86,0,0,0,173.2,209.16Z"/><path class="cls-21" d="M198.18,196l.66-.27a1.87,1.87,0,0,0,1-2.41l-8.72-21.83c-1-2.46-5.09-.82-4.11,1.64l8.72,21.83A1.86,1.86,0,0,0,198.18,196Z"/><rect class="cls-10" x="208.42" y="338.16" width="7.31" height="16.87" rx="2.57" transform="translate(-134.52 558.67) rotate(-90)"/><path class="cls-22" d="M274.22,214.11c0,3.63,44.36,3.63,44.36,0a3.52,3.52,0,0,0,3.52-3.52h0a3.53,3.53,0,0,0-3.52-3.52c0,6.51-44.36,6.51-44.36,0a3.52,3.52,0,0,0-3.52,3.52h0A3.51,3.51,0,0,0,274.22,214.11Z"/><path class="cls-22" d="M158.06,214.11c0,3.63,44.37,3.63,44.37,0a3.52,3.52,0,0,0,3.52-3.52h0a3.53,3.53,0,0,0-3.52-3.52c0,6.51-44.37,6.51-44.37,0a3.53,3.53,0,0,0-3.52,3.52h0A3.52,3.52,0,0,0,158.06,214.11Z"/></g></svg>