<svg id="Layer_1" data-name="Layer 1" xmlns="http://www.w3.org/2000/svg" xmlns:xlink="http://www.w3.org/1999/xlink" viewBox="0 0 480 480"><defs><style>.cls-1,.cls-14{fill:none;}.cls-2{fill:#d9e021;}.cls-3{clip-path:url(#clip-path);}.cls-4{fill:#f39900;}.cls-5{fill:#dcb999;}.cls-6{fill:#181922;opacity:0.22;}.cls-7{fill:#c69c6d;}.cls-8{fill:#212b28;}.cls-9{fill:#d7cec5;}.cls-10{fill:#352b28;}.cls-11{clip-path:url(#clip-path-2);}.cls-12{fill:#080a08;}.cls-13{fill:#fc5317;}.cls-14{stroke:#f39900;stroke-miterlimit:10;stroke-width:0.75px;}.cls-15{fill:#da8ca6;}.cls-16{fill:#c7b299;}.cls-17{clip-path:url(#clip-path-3);}</style><clipPath id="clip-path"><circle class="cls-1" cx="240" cy="240" r="227.9"/></clipPath><clipPath id="clip-path-2"><path class="cls-1" d="M270.12,322.56V323c0,3.84,0,27.32-3.23,28.89a9.72,9.72,0,0,1-4.2.95H236.94a9.6,9.6,0,0,1-5.82-1.94c-2.34-1.77-6.1-24.75-6.1-27.9v-.41a9.69,9.69,0,0,1,9.68-9.68h25.75A9.68,9.68,0,0,1,270.12,322.56Z"/></clipPath><clipPath id="clip-path-3"><path class="cls-1" d="M355.22,271.26a41.82,41.82,0,0,1-1.46,10.91,81.65,81.65,0,0,1-4.87,12.75c-1.71,3.8-3.53,7.68-5.09,12-.34.93-.66,1.88-1,2.85-3.29,10.3-22.93,24.62-26.92,33.67l-.87,1.87L302,360.32a21.84,21.84,0,0,0-2.86,2.61c-4.12,4.56-5.93,11.64-9.27,17.15-5,8.26-13,12.44-20.75,15.45a83.94,83.94,0,0,1-17.86,4.94c-8.77,1.31-17.6.75-25.9-3a27.89,27.89,0,0,1-13.17-11.45c-2.52-4.43-3.85-9.91-6.63-14.08s-6.62-6.6-9.93-9.93a37.38,37.38,0,0,1-3.47-4,108.5,108.5,0,0,1-8-12.89c-3.64-6.55-25.15-16-29.69-23.06-.1-.16-.2-.31-.29-.47-12.24-19.46-9.82-43.54-9.82-66.11,0-13.72-6.4-29.83-6.55-43.88-.24-23.16,6.48-41.56,16.89-62.11l21.09-41.65C178,103.47,180.3,99,184,95.7c6.52-5.84,16-6.73,24.75-6.63,43.21.53,85.14,20.31,114.92,51.28,14.92,15.51,25.91,33.42,34.09,53.25.72,1.75,1.35,3.55,1.91,5.39C366.09,220.5,355.22,249.67,355.22,271.26Z"/></clipPath></defs><title>Artboard 23</title><circle class="cls-2" cx="241.16" cy="236.77" r="227.9"/><g class="cls-3"><path class="cls-4" d="M355.91,208.45a9,9,0,0,0,4,7.45V280a12,12,0,0,1-12,12.05H150.05a17,17,0,0,1-17-16.95V176.24a113.4,113.4,0,0,1,224.62-22.16c-3.88-3.75-8.47-7.21-11.74-10.15,4.83,5.75,6.26,13.54,7.51,20.94-4.23-5.24-8.49-10.53-13.66-14.84a312.86,312.86,0,0,1,20.05,35.56V201A9,9,0,0,0,355.91,208.45Z"/><path class="cls-5" d="M261.06,411.63a11.18,11.18,0,0,0,4.48,9,11.21,11.21,0,0,0,6.56,20.17v11.63a27.1,27.1,0,1,1-54.2,0V328.82h54.2v71.61A11.21,11.21,0,0,0,261.06,411.63Z"/><path class="cls-6" d="M272.1,276.53v123.9a11.21,11.21,0,0,0-8,18.89A27.1,27.1,0,0,1,217.9,400.1V276.53Z"/><path class="cls-4" d="M255.6,552.73A78.14,78.14,0,0,1,204,538.54a29.8,29.8,0,0,1-3.74-3.11c-10.73-1.44-22.5-11.28-27.57-18.1a45.93,45.93,0,0,1-9.18-22.13,45.74,45.74,0,0,1-15.4-18.09,44.41,44.41,0,0,1-4.72-23,44.24,44.24,0,0,1-11.68-20.19,43.59,43.59,0,0,1-.41-23.17,45.86,45.86,0,0,1-4.06-44.54,45.87,45.87,0,0,1,4-44.53,43.6,43.6,0,0,1,.35-23.17,44.38,44.38,0,0,1,11.64-20.23,44.33,44.33,0,0,1,4.67-23,45.81,45.81,0,0,1,15.36-18.13A45.9,45.9,0,0,1,172.38,215c7.31-9.88,28.67-26.16,40.66-14,9.85,10,1.77,29.47-5.75,39.41a53.28,53.28,0,0,1-15.17,13.94,50.61,50.61,0,0,1-5.21,19.58A49.43,49.43,0,0,1,174.76,290a50.45,50.45,0,0,1-10.39,37.61,49.69,49.69,0,0,1-3.44,38.61,49.66,49.66,0,0,1,3.52,38.6,50.49,50.49,0,0,1,10.48,37.59,49.57,49.57,0,0,1,12.18,16A50.57,50.57,0,0,1,192.36,478a53.26,53.26,0,0,1,15.2,13.9c5.26,6.92,10.8,18.49,10.33,28.24,5.07,1.9,9.62,4.55,11.77,6.6,4.14,3.95,6.66,9.28,10.14,13.83A39.38,39.38,0,0,0,255.6,552.73Z"/><path class="cls-7" d="M363.56,219.25c3.76.75,4.81,5.55,5.06,9.38l.5,7.8c.45,6.9.89,13.9-.42,20.7s-4.6,13.48-10.26,17.46c-2.08,1.47-4.65,2.56-7.14,2-4.63-1-6.44-7-5.26-11.53s4.31-8.39,6.19-12.72c3.34-7.69,1.64-14.87,1.69-22.83C354,224.83,357.45,218,363.56,219.25Z"/><path class="cls-7" d="M135.6,219.13c-3.78.67-4.92,5.44-5.25,9.27l-.67,7.78c-.59,6.9-1.18,13.89,0,20.71s4.32,13.57,9.9,17.67c2.05,1.51,4.59,2.65,7.1,2.18,4.64-.88,6.58-6.81,5.49-11.42s-4.13-8.47-5.92-12.84c-3.18-7.75-1.33-14.9-1.22-22.86C145.09,224.9,141.74,218,135.6,219.13Z"/><path class="cls-5" d="M361.66,216.82c-.44,18.16-6.44,38.4-6.44,54.44a41.82,41.82,0,0,1-1.46,10.91,81.65,81.65,0,0,1-4.87,12.75c-1.71,3.8-3.53,7.68-5.09,12-.34.93-.66,1.88-1,2.85-3.29,10.3-22.93,24.62-26.92,33.67l-.87,1.87L302,360.32a21.84,21.84,0,0,0-2.86,2.61c-4.12,4.56-5.93,11.64-9.27,17.15-5,8.26-13,12.44-20.75,15.45a83.94,83.94,0,0,1-17.86,4.94c-8.77,1.31-17.6.75-25.9-3a27.89,27.89,0,0,1-13.17-11.45c-2.52-4.43-3.85-9.91-6.63-14.08s-6.62-6.6-9.93-9.93a37.38,37.38,0,0,1-3.47-4,108.5,108.5,0,0,1-8-12.89c-3.64-6.55-25.15-16-29.69-23.06-.1-.16-.2-.31-.29-.47-12.24-19.46-9.82-43.54-9.82-66.11,0-13.72-6.4-29.83-6.55-43.88-.24-23.16,6.48-41.56,16.89-62.11l21.09-41.65C178,103.47,180.3,99,184,95.7c6.52-5.84,16-6.73,24.75-6.63,43.21.53,85.14,20.31,114.92,51.28,14.92,15.51,25.91,33.42,34.09,53.25.72,1.75,1.35,3.55,1.91,5.39.19.61.35,1.23.51,1.85a9,9,0,0,0,1.53,16Z"/><path class="cls-8" d="M171.11,163a10.79,10.79,0,0,0-2.84.73,15.09,15.09,0,0,0-2.52,1.06,14.88,14.88,0,0,0-2.7,2.19,10.84,10.84,0,0,0-1.79,2,11,11,0,0,0-1.09,2.51,5.13,5.13,0,0,0-.38,1.84,4.33,4.33,0,0,0,.7,2,8.22,8.22,0,0,0,2.22,2.61,4.18,4.18,0,0,0,3.27.75,6.23,6.23,0,0,0,1.53-.65l2.33-1.22a12.75,12.75,0,0,0,4.14-2.94,9,9,0,0,0,1.54-3,8.63,8.63,0,0,0,.43-3.73A4.55,4.55,0,0,0,171.11,163Z"/><path class="cls-8" d="M184.58,172.35a7.66,7.66,0,0,0-1.91.27,10.05,10.05,0,0,0-1.72.52,9.31,9.31,0,0,0-1.92,1.25,7,7,0,0,0-1.31,1.17,7.57,7.57,0,0,0-.89,1.57,3.27,3.27,0,0,0-.37,1.17,2.84,2.84,0,0,0,.32,1.36,5.31,5.31,0,0,0,1.27,1.86,2.74,2.74,0,0,0,2.08.72,4.25,4.25,0,0,0,1.05-.32l1.61-.64a8.28,8.28,0,0,0,2.91-1.64,5.94,5.94,0,0,0,1.22-1.86,5.8,5.8,0,0,0,.54-2.41A3,3,0,0,0,184.58,172.35Z"/><rect class="cls-6" x="151.87" y="205.97" width="78.18" height="72.04" rx="35.32" transform="translate(481.11 137.88) rotate(108.54)"/><rect class="cls-9" x="154.11" y="197.75" width="78.18" height="72.04" rx="35.32" transform="translate(476.27 124.92) rotate(108.54)"/><path class="cls-6" d="M273.36,259.92l-2.73-6.85c-7.07-17.7,1.15-38,18.35-45.23l1.23-.53c17.2-7.27,36.87,1.18,43.94,18.89l2.74,6.85c7.06,17.71-1.15,38-18.35,45.24l-1.23.52C300.11,286.09,280.43,277.63,273.36,259.92Z"/><path class="cls-9" d="M272.62,251l-2.74-6.85c-7.07-17.71,1.15-38,18.35-45.24l1.23-.52c17.2-7.28,36.88,1.18,43.94,18.89l2.74,6.85c7.07,17.7-1.15,38-18.35,45.24l-1.23.52C299.36,277.12,279.69,268.67,272.62,251Z"/><ellipse class="cls-10" cx="300.82" cy="233.95" rx="2.79" ry="5.24" transform="matrix(0.99, -0.14, 0.14, 0.99, -28.95, 42.97)"/><ellipse class="cls-10" cx="191.76" cy="233.95" rx="5.24" ry="2.79" transform="translate(-66.04 392.2) rotate(-82.2)"/><path class="cls-8" d="M268.06,237.33v43.52a20.16,20.16,0,0,1-.72,5.36c-.13-1.66-6.59,7.74-3.52,7a20.15,20.15,0,0,1-31.76.11c1.36-2.55-3.73-9.91-4-8.74a19.07,19.07,0,0,1-.35-3.72V237.33a20.16,20.16,0,1,1,40.32,0Z"/><path class="cls-7" d="M268.06,237.33v43.52a20.16,20.16,0,0,1-.72,5.36A15.29,15.29,0,0,0,265.9,281c-2.41-5.11-6.93-8.05-10.07-6.57s-3.74,6.84-1.33,12c2.23,4.72,6.25,7.58,9.32,6.83a20.15,20.15,0,0,1-31.76.11c3,.21,6.56-2.57,8.63-6.94,2.42-5.12,1.83-10.47-1.33-12s-7.65,1.46-10.06,6.57a15.83,15.83,0,0,0-1.21,3.59,19.07,19.07,0,0,1-.35-3.72V237.33a20.16,20.16,0,1,1,40.32,0Z"/><g class="cls-11"><path class="cls-12" d="M270.12,322.56V323c0,3.84,0,27.32-3.23,28.89a9.72,9.72,0,0,1-4.2.95H236.94a9.6,9.6,0,0,1-5.82-1.94c-2.34-1.77-6.1-24.75-6.1-27.9v-.41a9.69,9.69,0,0,1,9.68-9.68h25.75A9.68,9.68,0,0,1,270.12,322.56Z"/><path class="cls-13" d="M276.37,355.51c-5.05,6.54-16.37,4.46-29.93,4.13-11.65-.29-22,.78-27.32-3.2a34.76,34.76,0,0,1,30.73-17.27A30.28,30.28,0,0,1,276.37,355.51Z"/></g><path class="cls-4" d="M253.48,124l5.25-9.56c.59-1.08,1.43-2.32,2.66-2.27,1,0,1.69.89,2.28,1.66L291.35,150l-.48-20.3a115.91,115.91,0,0,1,33.3,41.59c11.89-6.62,15-23.45,9.68-36S317,114,305.07,107.42c-16.63-9.1-42.41-20.27-61.8-17.59,1.33,5.09,6.3,10,8.21,15.5A40.67,40.67,0,0,1,253.48,124Z"/><path class="cls-14" d="M147.65,405.7a101.6,101.6,0,0,1-27.36,4.47c-3.58.09-7.68-.26-9.86-3.1"/><path class="cls-14" d="M149.07,451.34c-2.8.33-5,2.5-6.58,4.85A21.77,21.77,0,0,0,139,469.46"/><path class="cls-14" d="M158.07,383.92c.85,1.58,3.19,1.81,4.74.91a9.18,9.18,0,0,0,3.28-4.17,65.94,65.94,0,0,0,3.55-8.77"/><path class="cls-14" d="M132.06,357.29a12.12,12.12,0,0,1-13.45-14.61"/><path class="cls-14" d="M158.35,360.22a8.1,8.1,0,0,0,12.32-5.31"/><path class="cls-13" d="M240.81,348.74h1.48a3.84,3.84,0,0,1,3.84,3.84v48.74a0,0,0,0,1,0,0H237a0,0,0,0,1,0,0V352.58a3.84,3.84,0,0,1,3.84-3.84Z" transform="translate(483.1 750.06) rotate(-180)"/><path class="cls-13" d="M263.22,346.5h1.48a3.84,3.84,0,0,1,3.84,3.84v36.79a0,0,0,0,1,0,0h-9.17a0,0,0,0,1,0,0V350.34A3.84,3.84,0,0,1,263.22,346.5Z" transform="translate(527.92 733.62) rotate(-180)"/><path class="cls-13" d="M233.34,345.75h1.48a3.84,3.84,0,0,1,3.84,3.84v31.56a0,0,0,0,1,0,0H229.5a0,0,0,0,1,0,0V349.59A3.84,3.84,0,0,1,233.34,345.75Z" transform="translate(468.16 726.9) rotate(-180)"/><path class="cls-4" d="M151.55,154.56a9.25,9.25,0,0,1,6.78-4.76,9.22,9.22,0,0,1,5.8-12.77,9.24,9.24,0,0,0-15.51,9.78,9.25,9.25,0,1,0,3.95,18A9.22,9.22,0,0,1,151.55,154.56Z"/><path class="cls-15" d="M158.13,160.34a9.2,9.2,0,0,0,.23-8.28,9.24,9.24,0,0,0,5.77-15,9.22,9.22,0,0,0-5.8,12.77,9.24,9.24,0,0,0-5.76,15A9.21,9.21,0,0,0,158.13,160.34Z"/><path class="cls-13" d="M262.38,151.44l-.69,1.32a3.84,3.84,0,0,0,1.63,5.18l43.18,22.6c4.86,2.54,9.11-5.58,4.25-8.12l-43.18-22.6A3.85,3.85,0,0,0,262.38,151.44Z"/><path class="cls-16" d="M266.12,172l.77.31a2.14,2.14,0,0,0,2.77-1.2l10-25.16c1.12-2.84-3.61-4.71-4.73-1.88l-10,25.16A2.13,2.13,0,0,0,266.12,172Z"/><path class="cls-16" d="M295.3,186.3l.7.44a2.13,2.13,0,0,0,2.94-.66l14.44-22.9c1.63-2.58-2.68-5.29-4.3-2.72l-14.44,22.9A2.13,2.13,0,0,0,295.3,186.3Z"/><g class="cls-17"><path class="cls-6" d="M280.93,370.08a17,17,0,0,0,10,7.38,17.28,17.28,0,0,0,12.95-2.14c5.72-5.1,11-11.31,16.27-17.46l23.1-27.1c.17-.21.35-.41.51-.62,6.14-10.61,6.6-24.71.51-33.82-7.07-10.59-20.3-10.45-29.54.32l-29.86,34.77C275.62,342.18,273.85,359.49,280.93,370.08Z"/><path class="cls-6" d="M209.26,372.1a17,17,0,0,1-10.64,6.42,17.28,17.28,0,0,1-12.69-3.32c-5.23-5.6-9.94-12.28-14.59-18.89q-10.26-14.55-20.5-29.12c-.15-.22-.31-.43-.45-.66-5.14-11.13-4.3-25.21,2.61-33.73,8-9.88,21.18-8.52,29.39,3.06l26.52,37.37C217.13,344.8,217.28,362.2,209.26,372.1Z"/></g></g></svg>