<svg id="Layer_1" data-name="Layer 1" xmlns="http://www.w3.org/2000/svg" xmlns:xlink="http://www.w3.org/1999/xlink" viewBox="0 0 480 480"><defs><style>.cls-1,.cls-21{fill:none;}.cls-2{fill:#d9e021;}.cls-3{clip-path:url(#clip-path);}.cls-4{fill:#b89c5a;}.cls-5{clip-path:url(#clip-path-2);}.cls-6{fill:#e2a344;}.cls-7{fill:#cc9c7a;}.cls-16,.cls-8{fill:#9e7254;}.cls-9{fill:#ad6937;}.cls-10{fill:#7c525b;}.cls-11{fill:#f2f2f2;}.cls-12{fill:#030a17;}.cls-13{fill:#512619;}.cls-14{fill:#8ec762;}.cls-15{fill:#fc5317;}.cls-16{opacity:0.4;}.cls-17{fill:#212b28;}.cls-18{fill:#080a08;}.cls-19{fill:#a83124;}.cls-20{clip-path:url(#clip-path-3);}.cls-21{stroke:#333;stroke-miterlimit:10;stroke-width:0.4px;}.cls-22{fill:#f3b745;}.cls-23{fill:#fbc85b;}.cls-24{clip-path:url(#clip-path-4);}.cls-25{fill:#b73749;}.cls-26{fill:#705f3d;}.cls-27{clip-path:url(#clip-path-5);}.cls-28{fill:#241b0a;}</style><clipPath id="clip-path"><circle class="cls-1" cx="240" cy="-260" r="227.9"/></clipPath><clipPath id="clip-path-2"><circle class="cls-1" cx="240" cy="240" r="227.9"/></clipPath><clipPath id="clip-path-3"><path class="cls-1" d="M250.28,138.56a9.53,9.53,0,0,1,1.06.38,8.86,8.86,0,0,1,3.68,3,26.16,26.16,0,0,0,.24,12.64q.21.78.48,1.56c1.62,4.46,5.43,5.85,9.58,7.41,6.25,2.34,7.64,3.28,10.53,2.36,3.55-1.13,7.57-2.41,16.94.44,8.61,2.62,9.88,5.73,9.17,10.19-.2,1.28-.21,1.58.21,2.09.7.89,2.7,2.32,8.19,4.14,4.75,1.58,8.47,2,10.74,1.19a4.1,4.1,0,0,0,1.48-.84c1.81-1.68,1.45-5.05,1.26-6.23a8,8,0,0,1,5.49-1.2c.34,1.78,1,7.24-2.36,11a7.7,7.7,0,0,1-.56.59c-3.57,3.31-10.66,4.43-18.91,1.69-11.26-3.72-11.91-8.21-11.1-13.29.17-1,.16-1.23,0-1.4-.26-.35-.86-.7-4.86-1.91-7.69-2.34-11-2-14-1.06-3.46,1.1-7.93,3.89-16,.86-5.38-2-8.48-7.64-10.74-13.14l-.37-.94C247.65,150.31,248.79,141.72,250.28,138.56Z"/></clipPath><clipPath id="clip-path-4"><path class="cls-1" d="M404.21,189.85c0-35.75-329.23-35.75-329.23,0L37.84,108a6.47,6.47,0,0,1,5.89-9.14H435.47a6.47,6.47,0,0,1,5.89,9.14Z"/></clipPath><clipPath id="clip-path-5"><path class="cls-1" d="M267.85,344.11v.44A10.4,10.4,0,0,1,257.44,355H229.72a10.42,10.42,0,0,1-10.42-10.42v-.44a10.43,10.43,0,0,1,10.42-10.42h27.72A10.42,10.42,0,0,1,267.85,344.11Z"/></clipPath></defs><title>Artboard 19</title><circle class="cls-2" cx="241.16" cy="236.77" r="227.9"/><g class="cls-3"><path class="cls-4" d="M216.83-104.57H268.3a0,0,0,0,1,0,0V12.76A25.74,25.74,0,0,1,242.57,38.5h0a25.74,25.74,0,0,1-25.74-25.74V-104.57A0,0,0,0,1,216.83-104.57Z"/></g><g class="cls-5"><path class="cls-6" d="M442.17,108.17,405,190c0,27.18-329.24,27.18-329.24,0L38.64,108.17A6.46,6.46,0,0,1,44.53,99H327.32c-.33.33-.64.69-.95,1-1.39,1.63-2.52,4.28-.93,5.71a4.5,4.5,0,0,0,2.94.8,118.5,118.5,0,0,0,33.06-3.7,8,8,0,0,1,.32,3.74c15.7-1.57,31.34-3.88,46.83-6.91.84,3.08,1.67,6.17,2.5,9.25l24.14-8.86c.69-.26,1.56-.56,2.5-.92A6.47,6.47,0,0,1,442.17,108.17Z"/><path class="cls-7" d="M211.63,338.79H270a0,0,0,0,1,0,0v133A29.18,29.18,0,0,1,240.8,501h0a29.18,29.18,0,0,1-29.18-29.18v-133A0,0,0,0,1,211.63,338.79Z"/><path class="cls-8" d="M211.63,282.5H270a0,0,0,0,1,0,0v133a29.18,29.18,0,0,1-29.18,29.18h0a29.18,29.18,0,0,1-29.18-29.18v-133A0,0,0,0,1,211.63,282.5Z"/><path class="cls-7" d="M340.92,230.11h9.14a18.2,18.2,0,0,1,18.2,18.2V266.6a18.2,18.2,0,0,1-18.2,18.2h-9.14a0,0,0,0,1,0,0V230.11A0,0,0,0,1,340.92,230.11Z"/><path class="cls-9" d="M347,242.28h5.08a10.1,10.1,0,0,1,10.1,10.1v10.15a10.1,10.1,0,0,1-10.1,10.1H347a0,0,0,0,1,0,0V242.28A0,0,0,0,1,347,242.28Z"/><path class="cls-9" d="M134.25,230.11V284.8H131a12.86,12.86,0,0,0-12.84-12.07c-.38,0-.75,0-1.12,0a6.77,6.77,0,0,0,.82-3.26,6.94,6.94,0,0,0-11-5.65V248.31a17.86,17.86,0,0,1,1.06-6.1,12.89,12.89,0,0,0,19-11.29c0-.28,0-.54,0-.81Z"/><path class="cls-7" d="M354.75,268c-.15,12.18-.33,24.55-3.86,36.21a67.75,67.75,0,0,1-2.52,6.95c-.11.28-.23.56-.35.84a179,179,0,0,1-10,19q-10.86,18.81-21.74,37.6c-1.66,2.87-3.32,5.75-5.09,8.58a88.4,88.4,0,0,1-7.8,10.92,62.65,62.65,0,0,1-7,7.08c-25.7,22.16-64.22,18.84-92.38,1.78l-.64-.4c-6.18-3.87-11.4-9-16.19-14.58-2.86-3.32-5.56-6.8-8.24-10.24C168.22,358,149.77,356,142.75,340.05c-1.22-2.77-2.31-5.58-3.3-8.42-.86-2.45-1.64-4.93-2.36-7.43C133.94,313.34,132,302.1,130,291a1,1,0,0,0,0-.17,12.66,12.66,0,0,0,1.1-5.18,12.81,12.81,0,0,0-3.51-8.83,284.18,284.18,0,0,1-4.1-36.93,12.88,12.88,0,0,0,.37-17.44c1.29-16.35,5.28-32.37,9.25-48.29,4.21-16.88,8.51-34,16.43-49.4a6.68,6.68,0,0,0,3.47-1.65c17-15.66,35.34-30,58.47-34.69,26.05-5.34,50.76,8.6,76.09,12.12a9.23,9.23,0,0,0,1.64.08c23.75,17,44,41.79,47.27,70,1.7,14.77-.42,30.33,5.27,44.06,2.31,5.57,5.82,10.57,8.23,16.09C355,242.27,354.91,255.36,354.75,268Z"/><path class="cls-8" d="M243.82,264.06l-.47-8.69c-.71-13.45,6.14-26.3,17.33-34.24,14.34-10.18,27.51-7.93,43.86-5.22a13.45,13.45,0,0,1,5,1.54,16.38,16.38,0,0,1,3.66,3.77c4,4.86,4.79,8.32,9.26,12.82,7,7.05,7.3,16.47,7.79,25.71,1.19,22.48-13.06,41.64-37.78,42.81l-1.77.08C266,303.81,245,286.53,243.82,264.06Z"/><path class="cls-10" d="M252.62,253.78l-.4-7.52a34.85,34.85,0,0,1,14.41-29.62c12-8.8,23-6.83,36.62-4.46a11.17,11.17,0,0,1,4.22,1.34,14.23,14.23,0,0,1,3.06,3.27c3.38,4.22,8,7.22,11.78,11.13,5.85,6.12,6.13,14.27,6.55,22.28,1,19.46-14.87,36-35.52,37l-1.47.07C271.22,288.24,253.65,273.25,252.62,253.78Z"/><path class="cls-11" d="M255.05,253.46l-.37-7a32.57,32.57,0,0,1,13.49-27.72c11.19-8.23,21.49-6.4,34.26-4.17a10.21,10.21,0,0,1,4,1.25,13.46,13.46,0,0,1,2.86,3.06c3.17,3.95,7.53,6.76,11,10.42,5.47,5.72,5.73,13.35,6.13,20.84,1,18.22-13.91,33.72-33.24,34.63l-1.38.06C272.46,285.7,256,271.67,255.05,253.46Z"/><path class="cls-12" d="M288.12,247.83v-.89c0-2.31,1.35-4.22,3-4.28h.12c1.68-.06,3.05,1.77,3.05,4.07v.89c0,2.31-1.35,4.22-3,4.28h-.12C289.49,252,288.13,250.13,288.12,247.83Z"/><rect class="cls-7" x="243.62" y="208.4" width="85.24" height="36.19"/><path class="cls-10" d="M146.61,254a31.86,31.86,0,0,1,4.87-21.87c1.82-2.85,4.35-5.3,5.49-8.49a23.23,23.23,0,0,1,.9-2.54,9.21,9.21,0,0,1,1.45-2c20.59-22.64,66.35-7.7,68,23.39l.41,7.68c1.05,19.84-17.58,36.73-38.63,37.72l-1.51.08C167.8,288.93,149.23,272.72,146.61,254Z"/><path class="cls-11" d="M149.4,253.58a29.68,29.68,0,0,1,4.53-20.35c1.69-2.66,4-4.94,5.11-7.91a19.51,19.51,0,0,1,.85-2.36,8.28,8.28,0,0,1,1.34-1.83C180.4,200.05,223,214,224.54,242.91l.38,7.14c1,18.48-16.36,34.21-36,35.13l-1.41.06C169.13,286.11,151.84,271,149.4,253.58Z"/><rect class="cls-7" x="141.49" y="200.36" width="85.24" height="23.32"/><path class="cls-12" d="M180.54,247.46v-1c0-2.51,1.48-4.6,3.31-4.66H184c1.83-.06,3.32,1.92,3.33,4.44v1c0,2.51-1.47,4.6-3.3,4.66h-.13C182,252,180.54,250,180.54,247.46Z"/><path class="cls-8" d="M348.37,311.17c-.11.28-.23.56-.35.84a179,179,0,0,1-10,19q-10.86,18.81-21.74,37.6c-1.66,2.87-3.32,5.75-5.09,8.58a88.4,88.4,0,0,1-7.8,10.92,62.65,62.65,0,0,1-7,7.08c-6-8.84-7.38-21.89-2.65-32.72l19.51-44.6c6-13.81,19.72-18.77,30.55-11.07A23,23,0,0,1,348.37,311.17Z"/><path class="cls-8" d="M203.34,396.61c-6.18-3.87-11.4-9-16.19-14.58-2.86-3.32-5.56-6.8-8.24-10.24C168.22,358,149.77,356,142.75,340.05c-1.22-2.77-2.31-5.58-3.3-8.42-.86-2.45-1.64-4.93-2.36-7.43a26.07,26.07,0,0,1,6.23-6.86c11.36-8.7,26.77-5.3,34.42,7.61l24.74,41.68A31.44,31.44,0,0,1,203.34,396.61Z"/><path class="cls-13" d="M138,180.39a30.3,30.3,0,0,0-11.25-.45,45.13,45.13,0,0,0-11.21,3.13l-.38-.79a47.29,47.29,0,0,1,11.16-4.51,33.4,33.4,0,0,1,12.31-.86Z"/><path class="cls-13" d="M134.86,192.33a32.2,32.2,0,0,0-7.77-4.24,18.73,18.73,0,0,0-4.31-.87,40.82,40.82,0,0,0-4.57-.09l-.08-.88a44.13,44.13,0,0,1,4.67-.57,19.7,19.7,0,0,1,4.83.28,34.76,34.76,0,0,1,9,3.33Z"/><path class="cls-10" d="M133.6,235.37c5.68-11.78,16.78-20.28,28.87-25.26s26.47-6.53,39.33,2.31c-9.49-4.16-20.68-4.13-30.56-1A43.64,43.64,0,0,0,147.3,230.2a9.27,9.27,0,0,1-2.09,2.7C142.05,235.31,137.2,233.69,133.6,235.37Z"/><path class="cls-8" d="M208.24,367.62s70,0,66.74,8.85"/><rect class="cls-14" x="226.21" y="333.58" width="9.11" height="42.54" rx="4.56" transform="translate(461.54 709.71) rotate(180)"/><rect class="cls-14" x="219.98" y="342.31" width="9.11" height="68.74" rx="4.56" transform="translate(449.07 753.36) rotate(180)"/><path class="cls-15" d="M171.16,141.5h1.6a4.14,4.14,0,0,1,4.14,4.14V198.1a0,0,0,0,1,0,0H167a0,0,0,0,1,0,0V145.64a4.14,4.14,0,0,1,4.14-4.14Z" transform="translate(343.91 339.6) rotate(-180)"/><path class="cls-15" d="M228.25,154.37h1.6A4.14,4.14,0,0,1,234,158.5V211a0,0,0,0,1,0,0h-9.87a0,0,0,0,1,0,0V158.5a4.14,4.14,0,0,1,4.14-4.14Z" transform="translate(458.1 365.34) rotate(-180)"/><path class="cls-15" d="M163.12,148.74h1.6a4.14,4.14,0,0,1,4.14,4.14v34a0,0,0,0,1,0,0H159a0,0,0,0,1,0,0v-34A4.14,4.14,0,0,1,163.12,148.74Z" transform="translate(327.83 335.58) rotate(-180)"/><path class="cls-15" d="M236.29,156h1.6a4.14,4.14,0,0,1,4.14,4.14v34a0,0,0,0,1,0,0h-9.87a0,0,0,0,1,0,0v-34a4.14,4.14,0,0,1,4.14-4.14Z" transform="translate(474.19 350.06) rotate(-180)"/><path class="cls-15" d="M220.21,163.21h1.6a4.14,4.14,0,0,1,4.14,4.14v34a0,0,0,0,1,0,0h-9.87a0,0,0,0,1,0,0v-34a4.14,4.14,0,0,1,4.14-4.14Z" transform="translate(442.02 364.53) rotate(-180)"/><path class="cls-16" d="M341.16,213.23H124.79c1.79-13.19,5-26.19,8.26-39.12,2.17-8.7,4.37-17.46,7.07-26h190a76.3,76.3,0,0,1,6.28,22.44C338.06,184.81,336.14,199.83,341.16,213.23Z"/><path class="cls-17" d="M315.72,169.21a12.17,12.17,0,0,0-3.05-.82,15.93,15.93,0,0,0-2.92-.33,15.49,15.49,0,0,0-3.69.62,12.34,12.34,0,0,0-2.73.91,12.64,12.64,0,0,0-2.35,1.78,5.67,5.67,0,0,0-1.33,1.52,4.77,4.77,0,0,0-.39,2.25,8.6,8.6,0,0,0,.7,3.62,4.43,4.43,0,0,0,2.66,2.43,7.18,7.18,0,0,0,1.79.21l2.83.08a13.82,13.82,0,0,0,5.44-.57,9.46,9.46,0,0,0,3-2,9.26,9.26,0,0,0,2.38-3.27A4.9,4.9,0,0,0,315.72,169.21Z"/><path class="cls-18" d="M237.77,145.35a12,12,0,0,0-.56,8.23c.82.68,1.64,1.32,2.45,1.95,1.92,1.45,3.69,3.31,5.77,4.53l.4.23h0a10.11,10.11,0,0,0,5-1.34c-.12-.3-.25-.61-.37-.93-2.79-7.71-1.66-16.3-.17-19.46C245.49,137.2,240.07,140,237.77,145.35Z"/><path class="cls-18" d="M255.26,154.54a14.73,14.73,0,0,0,.71-1.37A11.46,11.46,0,0,0,255,141.9,26,26,0,0,0,255.26,154.54Z"/><path class="cls-19" d="M250.82,159c2.26,5.5,5.37,11.12,10.74,13.14,8.07,3,12.54.23,16-.86,3-1,6.34-1.28,14,1.06,4,1.21,4.6,1.56,4.86,1.91.12.16.13.36,0,1.4-.8,5.07-.16,9.56,11.1,13.29,8.25,2.74,15.34,1.62,18.91-1.7a6.21,6.21,0,0,0,.56-.59,7.06,7.06,0,0,1-2.86-.24,4.89,4.89,0,0,1-3-2.45c-2.28.78-6,.39-10.73-1.19-5.5-1.82-7.49-3.25-8.2-4.13-.41-.52-.41-.82-.21-2.1.71-4.47-.56-7.57-9.17-10.19-9.37-2.84-13.39-1.57-16.94-.44-2.89.92-4.28,0-10.53-2.36-4.14-1.56-8-2.95-9.58-7.41q-.27-.78-.48-1.56A12.06,12.06,0,0,1,250.82,159Z"/><path class="cls-19" d="M250.45,158c.12.31.24.63.37.94a12.06,12.06,0,0,0,4.44-4.42A26,26,0,0,1,255,141.9a8.92,8.92,0,0,0-3.68-3,8.47,8.47,0,0,0-1.07-.37C248.79,141.72,247.66,150.31,250.45,158Z"/><g class="cls-20"><path class="cls-21" d="M327.93,187.1a12.89,12.89,0,0,0-5.19-6.94"/><path class="cls-21" d="M315.38,190.7a16.43,16.43,0,0,0,.94-7.64"/><path class="cls-21" d="M303.35,187.65c.76-.87,1.53-1.74,2.24-2.66a6,6,0,0,0,1.62-3.89"/><path class="cls-21" d="M296,175.08a14.47,14.47,0,0,0,2.77-.48,7.47,7.47,0,0,0,2.08-.74,2.47,2.47,0,0,0,1.26-1.73"/><path class="cls-21" d="M291,172.17a9.23,9.23,0,0,0,2.45-7.77"/><path class="cls-21" d="M283.24,170.79a13.55,13.55,0,0,0-2.16-7.25"/><path class="cls-21" d="M271.58,173.57a26.5,26.5,0,0,0,1.56-6.55,1.32,1.32,0,0,0-.22-1.09"/><path class="cls-21" d="M259.42,171.82a13.88,13.88,0,0,0,6.5-9.14"/><path class="cls-21" d="M251.5,160.77a13.31,13.31,0,0,0,4.75-4.1"/><path class="cls-21" d="M248.58,150.79l3.35-.47a11,11,0,0,0,3.16-.77"/><path class="cls-21" d="M248.54,143.2a19.53,19.53,0,0,0,6.88,1.07"/></g><path class="cls-22" d="M237.07,37h0a46.74,46.74,0,0,0-46.74,46.74L168,139.32H306.18L283.81,83.74A46.74,46.74,0,0,0,237.07,37Z"/><path class="cls-23" d="M441.36,108l-14.21,31.29L421.42,152l-17.21,37.89c0-35.74-329.22-35.74-329.22,0l-17.4-38.3-6.23-13.73L37.84,108a6.47,6.47,0,0,1,5.88-9.14H327.45c-.37.39-.73.78-1.08,1.19-1.39,1.63-2.52,4.28-.93,5.71a4.5,4.5,0,0,0,2.94.8,118.5,118.5,0,0,0,33.06-3.7,8,8,0,0,1,.32,3.74c15.7-1.57,31.34-3.88,46.83-6.91.84,3.08,1.67,6.17,2.5,9.25l24.14-8.86c.65-.24,1.47-.53,2.36-.87A6.48,6.48,0,0,1,441.36,108Z"/><g class="cls-24"><polygon class="cls-25" points="58.98 194.93 86.22 125.61 147.51 166.78 58.98 194.93"/><polygon class="cls-25" points="405.21 194.93 377.97 125.61 316.68 166.78 405.21 194.93"/><polygon class="cls-25" points="143.13 168.19 189.06 109.56 236.02 166.53 143.13 168.19"/><polygon class="cls-25" points="229.03 168.19 274.96 109.56 321.92 166.53 229.03 168.19"/></g><circle class="cls-26" cx="137.28" cy="127.95" r="7.58"/><path class="cls-26" d="M62.74,144.38a7.57,7.57,0,0,1-5.15,7.17l-6.23-13.73a7.43,7.43,0,0,1,3.81-1A7.57,7.57,0,0,1,62.74,144.38Z"/><circle class="cls-26" cx="232.02" cy="120.37" r="7.58"/><circle class="cls-26" cx="333.08" cy="127.95" r="7.58"/><path class="cls-26" d="M427.15,139.34,421.42,152a7.58,7.58,0,0,1,.09-15.16A7.5,7.5,0,0,1,427.15,139.34Z"/><g class="cls-27"><path class="cls-18" d="M267.85,344.11v.44A10.4,10.4,0,0,1,257.44,355H229.72a10.42,10.42,0,0,1-10.42-10.42v-.44a10.43,10.43,0,0,1,10.42-10.42h27.72A10.42,10.42,0,0,1,267.85,344.11Z"/><path class="cls-15" d="M272.17,357.87c-5.44,7-17.63,4.8-32.23,4.45-12.54-.32-23.72.83-29.4-3.45,6.17-11,18.88-18.53,32.92-18.18C256.43,341,267.17,347.93,272.17,357.87Z"/></g><path class="cls-17" d="M332.61,181.36a7.71,7.71,0,0,0-1.7-1.18,9.62,9.62,0,0,0-1.73-.86,10.51,10.51,0,0,0-2.43-.44,7.47,7.47,0,0,0-1.89,0,8.08,8.08,0,0,0-1.85.57,3.69,3.69,0,0,0-1.16.65,3,3,0,0,0-.74,1.3,5.79,5.79,0,0,0-.38,2.4,2.94,2.94,0,0,0,1.11,2.1,4.54,4.54,0,0,0,1.06.52l1.73.68a9.1,9.1,0,0,0,3.49.86,6.28,6.28,0,0,0,2.33-.57,6,6,0,0,0,2.2-1.49A3.21,3.21,0,0,0,332.61,181.36Z"/><path class="cls-17" d="M330.83,190.12a6.34,6.34,0,0,1-2.32.61,9,9,0,0,1-3.51-.79l-1.74-.65a5,5,0,0,1-1.07-.5,3,3,0,0,1-1.15-2.08,5.1,5.1,0,0,1,.16-1.82,3.19,3.19,0,0,0,0,.69,2.9,2.9,0,0,0,1.14,2.08,5.25,5.25,0,0,0,1.07.51l1.74.64a9.06,9.06,0,0,0,3.51.8A6.25,6.25,0,0,0,331,189a6,6,0,0,0,2.18-1.53,3.41,3.41,0,0,0,.67-1.2,3.44,3.44,0,0,1-.85,2.32A6.06,6.06,0,0,1,330.83,190.12Z"/><path class="cls-18" d="M261.29,256.79v44.42a20.25,20.25,0,0,1-.74,5.48c-.12-1.7-6.72,7.9-3.58,7.13a20.57,20.57,0,0,1-32.43.11c1.39-2.6-3.81-10.12-4-8.92a19.9,19.9,0,0,1-.36-3.8V256.79a20.58,20.58,0,1,1,41.16,0Z"/><path class="cls-9" d="M261.29,256.79v44.42a20.25,20.25,0,0,1-.74,5.48,15,15,0,0,0-1.47-5.34c-2.46-5.22-7.07-8.22-10.27-6.71s-3.82,7-1.35,12.21c2.27,4.81,6.37,7.74,9.51,7a20.57,20.57,0,0,1-32.43.11c3,.22,6.7-2.62,8.81-7.08,2.47-5.23,1.87-10.69-1.35-12.21s-7.82,1.49-10.28,6.71a15.94,15.94,0,0,0-1.23,3.66,19.9,19.9,0,0,1-.36-3.8V256.79a20.58,20.58,0,1,1,41.16,0Z"/><path class="cls-28" d="M310.92,332.07c-12.79,1.26-35.7,3.09-65.4,3.18a695.75,695.75,0,0,1-70-3.18c14.59-2.31,29.18-11.79,43.77-18.2a62.8,62.8,0,0,0,21.62,4.4,65,65,0,0,0,26.23-4.4C281.74,320.28,296.32,329.76,310.92,332.07Z"/></g></svg>