<svg id="Layer_1" data-name="Layer 1" xmlns="http://www.w3.org/2000/svg" xmlns:xlink="http://www.w3.org/1999/xlink" viewBox="0 0 480 480"><defs><style>.cls-1,.cls-14,.cls-16,.cls-4{fill:none;}.cls-2{fill:#d9e021;}.cls-3{clip-path:url(#clip-path);}.cls-4{stroke:#a83124;stroke-linecap:round;stroke-width:7.42px;}.cls-14,.cls-16,.cls-4{stroke-miterlimit:10;}.cls-5{fill:#49352d;}.cls-6{fill:#a8d371;}.cls-7{fill:#56723b;}.cls-8{fill:#7ebb6c;}.cls-9{fill:#212b28;}.cls-10{fill:#517846;}.cls-11{fill:#f2f2f2;}.cls-12{fill:#e8cc00;}.cls-13{fill:#56903b;}.cls-14{stroke:#75998c;stroke-width:3.71px;}.cls-15{fill:#333;}.cls-16{stroke:#49352d;stroke-width:0.74px;}</style><clipPath id="clip-path"><circle class="cls-1" cx="240" cy="240" r="227.9"/></clipPath></defs><title>Artboard 12</title><circle class="cls-2" cx="241.16" cy="236.77" r="227.9"/><g class="cls-3"><path class="cls-4" d="M310.19,174.73c1.91-1.43,4.66-2.09,6.8-3.1a7.89,7.89,0,0,0,3.13-1.92c1.27-1.66,1.7-4.52,2.5-6.46a14.66,14.66,0,0,1,3.88-5.85,15.41,15.41,0,0,1,3.75-2.17c.84-.37,1.69-.72,2.55-1"/><path class="cls-5" d="M364.21,214.67A113.43,113.43,0,0,1,251,320.84H219A113.42,113.42,0,0,1,105.6,207.42v-32q0-4.57.36-9.08a105.62,105.62,0,0,1,25.45-28.85c3.53-2.75,7.7-6.74,6-10.88-1-2.48-3.93-3.87-4.73-6.43-1.25-4.06,3.53-7.44,7.73-8.12s9-.38,12-3.36A26.61,26.61,0,0,0,138.13,101a33.58,33.58,0,0,1,27.11-8.74,29.3,29.3,0,0,0-13.75-8A112.88,112.88,0,0,1,219,62h32a114.19,114.19,0,0,1,11.6.59,49.15,49.15,0,0,1,2.65,20.63c-.68,9.77-6.49,20.25-13.34,26.19a32.48,32.48,0,0,1-6,4.13c5.11,7.27,14.85,10.22,22.51,6.47.74,6.35,1.54,12.89,4.4,18.45s8.35,9.95,14.08,9.17c2.11-.29,4.26-1.24,6.3-.57,3.1,1,4.32,5.13,6.75,7.51,3.83,3.74,11.14,3.77,12.12,9.33.39,2.26-.58,4.5-1,6.75-1.61,8.17,3.87,16,9.84,21.08s13,9.24,16.84,16.44c1.11,2.08,2,4.47,3.87,5.7,1.52,1,3.38,1,5.14,1Z"/><path class="cls-6" d="M236.39,348.39h0A26.91,26.91,0,0,1,263.3,375.3V498a0,0,0,0,1,0,0H209.48a0,0,0,0,1,0,0V375.3A26.91,26.91,0,0,1,236.39,348.39Z" transform="translate(472.79 846.39) rotate(180)"/><path class="cls-7" d="M236.39,296.47h0a26.91,26.91,0,0,1,26.91,26.91v122.7a0,0,0,0,1,0,0H209.48a0,0,0,0,1,0,0V323.39A26.91,26.91,0,0,1,236.39,296.47Z" transform="translate(472.79 742.56) rotate(180)"/><path class="cls-8" d="M125.26,295.31h5a20.48,20.48,0,0,0,20.48-20.48V228.91a20.48,20.48,0,0,0-20.48-20.48h-5a20.48,20.48,0,0,0-20.48,20.48v45.92C95.52,284.08,116,304.56,125.26,295.31Z"/><path class="cls-8" d="M349.24,295.31h5c10.45,10.44,30.93-10,20.48-20.48V228.91a20.48,20.48,0,0,0-20.48-20.48h-5a20.48,20.48,0,0,0-20.48,20.48v45.92A20.48,20.48,0,0,0,349.24,295.31Z"/><path class="cls-6" d="M351.67,266.64v-55a109.44,109.44,0,0,0-1.1-15.57l-9.75.09a7.44,7.44,0,0,1-3.92-.68c-1.43-.84-2.12-2.49-3-3.91-2.92-5-8.3-7.8-12.86-11.31s-8.74-8.88-7.51-14.5c.34-1.55,1.08-3.09.78-4.64-.75-3.83-6.33-3.85-9.26-6.42-1.85-1.63-2.78-4.46-5.14-5.17-1.56-.45-3.2.21-4.82.41-4.37.53-8.55-2.5-10.74-6.32s-2.8-8.32-3.36-12.69a14.87,14.87,0,0,1-17.18-4.45,25.38,25.38,0,0,0,4.57-2.84,27.48,27.48,0,0,0,5.09-5.32c-6.46.33-12.94.34-19.41.34-4.15,0-7.1-4.8-6.65-8.51a9.72,9.72,0,0,1,.26-1.24H225.28c-53,0-96,46-96,102.73q0,35.52,0,71c0,14.13,7.2,23.37,12,36.19.35.94.7,1.91,1,2.9,3.47,10.46,6.18,22.23,11.42,32.09l1.13,2,17.19,16.39a29.32,29.32,0,0,1,3.75,2.84c5.4,5,7.79,12.68,12.16,18.69,6.55,9,17,13.55,27.23,16.83A129.17,129.17,0,0,0,238.67,416c11.51,1.42,23.09.81,34-3.24,6.66-2.48,13.1-6.39,17.27-12.47,3.32-4.83,5.06-10.79,8.7-15.34s8.7-7.18,13-10.81a47.07,47.07,0,0,0,4.55-4.38,116.24,116.24,0,0,0,10.45-14L341,334.28l.31-.48C354.22,314,351.67,289.57,351.67,266.64Z"/><circle class="cls-9" cx="241.58" cy="348.28" r="39.72"/><path class="cls-6" d="M279.13,328.55c2.85-3,5.84-2.9,8.79-2.76a3.9,3.9,0,0,1,3.35,1.45c.7.87,1.35,2.26,2.08,2.65,1.88,1,4-4.69,5.53-.46a36.48,36.48,0,0,1,1.21,7.79,110.74,110.74,0,0,1,.61,16.23c-.59,9.68-3.43,14.55-6,16.75-4.37,3.77-8.91,3.85-13.37,2.53-2.56-.76-5.42-2.66-6.89-10.67-1.41-7.77-2.63-13.6-.81-21.39C275.06,334.63,277.11,330.69,279.13,328.55Z"/><path class="cls-6" d="M191.62,331.51c2.84-3,5.83-2.9,8.78-2.76a3.94,3.94,0,0,1,3.35,1.46c.7.86,1.36,2.26,2.08,2.65,1.88,1,4-4.69,5.54-.46a37.09,37.09,0,0,1,1.2,7.79,109.37,109.37,0,0,1,.61,16.23c-.59,9.68-3.43,14.55-6,16.75-4.38,3.76-8.91,3.85-13.38,2.53-2.56-.76-5.42-2.66-6.88-10.67-1.42-7.77-2.64-13.61-.82-21.39C187.54,337.6,189.59,333.65,191.62,331.51Z"/><path class="cls-6" d="M285.69,332.43c-2.94-6.3-8.15-10.12-13.13-13.67-8.28-5.89-16.79-11.89-26.14-13.66-10.26-2-20.78,1.4-30.15,7.15-8.23,5-18.74,11.56-23.84,20,3.08,1.93,9.73,1.44,13.39,1.45a58.26,58.26,0,0,0,14.05-1.61c3.15-.78,6.22-1.86,9.41-2.43,10.82-1.94,21.84,2.15,32.83,1.69a94.46,94.46,0,0,1,13.79.53C277.69,332.05,284.69,330.29,285.69,332.43Z"/><rect class="cls-10" x="225.2" y="242.66" width="37.96" height="71.82" rx="16.93" transform="translate(488.36 557.14) rotate(180)"/><rect class="cls-6" x="202.21" y="221.89" width="37.96" height="71.82" rx="16.93" transform="translate(442.38 515.6) rotate(180)"/><rect class="cls-6" x="265.18" y="281.03" width="23.28" height="44.04" rx="10.38" transform="translate(579.86 26.23) rotate(90)"/><path class="cls-7" d="M187.93,291.45l1.41.07a35.78,35.78,0,0,0,37.51-33.95l.21-4.22H154l0,.59A35.78,35.78,0,0,0,187.93,291.45Z"/><path class="cls-11" d="M188.38,279.2l1.17.06a29.46,29.46,0,0,0,30.89-28l.17-3.48c0-41.62-60.16-41.62-60.16,0l0,.49A29.45,29.45,0,0,0,188.38,279.2Z"/><path class="cls-12" d="M250.11,387.6V376.2a4,4,0,0,1,4-4.05h6.27a4,4,0,0,1,4.05,4.05v11.34c-1.25,0-2.52,0-3.85-.06a63.54,63.54,0,0,0-10.48.6A2.48,2.48,0,0,1,250.11,387.6Z"/><path class="cls-12" d="M234.53,389.09v-11.4a4,4,0,0,1,4-4.05h6.28a4,4,0,0,1,4,4.05v10.55a118.19,118.19,0,0,1-14.31,1.45A4,4,0,0,1,234.53,389.09Z"/><path class="cls-12" d="M219,386.89v-8.46a4,4,0,0,1,4-4.05h6.27a4,4,0,0,1,4,4.05v11.26a35.29,35.29,0,0,1-5.51-.51C224.8,388.64,221.91,387.65,219,386.89Z"/><rect class="cls-9" x="284.38" y="161.02" width="7.86" height="10.38" rx="3.93" transform="translate(621.1 166.03) rotate(150.01)"/><path class="cls-9" d="M316.56,197.58h0a4.66,4.66,0,0,0,6.74-.11l2.13-2.27a5.05,5.05,0,0,0-.11-7h0a4.66,4.66,0,0,0-6.74.11l-2.12,2.27A5.05,5.05,0,0,0,316.56,197.58Z"/><path class="cls-6" d="M307.66,199.8h0a4.65,4.65,0,0,0,6.74-.11l2.13-2.26a5.05,5.05,0,0,0-.11-7h0a4.65,4.65,0,0,0-6.74.11l-2.12,2.26A5.05,5.05,0,0,0,307.66,199.8Z"/><path class="cls-6" d="M292.09,173.1h0a4.65,4.65,0,0,0,6.74-.11l2.12-2.26a5.05,5.05,0,0,0-.1-7h0a4.65,4.65,0,0,0-6.74.11L292,166.13A5.05,5.05,0,0,0,292.09,173.1Z"/><path class="cls-4" d="M282.85,148c3,1.35,4.57,4.67,5.07,7.9s.14,6.51.4,9.76"/><path class="cls-4" d="M321.31,193.28c1.05-.79,8.68-3.57,10.23-5a22.16,22.16,0,0,0,6.7-13.2"/><path class="cls-13" d="M141.34,318.85c.36.94.7,1.91,1,2.9,3.47,10.46,6.18,22.23,11.42,32.09l1.13,2,17.19,16.39a18.63,18.63,0,0,0,12.1-2.1,18.64,18.64,0,0,0,7.2-25.35l-16.17-29a18.62,18.62,0,0,0-33.89,3Z"/><path class="cls-13" d="M294.93,370.08a18.62,18.62,0,0,0,21.29-.31,116.24,116.24,0,0,0,10.45-14L341,334.28l.31-.48a18.63,18.63,0,0,0-32.82-17.12l-18.58,27.54A18.63,18.63,0,0,0,294.93,370.08Z"/><path class="cls-14" d="M208.56,389.4A61.11,61.11,0,0,0,229,400.7"/><ellipse class="cls-9" cx="190.61" cy="249.74" rx="5.2" ry="2.77" transform="translate(-82.68 404.72) rotate(-82.2)"/><ellipse class="cls-9" cx="298.9" cy="249.74" rx="5.2" ry="2.77" transform="translate(10.92 512) rotate(-82.2)"/><path class="cls-7" d="M297,291.12l1.42.07a35.76,35.76,0,0,0,37.5-33.94l.21-4.22h-73l0,.59A35.75,35.75,0,0,0,297,291.12Z"/><path class="cls-15" d="M174.58,300.24a29.3,29.3,0,0,1,17.1-26.39c-6.72,5.31-16.15,15-11.13,22.73,3.54,5.48,11.73,11.64,19.26,18.72a6.69,6.69,0,0,1,5.31-2.61h26.15a4.75,4.75,0,0,1,4.75,4.75V325a4.75,4.75,0,0,1-4.68,4.75l-.36,0H205.44c-.6,0-1.21.06-1.82.05s-.91,0-1.36-.05H201a6.39,6.39,0,0,1-2.19-.39A29.29,29.29,0,0,1,174.58,300.24Z"/><path class="cls-15" d="M307.1,300.24A29.29,29.29,0,0,0,290,273.85c6.71,5.31,16.15,15,11.13,22.73-3.55,5.48-11.74,11.64-19.26,18.72a6.7,6.7,0,0,0-5.32-2.61H250.41a4.75,4.75,0,0,0-4.75,4.75V325a4.76,4.76,0,0,0,4.69,4.75c.12,0,.23,0,.35,0h25.55c.6,0,1.2.06,1.81.05.46,0,.92,0,1.37-.05h1.23a6.35,6.35,0,0,0,2.19-.39A29.28,29.28,0,0,0,307.1,300.24Z"/><rect class="cls-6" x="290.27" y="242.97" width="14.09" height="5.19"/><path class="cls-5" d="M129.33,108.73H202a0,0,0,0,1,0,0v30.41a72.68,72.68,0,0,1-72.68,72.68h0a0,0,0,0,1,0,0V108.73A0,0,0,0,1,129.33,108.73Z"/><path class="cls-5" d="M278.41,119.37V133a17.26,17.26,0,0,1-17.25,17.25H248a72.69,72.69,0,0,1-72.69-72.68h84.21q3.9,4.74,7.79,9.5l-7.94-4.2a160.23,160.23,0,0,1,13.57,18.18,19.45,19.45,0,0,0-20.31,11C261.68,109.57,271.85,112.74,278.41,119.37Z"/><path class="cls-16" d="M304.62,162.52A35.73,35.73,0,0,1,322.94,138"/><path class="cls-16" d="M306.71,163a21,21,0,0,1,12-8.29"/><path class="cls-16" d="M310.9,167.75a14,14,0,0,1,12.79-5.84"/></g></svg>