<svg id="Layer_1" data-name="Layer 1" xmlns="http://www.w3.org/2000/svg" xmlns:xlink="http://www.w3.org/1999/xlink" viewBox="0 0 480 480"><defs><style>.cls-1,.cls-21{fill:none;}.cls-2{fill:#d9e021;}.cls-3{clip-path:url(#clip-path);}.cls-4{fill:#927d87;}.cls-5{clip-path:url(#clip-path-2);}.cls-6{fill:#a76f76;}.cls-7{fill:#b89b5b;}.cls-8{fill:#a58b50;}.cls-9{fill:#212b28;}.cls-10{fill:#e7461b;}.cls-11{fill:#d2838e;}.cls-12{fill:#333;}.cls-13{fill:#f2f2f2;}.cls-14{fill:#fff;}.cls-15{fill:#080a08;}.cls-16{fill:#a19b94;}.cls-17{fill:#6d5a40;}.cls-18{fill:#8ec762;}.cls-19{fill:#a83124;}.cls-20{clip-path:url(#clip-path-3);}.cls-21{stroke:#333;stroke-miterlimit:10;stroke-width:0.36px;}</style><clipPath id="clip-path"><circle class="cls-1" cx="240" cy="-260" r="227.9"/></clipPath><clipPath id="clip-path-2"><circle class="cls-1" cx="240" cy="240" r="227.9"/></clipPath><clipPath id="clip-path-3"><path class="cls-1" d="M321.49,186.38a8.23,8.23,0,0,1-.89-.45,7.91,7.91,0,0,1-2.91-3,23.08,23.08,0,0,0,1.22-11.15,14.08,14.08,0,0,0-.25-1.42c-.92-4.11-4.11-5.77-7.59-7.61-5.23-2.77-6.35-3.75-9-3.26-3.25.59-6.93,1.26-14.86-2.31-7.28-3.27-8-6.15-6.92-10,.33-1.1.36-1.37.06-1.86-.52-.87-2.12-2.35-6.74-4.57-4-1.93-7.23-2.69-9.32-2.26a3.48,3.48,0,0,0-1.4.58c-1.78,1.27-1.84,4.27-1.81,5.33a7.08,7.08,0,0,1-5,.44c-.09-1.61-.05-6.49,3.32-9.39.18-.15.35-.31.55-.45,3.52-2.51,9.89-2.7,16.84.64,9.49,4.55,9.55,8.58,8.27,12.95-.27.9-.28,1.07-.2,1.23.2.34.68.71,4.06,2.23,6.51,2.93,9.45,3,12.22,2.52,3.17-.58,7.42-2.53,14.18,1.05,4.5,2.38,6.6,7.68,8,12.78.07.28.15.58.22.87C325.13,176.34,323.16,183.76,321.49,186.38Z"/></clipPath></defs><title>Artboard 7</title><circle class="cls-2" cx="241.16" cy="236.77" r="227.9"/><g class="cls-3"><path class="cls-4" d="M212.62-157.39h61.09a0,0,0,0,1,0,0v139.1A22.74,22.74,0,0,1,251,4.46h-15.6a22.74,22.74,0,0,1-22.74-22.74v-139.1A0,0,0,0,1,212.62-157.39Z"/></g><g class="cls-5"><path class="cls-6" d="M104.62,363c-2.76-14.88-4-32.21-4-51.18,0-.53,0-1.05,0-1.58.06-44.79,6.57-98.49,14.73-150.72A101.07,101.07,0,0,1,216.4,58.46h56.13a101.11,101.11,0,0,1,99.47,83c.55,3.1,1,6.24,1.24,9.42q.36,4.26.36,8.62c6.29,35.67,11.13,70.32,13.14,103q.61,10,.86,19.7c-4.94-6-11.16-13.65-11.16-17.29L376,283.62,372.88,282c-4.42,5.85-.21,13.95,1.91,21a35,35,0,0,1-6.35,31.81c-1.92,2.33-4.18,4.48-5.31,7.26a21.17,21.17,0,0,0-1.06,7.65q-.19,13.65-.38,27.32-8-5.1-16.08-10.18-9.47,11.34-18.7,22.88l-148.66,6c-2.95-13.85-19.61-31.95-26-38.7q1.17,8.13,2.34,16.25l-17.91-16.2a8,8,0,0,1-9.18,2.41c-.17,3.81-.33,7.62-.5,11.42l-13.52-4.75-8.76-3.08"/><path class="cls-7" d="M243.92,339.06h0a25.89,25.89,0,0,1,25.89,25.89V483a0,0,0,0,1,0,0H218a0,0,0,0,1,0,0v-118A25.89,25.89,0,0,1,243.92,339.06Z" transform="translate(487.84 822.05) rotate(180)"/><path class="cls-8" d="M243.92,289.11h0A25.89,25.89,0,0,1,269.81,315V433a0,0,0,0,1,0,0H218a0,0,0,0,1,0,0V315A25.89,25.89,0,0,1,243.92,289.11Z" transform="translate(487.84 722.15) rotate(180)"/><path class="cls-8" d="M356.4,223.83c3.66.19,5.31,4.59,6.07,8.17l1.55,7.3c1.37,6.47,2.74,13,2.43,19.63s-2.5,13.37-7.3,17.91c-1.77,1.67-4,3.06-6.47,2.9-4.51-.28-7-5.69-6.55-10.17s2.92-8.52,4.11-12.88c2.1-7.72-.49-14.28-1.54-21.8C348.08,230.42,350.46,223.52,356.4,223.83Z"/><path class="cls-8" d="M134.14,227.22c-3.66.16-5.34,4.55-6.12,8.13l-1.6,7.29c-1.41,6.46-2.83,13-2.57,19.61s2.42,13.39,7.19,18c1.76,1.68,4,3.08,6.46,2.94,4.5-.25,7.07-5.64,6.61-10.13s-2.87-8.53-4-12.9c-2.05-7.73.58-14.27,1.67-21.8C142.41,233.86,140.08,227,134.14,227.22Z"/><path class="cls-7" d="M351.61,189.49q0,30.62,0,61.23v7.09c0,11.84-6.23,23.07-10.73,33.68-5.37,12.69-8.15,26.65-14.2,39-8.32,17-25.18,28.81-32.4,46.27-1.91,4.62-3.14,9.61-6,13.7-4.46,6.41-12.22,9.64-19.78,11.62-23.25,6.08-50,2.44-67.81-13.69-7.62-6.88-13.3-15.67-18-24.79-2.76-5.32-5.37-11-10.07-14.73-1.54-1.2-3.31-2.25-4.25-4-1.31-2.44-.52-5.43-.82-8.17-.38-3.35-2.37-6.27-4.3-9-8.43-12-19.44-23.83-23.07-38.29-3.29-13.09-2.77-26.73-2.55-40.17,0-2.29.07-4.57.07-6.85V189.49c0-54.59,41.33-98.83,92.33-98.83h29.26C310.27,90.66,351.61,134.9,351.61,189.49Z"/><path class="cls-9" d="M329.14,217.66s-52.32-32.82-55.88-20"/><path class="cls-9" d="M159.58,217.66s52.31-32.82,55.88-20"/><rect class="cls-10" x="174.77" y="115.15" width="5.07" height="61.22" rx="2.53" transform="translate(301.52 -47.24) rotate(83.34)"/><rect class="cls-10" x="184.83" y="126.97" width="5.07" height="61.22" rx="2.53" transform="translate(325.57 -44.5) rotate(84.31)"/><path class="cls-11" d="M387,264.27c-.1-.6-.19-1.19-.29-1.79q-.84-5.12-1.72-10.24a104.65,104.65,0,0,0-41.74-84.09c-10.95-17.52-26.64-32-45.8-39.29a91,91,0,0,0-68.32,1.73,29.06,29.06,0,0,0-14.75-2.38c-21.79,1.62-39.28,18.55-45.15,39.38a104.59,104.59,0,0,0-42.5,84.65c-5.86,38.5-10.86,77.79-13.24,113.9l-8.76-3.08c-2.75-14.91-4-32.25-4.14-51.23,0-.53,0-1.05,0-1.58-.14-46.46,6.43-102.57,14.73-157.1A106,106,0,0,1,132,96c5-7.77,10.84-13.82,17.57-20s11.3-12.75,21.32-14a26.71,26.71,0,0,0,5.37-.84c4.26-1.43,7.12-6,11.55-6.69,2.52-.42,5.05.51,7.53,1.16a35.94,35.94,0,0,0,15.68.56c4.29-.81,8.43-2.4,12.79-2.72,3.27-.24,6.56.24,9.85.28,7.76.08,15.19-2.35,22.74-3.8,6.77-1.29,13.18-1,20-.65a101.26,101.26,0,0,1,69.1,32,104.53,104.53,0,0,1,20.69,32.83c3.65,9.24,4.67,18.16,5.77,27.35.37,3.1.75,6.24,1.24,9.42.11.74.23,1.49.36,2.24C380.22,191.75,385.24,229.19,387,264.27Z"/><path class="cls-12" d="M132.94,82.07H353.11a10.23,10.23,0,0,1,10.23,10.23v15.2a10.23,10.23,0,0,1-10.23,10.23H121.86a10.23,10.23,0,0,1-10.23-10.23v-4.12A21.31,21.31,0,0,1,132.94,82.07Z" transform="translate(-9.04 25.05) rotate(-5.92)"/><path class="cls-12" d="M351.61,250.72v7.09c0,11.84-6.23,23.07-10.73,33.68-5.37,12.69-8.15,26.65-14.2,39-7.14,14.57-20.15,25.08-28.59,38.8-9.24,15-3.3,40,.43,56.39,1.78,7.78,4,16.25.59,23.46-.53,1.1-1.32,2.25-2.52,2.45a3.73,3.73,0,0,1-2.7-.93c-8.62-6.37-7.09-21.88-16.69-26.66-8-4-18.14,2.66-26.43-.73-2.77-1.13-5-3.3-7.72-4.6-8.35-4-18.52,1.26-24.26,8.55s-8.78,16.37-14.16,23.93c-6.62-5.36-7.86-14.84-8.19-23.35-.43-11.22-.15-22.52-1.87-33.62a69.71,69.71,0,0,0-8.95-24.81c-4-6.81-6.59-15.42-13-20.5-1.54-1.2-3.31-2.25-4.25-4-1.31-2.44-.52-5.43-.82-8.17-.38-3.35-2.37-6.27-4.3-9-8.43-12-19.44-23.83-23.07-38.29-3.29-13.09-2.77-26.73-2.55-40.17a48.84,48.84,0,0,1,24.21,18.27L181.75,296a48.85,48.85,0,0,1,25.78-7.29H297.6a49,49,0,0,1,16.72,2.91l16.84-24.08A48.9,48.9,0,0,1,351.61,250.72Z"/><path class="cls-7" d="M161.66,280.33c3.36,3.09,7.77,6.34,7.4,10.89-.12,1.49-.78,2.89-1,4.37-.73,5.88,5.6,9.75,9.88,13.83,5.16,4.9,8,11.7,12,17.59a51.14,51.14,0,0,0,18.33,16.46,36.69,36.69,0,0,1-5.89-27.82c.72-3.67,1.86-7.95-.6-10.76-1.47-1.7-3.86-2.28-5.58-3.73-3.66-3.06-3.21-8.76-2.06-13.39s2.59-9.83.11-13.91c-1.22-2-3.24-3.39-5.19-4.71l-18.64-12.59c-7.1-4.79-16.27-12.14-19.12-1.8C149,263.13,155.88,275,161.66,280.33Z"/><path class="cls-7" d="M324.45,280.33c-3.35,3.09-7.77,6.34-7.4,10.89.13,1.49.79,2.89,1,4.37.72,5.88-5.6,9.75-9.89,13.83-5.15,4.9-8,11.7-11.95,17.59a51.14,51.14,0,0,1-18.33,16.46,36.73,36.73,0,0,0,5.89-27.82c-.72-3.67-1.86-7.95.59-10.76,1.48-1.7,3.87-2.28,5.59-3.73,3.65-3.06,3.2-8.76,2.06-13.39s-2.6-9.83-.12-13.91a16.64,16.64,0,0,1,5.19-4.71q9.33-6.28,18.64-12.59c7.1-4.79,16.27-12.14,19.12-1.8C337.12,263.13,330.23,275,324.45,280.33Z"/><path class="cls-7" d="M263.37,343.1a6.13,6.13,0,0,0,1.13-1.21c1.15-1.61,1.18-3.52,1.19-5.34,0-8.21.12-9.26,6.16-16.41a11.48,11.48,0,0,0,2.28-11.47,7.52,7.52,0,0,0-3.46-4.2c-2.19-1.18-5.08-1.25-7.78-1.28q-23.13-.24-46.28,0c-1.7,0-3.69.16-4.59,1.23a3,3,0,0,0-.46,2.27c.76,11.15,1,22.39,6.81,32.83,6.38,11.42,21.75,9.52,36,6.86C257.63,345.76,261.18,344.92,263.37,343.1Z"/><rect class="cls-13" x="260.34" y="214.35" width="74.68" height="68.81" rx="33.74" transform="translate(531.28 -60.96) rotate(87.14)"/><rect class="cls-13" x="154.74" y="214.35" width="74.68" height="68.81" rx="33.74" transform="translate(430.95 44.51) rotate(87.14)"/><path class="cls-14" d="M104.62,363l.14.05"/><path class="cls-15" d="M272.66,333.1a19.31,19.31,0,0,1-.86,4.53A11.13,11.13,0,0,1,270,341c-4.82,6.24-15.64,4.26-28.59,3.94-11.13-.28-21,.74-26.09-3.06a8.17,8.17,0,0,1-2.27-2.64,13.65,13.65,0,0,1-1.16-7.65,27.94,27.94,0,0,1,7.52-16.73,33.2,33.2,0,0,1,25.12-10.52,29.93,29.93,0,0,1,20.58,8.5A25.42,25.42,0,0,1,272.66,333.1Z"/><path class="cls-16" d="M265.15,312.85c-6.09,6.62-13.4-2.9-23.29-3.14-8.26-.2-17.34,10.23-22.41,5.16a33.2,33.2,0,0,1,25.12-10.52A29.93,29.93,0,0,1,265.15,312.85Z"/><path class="cls-15" d="M229.77,311.47a1.79,1.79,0,0,1-.07-.56c0-.23-1.5-2.42-1.4-2.63.54-1,3-1.09,3.57-2.14.5.57.17,2.37.22,3.13a12.19,12.19,0,0,0,.62,3.1,2.35,2.35,0,0,1,.18,1.73C231.24,317.58,229.77,313.27,229.77,311.47Z"/><path class="cls-15" d="M245.06,308.61a1.72,1.72,0,0,0,.06-.55c0-.24.42-3.14.31-3.35-.54-1-.71,0-2.15-.45a3.5,3.5,0,0,0-.55,2.15,12.17,12.17,0,0,1-.62,3.11,2.34,2.34,0,0,0-.17,1.73C243.58,314.73,245.06,310.42,245.06,308.61Z"/><path class="cls-15" d="M257.19,310.75a1.72,1.72,0,0,0,.06-.55c0-.24.41-2.43.31-2.64-.54-1-1.43-.71-2.15-1.16a3.52,3.52,0,0,0-.55,2.16,12.19,12.19,0,0,1-.62,3.1,2.34,2.34,0,0,0-.17,1.73C255.71,316.87,257.19,312.56,257.19,310.75Z"/><rect class="cls-17" x="226.73" y="218.79" width="36.52" height="75.93" rx="18.26" transform="translate(489.98 513.51) rotate(180)"/><ellipse class="cls-7" cx="258.52" cy="280.46" rx="6.98" ry="11.34" transform="translate(-95 137.23) rotate(-25.28)"/><ellipse class="cls-7" cx="230.59" cy="280.46" rx="11.34" ry="6.98" transform="translate(-121.47 369.22) rotate(-64.72)"/><ellipse class="cls-15" cx="256.13" cy="279.02" rx="5.71" ry="9.28" transform="translate(-94.62 136.08) rotate(-25.28)"/><ellipse class="cls-15" cx="233.3" cy="279.02" rx="9.28" ry="5.71" transform="translate(-118.63 370.85) rotate(-64.72)"/><path class="cls-18" d="M265.54,338.27c-4.72,3.38-11.42-.21-17.07,1.14-1.39.34-2.7,1-4.09,1.33-5.77,1.5-12.18-1.86-17.71.36-2.32,1.66-1.49,6,1.27,6.7a19.63,19.63,0,0,0,2.77.2c2.21.21,4.13,1.55,6.24,2.25,4.82,1.58,10-.36,15.11-.4,2.64,0,5.27.48,7.92.44a19.49,19.49,0,0,0,13.27-5.61,9.58,9.58,0,0,0,2.43-3.58c.8-2.31.16-9.09-3.11-9.61C269.77,331,267.61,336.78,265.54,338.27Z"/><path class="cls-18" d="M280.9,366.64a14.77,14.77,0,0,0,.44,8.14,34.66,34.66,0,0,1,1.48,4.74,5.39,5.39,0,0,1-1.13,4.65c-1.15,1.19-3.38,1.34-4.37,0a4.51,4.51,0,0,1-.64-2.62c-.25-9.89,2.93-19.51,6.25-28.84,1.89-5.32,5.13-1.2,3.44,2.83C284.79,359.34,281.93,362.64,280.9,366.64Z"/><path class="cls-18" d="M191.66,370.06a57.1,57.1,0,0,1,3.85,11.77l4.11,16.53a8.38,8.38,0,0,1,.29,4.4c-.43,1.42-2,2.63-3.38,2.13a51.88,51.88,0,0,0-.41-9.57c-.73-4.33-2.53-8.39-4.32-12.4l-4.55-10.21c-1.33-3-4.32-7.26-4.59-10.51-.28-3.57,1.56-2,3.17-.26A34.37,34.37,0,0,1,191.66,370.06Z"/><path class="cls-15" d="M261.09,144.37a6.46,6.46,0,0,0,2.4-1.89,4.26,4.26,0,0,0,.8-4,3.62,3.62,0,0,0-1.4.57C261.11,140.3,261.05,143.31,261.09,144.37Z"/><path class="cls-15" d="M259.43,135.43a7.08,7.08,0,0,0-5.67,2.59,4.1,4.1,0,0,0,1.58,6.51,7.08,7.08,0,0,0,.77.28C256,143.2,256.06,138.32,259.43,135.43Z"/><path class="cls-7" d="M256.11,144.81a4.39,4.39,0,0,0,0,.53,2.5,2.5,0,1,0,5-.59,3.18,3.18,0,0,1,0-.38A7.11,7.11,0,0,1,256.11,144.81Z"/><path class="cls-15" d="M330.8,168.78a8.35,8.35,0,0,0-7.48-.41c.08.28.15.57.22.87,1.59,7.1-.38,14.53-2.05,17.13,4.06,1.75,9.15-.14,11.77-4.55C336.08,177.08,335,171.24,330.8,168.78Z"/><path class="cls-15" d="M318.92,171.75a9.85,9.85,0,0,0-.78,1.13,10.15,10.15,0,0,0-.45,10A23.18,23.18,0,0,0,318.92,171.75Z"/><path class="cls-19" d="M323.32,168.37c-1.36-5.1-3.47-10.4-8-12.78-6.76-3.58-11-1.63-14.17-1.05-2.78.51-5.72.41-12.23-2.52-3.38-1.52-3.87-1.89-4.06-2.23-.08-.16-.07-.33.19-1.23,1.29-4.37,1.23-8.39-8.26-12.95-6.95-3.34-13.32-3.15-16.84-.64a6.09,6.09,0,0,0-.55.46,6,6,0,0,1,2.48.54,4.32,4.32,0,0,1,2.38,2.49c2.09-.43,5.31.33,9.31,2.26,4.63,2.22,6.22,3.71,6.75,4.56.3.51.27.77-.06,1.87-1.13,3.85-.36,6.72,6.92,10,7.93,3.57,11.61,2.9,14.86,2.3,2.65-.48,3.77.5,9,3.27,3.47,1.84,6.67,3.5,7.59,7.61.11.47.19.95.26,1.42A10.59,10.59,0,0,1,323.32,168.37Z"/><path class="cls-7" d="M317.69,182.9a4,4,0,0,1-.41.8,2.5,2.5,0,1,0,4,3c.07-.1.15-.21.22-.33a8.3,8.3,0,0,1-.9-.44A8,8,0,0,1,317.69,182.9Z"/><path class="cls-19" d="M323.54,169.24c-.07-.3-.14-.59-.22-.87a10.59,10.59,0,0,0-4.4,3.38,23.18,23.18,0,0,1-1.23,11.15,8,8,0,0,0,2.9,3,8.3,8.3,0,0,0,.9.44C323.16,183.77,325.13,176.34,323.54,169.24Z"/><path class="cls-19" d="M261.91,136a6,6,0,0,0-2.48-.54c-3.37,2.89-3.41,7.77-3.32,9.38a7.11,7.11,0,0,0,5-.44c0-1.06,0-4.07,1.8-5.34a3.62,3.62,0,0,1,1.4-.57A4.32,4.32,0,0,0,261.91,136Z"/><g class="cls-20"><path class="cls-21" d="M258.64,134.89a11.41,11.41,0,0,0,3.78,6.69"/><path class="cls-21" d="M270.09,133.14a14.55,14.55,0,0,0-1.69,6.61"/><path class="cls-21" d="M280.33,137.18c-.77.68-1.54,1.36-2.27,2.09a5.29,5.29,0,0,0-1.86,3.24"/><path class="cls-21" d="M285.38,149.08a12.13,12.13,0,0,0-2.48.11,6.58,6.58,0,0,0-1.92.41,2.23,2.23,0,0,0-1.31,1.39"/><path class="cls-21" d="M289.5,152.21a8.17,8.17,0,0,0-3,6.56"/><path class="cls-21" d="M296.12,154.29a12,12,0,0,0,1.08,6.62"/><path class="cls-21" d="M306.7,153.16a23.47,23.47,0,0,0-2.11,5.59,1.15,1.15,0,0,0,.07,1"/><path class="cls-21" d="M317.2,156.08a12.31,12.31,0,0,0-6.75,7.3"/><path class="cls-21" d="M322.93,166.7a11.72,11.72,0,0,0-4.65,3.07"/><path class="cls-21" d="M324.37,175.81l-3,0a9.49,9.49,0,0,0-2.86.32"/><path class="cls-21" d="M323.55,182.5a17.26,17.26,0,0,0-5.93-1.73"/></g></g></svg>