<svg id="Layer_1" data-name="Layer 1" xmlns="http://www.w3.org/2000/svg" xmlns:xlink="http://www.w3.org/1999/xlink" viewBox="0 0 480 480"><defs><style>.cls-1{fill:none;}.cls-2{fill:#d9e021;}.cls-3{clip-path:url(#clip-path);}.cls-4{fill:#9ac9b8;}.cls-5{clip-path:url(#clip-path-2);}.cls-6,.cls-8{fill:#181922;}.cls-7{fill:#99d340;}.cls-8{opacity:0.22;}.cls-9{clip-path:url(#clip-path-3);}.cls-10{fill:#bf5f2a;}.cls-11{fill:#d8dfe4;}.cls-12{fill:#241e12;}.cls-13{fill:#635880;}.cls-14{fill:#006837;}.cls-15{clip-path:url(#clip-path-4);}.cls-16{fill:#080a08;}.cls-17{fill:#fc5317;}</style><clipPath id="clip-path"><circle class="cls-1" cx="240" cy="-260" r="227.9"/></clipPath><clipPath id="clip-path-2"><circle class="cls-1" cx="240" cy="240" r="227.9"/></clipPath><clipPath id="clip-path-3"><path class="cls-1" d="M334.75,266.69c-.53,8.78,1.85,18.37-2.17,25.94l-.16.29a35.23,35.23,0,0,1-2.13,3.27,19.71,19.71,0,0,0-2.75,4.88c-.91,2.63-.82,5.56-1.58,8.25a25.11,25.11,0,0,1-3.2,6.38q-2.94,4.68-5.87,9.38l-16.05,25.57c-.32.53-.65,1.05-1,1.58h0c-3.3,5.29-7,12.1-12.1,15.43s-9.53,5.6-14.38,10.38c-5.62,5.51-13.64,6.46-21.09,7.14-3.27.3-6.53.59-9.78.9l-5.34.49c-6.53.6-13.34,1.16-19.4-1.61-8.31-3.78-14.29-11.51-20.3-18.61a44.3,44.3,0,0,0-13.17-10.55c-.91-.5-1.83-1-2.78-1.42s-1.92-.92-2.91-1.35c-5-2.23-10.39-5.79-11.5-11.7-.33-1.74-.27-3.63-1.1-5.15-1.29-2.36-4.12-2.85-6.38-4-3.54-1.8-6-5.59-7.36-9.67-1.91-5.81-2.62-11.73-4.44-17.3-.61-1.87-.15-4-.47-5.9a9.34,9.34,0,0,0-.45-1.67c-.41-1.14-1-2.23-1.42-3.36q-.18-.44-.33-.87c-2.9-8.36.22-17.84,1.16-26.85,1.84-17.67-4.82-34.58-5.32-52.1-.42-14.79.29-30.06,1-44.9,1.31-29.24,7.47-57,27.26-77.71,20.54-21.45,45.37-26.44,72.4-26.44q4.42,0,8.74.19c1.22,0,2.44.13,3.66.2,3.41.25,6.79.59,10.11,1.08,45.39,0,72,64.32,72,64.32s1.69,6.62,2.34,10c.13.66.25,1.32.37,2,2.95,15.86,3,32.29,3,48.41,0,15.56,2.34,32.56-.74,47.87C339.28,248.65,335.31,257.32,334.75,266.69Z"/></clipPath><clipPath id="clip-path-4"><path class="cls-1" d="M272.47,314.91v.51a12.12,12.12,0,0,1-12.12,12.12H228.11A12.12,12.12,0,0,1,216,315.42v-.51a12.12,12.12,0,0,1,12.12-12.12h32.24A12.12,12.12,0,0,1,272.47,314.91Z"/></clipPath></defs><title>Artboard 25</title><circle class="cls-2" cx="241.16" cy="236.77" r="227.9"/><g class="cls-3"><path class="cls-4" d="M216-111.71h51.1a0,0,0,0,1,0,0V4.79a25.55,25.55,0,0,1-25.55,25.55h0A25.55,25.55,0,0,1,216,4.79V-111.71A0,0,0,0,1,216-111.71Z"/></g><g class="cls-5"><path class="cls-6" d="M346.6,234.49c.19,6.74,2.52,13.32,2.37,20.07-.13,5.74-2.05,11.27-3.34,16.86s-1.9,11.67.45,16.91a12.26,12.26,0,0,0,1.27,2.18,732.51,732.51,0,0,1-49.89,178.72H184.4a950.28,950.28,0,0,1-30.19-94,269.53,269.53,0,0,0-1.55-28l-5.31.3c-.1-.48-.21-.95-.32-1.43q-.27-11.94-.54-23.88a6.36,6.36,0,0,0-.88-3.71c-1.23-1.59-3.8-1.8-5-3.24-.2-1-.38-2-.57-3,.07-.38.18-.76.28-1.13l3.51-12.52a46.83,46.83,0,0,1-6.54-2.16c-9.35-57-11.43-111.41-3.33-156A90.48,90.48,0,0,1,224.41,50h33a90.5,90.5,0,0,1,90,81.26c-2.34,6.1-3.46,13.42-2,16.44.6,2.05,1.7,4,1.64,6.13-.09,3.11-2.59,5.57-3.69,8.48-2.4,6.33,2.11,12.9,4.68,19.16,5,12.13,2.72,25.87.2,38.73C347.42,224.92,346.46,229.68,346.6,234.49Z"/><path class="cls-7" d="M214.3,365.29h53.81a0,0,0,0,1,0,0V462a26.91,26.91,0,0,1-26.91,26.91h0A26.91,26.91,0,0,1,214.3,462V365.29A0,0,0,0,1,214.3,365.29Z"/><path class="cls-8" d="M214.3,283.32h53.81a0,0,0,0,1,0,0V406a26.91,26.91,0,0,1-26.91,26.91h0A26.91,26.91,0,0,1,214.3,406V283.32A0,0,0,0,1,214.3,283.32Z"/><path class="cls-7" d="M334.75,266.69c-.53,8.78,1.85,18.37-2.17,25.94l-.16.29a35.23,35.23,0,0,1-2.13,3.27,19.71,19.71,0,0,0-2.75,4.88c-.91,2.63-.82,5.56-1.58,8.25a25.11,25.11,0,0,1-3.2,6.38q-2.94,4.68-5.87,9.38l-16.05,25.57c-.32.53-.65,1.05-1,1.58h0c-3.3,5.29-7,12.1-12.1,15.43s-9.53,5.6-14.38,10.38c-5.62,5.51-13.64,6.46-21.09,7.14-3.27.3-6.53.59-9.78.9l-5.34.49c-6.53.6-13.34,1.16-19.4-1.61-8.31-3.78-14.29-11.51-20.3-18.61a44.3,44.3,0,0,0-13.17-10.55c-.91-.5-1.83-1-2.78-1.42s-1.92-.92-2.91-1.35c-5-2.23-10.39-5.79-11.5-11.7-.33-1.74-.27-3.63-1.1-5.15-1.29-2.36-4.12-2.85-6.38-4-3.54-1.8-6-5.59-7.36-9.67-1.91-5.81-2.62-11.73-4.44-17.3-.61-1.87-.15-4-.47-5.9a9.34,9.34,0,0,0-.45-1.67c-.41-1.14-1-2.23-1.42-3.36q-.18-.44-.33-.87c-2.9-8.36.22-17.84,1.16-26.85,1.84-17.67-4.82-34.58-5.32-52.1-.42-14.79.29-30.06,1-44.9,1.31-29.24,7.47-57,27.26-77.71,20.54-21.45,45.37-26.44,72.4-26.44q4.42,0,8.74.19c1.22,0,2.44.13,3.66.2,3.41.25,6.79.59,10.11,1.08,45.39,0,72,64.32,72,64.32s1.69,6.62,2.34,10c.13.66.25,1.32.37,2,2.95,15.86,3,32.29,3,48.41,0,15.56,2.34,32.56-.74,47.87C339.28,248.65,335.31,257.32,334.75,266.69Z"/><g class="cls-9"><path class="cls-8" d="M273.8,366.35A19.7,19.7,0,0,0,286,374a20,20,0,0,0,14.69-3.61c6.12-6.37,11.68-14,17.16-21.52L342,315.6c.17-.25.36-.49.53-.75,6.12-12.75,5.4-29-2.42-38.94-9.07-11.54-24.27-10.2-33.94,3l-31.25,42.63C265.21,334.74,264.72,354.8,273.8,366.35Z"/><path class="cls-8" d="M208,370a19.68,19.68,0,0,1-12.42,7.17,20,20,0,0,1-14.56-4.12c-5.89-6.58-11.18-14.39-16.39-22.11l-23-34.05c-.16-.26-.34-.51-.5-.77-5.67-13-4.38-29.17,3.78-38.83,9.48-11.21,24.62-9.35,33.82,4.19l29.73,43.7C217.73,338.75,217.51,358.82,208,370Z"/></g><rect class="cls-10" x="162.35" y="84.52" width="159.22" height="49.2"/><path class="cls-8" d="M318.15,226v30.45a17.38,17.38,0,0,1-17.38,17.38l-118.31-.68a17.38,17.38,0,0,1-17.38-17.38V225.28l41.62.69c0-2.44,0-5,.19-7.6V188.7h68.63v29.67c.32,2.62.53,5.16.63,7.6Z"/><path class="cls-11" d="M262.56,224.37l-.29-5.46a25.23,25.23,0,0,1,10.44-21.46c8.67-6.38,16.64-4.95,26.54-3.23a8,8,0,0,1,3.06,1,10.19,10.19,0,0,1,2.21,2.37c2.46,3.06,5.83,5.23,8.54,8.06,4.24,4.43,4.44,10.35,4.75,16.15.74,14.1-10.78,26.1-25.74,26.81l-1.07,0C276,249.33,263.31,238.47,262.56,224.37Z"/><path class="cls-11" d="M165,224.43a23.3,23.3,0,0,1,3.56-16c1.33-2.08,3.18-3.88,4-6.21a14.54,14.54,0,0,1,.67-1.85,6.49,6.49,0,0,1,1.05-1.44c15.07-16.57,48.55-5.64,49.76,17.11l.29,5.62c.77,14.52-12.86,26.88-28.26,27.6l-1.1.06C180.52,250,166.93,238.14,165,224.43Z"/><path class="cls-7" d="M147.31,179.81H330.56v29.66c0-8.46-183.25-8.46-183.25,0Z"/><path class="cls-8" d="M257.44,272.67c0-1.84-30.29-1.84-30.29,0a8.24,8.24,0,0,1-8.14-9.42l3.27-22.9a20.05,20.05,0,0,1,20-20.09h0a20,20,0,0,1,20,20.09l3.27,22.9A8.24,8.24,0,0,1,257.44,272.67Z"/><path class="cls-12" d="M255,268.3c0-1.53-25.34-1.53-25.34,0a6.88,6.88,0,0,1-6.81-7.85l2.74-19.08a16.73,16.73,0,0,1,16.74-16.74h0A16.74,16.74,0,0,1,259,241.37l2.74,19.08A6.88,6.88,0,0,1,255,268.3Z"/><path class="cls-13" d="M348.35,220.2c2.52-12.86,4.77-26.6-.2-38.73-2.57-6.26-7.08-12.83-4.68-19.16,1.1-2.91,3.6-5.37,3.69-8.48.06-2.13-1-4.08-1.64-6.13-1.51-3-.39-10.34,2-16.44a90.5,90.5,0,0,0-90-81.26h-33a90.48,90.48,0,0,0-90.48,90.49c-7.39,40.62-6.31,96.12,1,155a51.48,51.48,0,0,0,8.85,3.14l-3.51,12.52a5.1,5.1,0,0,0-.14,3.48c.94,2.08,4.07,2.09,5.46,3.9a6.36,6.36,0,0,1,.88,3.71l.57,25.32,5.6-.31a270.6,270.6,0,0,1,.67,50.75c4.75,54.07,16.48,84.19,31.07,103.72H297.46c31.73-45.46,45.58-131.76,51.4-209.4a13.63,13.63,0,0,1-2.78-4c-2.35-5.24-1.74-11.31-.45-16.91s3.21-11.12,3.34-16.86c.15-6.75-2.18-13.33-2.37-20.07C346.46,229.68,347.42,224.92,348.35,220.2ZM285.71,460.49H196.24c-33.28-87.69-52.78-227-39.93-297.67a71.6,71.6,0,0,1,71.6-71.61h26.14a71.6,71.6,0,0,1,71.6,71.61C338.76,239,321.2,376.67,285.71,460.49Z"/><path class="cls-7" d="M256,93.73a170.14,170.14,0,0,1,20.19,39.82l-18.08-14.63a15.63,15.63,0,0,1,4.43,11.14l-11.75-7.39-.29,8.62a3.58,3.58,0,0,0,3.9,4.52,205.06,205.06,0,0,0,28.67,1.47c8-.15,18.8.07,10.61-9.47a202.32,202.32,0,0,0-18.19-18.5q-4.83-4.35-9.91-8.39C263,98.84,257.87,96.43,256,93.73Z"/><path class="cls-12" d="M262,194.17c0,3.81,46.72,3.81,46.72,0a3.71,3.71,0,0,0,3.7-3.71h0a3.7,3.7,0,0,0-3.7-3.7c0,6.85-46.72,6.85-46.72,0a3.71,3.71,0,0,0-3.71,3.7h0A3.71,3.71,0,0,0,262,194.17Z"/><path class="cls-12" d="M171.07,194.17c0,3.81,46.71,3.81,46.71,0a3.71,3.71,0,0,0,3.71-3.71h0a3.71,3.71,0,0,0-3.71-3.7c0,6.85-46.71,6.85-46.71,0a3.71,3.71,0,0,0-3.71,3.7h0A3.71,3.71,0,0,0,171.07,194.17Z"/><path class="cls-8" d="M218.41,342.14s49.37,0,47.1,10.54Z"/><rect class="cls-14" x="221.85" y="302.66" width="7.42" height="34.62" rx="3.71" transform="translate(451.12 639.94) rotate(-180)"/><rect class="cls-14" x="216.77" y="309.76" width="7.42" height="55.94" rx="3.71" transform="translate(440.96 675.47) rotate(180)"/><g class="cls-15"><path class="cls-16" d="M272.47,314.91v.51a12.12,12.12,0,0,1-12.12,12.12H228.11A12.12,12.12,0,0,1,216,315.42v-.51a12.12,12.12,0,0,1,12.12-12.12h32.24A12.12,12.12,0,0,1,272.47,314.91Z"/><path class="cls-17" d="M277.49,330.91c-6.33,8.19-20.51,5.59-37.49,5.18-14.59-.37-27.6,1-34.21-4,7.19-12.83,22-21.55,38.3-21.15C259.18,311.3,271.67,319.35,277.49,330.91Z"/></g></g></svg>