<svg id="Layer_1" data-name="Layer 1" xmlns="http://www.w3.org/2000/svg" xmlns:xlink="http://www.w3.org/1999/xlink" viewBox="0 0 480 480"><defs><style>.cls-1{fill:none;}.cls-2{fill:#d9e021;}.cls-3{clip-path:url(#clip-path);}.cls-4{fill:#b89b5b;}.cls-5{fill:#181922;opacity:0.22;}.cls-6{fill:#5f3022;}.cls-7{fill:#7c525b;}.cls-8{fill:#f2f2f2;}.cls-9{fill:#030a17;}.cls-10{fill:#8d7844;}.cls-11{fill:#270000;}.cls-12{fill:#512619;}.cls-13{fill:#7a683a;}.cls-14{fill:#e8cc00;}</style><clipPath id="clip-path"><circle class="cls-1" cx="240" cy="240" r="227.9"/></clipPath></defs><title>Artboard 4</title><circle class="cls-2" cx="241.16" cy="236.77" r="227.9"/><g class="cls-3"><path class="cls-4" d="M223.49,346.66h61a0,0,0,0,1,0,0V485.5a22.7,22.7,0,0,1-22.7,22.7H246.19a22.7,22.7,0,0,1-22.7-22.7V346.66A0,0,0,0,1,223.49,346.66Z"/><path class="cls-5" d="M223.49,287.85h61a0,0,0,0,1,0,0v139A30.49,30.49,0,0,1,254,457.33h0a30.49,30.49,0,0,1-30.49-30.49v-139A0,0,0,0,1,223.49,287.85Z"/><path class="cls-4" d="M397.87,247.27c-.14.41-.27.81-.4,1.23a7.41,7.41,0,0,0-4.9,4.78,10.32,10.32,0,0,0,.89,7.56c-.29.85-.57,1.7-.87,2.54-3.67.34-7.06,4.11-7.48,8.05a15.32,15.32,0,0,0,1,6.88c-.68,1.2-1.4,2.37-2.17,3.52-5.22,7.76-13.1,14.31-22.87,16.21-3.6.7-7.67.68-10.83-1.32-5.86-3.71-5.34-12.14-1.41-17.2s-7.82-14.11-3-18.5c8.44-7.77,9.73-17.63,13.8-27.51,1.76-4.28,16.15-5.74,26.84-4.36-.34,3.8.21,7.73,1.33,9.58A23.49,23.49,0,0,0,397.87,247.27Z"/><path class="cls-4" d="M85.66,233.56c-4.79,3-3.82,9.51-2.23,14.42l3.23,10c2.86,8.85,5.77,17.8,11,25.55s13.09,14.31,22.87,16.21c3.6.7,7.67.68,10.83-1.32,5.86-3.71,5.34-12.14,1.41-17.2s7.81-14.11,3-18.49c-8.44-7.77-9.73-17.64-13.8-27.52C119.6,229.33,93.43,228.75,85.66,233.56Z"/><path class="cls-4" d="M363.68,264.56c-.16,12.73-.34,25.66-4,37.84a74,74,0,0,1-2.64,7.26c-.11.3-.23.58-.36.88a187.54,187.54,0,0,1-10.46,19.89q-11.35,19.65-22.72,39.29c-1.73,3-3.47,6-5.31,9A93.47,93.47,0,0,1,310,390.09a65.76,65.76,0,0,1-7.33,7.4c-26.86,23.15-67.1,19.68-96.52,1.85-.23-.13-.46-.27-.68-.42-6.46-4-11.91-9.41-16.91-15.23-3-3.47-5.81-7.1-8.61-10.69-11.17-14.37-30.44-16.51-37.78-33.17-1.27-2.89-2.42-5.83-3.45-8.79-.9-2.57-1.71-5.15-2.47-7.77-3.29-11.34-5.37-23.09-7.43-34.74-4-22.74-8.05-45.75-6.65-68.8,1.09-18.06,5.48-35.73,9.86-53.27,1.48-5.92,3-11.86,4.61-17.75.53-.3,1-.63,1.55-1,2.74-1.88,9,.41,11.19-2.1l10.25-11.82c6.66-7.68,13.47-15.64,16.6-25.31,2.09-6.43,2.42-13.32,2-20.06-.15-2.25-.39-4.5-.76-6.72,26.76-18.87,62.63-21.18,94.62-5.81,33.47,16.08,68.05,48.47,72.46,86.79,1.77,15.44-.44,31.69,5.51,46,2.41,5.82,6.07,11.05,8.59,16.82C363.92,237.67,363.84,251.35,363.68,264.56Z"/><path class="cls-6" d="M184,296.65l1.85.09a46.79,46.79,0,0,0,49.07-44.4l.27-5.52H139.66l0,.77A46.79,46.79,0,0,0,184,296.65Z"/><path class="cls-6" d="M294.54,294.17l1.6.08a40.52,40.52,0,0,0,42.49-38.45l.24-4.78H256.13l0,.67A40.52,40.52,0,0,0,294.54,294.17Z"/><path class="cls-7" d="M257,249.7l-.41-7.86a36.38,36.38,0,0,1,15.05-31c12.51-9.19,24-7.14,38.26-4.66a11.76,11.76,0,0,1,4.41,1.4,14.89,14.89,0,0,1,3.2,3.42c3.53,4.41,8.4,7.54,12.31,11.63,6.1,6.39,6.4,14.91,6.84,23.27,1.08,20.34-15.54,37.64-37.11,38.66l-1.54.07C276.41,285.7,258.05,270,257,249.7Z"/><path class="cls-8" d="M259.52,249.36l-.39-7.36a34,34,0,0,1,14.09-29c11.7-8.6,22.45-6.68,35.8-4.36a10.93,10.93,0,0,1,4.13,1.31,14,14,0,0,1,3,3.2c3.31,4.13,7.86,7.06,11.52,10.88,5.71,6,6,14,6.4,21.79,1,19-14.54,35.22-34.73,36.17l-1.44.07C277.7,283.05,260.52,268.39,259.52,249.36Z"/><path class="cls-7" d="M146.22,249.91a33.26,33.26,0,0,1,5.08-22.84c1.9-3,4.55-5.54,5.73-8.87a21.36,21.36,0,0,1,.95-2.65,10.1,10.1,0,0,1,1.51-2.06c21.52-23.65,69.33-8,71,24.45l.42,8c1.1,20.74-18.36,38.39-40.36,39.42l-1.57.08C168.35,286.42,149,269.49,146.22,249.91Z"/><path class="cls-8" d="M149.13,249.49a31,31,0,0,1,4.73-21.27c1.77-2.77,4.23-5.16,5.34-8.25a21.47,21.47,0,0,1,.88-2.48,9.33,9.33,0,0,1,1.41-1.91c20-22,64.54-7.49,66.15,22.76l.39,7.46c1,19.31-17.1,35.74-37.57,36.7l-1.47.07C169.74,283.48,151.68,267.71,149.13,249.49Z"/><path class="cls-9" d="M181.66,243.09v-1c0-2.62,1.53-4.8,3.45-4.87h.14c1.91-.07,3.47,2,3.47,4.63v1c0,2.63-1.54,4.81-3.45,4.88h-.14C183.23,247.79,181.67,245.71,181.66,243.09Z"/><path class="cls-9" d="M294.06,243.48v-.93c0-2.41,1.41-4.41,3.17-4.47h.12c1.76-.06,3.19,1.84,3.19,4.25v.93c0,2.41-1.41,4.41-3.17,4.48h-.12C295.5,247.79,294.07,245.89,294.06,243.48Z"/><path class="cls-10" d="M357,309.66c-.11.3-.23.58-.36.88a187.54,187.54,0,0,1-10.46,19.89q-11.35,19.65-22.72,39.29c-1.73,3-3.47,6-5.31,9A93.47,93.47,0,0,1,310,390.09a65.76,65.76,0,0,1-7.33,7.4c-6.3-9.24-7.72-22.87-2.78-34.19l20.39-46.6c6.32-14.42,20.6-19.61,31.92-11.57A24.52,24.52,0,0,1,357,309.66Z"/><path class="cls-10" d="M205.48,398.92c-6.46-4-11.91-9.41-16.91-15.23-3-3.47-5.81-7.1-8.61-10.69-11.17-14.37-30.44-16.51-37.78-33.17-1.27-2.89-2.42-5.83-3.45-8.79-.9-2.57-1.71-5.15-2.47-7.77a27.4,27.4,0,0,1,6.51-7.16c11.87-9.09,28-5.54,36,7.94l25.84,43.55A32.83,32.83,0,0,1,205.48,398.92Z"/><path class="cls-11" d="M202.2,348.34h0a13.29,13.29,0,0,0,13.3,13.3s70.69-2.68,70.69,11.24,13.36-17.19,13.36-24.54h0a13.29,13.29,0,0,0-13.3-13.3H215.5A13.29,13.29,0,0,0,202.2,348.34Z"/><circle class="cls-4" cx="371.08" cy="276.22" r="10.92"/><circle class="cls-4" cx="124.06" cy="276.22" r="10.92"/><path class="cls-12" d="M266.93,253.79v43.92H266A12.24,12.24,0,0,0,253.79,310v7.83a17.09,17.09,0,0,1-5.13.78H245a16.9,16.9,0,0,1-5.3-.84V310a12.24,12.24,0,0,0-12.24-12.24h-.74V253.79c0-10.77,8.18-19.52,18.28-19.52l3.69-11.39C258.75,222.88,266.93,243,266.93,253.79Z"/><path class="cls-11" d="M313.19,121c.93.49,4.76,2.55,4.15,4.12-.68,1.73-4.61.71-5.62,0a4.13,4.13,0,0,0-1.79-1,3.71,3.71,0,0,1-1.11-.08,1.66,1.66,0,0,1-.64-.62l-1.05-1.48a2,2,0,0,1-.49-1.11C306.61,117.89,312.34,120.49,313.19,121Z"/><path class="cls-11" d="M315.71,131.87c1.47.78,6.31,3.73,3,5.42-1,.51-2.18-.17-3.1-.82l-4.44-3.15c-1.17-.83-2.48-2.5-.43-2.95C312.26,130,314.4,131.16,315.71,131.87Z"/><polygon class="cls-12" points="331.76 94.71 320.84 102.27 321.79 101.03 312.48 122.27 311.21 121.83 317.02 99.38 317.21 98.66 317.97 98.13 328.89 90.57 331.76 94.71"/><path class="cls-12" d="M326.58,86A15,15,0,0,1,330,88.6a22.41,22.41,0,0,1,2.65,3.13,15.63,15.63,0,0,1,2,3.58,10.68,10.68,0,0,1,.75,4.44l-2.54,1.74A10.75,10.75,0,0,1,329,99.21a16,16,0,0,1-2.63-3.14,23.08,23.08,0,0,1-2-3.59,15.3,15.3,0,0,1-1.21-4.12Z"/><polygon class="cls-12" points="340.43 111.14 328.12 116.15 329.32 115.14 315.61 133.85 314.48 133.15 325.02 112.49 325.36 111.83 326.22 111.48 338.52 106.47 340.43 111.14"/><path class="cls-12" d="M337.26,101.51a15.33,15.33,0,0,1,2.77,3.28,23.27,23.27,0,0,1,1.9,3.63,15.51,15.51,0,0,1,1.17,3.93,10.7,10.7,0,0,1-.24,4.49L340,118a10.52,10.52,0,0,1-3.29-3.07,15.31,15.31,0,0,1-1.89-3.63,22.85,22.85,0,0,1-1.14-3.94,15,15,0,0,1-.29-4.28Z"/><path class="cls-12" d="M163.32,67.5a6.38,6.38,0,0,1,2.74.74,15.48,15.48,0,0,1,2.32,1.39,35.75,35.75,0,0,1,4,3.44A72.85,72.85,0,0,1,179.28,81a90.66,90.66,0,0,1,5.87,8.74,44.91,44.91,0,0,1,4.51,10L183.91,101A39.57,39.57,0,0,0,181,91.87,84.44,84.44,0,0,0,176.37,83a69.71,69.71,0,0,0-5.69-8.31A33.62,33.62,0,0,0,167.3,71a14.14,14.14,0,0,0-1.93-1.48,5.26,5.26,0,0,0-2.1-.86Z"/><path class="cls-12" d="M153.79,112.13a6.22,6.22,0,0,1,3.74-.1,21.23,21.23,0,0,1,3.43,1.14,42.21,42.21,0,0,1,6.27,3.41A52.41,52.41,0,0,1,173,120.9a26.74,26.74,0,0,1,5,5.59l-3.75,2a23,23,0,0,0-3.66-5.21,49,49,0,0,0-4.86-4.69,39.53,39.53,0,0,0-5.51-3.95,18.45,18.45,0,0,0-3-1.44,5.25,5.25,0,0,0-3.09-.34Z"/><path class="cls-12" d="M162.83,92A5.36,5.36,0,0,0,164,94.89a18.81,18.81,0,0,0,2.23,2.5,39.47,39.47,0,0,0,5.32,4.2,48,48,0,0,0,5.85,3.36,23.11,23.11,0,0,0,6,2.09l-.93,4.16a26.7,26.7,0,0,1-6.76-3.28,50.75,50.75,0,0,1-5.73-4.31,42.18,42.18,0,0,1-5-5.08,18.73,18.73,0,0,1-2.05-3,6.2,6.2,0,0,1-.94-3.62Z"/><path class="cls-12" d="M146.5,121.94a3.62,3.62,0,0,1,1.77-.17,8.86,8.86,0,0,1,1.64.36,23,23,0,0,1,3,1.26,45.27,45.27,0,0,1,5.54,3.38,56.35,56.35,0,0,1,5.09,4.07,28,28,0,0,1,4.51,5l-3.19,1.85a25.2,25.2,0,0,0-3.43-4.83,50.27,50.27,0,0,0-4.35-4.41,42,42,0,0,0-4.9-3.84,19.14,19.14,0,0,0-2.68-1.51,4.82,4.82,0,0,0-2.79-.54Z"/><path class="cls-12" d="M137.17,173a32.12,32.12,0,0,0-11.75-.47,47.77,47.77,0,0,0-11.71,3.28l-.4-.83A49.64,49.64,0,0,1,125,170.28a35.06,35.06,0,0,1,12.86-.9Z"/><path class="cls-12" d="M133.93,185.49a33.42,33.42,0,0,0-8.11-4.42,19.31,19.31,0,0,0-4.51-.92,44.42,44.42,0,0,0-4.77-.09l-.08-.92a45.3,45.3,0,0,1,4.87-.6,22,22,0,0,1,5,.29,36.71,36.71,0,0,1,9.44,3.49Z"/><path class="cls-7" d="M136.82,218.7c5.93-12.31,17.53-21.19,30.16-26.39s27.66-6.83,41.1,2.41c-9.92-4.34-21.61-4.31-31.94-1.05a45.68,45.68,0,0,0-25,19.63,9.61,9.61,0,0,1-2.18,2.82C145.64,218.64,140.58,217,136.82,218.7Z"/><path class="cls-7" d="M341.51,218.7c-5.93-12.31-17.52-21.19-30.16-26.39s-27.65-6.83-41.1,2.41c9.92-4.34,21.61-4.31,31.94-1.05a45.7,45.7,0,0,1,25,19.63,9.58,9.58,0,0,0,2.17,2.82C332.69,218.64,337.75,217,341.51,218.7Z"/><path class="cls-13" d="M210.6,368.64s73.1,0,69.74,9.25"/><path class="cls-10" d="M242.67,73.71l6.94-2.36c1.37-.47,4,.08,7.14,1.47L273,80.12c7.44,3.33,13,9.32,9.71,10.45l-6.94,2.36c-1.37.47-4-.09-7.14-1.48l-16.25-7.29C245,80.82,239.38,74.83,242.67,73.71Z"/><path class="cls-10" d="M288.92,95.35l3.28-1.22c.65-.24,1.87.14,3.27,1l7.35,4.55c3.35,2.08,5.78,5.64,4.22,6.22l-3.28,1.21c-.65.24-1.87-.13-3.27-1l-7.34-4.54C289.79,99.49,287.36,95.92,288.92,95.35Z"/><path class="cls-13" d="M255.13,331.64a46,46,0,0,1-15.8,1.41c-.39-.74.57-1.46,1.36-1.73C244.12,330.14,253.37,326.86,255.13,331.64Z"/><path class="cls-13" d="M283.28,333.73a45.89,45.89,0,0,1-15.6-2.83c-.18-.82.93-1.26,1.77-1.31C273.07,329.36,282.86,328.65,283.28,333.73Z"/><path class="cls-14" d="M270.47,332.07l.06,9.51a3.37,3.37,0,0,0,3.39,3.36l5.24,0a3.38,3.38,0,0,0,3.35-3.4l-.05-8.81a101.08,101.08,0,0,0-11.94-1.15A2.94,2.94,0,0,0,270.47,332.07Z"/><path class="cls-14" d="M254,331.23l-.06,9.51a3.37,3.37,0,0,1-3.39,3.36l-5.24,0a3.38,3.38,0,0,1-3.35-3.4l.05-8.81a101.08,101.08,0,0,1,11.94-1.15A2.94,2.94,0,0,1,254,331.23Z"/><path class="cls-13" d="M233.2,362.32a45.82,45.82,0,0,1,15.74,1.92c.23.81-.86,1.31-1.69,1.41C243.65,366.08,233.92,367.37,233.2,362.32Z"/><path class="cls-14" d="M246.78,364l-.05-9.51a3.37,3.37,0,0,0-3.39-3.36l-5.24,0a3.37,3.37,0,0,0-3.35,3.4l0,8.8a99.36,99.36,0,0,0,12,1.15A2.92,2.92,0,0,0,246.78,364Z"/><path class="cls-13" d="M211.35,362.32a45.87,45.87,0,0,1,15.75,1.92c.23.81-.86,1.31-1.7,1.41C221.8,366.08,212.08,367.37,211.35,362.32Z"/><path class="cls-14" d="M225.38,363.76l-.06-9.51a3.37,3.37,0,0,0-3.39-3.36l-5.23,0a3.38,3.38,0,0,0-3.36,3.4l0,8.8a99.36,99.36,0,0,0,12,1.15A2.92,2.92,0,0,0,225.38,363.76Z"/></g></svg>